G04*
G04 #@! TF.GenerationSoftware,Altium Limited,Altium Designer,24.1.2 (44)*
G04*
G04 Layer_Color=16711935*
%FSLAX44Y44*%
%MOMM*%
G71*
G04*
G04 #@! TF.SameCoordinates,0A8073CA-4D69-4BD4-B8E1-8B9189CEBFBB*
G04*
G04*
G04 #@! TF.FilePolarity,Positive*
G04*
G01*
G75*
%ADD12C,0.1500*%
%ADD14C,0.2000*%
%ADD16C,0.0762*%
%ADD87C,0.1000*%
%ADD88R,0.8000X4.5000*%
%ADD89C,0.0254*%
D12*
X988820Y1202690D02*
G03*
X988820Y1202690I-65529J0D01*
G01*
X1776219D02*
G03*
X1776219Y1202690I-65529J0D01*
G01*
X1598419D02*
G03*
X1598419Y1202690I-65529J0D01*
G01*
X1382520D02*
G03*
X1382520Y1202690I-65529J0D01*
G01*
X1204719D02*
G03*
X1204719Y1202690I-65529J0D01*
G01*
X811020D02*
G03*
X811020Y1202690I-65529J0D01*
G01*
X595120D02*
G03*
X595120Y1202690I-65529J0D01*
G01*
X417319D02*
G03*
X417319Y1202690I-65529J0D01*
G01*
D14*
X409820Y758040D02*
Y771040D01*
X392820Y758040D02*
X409820D01*
X392820D02*
Y771040D01*
X409820D01*
X408550Y910440D02*
Y923440D01*
X391550Y910440D02*
X408550D01*
X391550D02*
Y923440D01*
X408550D01*
X727265Y488570D02*
X733565D01*
X727265D02*
Y491870D01*
X733565D01*
Y488570D02*
Y491870D01*
X648790Y417650D02*
Y458650D01*
X689790D01*
Y417650D02*
Y458650D01*
X648790Y417650D02*
X689790D01*
X1344950Y754020D02*
X1410950D01*
X1344950Y709020D02*
Y754020D01*
Y709020D02*
X1410950D01*
Y754020D01*
X1720200Y319410D02*
X1746900D01*
Y374010D01*
X1720200D02*
X1746900D01*
X1720200Y319410D02*
Y374010D01*
X1687450Y461785D02*
X1690750D01*
X1687450Y455485D02*
Y461785D01*
Y455485D02*
X1690750D01*
Y461785D01*
X1598320Y494920D02*
Y498220D01*
Y494920D02*
X1604620D01*
Y498220D01*
X1598320D02*
X1604620D01*
X1572150Y513270D02*
X1590150D01*
X1572150Y479270D02*
Y513270D01*
Y479270D02*
X1590150D01*
Y513270D01*
X1583210Y443120D02*
Y461120D01*
X1549210D02*
X1583210D01*
X1549210Y443120D02*
Y461120D01*
Y443120D02*
X1583210D01*
X1562925Y430150D02*
Y433450D01*
Y430150D02*
X1569225D01*
Y433450D01*
X1562925D02*
X1569225D01*
X1546415Y610490D02*
Y613790D01*
Y610490D02*
X1552715D01*
Y613790D01*
X1546415D02*
X1552715D01*
X1566700Y623460D02*
Y641460D01*
X1532700D02*
X1566700D01*
X1532700Y623460D02*
Y641460D01*
Y623460D02*
X1566700D01*
X1574190Y666370D02*
Y669670D01*
Y666370D02*
X1580490D01*
Y669670D01*
X1574190D02*
X1580490D01*
X1349820Y548530D02*
Y566530D01*
Y548530D02*
X1383820D01*
Y566530D01*
X1349820D02*
X1383820D01*
X1370940Y574930D02*
Y578230D01*
X1364640D02*
X1370940D01*
X1364640Y574930D02*
Y578230D01*
Y574930D02*
X1370940D01*
X1438530Y531685D02*
X1441830D01*
Y537985D01*
X1438530D02*
X1441830D01*
X1438530Y531685D02*
Y537985D01*
X1410860Y551970D02*
X1428860D01*
X1410860Y517970D02*
Y551970D01*
Y517970D02*
X1428860D01*
Y551970D01*
X1453490Y424070D02*
Y427370D01*
X1447190D02*
X1453490D01*
X1447190Y424070D02*
Y427370D01*
Y424070D02*
X1453490D01*
X1433040Y395130D02*
Y413130D01*
Y395130D02*
X1467040D01*
Y413130D01*
X1433040D02*
X1467040D01*
X1391230Y328050D02*
X1400230D01*
Y345050D01*
X1391230D02*
X1400230D01*
X1391230Y328050D02*
Y345050D01*
X1518540Y377850D02*
X1521840D01*
Y384150D01*
X1518540D02*
X1521840D01*
X1518540Y377850D02*
Y384150D01*
X1490870Y398300D02*
X1508870D01*
X1490870Y364300D02*
Y398300D01*
Y364300D02*
X1508870D01*
Y398300D01*
X1630490Y360790D02*
X1664490D01*
Y342790D02*
Y360790D01*
X1630490Y342790D02*
X1664490D01*
X1630490D02*
Y360790D01*
X1672760Y374440D02*
Y379940D01*
X1662260D02*
X1672760D01*
X1662260Y374440D02*
Y379940D01*
Y374440D02*
X1672760D01*
X1708770Y531490D02*
X1735470D01*
X1708770Y476890D02*
Y531490D01*
Y476890D02*
X1735470D01*
Y531490D01*
X1654430Y540830D02*
Y548830D01*
Y540830D02*
X1670430D01*
Y548830D01*
X1654430D02*
X1670430D01*
X1642930Y477920D02*
Y527920D01*
Y477920D02*
X1681930D01*
Y527920D01*
X1642930D02*
X1681930D01*
X505900Y279230D02*
Y306230D01*
Y279230D02*
X539900D01*
Y306230D01*
X505900D02*
X539900D01*
X518985Y315850D02*
Y319150D01*
Y315850D02*
X525285D01*
Y319150D01*
X518985D02*
X525285D01*
X264500Y543930D02*
X434000D01*
X264500Y355230D02*
Y543930D01*
Y355230D02*
X434000D01*
Y543930D01*
X552840Y939110D02*
Y948110D01*
Y939110D02*
X569840D01*
Y948110D01*
X552840D02*
X569840D01*
X504580Y940380D02*
Y949380D01*
Y940380D02*
X521580D01*
Y949380D01*
X504580D02*
X521580D01*
X451360Y941650D02*
Y950650D01*
Y941650D02*
X468360D01*
Y950650D01*
X451360D02*
X468360D01*
D16*
X774100Y820479D02*
X782564Y812016D01*
X774100D02*
X782564Y820479D01*
X774100Y816247D02*
X782564D01*
X778332Y812016D02*
Y820479D01*
D87*
X825080Y329190D02*
G03*
X825080Y329190I-5000J0D01*
G01*
X1544265Y479260D02*
G03*
X1544265Y479260I-5000J0D01*
G01*
X551420Y920830D02*
X569420D01*
X551420Y930830D02*
X569420D01*
Y920830D02*
Y930830D01*
X551420Y920830D02*
Y930830D01*
X502460Y922100D02*
X520460D01*
X502460Y932100D02*
X520460D01*
Y922100D02*
Y932100D01*
X502460Y922100D02*
Y932100D01*
X449120Y922100D02*
X467120D01*
X449120Y932100D02*
X467120D01*
Y922100D02*
Y932100D01*
X449120Y922100D02*
Y932100D01*
X394510Y854790D02*
X412510D01*
X394510Y864790D02*
X412510D01*
Y854790D02*
Y864790D01*
X394510Y854790D02*
Y864790D01*
X1331750Y474260D02*
Y511260D01*
X1398750Y474260D02*
Y511260D01*
X1331750Y474260D02*
X1398750D01*
X1331750Y511260D02*
X1398750D01*
X796530Y453470D02*
X814530D01*
X796530Y463470D02*
X814530D01*
Y453470D02*
Y463470D01*
X796530Y453470D02*
Y463470D01*
X795830Y421720D02*
X813830D01*
X795830Y431720D02*
X813830D01*
Y421720D02*
Y431720D01*
X795830Y421720D02*
Y431720D01*
Y405210D02*
X813830D01*
X795830Y415210D02*
X813830D01*
Y405210D02*
Y415210D01*
X795830Y405210D02*
Y415210D01*
X722870Y469980D02*
X740870D01*
X722870Y479980D02*
X740870D01*
Y469980D02*
Y479980D01*
X722870Y469980D02*
Y479980D01*
Y463470D02*
X740870D01*
X722870Y453470D02*
X740870D01*
X722870D02*
Y463470D01*
X740870Y453470D02*
Y463470D01*
X722520Y448230D02*
X740520D01*
X722520Y438230D02*
X740520D01*
X722520D02*
Y448230D01*
X740520Y438230D02*
Y448230D01*
X723440Y410130D02*
X741440D01*
X723440Y400130D02*
X741440D01*
X723440D02*
Y410130D01*
X741440Y400130D02*
Y410130D01*
X723440Y392350D02*
X741440D01*
X723440Y382350D02*
X741440D01*
X723440D02*
Y392350D01*
X741440Y382350D02*
Y392350D01*
X590090Y333930D02*
X608090D01*
X590090Y323930D02*
X608090D01*
X590090D02*
Y333930D01*
X608090Y323930D02*
Y333930D01*
X539990Y365680D02*
X557990D01*
X539990Y355680D02*
X557990D01*
X539990D02*
Y365680D01*
X557990Y355680D02*
Y365680D01*
X415370Y554530D02*
Y572530D01*
X425370Y554530D02*
Y572530D01*
X415370Y554530D02*
X425370D01*
X415370Y572530D02*
X425370D01*
X389970Y554530D02*
Y572530D01*
X399970Y554530D02*
Y572530D01*
X389970Y554530D02*
X399970D01*
X389970Y572530D02*
X399970D01*
X424100Y327900D02*
Y345900D01*
X414100Y327900D02*
Y345900D01*
X424100D01*
X414100Y327900D02*
X424100D01*
X477789Y379730D02*
X568689D01*
X477790Y506730D02*
X568690D01*
Y379730D02*
Y506730D01*
X477790Y379730D02*
Y506730D01*
X734560Y281060D02*
X766560D01*
X734560Y298060D02*
X766560D01*
Y281060D02*
Y298060D01*
X734560Y281060D02*
Y298060D01*
X734580Y343290D02*
X766580D01*
X734580Y360290D02*
X766580D01*
Y343290D02*
Y360290D01*
X734580Y343290D02*
Y360290D01*
X811080Y289190D02*
X850080D01*
X811080Y338190D02*
X850080D01*
Y289190D02*
Y338190D01*
X811080Y289190D02*
Y338190D01*
X279850Y682590D02*
Y935390D01*
X367850D01*
Y682590D02*
Y935390D01*
X279850Y682590D02*
X367850D01*
X1537860Y652520D02*
X1555860D01*
X1537860Y683520D02*
X1555860D01*
Y652520D02*
Y683520D01*
X1537860Y652520D02*
Y683520D01*
X1372950Y326630D02*
X1382950D01*
X1372950Y344630D02*
X1382950D01*
X1372950Y326630D02*
Y344630D01*
X1382950Y326630D02*
Y344630D01*
X1413030Y356320D02*
X1480030D01*
X1413030Y319320D02*
X1480030D01*
Y356320D01*
X1413030Y319320D02*
Y356320D01*
X1610910Y329410D02*
X1647910D01*
X1610910Y262410D02*
X1647910D01*
X1610910D02*
Y329410D01*
X1647910Y262410D02*
Y329410D01*
X1709720Y332730D02*
Y375930D01*
X1683720Y332730D02*
Y375930D01*
X1709720D01*
X1683720Y332730D02*
X1709720D01*
X1613990Y371710D02*
X1634990D01*
X1613990Y385210D02*
X1634990D01*
Y371710D02*
Y385210D01*
X1613990Y371710D02*
Y385210D01*
X1428570Y709060D02*
X1449570D01*
X1428570Y695560D02*
X1449570D01*
X1428570D02*
Y709060D01*
X1449570Y695560D02*
Y709060D01*
X1305160Y647520D02*
Y668520D01*
X1318660Y647520D02*
Y668520D01*
X1305160Y647520D02*
X1318660D01*
X1305160Y668520D02*
X1318660D01*
X1385170Y652280D02*
Y673280D01*
X1398670Y652280D02*
Y673280D01*
X1385170Y652280D02*
X1398670D01*
X1385170Y673280D02*
X1398670D01*
X1359770Y647520D02*
Y668520D01*
X1373270Y647520D02*
Y668520D01*
X1359770Y647520D02*
X1373270D01*
X1359770Y668520D02*
X1373270D01*
X1331830Y647520D02*
Y668520D01*
X1345330Y647520D02*
Y668520D01*
X1331830Y647520D02*
X1345330D01*
X1331830Y668520D02*
X1345330D01*
X1411840Y652280D02*
Y673280D01*
X1425340Y652280D02*
Y673280D01*
X1411840Y652280D02*
X1425340D01*
X1411840Y673280D02*
X1425340D01*
X1438510Y652280D02*
Y673280D01*
X1452010Y652280D02*
Y673280D01*
X1438510Y652280D02*
X1452010D01*
X1438510Y673280D02*
X1452010D01*
X734580Y312810D02*
Y329810D01*
X766580Y312810D02*
Y329810D01*
X734580D02*
X766580D01*
X734580Y312810D02*
X766580D01*
X476640Y315730D02*
X493640D01*
X476640Y283730D02*
X493640D01*
Y315730D01*
X476640Y283730D02*
Y315730D01*
X554110Y283730D02*
X571110D01*
X554110Y315730D02*
X571110D01*
X554110Y283730D02*
Y315730D01*
X571110Y283730D02*
Y315730D01*
X1522765Y515760D02*
X1548765D01*
X1522765Y469760D02*
X1548765D01*
X1522765D02*
Y515760D01*
X1548765Y469760D02*
Y515760D01*
D88*
X363850Y808990D02*
D03*
D89*
X773465Y625285D02*
Y827215D01*
X975395D01*
Y625285D02*
Y827215D01*
X773465Y625285D02*
X975395D01*
X773465Y814514D02*
X786165Y827215D01*
X975395Y815146D02*
X985428D01*
Y812353D02*
Y815146D01*
X975395Y812353D02*
X985428D01*
X975395D02*
Y815146D01*
Y810146D02*
X985428D01*
Y807353D02*
Y810146D01*
X975395Y807353D02*
X985428D01*
X975395D02*
Y810146D01*
Y805146D02*
X985428D01*
Y802353D02*
Y805146D01*
X975395Y802353D02*
X985428D01*
X975395D02*
Y805146D01*
Y800146D02*
X985428D01*
Y797353D02*
Y800146D01*
X975395Y797353D02*
X985428D01*
X975395D02*
Y800146D01*
Y795146D02*
X985428D01*
Y792353D02*
Y795146D01*
X975395Y792353D02*
X985428D01*
X975395D02*
Y795146D01*
Y790146D02*
X985428D01*
Y787353D02*
Y790146D01*
X975395Y787353D02*
X985428D01*
X975395D02*
Y790146D01*
Y785146D02*
X985428D01*
Y782353D02*
Y785146D01*
X975395Y782353D02*
X985428D01*
X975395D02*
Y785146D01*
Y780146D02*
X985428D01*
Y777353D02*
Y780146D01*
X975395Y777353D02*
X985428D01*
X975395D02*
Y780146D01*
Y775146D02*
X985428D01*
Y772353D02*
Y775146D01*
X975395Y772353D02*
X985428D01*
X975395D02*
Y775146D01*
Y770146D02*
X985428D01*
Y767353D02*
Y770146D01*
X975395Y767353D02*
X985428D01*
X975395D02*
Y770146D01*
Y765146D02*
X985428D01*
Y762353D02*
Y765146D01*
X975395Y762353D02*
X985428D01*
X975395D02*
Y765146D01*
Y760146D02*
X985428D01*
Y757353D02*
Y760146D01*
X975395Y757353D02*
X985428D01*
X975395D02*
Y760146D01*
Y755146D02*
X985428D01*
Y752353D02*
Y755146D01*
X975395Y752353D02*
X985428D01*
X975395D02*
Y755146D01*
Y750146D02*
X985428D01*
Y747353D02*
Y750146D01*
X975395Y747353D02*
X985428D01*
X975395D02*
Y750146D01*
Y745146D02*
X985428D01*
Y742353D02*
Y745146D01*
X975395Y742353D02*
X985428D01*
X975395D02*
Y745146D01*
Y740146D02*
X985428D01*
Y737353D02*
Y740146D01*
X975395Y737353D02*
X985428D01*
X975395D02*
Y740146D01*
Y735146D02*
X985428D01*
Y732353D02*
Y735146D01*
X975395Y732353D02*
X985428D01*
X975395D02*
Y735146D01*
Y730146D02*
X985428D01*
Y727353D02*
Y730146D01*
X975395Y727353D02*
X985428D01*
X975395D02*
Y730146D01*
Y725146D02*
X985428D01*
Y722353D02*
Y725146D01*
X975395Y722353D02*
X985428D01*
X975395D02*
Y725146D01*
Y720146D02*
X985428D01*
Y717353D02*
Y720146D01*
X975395Y717353D02*
X985428D01*
X975395D02*
Y720146D01*
Y715146D02*
X985428D01*
Y712353D02*
Y715146D01*
X975395Y712353D02*
X985428D01*
X975395D02*
Y715146D01*
Y710146D02*
X985428D01*
Y707353D02*
Y710146D01*
X975395Y707353D02*
X985428D01*
X975395D02*
Y710146D01*
Y705146D02*
X985428D01*
Y702353D02*
Y705146D01*
X975395Y702353D02*
X985428D01*
X975395D02*
Y705146D01*
Y700146D02*
X985428D01*
Y697353D02*
Y700146D01*
X975395Y697353D02*
X985428D01*
X975395D02*
Y700146D01*
Y695146D02*
X985428D01*
Y692353D02*
Y695146D01*
X975395Y692353D02*
X985428D01*
X975395D02*
Y695146D01*
Y690146D02*
X985428D01*
Y687353D02*
Y690146D01*
X975395Y687353D02*
X985428D01*
X975395D02*
Y690146D01*
Y685146D02*
X985428D01*
Y682353D02*
Y685146D01*
X975395Y682353D02*
X985428D01*
X975395D02*
Y685146D01*
Y680146D02*
X985428D01*
Y677353D02*
Y680146D01*
X975395Y677353D02*
X985428D01*
X975395D02*
Y680146D01*
Y675146D02*
X985428D01*
Y672353D02*
Y675146D01*
X975395Y672353D02*
X985428D01*
X975395D02*
Y675146D01*
Y670146D02*
X985428D01*
Y667353D02*
Y670146D01*
X975395Y667353D02*
X985428D01*
X975395D02*
Y670146D01*
Y665146D02*
X985428D01*
Y662353D02*
Y665146D01*
X975395Y662353D02*
X985428D01*
X975395D02*
Y665146D01*
Y660146D02*
X985428D01*
Y657353D02*
Y660146D01*
X975395Y657353D02*
X985428D01*
X975395D02*
Y660146D01*
Y655146D02*
X985428D01*
Y652353D02*
Y655146D01*
X975395Y652353D02*
X985428D01*
X975395D02*
Y655146D01*
Y650146D02*
X985428D01*
Y647353D02*
Y650146D01*
X975395Y647353D02*
X985428D01*
X975395D02*
Y650146D01*
Y645146D02*
X985428D01*
Y642353D02*
Y645146D01*
X975395Y642353D02*
X985428D01*
X975395D02*
Y645146D01*
Y640146D02*
X985428D01*
Y637352D02*
Y640146D01*
X975395Y637352D02*
X985428D01*
X975395D02*
Y640146D01*
X963327Y615252D02*
Y625285D01*
X960533Y615252D02*
X963327D01*
X960533D02*
Y625285D01*
X963327D01*
X958327Y615252D02*
Y625285D01*
X955533Y615252D02*
X958327D01*
X955533D02*
Y625285D01*
X958327D01*
X953327Y615252D02*
Y625285D01*
X950533Y615252D02*
X953327D01*
X950533D02*
Y625285D01*
X953327D01*
X948327Y615252D02*
Y625285D01*
X945533Y615252D02*
X948327D01*
X945533D02*
Y625285D01*
X948327D01*
X943327Y615252D02*
Y625285D01*
X940533Y615252D02*
X943327D01*
X940533D02*
Y625285D01*
X943327D01*
X938327Y615252D02*
Y625285D01*
X935533Y615252D02*
X938327D01*
X935533D02*
Y625285D01*
X938327D01*
X933327Y615252D02*
Y625285D01*
X930533Y615252D02*
X933327D01*
X930533D02*
Y625285D01*
X933327D01*
X928327Y615252D02*
Y625285D01*
X925533Y615252D02*
X928327D01*
X925533D02*
Y625285D01*
X928327D01*
X923327Y615252D02*
Y625285D01*
X920533Y615252D02*
X923327D01*
X920533D02*
Y625285D01*
X923327D01*
X918327Y615252D02*
Y625285D01*
X915533Y615252D02*
X918327D01*
X915533D02*
Y625285D01*
X918327D01*
X913327Y615252D02*
Y625285D01*
X910533Y615252D02*
X913327D01*
X910533D02*
Y625285D01*
X913327D01*
X908327Y615252D02*
Y625285D01*
X905533Y615252D02*
X908327D01*
X905533D02*
Y625285D01*
X908327D01*
X903327Y615252D02*
Y625285D01*
X900533Y615252D02*
X903327D01*
X900533D02*
Y625285D01*
X903327D01*
X898327Y615252D02*
Y625285D01*
X895533Y615252D02*
X898327D01*
X895533D02*
Y625285D01*
X898327D01*
X893327Y615252D02*
Y625285D01*
X890533Y615252D02*
X893327D01*
X890533D02*
Y625285D01*
X893327D01*
X888327Y615252D02*
Y625285D01*
X885533Y615252D02*
X888327D01*
X885533D02*
Y625285D01*
X888327D01*
X883327Y615252D02*
Y625285D01*
X880533Y615252D02*
X883327D01*
X880533D02*
Y625285D01*
X883327D01*
X878327Y615252D02*
Y625285D01*
X875533Y615252D02*
X878327D01*
X875533D02*
Y625285D01*
X878327D01*
X873327Y615252D02*
Y625285D01*
X870533Y615252D02*
X873327D01*
X870533D02*
Y625285D01*
X873327D01*
X868327Y615252D02*
Y625285D01*
X865533Y615252D02*
X868327D01*
X865533D02*
Y625285D01*
X868327D01*
X863327Y615252D02*
Y625285D01*
X860533Y615252D02*
X863327D01*
X860533D02*
Y625285D01*
X863327D01*
X858327Y615252D02*
Y625285D01*
X855533Y615252D02*
X858327D01*
X855533D02*
Y625285D01*
X858327D01*
X853327Y615252D02*
Y625285D01*
X850533Y615252D02*
X853327D01*
X850533D02*
Y625285D01*
X853327D01*
X848327Y615252D02*
Y625285D01*
X845533Y615252D02*
X848327D01*
X845533D02*
Y625285D01*
X848327D01*
X843327Y615252D02*
Y625285D01*
X840533Y615252D02*
X843327D01*
X840533D02*
Y625285D01*
X843327D01*
X838327Y615252D02*
Y625285D01*
X835533Y615252D02*
X838327D01*
X835533D02*
Y625285D01*
X838327D01*
X833327Y615252D02*
Y625285D01*
X830533Y615252D02*
X833327D01*
X830533D02*
Y625285D01*
X833327D01*
X828327Y615252D02*
Y625285D01*
X825533Y615252D02*
X828327D01*
X825533D02*
Y625285D01*
X828327D01*
X823327Y615252D02*
Y625285D01*
X820533Y615252D02*
X823327D01*
X820533D02*
Y625285D01*
X823327D01*
X818327Y615252D02*
Y625285D01*
X815533Y615252D02*
X818327D01*
X815533D02*
Y625285D01*
X818327D01*
X813327Y615252D02*
Y625285D01*
X810533Y615252D02*
X813327D01*
X810533D02*
Y625285D01*
X813327D01*
X808327Y615252D02*
Y625285D01*
X805533Y615252D02*
X808327D01*
X805533D02*
Y625285D01*
X808327D01*
X803327Y615252D02*
Y625285D01*
X800533Y615252D02*
X803327D01*
X800533D02*
Y625285D01*
X803327D01*
X798327Y615252D02*
Y625285D01*
X795533Y615252D02*
X798327D01*
X795533D02*
Y625285D01*
X798327D01*
X793327Y615252D02*
Y625285D01*
X790533Y615252D02*
X793327D01*
X790533D02*
Y625285D01*
X793327D01*
X788327Y615252D02*
Y625285D01*
X785533Y615252D02*
X788327D01*
X785533D02*
Y625285D01*
X788327D01*
X763432Y637352D02*
X773465D01*
X763432D02*
Y640146D01*
X773465D01*
Y637352D02*
Y640146D01*
X763432Y642353D02*
X773465D01*
X763432D02*
Y645146D01*
X773465D01*
Y642353D02*
Y645146D01*
X763432Y647353D02*
X773465D01*
X763432D02*
Y650146D01*
X773465D01*
Y647353D02*
Y650146D01*
X763432Y652353D02*
X773465D01*
X763432D02*
Y655146D01*
X773465D01*
Y652353D02*
Y655146D01*
X763432Y657353D02*
X773465D01*
X763432D02*
Y660146D01*
X773465D01*
Y657353D02*
Y660146D01*
X763432Y662353D02*
X773465D01*
X763432D02*
Y665146D01*
X773465D01*
Y662353D02*
Y665146D01*
X763432Y667353D02*
X773465D01*
X763432D02*
Y670146D01*
X773465D01*
Y667353D02*
Y670146D01*
X763432Y672353D02*
X773465D01*
X763432D02*
Y675146D01*
X773465D01*
Y672353D02*
Y675146D01*
X763432Y677353D02*
X773465D01*
X763432D02*
Y680146D01*
X773465D01*
Y677353D02*
Y680146D01*
X763432Y682353D02*
X773465D01*
X763432D02*
Y685146D01*
X773465D01*
Y682353D02*
Y685146D01*
X763432Y687353D02*
X773465D01*
X763432D02*
Y690146D01*
X773465D01*
Y687353D02*
Y690146D01*
X763432Y692353D02*
X773465D01*
X763432D02*
Y695146D01*
X773465D01*
Y692353D02*
Y695146D01*
X763432Y697353D02*
X773465D01*
X763432D02*
Y700146D01*
X773465D01*
Y697353D02*
Y700146D01*
X763432Y702353D02*
X773465D01*
X763432D02*
Y705146D01*
X773465D01*
Y702353D02*
Y705146D01*
X763432Y707353D02*
X773465D01*
X763432D02*
Y710146D01*
X773465D01*
Y707353D02*
Y710146D01*
X763432Y712353D02*
X773465D01*
X763432D02*
Y715146D01*
X773465D01*
Y712353D02*
Y715146D01*
X763432Y717353D02*
X773465D01*
X763432D02*
Y720146D01*
X773465D01*
Y717353D02*
Y720146D01*
X763432Y722353D02*
X773465D01*
X763432D02*
Y725146D01*
X773465D01*
Y722353D02*
Y725146D01*
X763432Y727353D02*
X773465D01*
X763432D02*
Y730146D01*
X773465D01*
Y727353D02*
Y730146D01*
X763432Y732353D02*
X773465D01*
X763432D02*
Y735146D01*
X773465D01*
Y732353D02*
Y735146D01*
X763432Y737353D02*
X773465D01*
X763432D02*
Y740146D01*
X773465D01*
Y737353D02*
Y740146D01*
X763432Y742353D02*
X773465D01*
X763432D02*
Y745146D01*
X773465D01*
Y742353D02*
Y745146D01*
X763432Y747353D02*
X773465D01*
X763432D02*
Y750146D01*
X773465D01*
Y747353D02*
Y750146D01*
X763432Y752353D02*
X773465D01*
X763432D02*
Y755146D01*
X773465D01*
Y752353D02*
Y755146D01*
X763432Y757353D02*
X773465D01*
X763432D02*
Y760146D01*
X773465D01*
Y757353D02*
Y760146D01*
X763432Y762353D02*
X773465D01*
X763432D02*
Y765146D01*
X773465D01*
Y762353D02*
Y765146D01*
X763432Y767353D02*
X773465D01*
X763432D02*
Y770146D01*
X773465D01*
Y767353D02*
Y770146D01*
X763432Y772353D02*
X773465D01*
X763432D02*
Y775146D01*
X773465D01*
Y772353D02*
Y775146D01*
X763432Y777353D02*
X773465D01*
X763432D02*
Y780146D01*
X773465D01*
Y777353D02*
Y780146D01*
X763432Y782353D02*
X773465D01*
X763432D02*
Y785146D01*
X773465D01*
Y782353D02*
Y785146D01*
X763432Y787353D02*
X773465D01*
X763432D02*
Y790146D01*
X773465D01*
Y787353D02*
Y790146D01*
X763432Y792353D02*
X773465D01*
X763432D02*
Y795146D01*
X773465D01*
Y792353D02*
Y795146D01*
X763432Y797353D02*
X773465D01*
X763432D02*
Y800146D01*
X773465D01*
Y797353D02*
Y800146D01*
X763432Y802353D02*
X773465D01*
X763432D02*
Y805146D01*
X773465D01*
Y802353D02*
Y805146D01*
X763432Y807353D02*
X773465D01*
X763432D02*
Y810146D01*
X773465D01*
Y807353D02*
Y810146D01*
X763432Y812353D02*
X773465D01*
X763432D02*
Y815146D01*
X773465D01*
Y812353D02*
Y815146D01*
X785533Y827215D02*
Y837247D01*
X788327D01*
Y827215D02*
Y837247D01*
X785533Y827215D02*
X788327D01*
X790533D02*
Y837247D01*
X793327D01*
Y827215D02*
Y837247D01*
X790533Y827215D02*
X793327D01*
X795533D02*
Y837247D01*
X798327D01*
Y827215D02*
Y837247D01*
X795533Y827215D02*
X798327D01*
X800533D02*
Y837247D01*
X803327D01*
Y827215D02*
Y837247D01*
X800533Y827215D02*
X803327D01*
X805533D02*
Y837247D01*
X808327D01*
Y827215D02*
Y837247D01*
X805533Y827215D02*
X808327D01*
X810533D02*
Y837247D01*
X813327D01*
Y827215D02*
Y837247D01*
X810533Y827215D02*
X813327D01*
X815533D02*
Y837247D01*
X818327D01*
Y827215D02*
Y837247D01*
X815533Y827215D02*
X818327D01*
X820533D02*
Y837247D01*
X823327D01*
Y827215D02*
Y837247D01*
X820533Y827215D02*
X823327D01*
X825533D02*
Y837247D01*
X828327D01*
Y827215D02*
Y837247D01*
X825533Y827215D02*
X828327D01*
X830533D02*
Y837247D01*
X833327D01*
Y827215D02*
Y837247D01*
X830533Y827215D02*
X833327D01*
X835533D02*
Y837247D01*
X838327D01*
Y827215D02*
Y837247D01*
X835533Y827215D02*
X838327D01*
X840533D02*
Y837247D01*
X843327D01*
Y827215D02*
Y837247D01*
X840533Y827215D02*
X843327D01*
X845533D02*
Y837247D01*
X848327D01*
Y827215D02*
Y837247D01*
X845533Y827215D02*
X848327D01*
X850533D02*
Y837247D01*
X853327D01*
Y827215D02*
Y837247D01*
X850533Y827215D02*
X853327D01*
X855533D02*
Y837247D01*
X858327D01*
Y827215D02*
Y837247D01*
X855533Y827215D02*
X858327D01*
X860533D02*
Y837247D01*
X863327D01*
Y827215D02*
Y837247D01*
X860533Y827215D02*
X863327D01*
X865533D02*
Y837247D01*
X868327D01*
Y827215D02*
Y837247D01*
X865533Y827215D02*
X868327D01*
X870533D02*
Y837247D01*
X873327D01*
Y827215D02*
Y837247D01*
X870533Y827215D02*
X873327D01*
X875533D02*
Y837247D01*
X878327D01*
Y827215D02*
Y837247D01*
X875533Y827215D02*
X878327D01*
X880533D02*
Y837247D01*
X883327D01*
Y827215D02*
Y837247D01*
X880533Y827215D02*
X883327D01*
X885533D02*
Y837247D01*
X888327D01*
Y827215D02*
Y837247D01*
X885533Y827215D02*
X888327D01*
X890533D02*
Y837247D01*
X893327D01*
Y827215D02*
Y837247D01*
X890533Y827215D02*
X893327D01*
X895533D02*
Y837247D01*
X898327D01*
Y827215D02*
Y837247D01*
X895533Y827215D02*
X898327D01*
X900533D02*
Y837247D01*
X903327D01*
Y827215D02*
Y837247D01*
X900533Y827215D02*
X903327D01*
X905533D02*
Y837247D01*
X908327D01*
Y827215D02*
Y837247D01*
X905533Y827215D02*
X908327D01*
X910533D02*
Y837247D01*
X913327D01*
Y827215D02*
Y837247D01*
X910533Y827215D02*
X913327D01*
X915533D02*
Y837247D01*
X918327D01*
Y827215D02*
Y837247D01*
X915533Y827215D02*
X918327D01*
X920533D02*
Y837247D01*
X923327D01*
Y827215D02*
Y837247D01*
X920533Y827215D02*
X923327D01*
X925533D02*
Y837247D01*
X928327D01*
Y827215D02*
Y837247D01*
X925533Y827215D02*
X928327D01*
X930533D02*
Y837247D01*
X933327D01*
Y827215D02*
Y837247D01*
X930533Y827215D02*
X933327D01*
X935533D02*
Y837247D01*
X938327D01*
Y827215D02*
Y837247D01*
X935533Y827215D02*
X938327D01*
X940533D02*
Y837247D01*
X943327D01*
Y827215D02*
Y837247D01*
X940533Y827215D02*
X943327D01*
X945533D02*
Y837247D01*
X948327D01*
Y827215D02*
Y837247D01*
X945533Y827215D02*
X948327D01*
X950533D02*
Y837247D01*
X953327D01*
Y827215D02*
Y837247D01*
X950533Y827215D02*
X953327D01*
X955533D02*
Y837247D01*
X958327D01*
Y827215D02*
Y837247D01*
X955533Y827215D02*
X958327D01*
X960533D02*
Y837247D01*
X963327D01*
Y827215D02*
Y837247D01*
X960533Y827215D02*
X963327D01*
M02*
