%TF.GenerationSoftware,Altium Limited,Altium Designer,24.1.2 (44)*%
G04 Layer_Color=8421504*
%FSLAX45Y45*%
%MOMM*%
%TF.SameCoordinates,57B3B6A3-E825-4013-9261-08072AB09D51*%
%TF.FilePolarity,Positive*%
%TF.FileFunction,Paste,Top*%
%TF.Part,Single*%
G01*
G75*
%TA.AperFunction,SMDPad,CuDef*%
%ADD10R,0.30000X0.99000*%
%ADD11R,0.80000X0.90000*%
%ADD12R,3.30000X2.20000*%
%ADD13R,1.00000X2.20000*%
%ADD14R,0.25000X0.30000*%
G04:AMPARAMS|DCode=15|XSize=0.85mm|YSize=0.3mm|CornerRadius=0.15mm|HoleSize=0mm|Usage=FLASHONLY|Rotation=90.000|XOffset=0mm|YOffset=0mm|HoleType=Round|Shape=RoundedRectangle|*
%AMROUNDEDRECTD15*
21,1,0.85000,0.00000,0,0,90.0*
21,1,0.55000,0.30000,0,0,90.0*
1,1,0.30000,0.00000,0.27500*
1,1,0.30000,0.00000,-0.27500*
1,1,0.30000,0.00000,-0.27500*
1,1,0.30000,0.00000,0.27500*
%
%ADD15ROUNDEDRECTD15*%
G04:AMPARAMS|DCode=16|XSize=0.3mm|YSize=0.85mm|CornerRadius=0.15mm|HoleSize=0mm|Usage=FLASHONLY|Rotation=90.000|XOffset=0mm|YOffset=0mm|HoleType=Round|Shape=RoundedRectangle|*
%AMROUNDEDRECTD16*
21,1,0.30000,0.55000,0,0,90.0*
21,1,0.00000,0.85000,0,0,90.0*
1,1,0.30000,0.27500,0.00000*
1,1,0.30000,0.27500,0.00000*
1,1,0.30000,-0.27500,0.00000*
1,1,0.30000,-0.27500,0.00000*
%
%ADD16ROUNDEDRECTD16*%
%ADD17R,2.60000X2.60000*%
%ADD18R,0.90000X0.80000*%
%ADD19R,1.65000X0.76000*%
%ADD20R,1.25000X1.80000*%
%ADD21R,0.27940X1.35890*%
%ADD22R,1.35890X0.27940*%
%ADD23R,1.55000X0.60000*%
%ADD24R,0.45000X1.45000*%
%ADD25R,3.75000X1.00000*%
%ADD26R,0.30000X0.25000*%
%ADD27R,1.80000X1.40000*%
%ADD28R,1.40000X1.80000*%
%ADD29R,1.80000X0.60000*%
%ADD30R,0.80000X0.80000*%
G04:AMPARAMS|DCode=31|XSize=3.15mm|YSize=1.45mm|CornerRadius=0.05075mm|HoleSize=0mm|Usage=FLASHONLY|Rotation=270.000|XOffset=0mm|YOffset=0mm|HoleType=Round|Shape=RoundedRectangle|*
%AMROUNDEDRECTD31*
21,1,3.15000,1.34850,0,0,270.0*
21,1,3.04850,1.45000,0,0,270.0*
1,1,0.10150,-0.67425,-1.52425*
1,1,0.10150,-0.67425,1.52425*
1,1,0.10150,0.67425,1.52425*
1,1,0.10150,0.67425,-1.52425*
%
%ADD31ROUNDEDRECTD31*%
G04:AMPARAMS|DCode=32|XSize=0.9mm|YSize=1.45mm|CornerRadius=0.0495mm|HoleSize=0mm|Usage=FLASHONLY|Rotation=270.000|XOffset=0mm|YOffset=0mm|HoleType=Round|Shape=RoundedRectangle|*
%AMROUNDEDRECTD32*
21,1,0.90000,1.35100,0,0,270.0*
21,1,0.80100,1.45000,0,0,270.0*
1,1,0.09900,-0.67550,-0.40050*
1,1,0.09900,-0.67550,0.40050*
1,1,0.09900,0.67550,0.40050*
1,1,0.09900,0.67550,-0.40050*
%
%ADD32ROUNDEDRECTD32*%
%ADD33R,2.00000X2.00000*%
%ADD34R,1.20000X1.45000*%
%ADD35R,0.40000X0.50000*%
%ADD36R,1.45000X1.20000*%
%ADD37R,0.65872X0.81213*%
%ADD38R,1.55000X0.60000*%
%TA.AperFunction,ConnectorPad*%
%ADD39R,1.30000X1.10000*%
%TA.AperFunction,SMDPad,CuDef*%
%ADD40R,1.80000X1.25000*%
%ADD41R,0.80000X0.80000*%
G04:AMPARAMS|DCode=42|XSize=1.8mm|YSize=3mm|CornerRadius=0mm|HoleSize=0mm|Usage=FLASHONLY|Rotation=270.000|XOffset=0mm|YOffset=0mm|HoleType=Round|Shape=Octagon|*
%AMOCTAGOND42*
4,1,8,1.50000,0.45000,1.50000,-0.45000,1.05000,-0.90000,-1.05000,-0.90000,-1.50000,-0.45000,-1.50000,0.45000,-1.05000,0.90000,1.05000,0.90000,1.50000,0.45000,0.0*
%
%ADD42OCTAGOND42*%

%ADD43R,1.20000X0.50000*%
%ADD44R,1.10000X0.50000*%
D10*
X4063200Y7725900D02*
D03*
X4013200D02*
D03*
X3963200D02*
D03*
Y7564900D02*
D03*
X4013200D02*
D03*
X4063200D02*
D03*
X4050500Y9249900D02*
D03*
X4000500D02*
D03*
X3950500D02*
D03*
Y9088900D02*
D03*
X4000500D02*
D03*
X4050500D02*
D03*
D11*
X5664200Y9258300D02*
D03*
X5544200D02*
D03*
X5174600Y9271000D02*
D03*
X5054600D02*
D03*
X4641200D02*
D03*
X4521200D02*
D03*
X4095100Y8597900D02*
D03*
X3975100D02*
D03*
X8115300Y4584700D02*
D03*
X7995300D02*
D03*
X8108300Y4267200D02*
D03*
X7988300D02*
D03*
X8108300Y4102100D02*
D03*
X7988300D02*
D03*
X7378700Y4749800D02*
D03*
X7258700D02*
D03*
Y4584700D02*
D03*
X7378700D02*
D03*
X7255200Y4432300D02*
D03*
X7375200D02*
D03*
X7264400Y4051300D02*
D03*
X7384400D02*
D03*
X7264400Y3873500D02*
D03*
X7384400D02*
D03*
X5930900Y3289300D02*
D03*
X6050900D02*
D03*
X5429900Y3606800D02*
D03*
X5549900D02*
D03*
D12*
X13652499Y4627600D02*
D03*
X14465300Y3078200D02*
D03*
D13*
X13422501Y5227600D02*
D03*
X13652499D02*
D03*
X13882500D02*
D03*
X14695300Y3678200D02*
D03*
X14465300D02*
D03*
X14235300D02*
D03*
D14*
X7327900Y4902200D02*
D03*
X7280400D02*
D03*
X16038451Y4965700D02*
D03*
X15990950D02*
D03*
X15684500Y4318000D02*
D03*
X15637000D02*
D03*
X15519400Y6121400D02*
D03*
X15471899D02*
D03*
X15797150Y6680200D02*
D03*
X15749651D02*
D03*
X13654150Y5765800D02*
D03*
X13701649D02*
D03*
X14479649Y4257200D02*
D03*
X14527150D02*
D03*
X5245100Y3175000D02*
D03*
X5197600D02*
D03*
D15*
X6567900Y4186500D02*
D03*
X6617900D02*
D03*
X6667900D02*
D03*
X6717900D02*
D03*
X6767900D02*
D03*
X6817900D02*
D03*
Y4576500D02*
D03*
X6767900D02*
D03*
X6717900D02*
D03*
X6667900D02*
D03*
X6617900D02*
D03*
X6567900D02*
D03*
D16*
X6887900Y4256500D02*
D03*
Y4306500D02*
D03*
Y4356500D02*
D03*
Y4406500D02*
D03*
Y4456500D02*
D03*
Y4506500D02*
D03*
X6497900D02*
D03*
Y4456500D02*
D03*
Y4406500D02*
D03*
Y4356500D02*
D03*
Y4306500D02*
D03*
Y4256500D02*
D03*
D17*
X6692900Y4381500D02*
D03*
D18*
X4203700Y5575300D02*
D03*
Y5695300D02*
D03*
X3949700Y5575300D02*
D03*
Y5695300D02*
D03*
X4191000Y3429000D02*
D03*
Y3309000D02*
D03*
X13779500Y3296300D02*
D03*
Y3416300D02*
D03*
D19*
X4806900Y4876800D02*
D03*
Y4749800D02*
D03*
Y4622800D02*
D03*
Y4495800D02*
D03*
Y4368800D02*
D03*
Y4241800D02*
D03*
Y4114800D02*
D03*
X5657900Y4876800D02*
D03*
Y4749800D02*
D03*
Y4622800D02*
D03*
Y4495800D02*
D03*
Y4368800D02*
D03*
Y4241800D02*
D03*
Y4114800D02*
D03*
X4806900Y3987800D02*
D03*
X5657900D02*
D03*
D20*
X7658100Y2895600D02*
D03*
X7353100D02*
D03*
X7658300Y3517900D02*
D03*
X7353300D02*
D03*
Y3213100D02*
D03*
X7658300D02*
D03*
D21*
X7869300Y8340090D02*
D03*
X7919300D02*
D03*
X7969300D02*
D03*
X8019300D02*
D03*
X8069300D02*
D03*
X8119300D02*
D03*
X8169300D02*
D03*
X8219300D02*
D03*
X8269300D02*
D03*
X8319300D02*
D03*
X8369300D02*
D03*
X8419300D02*
D03*
X8469300D02*
D03*
X8519300D02*
D03*
X8569300D02*
D03*
X8619300D02*
D03*
X8669300D02*
D03*
X8719300D02*
D03*
X8769300D02*
D03*
X8819300D02*
D03*
X8869300D02*
D03*
X8919300D02*
D03*
X8969300D02*
D03*
X9019300D02*
D03*
X9069300D02*
D03*
X9119300D02*
D03*
X9169300D02*
D03*
X9219300D02*
D03*
X9269300D02*
D03*
X9319300D02*
D03*
X9369300D02*
D03*
X9419300D02*
D03*
X9469300D02*
D03*
X9519300D02*
D03*
X9569300D02*
D03*
X9619300D02*
D03*
Y6184900D02*
D03*
X9569300D02*
D03*
X9519300D02*
D03*
X9469300D02*
D03*
X9419300D02*
D03*
X9369300D02*
D03*
X9319300D02*
D03*
X9269300D02*
D03*
X9219300D02*
D03*
X9169300D02*
D03*
X9119300D02*
D03*
X9069300D02*
D03*
X9019300D02*
D03*
X8969300D02*
D03*
X8919300D02*
D03*
X8869300D02*
D03*
X8819300D02*
D03*
X8769300D02*
D03*
X8719300D02*
D03*
X8669300D02*
D03*
X8619300D02*
D03*
X8569300D02*
D03*
X8519300D02*
D03*
X8469300D02*
D03*
X8419300D02*
D03*
X8369300D02*
D03*
X8319300D02*
D03*
X8269300D02*
D03*
X8219300D02*
D03*
X8169300D02*
D03*
X8119300D02*
D03*
X8069300D02*
D03*
X8019300D02*
D03*
X7969300D02*
D03*
X7919300D02*
D03*
X7869300D02*
D03*
D22*
X9821895Y8137495D02*
D03*
Y8087495D02*
D03*
Y8037495D02*
D03*
Y7987495D02*
D03*
Y7937495D02*
D03*
Y7887495D02*
D03*
Y7837495D02*
D03*
Y7787495D02*
D03*
Y7737495D02*
D03*
Y7687495D02*
D03*
Y7637495D02*
D03*
Y7587495D02*
D03*
Y7537495D02*
D03*
Y7487495D02*
D03*
Y7437495D02*
D03*
Y7387495D02*
D03*
Y7337495D02*
D03*
Y7287495D02*
D03*
Y7237495D02*
D03*
Y7187495D02*
D03*
Y7137495D02*
D03*
Y7087495D02*
D03*
Y7037495D02*
D03*
Y6987495D02*
D03*
Y6937495D02*
D03*
Y6887495D02*
D03*
Y6837495D02*
D03*
Y6787495D02*
D03*
Y6737495D02*
D03*
Y6687495D02*
D03*
Y6637495D02*
D03*
Y6587495D02*
D03*
Y6537495D02*
D03*
Y6487495D02*
D03*
Y6437495D02*
D03*
Y6387495D02*
D03*
X7666705D02*
D03*
Y6437495D02*
D03*
Y6487495D02*
D03*
Y6537495D02*
D03*
Y6587495D02*
D03*
Y6637495D02*
D03*
Y6687495D02*
D03*
Y6737495D02*
D03*
Y6787495D02*
D03*
Y6837495D02*
D03*
Y6887495D02*
D03*
Y6937495D02*
D03*
Y6987495D02*
D03*
Y7037495D02*
D03*
Y7087495D02*
D03*
Y7137495D02*
D03*
Y7187495D02*
D03*
Y7237495D02*
D03*
Y7287495D02*
D03*
Y7337495D02*
D03*
Y7387495D02*
D03*
Y7437495D02*
D03*
Y7487495D02*
D03*
Y7537495D02*
D03*
Y7587495D02*
D03*
Y7637495D02*
D03*
Y7687495D02*
D03*
Y7737495D02*
D03*
Y7787495D02*
D03*
Y7837495D02*
D03*
Y7887495D02*
D03*
Y7937495D02*
D03*
Y7987495D02*
D03*
Y8037495D02*
D03*
Y8087495D02*
D03*
Y8137495D02*
D03*
D23*
X8575800Y2946400D02*
D03*
Y3073400D02*
D03*
Y3200400D02*
D03*
Y3327400D02*
D03*
X8035800Y2946400D02*
D03*
Y3073400D02*
D03*
Y3200400D02*
D03*
Y3327400D02*
D03*
D24*
X14072000Y7020200D02*
D03*
X14007001D02*
D03*
X13942000D02*
D03*
X13877000D02*
D03*
X13812000D02*
D03*
X13747000D02*
D03*
X13682001D02*
D03*
X13617000D02*
D03*
X13552000D02*
D03*
X13487000D02*
D03*
Y7610200D02*
D03*
X13552000D02*
D03*
X13617000D02*
D03*
X13682001D02*
D03*
X13747000D02*
D03*
X13812000D02*
D03*
X13877000D02*
D03*
X13942000D02*
D03*
X14007001D02*
D03*
X14072000D02*
D03*
D25*
X2901000Y8851900D02*
D03*
Y8597900D02*
D03*
Y8343900D02*
D03*
X3576000Y8851900D02*
D03*
Y8597900D02*
D03*
Y8343900D02*
D03*
X2901000Y8089900D02*
D03*
X3576000D02*
D03*
Y7327900D02*
D03*
X2901000D02*
D03*
X3576000Y7581900D02*
D03*
X2901000D02*
D03*
X3576000Y7835900D02*
D03*
X2901000D02*
D03*
D26*
X16891000Y4562600D02*
D03*
Y4610100D02*
D03*
X14401801Y5372100D02*
D03*
Y5324600D02*
D03*
X15201900Y3833750D02*
D03*
Y3786250D02*
D03*
D27*
X15811501Y4832700D02*
D03*
Y5092700D02*
D03*
X14198599Y5219700D02*
D03*
Y5479700D02*
D03*
X14998700Y3683000D02*
D03*
Y3943000D02*
D03*
D28*
X15532100Y4521200D02*
D03*
X15792101D02*
D03*
X15367000Y6324600D02*
D03*
X15627000D02*
D03*
X13798199Y5575300D02*
D03*
X13538200D02*
D03*
X14630400Y4041300D02*
D03*
X14370399D02*
D03*
X16344901Y3517900D02*
D03*
X16604900D02*
D03*
D29*
X15568600Y6680200D02*
D03*
X15368600Y6585200D02*
D03*
Y6775200D02*
D03*
D30*
X13957300Y3440500D02*
D03*
Y3290500D02*
D03*
D31*
X15986600Y2959100D02*
D03*
D32*
X16601601Y3189100D02*
D03*
Y2959100D02*
D03*
Y2729100D02*
D03*
D33*
X16967200Y3743300D02*
D03*
Y3343300D02*
D03*
D34*
X16344901Y3784600D02*
D03*
X16144901D02*
D03*
X14290700Y7023100D02*
D03*
X14490700D02*
D03*
D35*
X16635100Y3771900D02*
D03*
X16715100D02*
D03*
D36*
X13119099Y6480200D02*
D03*
Y6680200D02*
D03*
X13919200Y6527800D02*
D03*
Y6727800D02*
D03*
X13665199Y6480200D02*
D03*
Y6680200D02*
D03*
X13385800Y6480200D02*
D03*
Y6680200D02*
D03*
X14185899Y6527800D02*
D03*
Y6727800D02*
D03*
X14452600Y6527800D02*
D03*
Y6727800D02*
D03*
D37*
X16691971Y5448300D02*
D03*
X16556628D02*
D03*
D38*
X16894299Y5219700D02*
D03*
Y5092700D02*
D03*
Y4965700D02*
D03*
Y4838700D02*
D03*
X16354300D02*
D03*
Y4965700D02*
D03*
Y5092700D02*
D03*
Y5219700D02*
D03*
D39*
X5124000Y3009800D02*
D03*
X5334000D02*
D03*
Y2844800D02*
D03*
X5124000D02*
D03*
D40*
X4851400Y3149800D02*
D03*
Y2844800D02*
D03*
X5626100D02*
D03*
Y3149800D02*
D03*
D41*
X5688400Y9436100D02*
D03*
X5538400D02*
D03*
X5205800Y9448800D02*
D03*
X5055800D02*
D03*
X4673600Y9461500D02*
D03*
X4523600D02*
D03*
D42*
X15337399Y4927600D02*
D03*
D43*
X15537399Y5077600D02*
D03*
Y4777600D02*
D03*
D44*
X15542400Y4927600D02*
D03*
%TF.MD5,53c46d3167abfa4c8a4c00a8653ac2d4*%
M02*
