%TF.GenerationSoftware,Altium Limited,Altium Designer,24.1.2 (44)*%
G04 Layer_Color=16711935*
%FSLAX45Y45*%
%MOMM*%
%TF.SameCoordinates,57B3B6A3-E825-4013-9261-08072AB09D51*%
%TF.FilePolarity,Negative*%
%TF.FileFunction,Soldermask,Bot*%
%TF.Part,Single*%
G01*
G75*
%TA.AperFunction,SMDPad,CuDef*%
%ADD14R,0.25000X0.30000*%
%ADD26R,0.30000X0.25000*%
%ADD35R,0.40000X0.50000*%
%TA.AperFunction,ComponentPad*%
%ADD47C,1.57000*%
%ADD48R,1.57000X1.57000*%
%ADD49C,9.55000*%
%ADD50C,1.39000*%
%ADD51R,1.39000X1.39000*%
%ADD52C,2.42000*%
%ADD53C,3.25000*%
%TA.AperFunction,ViaPad*%
%ADD55C,0.60000*%
%TA.AperFunction,SMDPad,CuDef*%
%ADD56R,1.55620X1.57807*%
%ADD57R,0.70000X0.65000*%
%ADD58R,0.50000X0.40000*%
%ADD59R,0.95000X1.35000*%
%ADD72R,1.10320X1.00320*%
%ADD81R,1.40320X1.65320*%
%TA.AperFunction,ViaPad*%
%ADD87C,1.47320*%
D14*
X7326250Y4013200D02*
D03*
X7278750D02*
D03*
X7324600Y4419600D02*
D03*
X7277100D02*
D03*
X7324600Y4610100D02*
D03*
X7277100D02*
D03*
X7324600Y4775200D02*
D03*
X7277100D02*
D03*
X7324600Y4216400D02*
D03*
X7277100D02*
D03*
X5056250Y4432300D02*
D03*
X5103750D02*
D03*
X14024100Y8013700D02*
D03*
X14071600D02*
D03*
X14024100Y7874000D02*
D03*
X14071600D02*
D03*
X14262100Y7200900D02*
D03*
X14214600D02*
D03*
D26*
X8801100Y7859650D02*
D03*
Y7812150D02*
D03*
X7912100Y7202550D02*
D03*
Y7250050D02*
D03*
X9398000Y7255000D02*
D03*
Y7302500D02*
D03*
X9258300Y7253350D02*
D03*
Y7300850D02*
D03*
X9118600Y7253350D02*
D03*
Y7300850D02*
D03*
Y7146800D02*
D03*
Y7099300D02*
D03*
X9258300Y7150100D02*
D03*
Y7102600D02*
D03*
X5664200Y4456050D02*
D03*
Y4408550D02*
D03*
X14249400Y7388100D02*
D03*
Y7340600D02*
D03*
D35*
X6743700Y3810000D02*
D03*
X6663700D02*
D03*
X6743700Y4000500D02*
D03*
X6663700D02*
D03*
D47*
X17335500Y3594100D02*
D03*
X17221201Y4914900D02*
D03*
D48*
X17335500Y3340100D02*
D03*
X17221201Y5168900D02*
D03*
D49*
X9232900Y12026900D02*
D03*
X17106900D02*
D03*
X15328900D02*
D03*
X13169901D02*
D03*
X11391900D02*
D03*
X7454900D02*
D03*
X5295900D02*
D03*
X3517900D02*
D03*
D50*
X4194500Y4038800D02*
D03*
Y3809800D02*
D03*
Y4952800D02*
D03*
Y5181800D02*
D03*
X3534500Y4749800D02*
D03*
Y4545800D02*
D03*
Y4341800D02*
D03*
X3712500Y4851800D02*
D03*
Y4647800D02*
D03*
Y4443800D02*
D03*
Y4239800D02*
D03*
D51*
X3534500Y4137800D02*
D03*
D52*
X3623500Y3682800D02*
D03*
Y5308800D02*
D03*
D53*
X3280500Y3860800D02*
D03*
Y5130800D02*
D03*
D55*
X6592900Y4281500D02*
D03*
Y4381500D02*
D03*
Y4481500D02*
D03*
X6692900Y4281500D02*
D03*
Y4381500D02*
D03*
Y4481500D02*
D03*
X6792900Y4281500D02*
D03*
Y4381500D02*
D03*
Y4481500D02*
D03*
D56*
X8547100Y7919812D02*
D03*
Y7747000D02*
D03*
X8178800Y7139894D02*
D03*
Y7312706D02*
D03*
X8559800Y6659788D02*
D03*
Y6832600D02*
D03*
D57*
X7962900Y6578600D02*
D03*
Y6713600D02*
D03*
X9448800Y8132000D02*
D03*
Y7997000D02*
D03*
D58*
X9423400Y7150100D02*
D03*
Y7070100D02*
D03*
D59*
X7352100Y5105400D02*
D03*
X7202100D02*
D03*
X14008099Y7391400D02*
D03*
X13858099D02*
D03*
D72*
X6350000Y5152700D02*
D03*
Y5032700D02*
D03*
X6197600Y5149200D02*
D03*
Y5029200D02*
D03*
X6045200Y5149200D02*
D03*
Y5029200D02*
D03*
X5892800Y5149200D02*
D03*
Y5029200D02*
D03*
X5054600Y4746300D02*
D03*
Y4626300D02*
D03*
Y4114800D02*
D03*
Y4234800D02*
D03*
D81*
X14439900Y7670800D02*
D03*
X14639900D02*
D03*
D87*
X6286500Y4114845D02*
D03*
X5372100Y4339987D02*
D03*
X6128124Y3774266D02*
D03*
X5501764Y4013200D02*
D03*
X5384800Y4622800D02*
D03*
X5194300Y4533900D02*
D03*
X6013263Y4463863D02*
D03*
X5905500Y4622800D02*
D03*
X5829300Y4343400D02*
D03*
X4944383Y3879942D02*
D03*
X7531100Y4419600D02*
D03*
X7327900Y7480300D02*
D03*
X8672600Y8140700D02*
D03*
X8458200Y7988300D02*
D03*
X8115300Y3793038D02*
D03*
X6553200Y2967538D02*
D03*
X3162300Y4491538D02*
D03*
X3378200Y3005638D02*
D03*
X4419600Y6498138D02*
D03*
X8280400Y6485438D02*
D03*
X8331200Y6815638D02*
D03*
X9169400Y6663238D02*
D03*
X8166100Y7844338D02*
D03*
X9067800Y8047538D02*
D03*
X8775700Y7336338D02*
D03*
X7137400Y8911138D02*
D03*
X9944100Y8860338D02*
D03*
X10553700Y7539538D02*
D03*
X10769600Y6002838D02*
D03*
X9309100Y3666038D02*
D03*
X11925300Y3119938D02*
D03*
X12090400Y4491538D02*
D03*
X13652499Y3958138D02*
D03*
X15532100Y3170738D02*
D03*
X16433800Y4364538D02*
D03*
X16128999Y5774238D02*
D03*
X13868401Y7349038D02*
D03*
X14808200Y6726738D02*
D03*
X14122400Y7162800D02*
D03*
X8032704Y6457804D02*
D03*
X7391400Y6629400D02*
D03*
X5524500Y3327400D02*
D03*
X4851400Y3657600D02*
D03*
X6604000Y3403600D02*
D03*
X4203700Y9372600D02*
D03*
X4394200Y9093200D02*
D03*
X4152900Y8801100D02*
D03*
X5105400Y8255000D02*
D03*
X3378200Y9817100D02*
D03*
X3302000Y9105900D02*
D03*
X6337300Y8521700D02*
D03*
X4622800Y9055100D02*
D03*
X5321300Y9042400D02*
D03*
X4178300Y8432800D02*
D03*
X3911600Y8267700D02*
D03*
X3213100Y8204200D02*
D03*
X10541000Y8699500D02*
D03*
X9639300Y9321800D02*
D03*
X7708900Y9017000D02*
D03*
X5461000Y6057900D02*
D03*
X5676900Y6705600D02*
D03*
X5702300Y6477000D02*
D03*
X5695950Y6280150D02*
D03*
X5702300Y5905500D02*
D03*
X5372100Y5791200D02*
D03*
X12204700Y7251700D02*
D03*
X11849100Y7569200D02*
D03*
X6934200Y6883400D02*
D03*
X8394700Y8623300D02*
D03*
X8597900Y8585200D02*
D03*
X8115300Y9093200D02*
D03*
X7175500Y7937500D02*
D03*
X8318500Y8978900D02*
D03*
X6477000Y5981700D02*
D03*
X7404100Y5372100D02*
D03*
X8813800Y5384800D02*
D03*
X8851900Y5575300D02*
D03*
X7620000Y5363309D02*
D03*
X7658100Y5041900D02*
D03*
X8610600Y5359400D02*
D03*
X6515500Y6654800D02*
D03*
X7861300Y5579411D02*
D03*
Y5376009D02*
D03*
X6934200Y6426200D02*
D03*
X8775700Y8686800D02*
D03*
X7099300Y7239000D02*
D03*
X7175500Y7721600D02*
D03*
X11836400Y6692900D02*
D03*
X12865100Y6718300D02*
D03*
X11887200Y5727700D02*
D03*
X11747500Y5575300D02*
D03*
X12331700Y6197600D02*
D03*
X12153900Y6057900D02*
D03*
X8940800Y8597900D02*
D03*
X11303000Y7899400D02*
D03*
X11061700Y8115300D02*
D03*
X16116299Y4457700D02*
D03*
Y4635500D02*
D03*
X7861300Y5765800D02*
D03*
X7073900Y3733800D02*
D03*
X7848600Y4457700D02*
D03*
X11607800Y5435600D02*
D03*
X8801100Y3924300D02*
D03*
X8686800Y4038600D02*
D03*
X8559800Y6400800D02*
D03*
X7861300Y5956300D02*
D03*
X7213600Y6426200D02*
D03*
X12026900Y5892800D02*
D03*
X4521200Y8001000D02*
D03*
X3225800D02*
D03*
X3797300Y9182100D02*
D03*
X6502400Y5130800D02*
D03*
X9626600Y7124700D02*
D03*
X7912100Y6972300D02*
D03*
X9639300Y8128000D02*
D03*
X7670800Y4254500D02*
D03*
X13899400Y7785100D02*
D03*
X5892800Y4864100D02*
D03*
X6921500Y4000500D02*
D03*
X4470400Y5181600D02*
D03*
X4546600Y4127500D02*
D03*
X4508500Y4724400D02*
D03*
X15062199Y7239000D02*
D03*
X14224001Y7620000D02*
D03*
%TF.MD5,fd20dd537b4b08b69b11ffe52a594c53*%
M02*
