%TF.GenerationSoftware,Altium Limited,Altium Designer,24.1.2 (44)*%
G04 Layer_Color=8388736*
%FSLAX45Y45*%
%MOMM*%
%TF.SameCoordinates,57B3B6A3-E825-4013-9261-08072AB09D51*%
%TF.FilePolarity,Negative*%
%TF.FileFunction,Soldermask,Top*%
%TF.Part,Single*%
G01*
G75*
%TA.AperFunction,SMDPad,CuDef*%
%ADD10R,0.30000X0.99000*%
%ADD14R,0.25000X0.30000*%
G04:AMPARAMS|DCode=15|XSize=0.85mm|YSize=0.3mm|CornerRadius=0.15mm|HoleSize=0mm|Usage=FLASHONLY|Rotation=90.000|XOffset=0mm|YOffset=0mm|HoleType=Round|Shape=RoundedRectangle|*
%AMROUNDEDRECTD15*
21,1,0.85000,0.00000,0,0,90.0*
21,1,0.55000,0.30000,0,0,90.0*
1,1,0.30000,0.00000,0.27500*
1,1,0.30000,0.00000,-0.27500*
1,1,0.30000,0.00000,-0.27500*
1,1,0.30000,0.00000,0.27500*
%
%ADD15ROUNDEDRECTD15*%
G04:AMPARAMS|DCode=16|XSize=0.3mm|YSize=0.85mm|CornerRadius=0.15mm|HoleSize=0mm|Usage=FLASHONLY|Rotation=90.000|XOffset=0mm|YOffset=0mm|HoleType=Round|Shape=RoundedRectangle|*
%AMROUNDEDRECTD16*
21,1,0.30000,0.55000,0,0,90.0*
21,1,0.00000,0.85000,0,0,90.0*
1,1,0.30000,0.27500,0.00000*
1,1,0.30000,0.27500,0.00000*
1,1,0.30000,-0.27500,0.00000*
1,1,0.30000,-0.27500,0.00000*
%
%ADD16ROUNDEDRECTD16*%
%ADD17R,2.60000X2.60000*%
%ADD21R,0.27940X1.35890*%
%ADD22R,1.35890X0.27940*%
%ADD24R,0.45000X1.45000*%
%ADD26R,0.30000X0.25000*%
%ADD27R,1.80000X1.40000*%
%ADD28R,1.40000X1.80000*%
%ADD30R,0.80000X0.80000*%
%ADD35R,0.40000X0.50000*%
%ADD37R,0.65872X0.81213*%
%ADD38R,1.55000X0.60000*%
%TA.AperFunction,ConnectorPad*%
%ADD39R,1.30000X1.10000*%
%TA.AperFunction,SMDPad,CuDef*%
%ADD41R,0.80000X0.80000*%
%TA.AperFunction,ComponentPad*%
%ADD47C,1.57000*%
%ADD48R,1.57000X1.57000*%
%ADD49C,9.55000*%
%ADD50C,1.39000*%
%ADD51R,1.39000X1.39000*%
%ADD52C,2.42000*%
%ADD53C,3.25000*%
%TA.AperFunction,ViaPad*%
%ADD55C,0.60000*%
%TA.AperFunction,SMDPad,CuDef*%
%ADD69R,1.00320X1.10320*%
%ADD70R,3.50320X2.40320*%
%ADD71R,1.20320X2.40320*%
%ADD72R,1.10320X1.00320*%
%ADD73R,1.85320X0.96320*%
%ADD74R,1.45320X2.00320*%
%ADD75R,1.75320X0.80320*%
%ADD76R,3.95320X1.20320*%
%ADD77R,2.00320X0.80320*%
G04:AMPARAMS|DCode=78|XSize=3.3532mm|YSize=1.6532mm|CornerRadius=0.15235mm|HoleSize=0mm|Usage=FLASHONLY|Rotation=270.000|XOffset=0mm|YOffset=0mm|HoleType=Round|Shape=RoundedRectangle|*
%AMROUNDEDRECTD78*
21,1,3.35320,1.34850,0,0,270.0*
21,1,3.04850,1.65320,0,0,270.0*
1,1,0.30470,-0.67425,-1.52425*
1,1,0.30470,-0.67425,1.52425*
1,1,0.30470,0.67425,1.52425*
1,1,0.30470,0.67425,-1.52425*
%
%ADD78ROUNDEDRECTD78*%
G04:AMPARAMS|DCode=79|XSize=1.1032mm|YSize=1.6532mm|CornerRadius=0.1511mm|HoleSize=0mm|Usage=FLASHONLY|Rotation=270.000|XOffset=0mm|YOffset=0mm|HoleType=Round|Shape=RoundedRectangle|*
%AMROUNDEDRECTD79*
21,1,1.10320,1.35100,0,0,270.0*
21,1,0.80100,1.65320,0,0,270.0*
1,1,0.30220,-0.67550,-0.40050*
1,1,0.30220,-0.67550,0.40050*
1,1,0.30220,0.67550,0.40050*
1,1,0.30220,0.67550,-0.40050*
%
%ADD79ROUNDEDRECTD79*%
%ADD80R,2.20320X2.20320*%
%ADD81R,1.40320X1.65320*%
%ADD82R,1.65320X1.40320*%
%ADD83R,2.00320X1.45320*%
G04:AMPARAMS|DCode=84|XSize=2.0032mm|YSize=3.2032mm|CornerRadius=0mm|HoleSize=0mm|Usage=FLASHONLY|Rotation=270.000|XOffset=0mm|YOffset=0mm|HoleType=Round|Shape=Octagon|*
%AMOCTAGOND84*
4,1,8,1.60160,0.50080,1.60160,-0.50080,1.10080,-1.00160,-1.10080,-1.00160,-1.60160,-0.50080,-1.60160,0.50080,-1.10080,1.00160,1.10080,1.00160,1.60160,0.50080,0.0*
%
%ADD84OCTAGOND84*%

%ADD85R,1.40320X0.70320*%
%ADD86R,1.30320X0.70320*%
%TA.AperFunction,ViaPad*%
%ADD87C,1.47320*%
D10*
X4063200Y7725900D02*
D03*
X4013200D02*
D03*
X3963200D02*
D03*
Y7564900D02*
D03*
X4013200D02*
D03*
X4063200D02*
D03*
X4050500Y9249900D02*
D03*
X4000500D02*
D03*
X3950500D02*
D03*
Y9088900D02*
D03*
X4000500D02*
D03*
X4050500D02*
D03*
D14*
X7327900Y4902200D02*
D03*
X7280400D02*
D03*
X16038451Y4965700D02*
D03*
X15990950D02*
D03*
X15684500Y4318000D02*
D03*
X15637000D02*
D03*
X15519400Y6121400D02*
D03*
X15471899D02*
D03*
X15797150Y6680200D02*
D03*
X15749651D02*
D03*
X13654150Y5765800D02*
D03*
X13701649D02*
D03*
X14479649Y4257200D02*
D03*
X14527150D02*
D03*
X5245100Y3175000D02*
D03*
X5197600D02*
D03*
D15*
X6567900Y4186500D02*
D03*
X6617900D02*
D03*
X6667900D02*
D03*
X6717900D02*
D03*
X6767900D02*
D03*
X6817900D02*
D03*
Y4576500D02*
D03*
X6767900D02*
D03*
X6717900D02*
D03*
X6667900D02*
D03*
X6617900D02*
D03*
X6567900D02*
D03*
D16*
X6887900Y4256500D02*
D03*
Y4306500D02*
D03*
Y4356500D02*
D03*
Y4406500D02*
D03*
Y4456500D02*
D03*
Y4506500D02*
D03*
X6497900D02*
D03*
Y4456500D02*
D03*
Y4406500D02*
D03*
Y4356500D02*
D03*
Y4306500D02*
D03*
Y4256500D02*
D03*
D17*
X6692900Y4381500D02*
D03*
D21*
X7869300Y8340090D02*
D03*
X7919300D02*
D03*
X7969300D02*
D03*
X8019300D02*
D03*
X8069300D02*
D03*
X8119300D02*
D03*
X8169300D02*
D03*
X8219300D02*
D03*
X8269300D02*
D03*
X8319300D02*
D03*
X8369300D02*
D03*
X8419300D02*
D03*
X8469300D02*
D03*
X8519300D02*
D03*
X8569300D02*
D03*
X8619300D02*
D03*
X8669300D02*
D03*
X8719300D02*
D03*
X8769300D02*
D03*
X8819300D02*
D03*
X8869300D02*
D03*
X8919300D02*
D03*
X8969300D02*
D03*
X9019300D02*
D03*
X9069300D02*
D03*
X9119300D02*
D03*
X9169300D02*
D03*
X9219300D02*
D03*
X9269300D02*
D03*
X9319300D02*
D03*
X9369300D02*
D03*
X9419300D02*
D03*
X9469300D02*
D03*
X9519300D02*
D03*
X9569300D02*
D03*
X9619300D02*
D03*
Y6184900D02*
D03*
X9569300D02*
D03*
X9519300D02*
D03*
X9469300D02*
D03*
X9419300D02*
D03*
X9369300D02*
D03*
X9319300D02*
D03*
X9269300D02*
D03*
X9219300D02*
D03*
X9169300D02*
D03*
X9119300D02*
D03*
X9069300D02*
D03*
X9019300D02*
D03*
X8969300D02*
D03*
X8919300D02*
D03*
X8869300D02*
D03*
X8819300D02*
D03*
X8769300D02*
D03*
X8719300D02*
D03*
X8669300D02*
D03*
X8619300D02*
D03*
X8569300D02*
D03*
X8519300D02*
D03*
X8469300D02*
D03*
X8419300D02*
D03*
X8369300D02*
D03*
X8319300D02*
D03*
X8269300D02*
D03*
X8219300D02*
D03*
X8169300D02*
D03*
X8119300D02*
D03*
X8069300D02*
D03*
X8019300D02*
D03*
X7969300D02*
D03*
X7919300D02*
D03*
X7869300D02*
D03*
D22*
X9821895Y8137495D02*
D03*
Y8087495D02*
D03*
Y8037495D02*
D03*
Y7987495D02*
D03*
Y7937495D02*
D03*
Y7887495D02*
D03*
Y7837495D02*
D03*
Y7787495D02*
D03*
Y7737495D02*
D03*
Y7687495D02*
D03*
Y7637495D02*
D03*
Y7587495D02*
D03*
Y7537495D02*
D03*
Y7487495D02*
D03*
Y7437495D02*
D03*
Y7387495D02*
D03*
Y7337495D02*
D03*
Y7287495D02*
D03*
Y7237495D02*
D03*
Y7187495D02*
D03*
Y7137495D02*
D03*
Y7087495D02*
D03*
Y7037495D02*
D03*
Y6987495D02*
D03*
Y6937495D02*
D03*
Y6887495D02*
D03*
Y6837495D02*
D03*
Y6787495D02*
D03*
Y6737495D02*
D03*
Y6687495D02*
D03*
Y6637495D02*
D03*
Y6587495D02*
D03*
Y6537495D02*
D03*
Y6487495D02*
D03*
Y6437495D02*
D03*
Y6387495D02*
D03*
X7666705D02*
D03*
Y6437495D02*
D03*
Y6487495D02*
D03*
Y6537495D02*
D03*
Y6587495D02*
D03*
Y6637495D02*
D03*
Y6687495D02*
D03*
Y6737495D02*
D03*
Y6787495D02*
D03*
Y6837495D02*
D03*
Y6887495D02*
D03*
Y6937495D02*
D03*
Y6987495D02*
D03*
Y7037495D02*
D03*
Y7087495D02*
D03*
Y7137495D02*
D03*
Y7187495D02*
D03*
Y7237495D02*
D03*
Y7287495D02*
D03*
Y7337495D02*
D03*
Y7387495D02*
D03*
Y7437495D02*
D03*
Y7487495D02*
D03*
Y7537495D02*
D03*
Y7587495D02*
D03*
Y7637495D02*
D03*
Y7687495D02*
D03*
Y7737495D02*
D03*
Y7787495D02*
D03*
Y7837495D02*
D03*
Y7887495D02*
D03*
Y7937495D02*
D03*
Y7987495D02*
D03*
Y8037495D02*
D03*
Y8087495D02*
D03*
Y8137495D02*
D03*
D24*
X14072000Y7020200D02*
D03*
X14007001D02*
D03*
X13942000D02*
D03*
X13877000D02*
D03*
X13812000D02*
D03*
X13747000D02*
D03*
X13682001D02*
D03*
X13617000D02*
D03*
X13552000D02*
D03*
X13487000D02*
D03*
Y7610200D02*
D03*
X13552000D02*
D03*
X13617000D02*
D03*
X13682001D02*
D03*
X13747000D02*
D03*
X13812000D02*
D03*
X13877000D02*
D03*
X13942000D02*
D03*
X14007001D02*
D03*
X14072000D02*
D03*
D26*
X16891000Y4562600D02*
D03*
Y4610100D02*
D03*
X14401801Y5372100D02*
D03*
Y5324600D02*
D03*
X15201900Y3833750D02*
D03*
Y3786250D02*
D03*
D27*
X15811501Y4832700D02*
D03*
Y5092700D02*
D03*
X14198599Y5219700D02*
D03*
Y5479700D02*
D03*
X14998700Y3683000D02*
D03*
Y3943000D02*
D03*
D28*
X15532100Y4521200D02*
D03*
X15792101D02*
D03*
X15367000Y6324600D02*
D03*
X15627000D02*
D03*
X13798199Y5575300D02*
D03*
X13538200D02*
D03*
X14630400Y4041300D02*
D03*
X14370399D02*
D03*
X16344901Y3517900D02*
D03*
X16604900D02*
D03*
D30*
X13957300Y3440500D02*
D03*
Y3290500D02*
D03*
D35*
X16635100Y3771900D02*
D03*
X16715100D02*
D03*
D37*
X16691971Y5448300D02*
D03*
X16556628D02*
D03*
D38*
X16894299Y5219700D02*
D03*
Y5092700D02*
D03*
Y4965700D02*
D03*
Y4838700D02*
D03*
X16354300D02*
D03*
Y4965700D02*
D03*
Y5092700D02*
D03*
Y5219700D02*
D03*
D39*
X5124000Y3009800D02*
D03*
X5334000D02*
D03*
Y2844800D02*
D03*
X5124000D02*
D03*
D41*
X5688400Y9436100D02*
D03*
X5538400D02*
D03*
X5205800Y9448800D02*
D03*
X5055800D02*
D03*
X4673600Y9461500D02*
D03*
X4523600D02*
D03*
D47*
X17335500Y3594100D02*
D03*
X17221201Y4914900D02*
D03*
D48*
X17335500Y3340100D02*
D03*
X17221201Y5168900D02*
D03*
D49*
X9232900Y12026900D02*
D03*
X17106900D02*
D03*
X15328900D02*
D03*
X13169901D02*
D03*
X11391900D02*
D03*
X7454900D02*
D03*
X5295900D02*
D03*
X3517900D02*
D03*
D50*
X4194500Y4038800D02*
D03*
Y3809800D02*
D03*
Y4952800D02*
D03*
Y5181800D02*
D03*
X3534500Y4749800D02*
D03*
Y4545800D02*
D03*
Y4341800D02*
D03*
X3712500Y4851800D02*
D03*
Y4647800D02*
D03*
Y4443800D02*
D03*
Y4239800D02*
D03*
D51*
X3534500Y4137800D02*
D03*
D52*
X3623500Y3682800D02*
D03*
Y5308800D02*
D03*
D53*
X3280500Y3860800D02*
D03*
Y5130800D02*
D03*
D55*
X6592900Y4281500D02*
D03*
Y4381500D02*
D03*
Y4481500D02*
D03*
X6692900Y4281500D02*
D03*
Y4381500D02*
D03*
Y4481500D02*
D03*
X6792900Y4281500D02*
D03*
Y4381500D02*
D03*
Y4481500D02*
D03*
D69*
X5664200Y9258300D02*
D03*
X5544200D02*
D03*
X5174600Y9271000D02*
D03*
X5054600D02*
D03*
X4641200D02*
D03*
X4521200D02*
D03*
X4095100Y8597900D02*
D03*
X3975100D02*
D03*
X8115300Y4584700D02*
D03*
X7995300D02*
D03*
X8108300Y4267200D02*
D03*
X7988300D02*
D03*
X8108300Y4102100D02*
D03*
X7988300D02*
D03*
X7378700Y4749800D02*
D03*
X7258700D02*
D03*
Y4584700D02*
D03*
X7378700D02*
D03*
X7255200Y4432300D02*
D03*
X7375200D02*
D03*
X7264400Y4051300D02*
D03*
X7384400D02*
D03*
X7264400Y3873500D02*
D03*
X7384400D02*
D03*
X5930900Y3289300D02*
D03*
X6050900D02*
D03*
X5429900Y3606800D02*
D03*
X5549900D02*
D03*
D70*
X13652499Y4627600D02*
D03*
X14465300Y3078200D02*
D03*
D71*
X13422501Y5227600D02*
D03*
X13652499D02*
D03*
X13882500D02*
D03*
X14695300Y3678200D02*
D03*
X14465300D02*
D03*
X14235300D02*
D03*
D72*
X4203700Y5575300D02*
D03*
Y5695300D02*
D03*
X3949700Y5575300D02*
D03*
Y5695300D02*
D03*
X4191000Y3429000D02*
D03*
Y3309000D02*
D03*
X13779500Y3296300D02*
D03*
Y3416300D02*
D03*
D73*
X4806900Y4876800D02*
D03*
Y4749800D02*
D03*
Y4622800D02*
D03*
Y4495800D02*
D03*
Y4368800D02*
D03*
Y4241800D02*
D03*
Y4114800D02*
D03*
X5657900Y4876800D02*
D03*
Y4749800D02*
D03*
Y4622800D02*
D03*
Y4495800D02*
D03*
Y4368800D02*
D03*
Y4241800D02*
D03*
Y4114800D02*
D03*
X4806900Y3987800D02*
D03*
X5657900D02*
D03*
D74*
X7658100Y2895600D02*
D03*
X7353100D02*
D03*
X7658300Y3517900D02*
D03*
X7353300D02*
D03*
Y3213100D02*
D03*
X7658300D02*
D03*
D75*
X8575800Y2946400D02*
D03*
Y3073400D02*
D03*
Y3200400D02*
D03*
Y3327400D02*
D03*
X8035800Y2946400D02*
D03*
Y3073400D02*
D03*
Y3200400D02*
D03*
Y3327400D02*
D03*
D76*
X2901000Y8851900D02*
D03*
Y8597900D02*
D03*
Y8343900D02*
D03*
X3576000Y8851900D02*
D03*
Y8597900D02*
D03*
Y8343900D02*
D03*
X2901000Y8089900D02*
D03*
X3576000D02*
D03*
Y7327900D02*
D03*
X2901000D02*
D03*
X3576000Y7581900D02*
D03*
X2901000D02*
D03*
X3576000Y7835900D02*
D03*
X2901000D02*
D03*
D77*
X15568600Y6680200D02*
D03*
X15368600Y6585200D02*
D03*
Y6775200D02*
D03*
D78*
X15986600Y2959100D02*
D03*
D79*
X16601601Y3189100D02*
D03*
Y2959100D02*
D03*
Y2729100D02*
D03*
D80*
X16967200Y3743300D02*
D03*
Y3343300D02*
D03*
D81*
X16344901Y3784600D02*
D03*
X16144901D02*
D03*
X14290700Y7023100D02*
D03*
X14490700D02*
D03*
D82*
X13119099Y6480200D02*
D03*
Y6680200D02*
D03*
X13919200Y6527800D02*
D03*
Y6727800D02*
D03*
X13665199Y6480200D02*
D03*
Y6680200D02*
D03*
X13385800Y6480200D02*
D03*
Y6680200D02*
D03*
X14185899Y6527800D02*
D03*
Y6727800D02*
D03*
X14452600Y6527800D02*
D03*
Y6727800D02*
D03*
D83*
X4851400Y3149800D02*
D03*
Y2844800D02*
D03*
X5626100D02*
D03*
Y3149800D02*
D03*
D84*
X15337399Y4927600D02*
D03*
D85*
X15537399Y5077600D02*
D03*
Y4777600D02*
D03*
D86*
X15542400Y4927600D02*
D03*
D87*
X6286500Y4114845D02*
D03*
X5372100Y4339987D02*
D03*
X6128124Y3774266D02*
D03*
X5501764Y4013200D02*
D03*
X5384800Y4622800D02*
D03*
X5194300Y4533900D02*
D03*
X6013263Y4463863D02*
D03*
X5905500Y4622800D02*
D03*
X5829300Y4343400D02*
D03*
X4944383Y3879942D02*
D03*
X7531100Y4419600D02*
D03*
X7327900Y7480300D02*
D03*
X8672600Y8140700D02*
D03*
X8458200Y7988300D02*
D03*
X8115300Y3793038D02*
D03*
X6553200Y2967538D02*
D03*
X3162300Y4491538D02*
D03*
X3378200Y3005638D02*
D03*
X4419600Y6498138D02*
D03*
X8280400Y6485438D02*
D03*
X8331200Y6815638D02*
D03*
X9169400Y6663238D02*
D03*
X8166100Y7844338D02*
D03*
X9067800Y8047538D02*
D03*
X8775700Y7336338D02*
D03*
X7137400Y8911138D02*
D03*
X9944100Y8860338D02*
D03*
X10553700Y7539538D02*
D03*
X10769600Y6002838D02*
D03*
X9309100Y3666038D02*
D03*
X11925300Y3119938D02*
D03*
X12090400Y4491538D02*
D03*
X13652499Y3958138D02*
D03*
X15532100Y3170738D02*
D03*
X16433800Y4364538D02*
D03*
X16128999Y5774238D02*
D03*
X13868401Y7349038D02*
D03*
X14808200Y6726738D02*
D03*
X14122400Y7162800D02*
D03*
X8032704Y6457804D02*
D03*
X7391400Y6629400D02*
D03*
X5524500Y3327400D02*
D03*
X4851400Y3657600D02*
D03*
X6604000Y3403600D02*
D03*
X4203700Y9372600D02*
D03*
X4394200Y9093200D02*
D03*
X4152900Y8801100D02*
D03*
X5105400Y8255000D02*
D03*
X3378200Y9817100D02*
D03*
X3302000Y9105900D02*
D03*
X6337300Y8521700D02*
D03*
X4622800Y9055100D02*
D03*
X5321300Y9042400D02*
D03*
X4178300Y8432800D02*
D03*
X3911600Y8267700D02*
D03*
X3213100Y8204200D02*
D03*
X10541000Y8699500D02*
D03*
X9639300Y9321800D02*
D03*
X7708900Y9017000D02*
D03*
X5461000Y6057900D02*
D03*
X5676900Y6705600D02*
D03*
X5702300Y6477000D02*
D03*
X5695950Y6280150D02*
D03*
X5702300Y5905500D02*
D03*
X5372100Y5791200D02*
D03*
X12204700Y7251700D02*
D03*
X11849100Y7569200D02*
D03*
X6934200Y6883400D02*
D03*
X8394700Y8623300D02*
D03*
X8597900Y8585200D02*
D03*
X8115300Y9093200D02*
D03*
X7175500Y7937500D02*
D03*
X8318500Y8978900D02*
D03*
X6477000Y5981700D02*
D03*
X7404100Y5372100D02*
D03*
X8813800Y5384800D02*
D03*
X8851900Y5575300D02*
D03*
X7620000Y5363309D02*
D03*
X7658100Y5041900D02*
D03*
X8610600Y5359400D02*
D03*
X6515500Y6654800D02*
D03*
X7861300Y5579411D02*
D03*
Y5376009D02*
D03*
X6934200Y6426200D02*
D03*
X8775700Y8686800D02*
D03*
X7099300Y7239000D02*
D03*
X7175500Y7721600D02*
D03*
X11836400Y6692900D02*
D03*
X12865100Y6718300D02*
D03*
X11887200Y5727700D02*
D03*
X11747500Y5575300D02*
D03*
X12331700Y6197600D02*
D03*
X12153900Y6057900D02*
D03*
X8940800Y8597900D02*
D03*
X11303000Y7899400D02*
D03*
X11061700Y8115300D02*
D03*
X16116299Y4457700D02*
D03*
Y4635500D02*
D03*
X7861300Y5765800D02*
D03*
X7073900Y3733800D02*
D03*
X7848600Y4457700D02*
D03*
X11607800Y5435600D02*
D03*
X8801100Y3924300D02*
D03*
X8686800Y4038600D02*
D03*
X8559800Y6400800D02*
D03*
X7861300Y5956300D02*
D03*
X7213600Y6426200D02*
D03*
X12026900Y5892800D02*
D03*
X4521200Y8001000D02*
D03*
X3225800D02*
D03*
X3797300Y9182100D02*
D03*
X6502400Y5130800D02*
D03*
X9626600Y7124700D02*
D03*
X7912100Y6972300D02*
D03*
X9639300Y8128000D02*
D03*
X7670800Y4254500D02*
D03*
X13899400Y7785100D02*
D03*
X5892800Y4864100D02*
D03*
X6921500Y4000500D02*
D03*
X4470400Y5181600D02*
D03*
X4546600Y4127500D02*
D03*
X4508500Y4724400D02*
D03*
X15062199Y7239000D02*
D03*
X14224001Y7620000D02*
D03*
%TF.MD5,3722b0584015afeb7efc38f2fdbeab7c*%
M02*
