G04*
G04 #@! TF.GenerationSoftware,Altium Limited,Altium Designer,24.1.2 (44)*
G04*
G04 Layer_Color=255*
%FSLAX44Y44*%
%MOMM*%
G71*
G04*
G04 #@! TF.SameCoordinates,0A8073CA-4D69-4BD4-B8E1-8B9189CEBFBB*
G04*
G04*
G04 #@! TF.FilePolarity,Positive*
G04*
G01*
G75*
%ADD23R,0.2500X0.3000*%
%ADD27R,0.9000X0.8000*%
%ADD35R,0.3000X0.2500*%
%ADD43R,1.2000X1.4500*%
%ADD44R,0.4000X0.5000*%
%ADD72C,1.5700*%
%ADD73R,1.5700X1.5700*%
%ADD74C,9.5500*%
%ADD75C,1.3900*%
%ADD76R,1.3900X1.3900*%
%ADD77C,2.4200*%
%ADD78C,3.2500*%
%ADD83R,1.5562X1.5781*%
%ADD84R,0.7000X0.6500*%
%ADD85R,0.5000X0.4000*%
%ADD86R,0.9500X1.3500*%
D23*
X732625Y401320D02*
D03*
X727875D02*
D03*
X732460Y441960D02*
D03*
X727710D02*
D03*
X732460Y461010D02*
D03*
X727710D02*
D03*
X732460Y477520D02*
D03*
X727710D02*
D03*
X732460Y421640D02*
D03*
X727710D02*
D03*
X505625Y443230D02*
D03*
X510375D02*
D03*
X1402410Y801370D02*
D03*
X1407160D02*
D03*
X1402410Y787400D02*
D03*
X1407160D02*
D03*
X1426210Y720090D02*
D03*
X1421460D02*
D03*
D27*
X635000Y515270D02*
D03*
Y503270D02*
D03*
X619760Y514920D02*
D03*
Y502920D02*
D03*
X604520Y514920D02*
D03*
Y502920D02*
D03*
X589280Y514920D02*
D03*
Y502920D02*
D03*
X505460Y474630D02*
D03*
Y462630D02*
D03*
Y411480D02*
D03*
Y423480D02*
D03*
D35*
X880110Y785965D02*
D03*
Y781215D02*
D03*
X791210Y720255D02*
D03*
Y725005D02*
D03*
X939800Y725500D02*
D03*
Y730250D02*
D03*
X925830Y725335D02*
D03*
Y730085D02*
D03*
X911860Y725335D02*
D03*
Y730085D02*
D03*
Y714680D02*
D03*
Y709930D02*
D03*
X925830Y715010D02*
D03*
Y710260D02*
D03*
X566420Y445605D02*
D03*
Y440855D02*
D03*
X1424940Y738810D02*
D03*
Y734060D02*
D03*
D43*
X1443990Y767080D02*
D03*
X1463990D02*
D03*
D44*
X674370Y381000D02*
D03*
X666370D02*
D03*
X674370Y400050D02*
D03*
X666370D02*
D03*
D72*
X1733550Y359410D02*
D03*
X1722120Y491490D02*
D03*
D73*
X1733550Y334010D02*
D03*
X1722120Y516890D02*
D03*
D74*
X923290Y1202690D02*
D03*
X1710690D02*
D03*
X1532890D02*
D03*
X1316990D02*
D03*
X1139190D02*
D03*
X745490D02*
D03*
X529590D02*
D03*
X351790D02*
D03*
D75*
X419450Y403880D02*
D03*
Y380980D02*
D03*
Y495280D02*
D03*
Y518180D02*
D03*
X353450Y474980D02*
D03*
Y454580D02*
D03*
Y434180D02*
D03*
X371250Y485180D02*
D03*
Y464780D02*
D03*
Y444380D02*
D03*
Y423980D02*
D03*
D76*
X353450Y413780D02*
D03*
D77*
X362350Y368280D02*
D03*
Y530880D02*
D03*
D78*
X328050Y386080D02*
D03*
Y513080D02*
D03*
D83*
X854710Y791981D02*
D03*
Y774700D02*
D03*
X817880Y713989D02*
D03*
Y731271D02*
D03*
X855980Y665979D02*
D03*
Y683260D02*
D03*
D84*
X796290Y657860D02*
D03*
Y671360D02*
D03*
X944880Y813200D02*
D03*
Y799700D02*
D03*
D85*
X942340Y715010D02*
D03*
Y707010D02*
D03*
D86*
X735210Y510540D02*
D03*
X720210D02*
D03*
X1400810Y739140D02*
D03*
X1385810D02*
D03*
M02*
