G04*
G04 #@! TF.GenerationSoftware,Altium Limited,Altium Designer,24.1.2 (44)*
G04*
G04 Layer_Physical_Order=2*
G04 Layer_Color=16711680*
%FSLAX44Y44*%
%MOMM*%
G71*
G04*
G04 #@! TF.SameCoordinates,0A8073CA-4D69-4BD4-B8E1-8B9189CEBFBB*
G04*
G04*
G04 #@! TF.FilePolarity,Positive*
G04*
G01*
G75*
%ADD17C,0.2540*%
%ADD23R,0.2500X0.3000*%
%ADD27R,0.9000X0.8000*%
%ADD35R,0.3000X0.2500*%
%ADD43R,1.2000X1.4500*%
%ADD44R,0.4000X0.5000*%
%ADD72C,1.5700*%
%ADD73R,1.5700X1.5700*%
%ADD74C,9.5500*%
%ADD75C,1.3900*%
%ADD76R,1.3900X1.3900*%
%ADD77C,2.4200*%
%ADD78C,3.2500*%
%ADD80C,0.6000*%
%ADD82C,1.2700*%
%ADD83R,1.5562X1.5781*%
%ADD84R,0.7000X0.6500*%
%ADD85R,0.5000X0.4000*%
%ADD86R,0.9500X1.3500*%
G36*
X1778000Y254000D02*
X254000D01*
Y1270000D01*
X1778000D01*
Y254000D01*
D02*
G37*
%LPC*%
G36*
X1710690Y1253088D02*
X1704112Y1252657D01*
X1697646Y1251371D01*
X1691404Y1249252D01*
X1685491Y1246336D01*
X1680010Y1242673D01*
X1675053Y1238327D01*
X1670707Y1233370D01*
X1667044Y1227889D01*
X1664128Y1221976D01*
X1662009Y1215734D01*
X1660723Y1209268D01*
X1660292Y1202690D01*
X1660723Y1196112D01*
X1662009Y1189646D01*
X1664128Y1183404D01*
X1667044Y1177491D01*
X1670707Y1172010D01*
X1675053Y1167053D01*
X1680010Y1162707D01*
X1685491Y1159044D01*
X1691404Y1156128D01*
X1697646Y1154009D01*
X1704112Y1152723D01*
X1710690Y1152292D01*
X1717268Y1152723D01*
X1723734Y1154009D01*
X1729976Y1156128D01*
X1735889Y1159044D01*
X1741370Y1162707D01*
X1746327Y1167053D01*
X1750673Y1172010D01*
X1754336Y1177491D01*
X1757252Y1183404D01*
X1759371Y1189646D01*
X1760657Y1196112D01*
X1761088Y1202690D01*
X1760657Y1209268D01*
X1759371Y1215734D01*
X1757252Y1221976D01*
X1754336Y1227889D01*
X1750673Y1233370D01*
X1746327Y1238327D01*
X1741370Y1242673D01*
X1735889Y1246336D01*
X1729976Y1249252D01*
X1723734Y1251371D01*
X1717268Y1252657D01*
X1710690Y1253088D01*
D02*
G37*
G36*
X1532890D02*
X1526312Y1252657D01*
X1519846Y1251371D01*
X1513604Y1249252D01*
X1507691Y1246336D01*
X1502210Y1242673D01*
X1497253Y1238327D01*
X1492907Y1233370D01*
X1489244Y1227889D01*
X1486328Y1221976D01*
X1484209Y1215734D01*
X1482923Y1209268D01*
X1482492Y1202690D01*
X1482923Y1196112D01*
X1484209Y1189646D01*
X1486328Y1183404D01*
X1489244Y1177491D01*
X1492907Y1172010D01*
X1497253Y1167053D01*
X1502210Y1162707D01*
X1507691Y1159044D01*
X1513604Y1156128D01*
X1519846Y1154009D01*
X1526312Y1152723D01*
X1532890Y1152292D01*
X1539468Y1152723D01*
X1545934Y1154009D01*
X1552176Y1156128D01*
X1558089Y1159044D01*
X1563570Y1162707D01*
X1568527Y1167053D01*
X1572873Y1172010D01*
X1576536Y1177491D01*
X1579452Y1183404D01*
X1581571Y1189646D01*
X1582857Y1196112D01*
X1583288Y1202690D01*
X1582857Y1209268D01*
X1581571Y1215734D01*
X1579452Y1221976D01*
X1576536Y1227889D01*
X1572873Y1233370D01*
X1568527Y1238327D01*
X1563570Y1242673D01*
X1558089Y1246336D01*
X1552176Y1249252D01*
X1545934Y1251371D01*
X1539468Y1252657D01*
X1532890Y1253088D01*
D02*
G37*
G36*
X1316990D02*
X1310412Y1252657D01*
X1303946Y1251371D01*
X1297704Y1249252D01*
X1291791Y1246336D01*
X1286310Y1242673D01*
X1281353Y1238327D01*
X1277007Y1233370D01*
X1273344Y1227889D01*
X1270428Y1221976D01*
X1268309Y1215734D01*
X1267023Y1209268D01*
X1266592Y1202690D01*
X1267023Y1196112D01*
X1268309Y1189646D01*
X1270428Y1183404D01*
X1273344Y1177491D01*
X1277007Y1172010D01*
X1281353Y1167053D01*
X1286310Y1162707D01*
X1291791Y1159044D01*
X1297704Y1156128D01*
X1303946Y1154009D01*
X1310412Y1152723D01*
X1316990Y1152292D01*
X1323568Y1152723D01*
X1330034Y1154009D01*
X1336276Y1156128D01*
X1342189Y1159044D01*
X1347670Y1162707D01*
X1352627Y1167053D01*
X1356973Y1172010D01*
X1360636Y1177491D01*
X1363552Y1183404D01*
X1365671Y1189646D01*
X1366957Y1196112D01*
X1367388Y1202690D01*
X1366957Y1209268D01*
X1365671Y1215734D01*
X1363552Y1221976D01*
X1360636Y1227889D01*
X1356973Y1233370D01*
X1352627Y1238327D01*
X1347670Y1242673D01*
X1342189Y1246336D01*
X1336276Y1249252D01*
X1330034Y1251371D01*
X1323568Y1252657D01*
X1316990Y1253088D01*
D02*
G37*
G36*
X1139190D02*
X1132612Y1252657D01*
X1126146Y1251371D01*
X1119904Y1249252D01*
X1113991Y1246336D01*
X1108510Y1242673D01*
X1103553Y1238327D01*
X1099207Y1233370D01*
X1095544Y1227889D01*
X1092628Y1221976D01*
X1090509Y1215734D01*
X1089223Y1209268D01*
X1088792Y1202690D01*
X1089223Y1196112D01*
X1090509Y1189646D01*
X1092628Y1183404D01*
X1095544Y1177491D01*
X1099207Y1172010D01*
X1103553Y1167053D01*
X1108510Y1162707D01*
X1113991Y1159044D01*
X1119904Y1156128D01*
X1126146Y1154009D01*
X1132612Y1152723D01*
X1139190Y1152292D01*
X1145768Y1152723D01*
X1152234Y1154009D01*
X1158476Y1156128D01*
X1164389Y1159044D01*
X1169870Y1162707D01*
X1174827Y1167053D01*
X1179173Y1172010D01*
X1182836Y1177491D01*
X1185752Y1183404D01*
X1187871Y1189646D01*
X1189157Y1196112D01*
X1189588Y1202690D01*
X1189157Y1209268D01*
X1187871Y1215734D01*
X1185752Y1221976D01*
X1182836Y1227889D01*
X1179173Y1233370D01*
X1174827Y1238327D01*
X1169870Y1242673D01*
X1164389Y1246336D01*
X1158476Y1249252D01*
X1152234Y1251371D01*
X1145768Y1252657D01*
X1139190Y1253088D01*
D02*
G37*
G36*
X923290D02*
X916712Y1252657D01*
X910246Y1251371D01*
X904004Y1249252D01*
X898091Y1246336D01*
X892610Y1242673D01*
X887653Y1238327D01*
X883307Y1233370D01*
X879644Y1227889D01*
X876728Y1221976D01*
X874609Y1215734D01*
X873323Y1209268D01*
X872892Y1202690D01*
X873323Y1196112D01*
X874609Y1189646D01*
X876728Y1183404D01*
X879644Y1177491D01*
X883307Y1172010D01*
X887653Y1167053D01*
X892610Y1162707D01*
X898091Y1159044D01*
X904004Y1156128D01*
X910246Y1154009D01*
X916712Y1152723D01*
X923290Y1152292D01*
X929868Y1152723D01*
X936334Y1154009D01*
X942576Y1156128D01*
X948489Y1159044D01*
X953970Y1162707D01*
X958927Y1167053D01*
X963273Y1172010D01*
X966936Y1177491D01*
X969852Y1183404D01*
X971971Y1189646D01*
X973257Y1196112D01*
X973688Y1202690D01*
X973257Y1209268D01*
X971971Y1215734D01*
X969852Y1221976D01*
X966936Y1227889D01*
X963273Y1233370D01*
X958927Y1238327D01*
X953970Y1242673D01*
X948489Y1246336D01*
X942576Y1249252D01*
X936334Y1251371D01*
X929868Y1252657D01*
X923290Y1253088D01*
D02*
G37*
G36*
X745490D02*
X738912Y1252657D01*
X732446Y1251371D01*
X726204Y1249252D01*
X720291Y1246336D01*
X714810Y1242673D01*
X709853Y1238327D01*
X705507Y1233370D01*
X701844Y1227889D01*
X698928Y1221976D01*
X696809Y1215734D01*
X695523Y1209268D01*
X695092Y1202690D01*
X695523Y1196112D01*
X696809Y1189646D01*
X698928Y1183404D01*
X701844Y1177491D01*
X705507Y1172010D01*
X709853Y1167053D01*
X714810Y1162707D01*
X720291Y1159044D01*
X726204Y1156128D01*
X732446Y1154009D01*
X738912Y1152723D01*
X745490Y1152292D01*
X752068Y1152723D01*
X758534Y1154009D01*
X764776Y1156128D01*
X770689Y1159044D01*
X776170Y1162707D01*
X781127Y1167053D01*
X785473Y1172010D01*
X789136Y1177491D01*
X792052Y1183404D01*
X794171Y1189646D01*
X795457Y1196112D01*
X795888Y1202690D01*
X795457Y1209268D01*
X794171Y1215734D01*
X792052Y1221976D01*
X789136Y1227889D01*
X785473Y1233370D01*
X781127Y1238327D01*
X776170Y1242673D01*
X770689Y1246336D01*
X764776Y1249252D01*
X758534Y1251371D01*
X752068Y1252657D01*
X745490Y1253088D01*
D02*
G37*
G36*
X529590D02*
X523012Y1252657D01*
X516546Y1251371D01*
X510304Y1249252D01*
X504391Y1246336D01*
X498910Y1242673D01*
X493953Y1238327D01*
X489607Y1233370D01*
X485944Y1227889D01*
X483028Y1221976D01*
X480909Y1215734D01*
X479623Y1209268D01*
X479192Y1202690D01*
X479623Y1196112D01*
X480909Y1189646D01*
X483028Y1183404D01*
X485944Y1177491D01*
X489607Y1172010D01*
X493953Y1167053D01*
X498910Y1162707D01*
X504391Y1159044D01*
X510304Y1156128D01*
X516546Y1154009D01*
X523012Y1152723D01*
X529590Y1152292D01*
X536168Y1152723D01*
X542634Y1154009D01*
X548876Y1156128D01*
X554789Y1159044D01*
X560270Y1162707D01*
X565227Y1167053D01*
X569573Y1172010D01*
X573236Y1177491D01*
X576152Y1183404D01*
X578271Y1189646D01*
X579557Y1196112D01*
X579988Y1202690D01*
X579557Y1209268D01*
X578271Y1215734D01*
X576152Y1221976D01*
X573236Y1227889D01*
X569573Y1233370D01*
X565227Y1238327D01*
X560270Y1242673D01*
X554789Y1246336D01*
X548876Y1249252D01*
X542634Y1251371D01*
X536168Y1252657D01*
X529590Y1253088D01*
D02*
G37*
G36*
X351790D02*
X345212Y1252657D01*
X338746Y1251371D01*
X332504Y1249252D01*
X326591Y1246336D01*
X321110Y1242673D01*
X316153Y1238327D01*
X311807Y1233370D01*
X308144Y1227889D01*
X305228Y1221976D01*
X303109Y1215734D01*
X301823Y1209268D01*
X301392Y1202690D01*
X301823Y1196112D01*
X303109Y1189646D01*
X305228Y1183404D01*
X308144Y1177491D01*
X311807Y1172010D01*
X316153Y1167053D01*
X321110Y1162707D01*
X326591Y1159044D01*
X332504Y1156128D01*
X338746Y1154009D01*
X345212Y1152723D01*
X351790Y1152292D01*
X358368Y1152723D01*
X364834Y1154009D01*
X371076Y1156128D01*
X376989Y1159044D01*
X382470Y1162707D01*
X387427Y1167053D01*
X391773Y1172010D01*
X395436Y1177491D01*
X398352Y1183404D01*
X400471Y1189646D01*
X401757Y1196112D01*
X402188Y1202690D01*
X401757Y1209268D01*
X400471Y1215734D01*
X398352Y1221976D01*
X395436Y1227889D01*
X391773Y1233370D01*
X387427Y1238327D01*
X382470Y1242673D01*
X376989Y1246336D01*
X371076Y1249252D01*
X364834Y1251371D01*
X358368Y1252657D01*
X351790Y1253088D01*
D02*
G37*
G36*
X339090Y990509D02*
Y982980D01*
X346619D01*
X346481Y984031D01*
X345585Y986193D01*
X344160Y988050D01*
X342303Y989475D01*
X340141Y990371D01*
X339090Y990509D01*
D02*
G37*
G36*
X336550D02*
X335499Y990371D01*
X333337Y989475D01*
X331480Y988050D01*
X330055Y986193D01*
X329159Y984031D01*
X329021Y982980D01*
X336550D01*
Y990509D01*
D02*
G37*
G36*
X346619Y980440D02*
X339090D01*
Y972911D01*
X340141Y973049D01*
X342303Y973945D01*
X344160Y975370D01*
X345585Y977227D01*
X346481Y979389D01*
X346619Y980440D01*
D02*
G37*
G36*
X336550D02*
X329021D01*
X329159Y979389D01*
X330055Y977227D01*
X331480Y975370D01*
X333337Y973945D01*
X335499Y973049D01*
X336550Y972911D01*
Y980440D01*
D02*
G37*
G36*
X331470Y919389D02*
Y911860D01*
X338999D01*
X338861Y912911D01*
X337965Y915073D01*
X336540Y916930D01*
X334683Y918355D01*
X332521Y919251D01*
X331470Y919389D01*
D02*
G37*
G36*
X328930D02*
X327879Y919251D01*
X325717Y918355D01*
X323860Y916930D01*
X322435Y915073D01*
X321539Y912911D01*
X321400Y911860D01*
X328930D01*
Y919389D01*
D02*
G37*
G36*
X463550Y914309D02*
Y906780D01*
X471079D01*
X470941Y907831D01*
X470045Y909993D01*
X468620Y911850D01*
X466763Y913275D01*
X464601Y914171D01*
X463550Y914309D01*
D02*
G37*
G36*
X461010D02*
X459959Y914171D01*
X457797Y913275D01*
X455940Y911850D01*
X454515Y909993D01*
X453619Y907831D01*
X453480Y906780D01*
X461010D01*
Y914309D01*
D02*
G37*
G36*
X533400Y913039D02*
Y905510D01*
X540929D01*
X540791Y906561D01*
X539895Y908723D01*
X538470Y910580D01*
X536613Y912005D01*
X534451Y912901D01*
X533400Y913039D01*
D02*
G37*
G36*
X530860D02*
X529809Y912901D01*
X527647Y912005D01*
X525790Y910580D01*
X524365Y908723D01*
X523469Y906561D01*
X523330Y905510D01*
X530860D01*
Y913039D01*
D02*
G37*
G36*
X338999Y909320D02*
X331470D01*
Y901790D01*
X332521Y901929D01*
X334683Y902825D01*
X336540Y904250D01*
X337965Y906107D01*
X338861Y908269D01*
X338999Y909320D01*
D02*
G37*
G36*
X328930D02*
X321400D01*
X321539Y908269D01*
X322435Y906107D01*
X323860Y904250D01*
X325717Y902825D01*
X327879Y901929D01*
X328930Y901790D01*
Y909320D01*
D02*
G37*
G36*
X420370Y946227D02*
X418049Y945921D01*
X415887Y945025D01*
X414030Y943600D01*
X412605Y941743D01*
X411709Y939581D01*
X411403Y937260D01*
X411709Y934939D01*
X412605Y932777D01*
X414030Y930920D01*
X415887Y929495D01*
X418049Y928599D01*
X420370Y928293D01*
X422691Y928599D01*
X423289Y928847D01*
X434265Y917871D01*
Y916570D01*
X433080Y915660D01*
X431655Y913803D01*
X430759Y911641D01*
X430453Y909320D01*
X430759Y906999D01*
X431655Y904837D01*
X433080Y902980D01*
X434937Y901555D01*
X437099Y900659D01*
X439420Y900353D01*
X441741Y900659D01*
X443903Y901555D01*
X445760Y902980D01*
X447185Y904837D01*
X448081Y906999D01*
X448387Y909320D01*
X448081Y911641D01*
X447185Y913803D01*
X445760Y915660D01*
X443903Y917085D01*
X442035Y917859D01*
Y919480D01*
X441739Y920967D01*
X440897Y922227D01*
X428783Y934341D01*
X429031Y934939D01*
X429337Y937260D01*
X429031Y939581D01*
X428135Y941743D01*
X426710Y943600D01*
X424853Y945025D01*
X422691Y945921D01*
X420370Y946227D01*
D02*
G37*
G36*
X471079Y904240D02*
X463550D01*
Y896711D01*
X464601Y896849D01*
X466763Y897745D01*
X468620Y899170D01*
X470045Y901027D01*
X470941Y903189D01*
X471079Y904240D01*
D02*
G37*
G36*
X461010D02*
X453480D01*
X453619Y903189D01*
X454515Y901027D01*
X455940Y899170D01*
X457797Y897745D01*
X459959Y896849D01*
X461010Y896711D01*
Y904240D01*
D02*
G37*
G36*
X540929Y902970D02*
X533400D01*
Y895441D01*
X534451Y895579D01*
X536613Y896475D01*
X538470Y897900D01*
X539895Y899757D01*
X540791Y901919D01*
X540929Y902970D01*
D02*
G37*
G36*
X530860D02*
X523330D01*
X523469Y901919D01*
X524365Y899757D01*
X525790Y897900D01*
X527647Y896475D01*
X529809Y895579D01*
X530860Y895441D01*
Y902970D01*
D02*
G37*
G36*
X379730Y927177D02*
X377409Y926871D01*
X375247Y925975D01*
X373390Y924550D01*
X371965Y922693D01*
X371069Y920531D01*
X370763Y918210D01*
X371069Y915889D01*
X371965Y913727D01*
X373390Y911870D01*
X375247Y910445D01*
X377409Y909549D01*
X379730Y909243D01*
X381677Y909500D01*
X407249Y883928D01*
X406629Y882431D01*
X406323Y880110D01*
X406629Y877789D01*
X407525Y875627D01*
X408950Y873770D01*
X410807Y872345D01*
X412969Y871449D01*
X415290Y871143D01*
X417611Y871449D01*
X419773Y872345D01*
X421630Y873770D01*
X423055Y875627D01*
X423951Y877789D01*
X424257Y880110D01*
X423951Y882431D01*
X423055Y884593D01*
X421630Y886450D01*
X419773Y887875D01*
X417611Y888771D01*
X415290Y889077D01*
X413343Y888820D01*
X387771Y914392D01*
X388391Y915889D01*
X388697Y918210D01*
X388391Y920531D01*
X387495Y922693D01*
X386070Y924550D01*
X384213Y925975D01*
X382051Y926871D01*
X379730Y927177D01*
D02*
G37*
G36*
X635000Y860969D02*
Y853440D01*
X642530D01*
X642391Y854491D01*
X641495Y856653D01*
X640070Y858510D01*
X638213Y859935D01*
X636051Y860831D01*
X635000Y860969D01*
D02*
G37*
G36*
X632460D02*
X631409Y860831D01*
X629247Y859935D01*
X627390Y858510D01*
X625965Y856653D01*
X625069Y854491D01*
X624930Y853440D01*
X632460D01*
Y860969D01*
D02*
G37*
G36*
X419100Y852079D02*
Y844550D01*
X426629D01*
X426491Y845601D01*
X425595Y847763D01*
X424170Y849620D01*
X422313Y851045D01*
X420151Y851941D01*
X419100Y852079D01*
D02*
G37*
G36*
X416560D02*
X415509Y851941D01*
X413347Y851045D01*
X411490Y849620D01*
X410065Y847763D01*
X409169Y845601D01*
X409030Y844550D01*
X416560D01*
Y852079D01*
D02*
G37*
G36*
X642530Y850900D02*
X635000D01*
Y843371D01*
X636051Y843509D01*
X638213Y844405D01*
X640070Y845830D01*
X641495Y847687D01*
X642391Y849849D01*
X642530Y850900D01*
D02*
G37*
G36*
X632460D02*
X624930D01*
X625069Y849849D01*
X625965Y847687D01*
X627390Y845830D01*
X629247Y844405D01*
X631409Y843509D01*
X632460Y843371D01*
Y850900D01*
D02*
G37*
G36*
X426629Y842010D02*
X419100D01*
Y834481D01*
X420151Y834619D01*
X422313Y835515D01*
X424170Y836940D01*
X425595Y838797D01*
X426491Y840959D01*
X426629Y842010D01*
D02*
G37*
G36*
X416560D02*
X409030D01*
X409169Y840959D01*
X410065Y838797D01*
X411490Y836940D01*
X413347Y835515D01*
X415509Y834619D01*
X416560Y834481D01*
Y842010D01*
D02*
G37*
G36*
X392430Y835570D02*
Y828040D01*
X399959D01*
X399821Y829091D01*
X398925Y831253D01*
X397500Y833110D01*
X395643Y834535D01*
X393481Y835431D01*
X392430Y835570D01*
D02*
G37*
G36*
X389890D02*
X388839Y835431D01*
X386677Y834535D01*
X384820Y833110D01*
X383395Y831253D01*
X382499Y829091D01*
X382360Y828040D01*
X389890D01*
Y835570D01*
D02*
G37*
G36*
X511810Y834299D02*
Y826770D01*
X519339D01*
X519201Y827821D01*
X518305Y829983D01*
X516880Y831840D01*
X515023Y833265D01*
X512861Y834161D01*
X511810Y834299D01*
D02*
G37*
G36*
X509270D02*
X508219Y834161D01*
X506057Y833265D01*
X504200Y831840D01*
X502775Y829983D01*
X501879Y827821D01*
X501740Y826770D01*
X509270D01*
Y834299D01*
D02*
G37*
G36*
X322580Y829220D02*
Y821690D01*
X330109D01*
X329971Y822741D01*
X329075Y824903D01*
X327650Y826760D01*
X325793Y828185D01*
X323631Y829081D01*
X322580Y829220D01*
D02*
G37*
G36*
X320040D02*
X318989Y829081D01*
X316827Y828185D01*
X314970Y826760D01*
X313545Y824903D01*
X312649Y822741D01*
X312511Y821690D01*
X320040D01*
Y829220D01*
D02*
G37*
G36*
X399959Y825500D02*
X392430D01*
Y817971D01*
X393481Y818109D01*
X395643Y819005D01*
X397500Y820430D01*
X398925Y822287D01*
X399821Y824449D01*
X399959Y825500D01*
D02*
G37*
G36*
X389890D02*
X382360D01*
X382499Y824449D01*
X383395Y822287D01*
X384820Y820430D01*
X386677Y819005D01*
X388839Y818109D01*
X389890Y817971D01*
Y825500D01*
D02*
G37*
G36*
X963930Y821767D02*
X961609Y821461D01*
X959447Y820565D01*
X957590Y819140D01*
X956165Y817283D01*
X956000Y816885D01*
X950920D01*
Y818990D01*
X938840D01*
Y807410D01*
X950920D01*
Y809115D01*
X955834D01*
X956165Y808317D01*
X957590Y806460D01*
X959447Y805035D01*
X961609Y804139D01*
X963930Y803833D01*
X966251Y804139D01*
X968413Y805035D01*
X970270Y806460D01*
X971695Y808317D01*
X972591Y810479D01*
X972897Y812800D01*
X972591Y815121D01*
X971695Y817283D01*
X970270Y819140D01*
X968413Y820565D01*
X966251Y821461D01*
X963930Y821767D01*
D02*
G37*
G36*
X519339Y824230D02*
X511810D01*
Y816701D01*
X512861Y816839D01*
X515023Y817735D01*
X516880Y819160D01*
X518305Y821017D01*
X519201Y823179D01*
X519339Y824230D01*
D02*
G37*
G36*
X509270D02*
X501740D01*
X501879Y823179D01*
X502775Y821017D01*
X504200Y819160D01*
X506057Y817735D01*
X508219Y816839D01*
X509270Y816701D01*
Y824230D01*
D02*
G37*
G36*
X868530Y822869D02*
Y815340D01*
X876059D01*
X875921Y816391D01*
X875025Y818553D01*
X873600Y820410D01*
X871743Y821835D01*
X869581Y822731D01*
X868530Y822869D01*
D02*
G37*
G36*
X865990D02*
X864939Y822731D01*
X862777Y821835D01*
X860920Y820410D01*
X859495Y818553D01*
X858599Y816391D01*
X858460Y815340D01*
X865990D01*
Y822869D01*
D02*
G37*
G36*
X330109Y819150D02*
X322580D01*
Y811620D01*
X323631Y811759D01*
X325793Y812655D01*
X327650Y814080D01*
X329075Y815937D01*
X329971Y818099D01*
X330109Y819150D01*
D02*
G37*
G36*
X320040D02*
X312511D01*
X312649Y818099D01*
X313545Y815937D01*
X314970Y814080D01*
X316827Y812655D01*
X318989Y811759D01*
X320040Y811620D01*
Y819150D01*
D02*
G37*
G36*
X908050Y813553D02*
Y806024D01*
X915580D01*
X915441Y807075D01*
X914545Y809237D01*
X913120Y811094D01*
X911263Y812519D01*
X909101Y813415D01*
X908050Y813553D01*
D02*
G37*
G36*
X905510D02*
X904459Y813415D01*
X902297Y812519D01*
X900440Y811094D01*
X899015Y809237D01*
X898119Y807075D01*
X897980Y806024D01*
X905510D01*
Y813553D01*
D02*
G37*
G36*
X876059Y812800D02*
X868530D01*
Y805270D01*
X869581Y805409D01*
X871743Y806305D01*
X873600Y807730D01*
X875025Y809587D01*
X875921Y811749D01*
X876059Y812800D01*
D02*
G37*
G36*
X865990D02*
X858460D01*
X858599Y811749D01*
X859495Y809587D01*
X860920Y807730D01*
X862777Y806305D01*
X864939Y805409D01*
X865990Y805270D01*
Y812800D01*
D02*
G37*
G36*
X452120Y809067D02*
X449799Y808761D01*
X447637Y807865D01*
X445780Y806440D01*
X444355Y804583D01*
X444107Y803985D01*
X330593D01*
X330345Y804583D01*
X328920Y806440D01*
X327063Y807865D01*
X324901Y808761D01*
X322580Y809067D01*
X320259Y808761D01*
X318097Y807865D01*
X316240Y806440D01*
X314815Y804583D01*
X313919Y802421D01*
X313613Y800100D01*
X313919Y797779D01*
X314815Y795617D01*
X316240Y793760D01*
X318097Y792335D01*
X320259Y791439D01*
X322580Y791133D01*
X324901Y791439D01*
X327063Y792335D01*
X328920Y793760D01*
X330345Y795617D01*
X330593Y796215D01*
X444107D01*
X444355Y795617D01*
X445780Y793760D01*
X447637Y792335D01*
X449799Y791439D01*
X452120Y791133D01*
X454441Y791439D01*
X456603Y792335D01*
X458460Y793760D01*
X459885Y795617D01*
X460781Y797779D01*
X461087Y800100D01*
X460781Y802421D01*
X459885Y804583D01*
X458460Y806440D01*
X456603Y807865D01*
X454441Y808761D01*
X452120Y809067D01*
D02*
G37*
G36*
X1401140Y805410D02*
X1398620D01*
Y802640D01*
X1401140D01*
Y805410D01*
D02*
G37*
G36*
X950920Y805490D02*
X946150D01*
Y800970D01*
X950920D01*
Y805490D01*
D02*
G37*
G36*
X943610D02*
X938840D01*
Y800970D01*
X943610D01*
Y805490D01*
D02*
G37*
G36*
X1401140Y800100D02*
X1398620D01*
Y797330D01*
X1401140D01*
Y800100D01*
D02*
G37*
G36*
X915580Y803484D02*
X908050D01*
Y795954D01*
X909101Y796093D01*
X911263Y796988D01*
X913120Y798413D01*
X914545Y800270D01*
X915441Y802433D01*
X915580Y803484D01*
D02*
G37*
G36*
X905510D02*
X897980D01*
X898119Y802433D01*
X899015Y800270D01*
X900440Y798413D01*
X902297Y796988D01*
X904459Y796093D01*
X905510Y795954D01*
Y803484D01*
D02*
G37*
G36*
X950920Y798430D02*
X946150D01*
Y793910D01*
X950920D01*
Y798430D01*
D02*
G37*
G36*
X943610D02*
X938840D01*
Y793910D01*
X943610D01*
Y798430D01*
D02*
G37*
G36*
X1401140Y791440D02*
X1398620D01*
Y788670D01*
X1401140D01*
Y791440D01*
D02*
G37*
G36*
X878840Y779945D02*
X876070D01*
Y777425D01*
X878840D01*
Y779945D01*
D02*
G37*
G36*
X816610Y793400D02*
X814289Y793095D01*
X812127Y792199D01*
X810270Y790774D01*
X808845Y788917D01*
X807949Y786755D01*
X807643Y784434D01*
X807949Y782113D01*
X808845Y779950D01*
X810270Y778093D01*
X812127Y776668D01*
X814289Y775773D01*
X816610Y775467D01*
X818931Y775773D01*
X821093Y776668D01*
X822950Y778093D01*
X824375Y779950D01*
X825271Y782113D01*
X825577Y784434D01*
X825271Y786755D01*
X824375Y788917D01*
X822950Y790774D01*
X821093Y792199D01*
X818931Y793095D01*
X816610Y793400D01*
D02*
G37*
G36*
X865031Y773430D02*
X855980D01*
Y764270D01*
X865031D01*
Y773430D01*
D02*
G37*
G36*
X853440D02*
X844389D01*
Y764270D01*
X853440D01*
Y773430D01*
D02*
G37*
G36*
X1056640Y762753D02*
Y755224D01*
X1064169D01*
X1064031Y756274D01*
X1063135Y758437D01*
X1061710Y760294D01*
X1059853Y761719D01*
X1057691Y762615D01*
X1056640Y762753D01*
D02*
G37*
G36*
X1054100D02*
X1053049Y762615D01*
X1050887Y761719D01*
X1049030Y760294D01*
X1047605Y758437D01*
X1046709Y756274D01*
X1046571Y755224D01*
X1054100D01*
Y762753D01*
D02*
G37*
G36*
X734060Y756830D02*
Y749300D01*
X741590D01*
X741451Y750351D01*
X740555Y752513D01*
X739130Y754370D01*
X737273Y755795D01*
X735111Y756691D01*
X734060Y756830D01*
D02*
G37*
G36*
X731520D02*
X730469Y756691D01*
X728307Y755795D01*
X726450Y754370D01*
X725025Y752513D01*
X724129Y750351D01*
X723990Y749300D01*
X731520D01*
Y756830D01*
D02*
G37*
G36*
X1064169Y752684D02*
X1056640D01*
Y745154D01*
X1057691Y745293D01*
X1059853Y746188D01*
X1061710Y747613D01*
X1063135Y749470D01*
X1064031Y751633D01*
X1064169Y752684D01*
D02*
G37*
G36*
X1054100D02*
X1046571D01*
X1046709Y751633D01*
X1047605Y749470D01*
X1049030Y747613D01*
X1050887Y746188D01*
X1053049Y745293D01*
X1054100Y745154D01*
Y752684D01*
D02*
G37*
G36*
X1402080Y748430D02*
Y740410D01*
X1408100D01*
Y748430D01*
X1402080D01*
D02*
G37*
G36*
X741590Y746760D02*
X734060D01*
Y739230D01*
X735111Y739369D01*
X737273Y740265D01*
X739130Y741690D01*
X740555Y743547D01*
X741451Y745709D01*
X741590Y746760D01*
D02*
G37*
G36*
X731520D02*
X723990D01*
X724129Y745709D01*
X725025Y743547D01*
X726450Y741690D01*
X728307Y740265D01*
X730469Y739369D01*
X731520Y739230D01*
Y746760D01*
D02*
G37*
G36*
X1410950Y805410D02*
X1403369D01*
Y801846D01*
X1403275Y801370D01*
X1403369Y800894D01*
Y797330D01*
X1405706D01*
X1410326Y792710D01*
X1409800Y791440D01*
X1403369D01*
Y787876D01*
X1403275Y787400D01*
X1403369Y786924D01*
Y783360D01*
X1405706D01*
X1417923Y771143D01*
X1417920Y770468D01*
X1417717Y769612D01*
X1416060Y768340D01*
X1414635Y766483D01*
X1413739Y764321D01*
X1413433Y762000D01*
X1413739Y759679D01*
X1414635Y757517D01*
X1416060Y755660D01*
X1417917Y754235D01*
X1420079Y753339D01*
X1422400Y753033D01*
X1424721Y753339D01*
X1426883Y754235D01*
X1428740Y755660D01*
X1430165Y757517D01*
X1430413Y758115D01*
X1435450D01*
Y757290D01*
X1448297D01*
X1448783Y756117D01*
X1442790Y750124D01*
X1424231D01*
X1422744Y749828D01*
X1421484Y748986D01*
X1412938Y740440D01*
X1412096Y739179D01*
X1412059Y738994D01*
X1409273Y736209D01*
X1408100Y736695D01*
Y737870D01*
X1400810D01*
Y739140D01*
X1399540D01*
Y748430D01*
X1393520D01*
X1393175Y749557D01*
Y770227D01*
X1394423Y770745D01*
X1396280Y772170D01*
X1397705Y774027D01*
X1398601Y776189D01*
X1398907Y778510D01*
X1398601Y780831D01*
X1397980Y782329D01*
X1397970Y782362D01*
X1398928Y783360D01*
X1399671Y783360D01*
X1401140D01*
Y786130D01*
X1398620D01*
Y784506D01*
X1398620Y783888D01*
X1397361Y783460D01*
X1397310Y783509D01*
X1396280Y784850D01*
X1394423Y786275D01*
X1392261Y787171D01*
X1389940Y787477D01*
X1387619Y787171D01*
X1385457Y786275D01*
X1383600Y784850D01*
X1382175Y782993D01*
X1381279Y780831D01*
X1380973Y778510D01*
X1381279Y776189D01*
X1382175Y774027D01*
X1383600Y772170D01*
X1385405Y770784D01*
Y748430D01*
X1378520D01*
Y738048D01*
X1378179Y737225D01*
X1377873Y734904D01*
X1378179Y732583D01*
X1378520Y731759D01*
Y729850D01*
X1379512D01*
X1380500Y728563D01*
X1382357Y727138D01*
X1384519Y726243D01*
X1386840Y725937D01*
X1389161Y726243D01*
X1391323Y727138D01*
X1393180Y728563D01*
X1394168Y729850D01*
X1401255D01*
X1401741Y728677D01*
X1348779Y675715D01*
X1294523D01*
X1294275Y676313D01*
X1292850Y678170D01*
X1290993Y679595D01*
X1288831Y680491D01*
X1286510Y680797D01*
X1284189Y680491D01*
X1282027Y679595D01*
X1280170Y678170D01*
X1278745Y676313D01*
X1277849Y674151D01*
X1277543Y671830D01*
X1277849Y669509D01*
X1278745Y667347D01*
X1280170Y665490D01*
X1282027Y664065D01*
X1284189Y663169D01*
X1286510Y662863D01*
X1288831Y663169D01*
X1290993Y664065D01*
X1292850Y665490D01*
X1294275Y667347D01*
X1294523Y667945D01*
X1350388D01*
X1351875Y668241D01*
X1353135Y669083D01*
X1402244Y718192D01*
X1403447Y717599D01*
X1403273Y716280D01*
X1403579Y713959D01*
X1404475Y711797D01*
X1405900Y709940D01*
X1407757Y708515D01*
X1409919Y707619D01*
X1412240Y707313D01*
X1414561Y707619D01*
X1416723Y708515D01*
X1418580Y709940D01*
X1420005Y711797D01*
X1420901Y713959D01*
X1421176Y716050D01*
X1425251D01*
Y719614D01*
X1425345Y720090D01*
X1426210D01*
Y721360D01*
X1430000D01*
Y724130D01*
X1425345D01*
Y728971D01*
X1426644Y730270D01*
X1428980D01*
Y737850D01*
X1425416D01*
X1424940Y737945D01*
Y740080D01*
X1428980D01*
Y742354D01*
X1444399D01*
X1445886Y742650D01*
X1447146Y743492D01*
X1460944Y757290D01*
X1467036D01*
X1497719Y726607D01*
X1497559Y726221D01*
X1497253Y723900D01*
X1497559Y721579D01*
X1498455Y719417D01*
X1499880Y717560D01*
X1501737Y716135D01*
X1503899Y715239D01*
X1506220Y714933D01*
X1508541Y715239D01*
X1510703Y716135D01*
X1512560Y717560D01*
X1513985Y719417D01*
X1514881Y721579D01*
X1515187Y723900D01*
X1514881Y726221D01*
X1513985Y728383D01*
X1512560Y730240D01*
X1510703Y731665D01*
X1508541Y732561D01*
X1506220Y732867D01*
X1503899Y732561D01*
X1503088Y732225D01*
X1472530Y762784D01*
Y776870D01*
X1455450D01*
Y762784D01*
X1453703Y761037D01*
X1452530Y761523D01*
Y776870D01*
X1435450D01*
Y765885D01*
X1430413D01*
X1430165Y766483D01*
X1428740Y768340D01*
X1426883Y769765D01*
X1426285Y770013D01*
Y786130D01*
X1425989Y787617D01*
X1425147Y788877D01*
X1410950Y803074D01*
Y805410D01*
D02*
G37*
G36*
X878840Y742433D02*
Y734904D01*
X886369D01*
X886231Y735955D01*
X885335Y738117D01*
X883910Y739974D01*
X882053Y741399D01*
X879891Y742295D01*
X878840Y742433D01*
D02*
G37*
G36*
X876300D02*
X875249Y742295D01*
X873087Y741399D01*
X871230Y739974D01*
X869805Y738117D01*
X868909Y735955D01*
X868771Y734904D01*
X876300D01*
Y742433D01*
D02*
G37*
G36*
X828201Y741701D02*
X819150D01*
Y732541D01*
X828201D01*
Y741701D01*
D02*
G37*
G36*
X816610D02*
X807559D01*
Y732541D01*
X816610D01*
Y741701D01*
D02*
G37*
G36*
X943840Y734040D02*
X941070D01*
Y731520D01*
X943840D01*
Y734040D01*
D02*
G37*
G36*
X795250Y728795D02*
X792480D01*
Y726275D01*
X795250D01*
Y728795D01*
D02*
G37*
G36*
X789940D02*
X787170D01*
Y726275D01*
X789940D01*
Y728795D01*
D02*
G37*
G36*
X886369Y732364D02*
X878840D01*
Y724834D01*
X879891Y724973D01*
X882053Y725868D01*
X883910Y727293D01*
X885335Y729150D01*
X886231Y731313D01*
X886369Y732364D01*
D02*
G37*
G36*
X876300D02*
X868771D01*
X868909Y731313D01*
X869805Y729150D01*
X871230Y727293D01*
X873087Y725868D01*
X875249Y724973D01*
X876300Y724834D01*
Y732364D01*
D02*
G37*
G36*
X845820Y807797D02*
X843499Y807491D01*
X841337Y806595D01*
X839480Y805170D01*
X838055Y803313D01*
X837159Y801151D01*
X836853Y798830D01*
X837159Y796509D01*
X838055Y794347D01*
X839480Y792490D01*
X841337Y791065D01*
X843499Y790169D01*
X844389Y790052D01*
Y781551D01*
Y775970D01*
X854710D01*
X865031D01*
Y781551D01*
Y787543D01*
X876070D01*
Y782175D01*
X879634D01*
X880110Y782080D01*
Y781215D01*
X881380D01*
Y777425D01*
X884150D01*
Y778747D01*
X885323Y779233D01*
X890561Y773995D01*
Y739361D01*
X890857Y737874D01*
X891699Y736614D01*
X906035Y722278D01*
X907295Y721436D01*
X908782Y721140D01*
X928908D01*
X929637Y721285D01*
X935915D01*
Y718565D01*
X929870D01*
Y718800D01*
X921790D01*
Y718565D01*
X911860D01*
X911384Y718470D01*
X907820D01*
Y710890D01*
X911384D01*
X911860Y710795D01*
Y709930D01*
X913130D01*
Y706140D01*
X915900D01*
Y710795D01*
X921790D01*
Y706470D01*
X924560D01*
Y710260D01*
X927100D01*
Y706470D01*
X929870D01*
Y710795D01*
X937300D01*
Y708280D01*
X942340D01*
X947380D01*
Y710795D01*
X953914D01*
X953999Y710149D01*
X954895Y707987D01*
X956320Y706130D01*
X958177Y704705D01*
X960339Y703809D01*
X962660Y703503D01*
X964981Y703809D01*
X967143Y704705D01*
X969000Y706130D01*
X970425Y707987D01*
X971321Y710149D01*
X971627Y712470D01*
X971321Y714791D01*
X970425Y716953D01*
X969000Y718810D01*
X967143Y720235D01*
X964981Y721131D01*
X962660Y721437D01*
X960339Y721131D01*
X958177Y720235D01*
X956320Y718810D01*
X956131Y718565D01*
X947380D01*
Y719550D01*
X943685D01*
Y721710D01*
X943840D01*
Y729290D01*
X939800D01*
Y730250D01*
X938530D01*
Y734040D01*
X935760D01*
Y729055D01*
X929870D01*
Y733875D01*
X927100D01*
Y730085D01*
X924560D01*
Y733875D01*
X921790D01*
Y728910D01*
X915900D01*
Y733875D01*
X913130D01*
Y730085D01*
X910590D01*
Y733875D01*
X907820D01*
Y733140D01*
X906647Y732654D01*
X898331Y740970D01*
Y775604D01*
X898035Y777091D01*
X897193Y778351D01*
X882857Y792687D01*
X881369Y794175D01*
X880109Y795017D01*
X878622Y795313D01*
X865031D01*
Y802412D01*
X853959D01*
X853585Y803313D01*
X852160Y805170D01*
X850303Y806595D01*
X848141Y807491D01*
X845820Y807797D01*
D02*
G37*
G36*
X1008778Y951305D02*
X754853D01*
X753367Y951009D01*
X752106Y950167D01*
X533193Y731254D01*
X532351Y729993D01*
X532055Y728507D01*
Y586370D01*
X530870Y585460D01*
X529445Y583603D01*
X528549Y581441D01*
X528243Y579120D01*
X528549Y576799D01*
X529445Y574637D01*
X530870Y572780D01*
X532727Y571355D01*
X534889Y570459D01*
X537210Y570153D01*
X539531Y570459D01*
X541693Y571355D01*
X543550Y572780D01*
X544975Y574637D01*
X545871Y576799D01*
X546177Y579120D01*
X545871Y581441D01*
X544975Y583603D01*
X543550Y585460D01*
X541693Y586885D01*
X539825Y587659D01*
Y597964D01*
X540964Y598526D01*
X541617Y598025D01*
X543779Y597129D01*
X546100Y596823D01*
X548421Y597129D01*
X550583Y598025D01*
X552440Y599450D01*
X553865Y601307D01*
X554761Y603469D01*
X555067Y605790D01*
X554761Y608111D01*
X553865Y610273D01*
X552440Y612130D01*
X550583Y613555D01*
X549985Y613803D01*
Y729874D01*
X650720Y830609D01*
X651990Y830083D01*
Y760354D01*
X570610Y678973D01*
X570011Y679221D01*
X567690Y679527D01*
X565369Y679221D01*
X563207Y678325D01*
X561350Y676900D01*
X559925Y675043D01*
X559029Y672881D01*
X558723Y670560D01*
X559029Y668239D01*
X559925Y666077D01*
X561350Y664220D01*
X563207Y662795D01*
X565369Y661899D01*
X567690Y661593D01*
X570011Y661899D01*
X572173Y662795D01*
X574030Y664220D01*
X575455Y666077D01*
X576351Y668239D01*
X576657Y670560D01*
X576351Y672881D01*
X576103Y673480D01*
X655897Y753273D01*
X657070Y752787D01*
Y740034D01*
X573149Y656113D01*
X572551Y656361D01*
X570230Y656667D01*
X567909Y656361D01*
X565747Y655465D01*
X563890Y654040D01*
X562465Y652183D01*
X561569Y650021D01*
X561263Y647700D01*
X561569Y645379D01*
X562465Y643217D01*
X563890Y641360D01*
X565747Y639935D01*
X567909Y639039D01*
X570230Y638733D01*
X572551Y639039D01*
X573879Y639589D01*
X574599Y638512D01*
X572514Y636428D01*
X571916Y636676D01*
X569595Y636982D01*
X567274Y636676D01*
X565112Y635780D01*
X563255Y634355D01*
X561830Y632498D01*
X560934Y630336D01*
X560628Y628015D01*
X560934Y625694D01*
X561830Y623532D01*
X563255Y621675D01*
X565112Y620250D01*
X567274Y619354D01*
X569595Y619048D01*
X571916Y619354D01*
X574078Y620250D01*
X575935Y621675D01*
X577360Y623532D01*
X578256Y625694D01*
X578562Y628015D01*
X578256Y630336D01*
X578008Y630934D01*
X702332Y755258D01*
X703505Y754772D01*
Y730468D01*
X703559Y730200D01*
X702165Y728383D01*
X701269Y726221D01*
X700963Y723900D01*
X701269Y721579D01*
X702165Y719417D01*
X703590Y717560D01*
X705447Y716135D01*
X707609Y715239D01*
X709930Y714933D01*
X712251Y715239D01*
X714413Y716135D01*
X716270Y717560D01*
X717695Y719417D01*
X718591Y721579D01*
X718897Y723900D01*
X718591Y726221D01*
X717695Y728383D01*
X716270Y730240D01*
X714413Y731665D01*
X712251Y732561D01*
X711275Y732690D01*
Y764334D01*
X712414Y764896D01*
X713067Y764395D01*
X715229Y763499D01*
X717550Y763193D01*
X719871Y763499D01*
X722033Y764395D01*
X723890Y765820D01*
X725315Y767677D01*
X726211Y769839D01*
X726517Y772160D01*
X726211Y774481D01*
X725963Y775079D01*
X761207Y810323D01*
X829846D01*
X831333Y810619D01*
X832593Y811461D01*
X878373Y857241D01*
X879215Y858501D01*
X879507Y859968D01*
X879891Y860019D01*
X882053Y860915D01*
X883910Y862340D01*
X884407Y862987D01*
X885516Y862346D01*
X885419Y862111D01*
X885113Y859790D01*
X885419Y857469D01*
X886315Y855307D01*
X887740Y853450D01*
X889597Y852025D01*
X891759Y851129D01*
X894080Y850823D01*
X896401Y851129D01*
X898563Y852025D01*
X900420Y853450D01*
X901845Y855307D01*
X902741Y857469D01*
X903047Y859790D01*
X902741Y862111D01*
X902493Y862710D01*
X909659Y869875D01*
X991929D01*
X1182543Y679261D01*
X1182135Y678059D01*
X1181319Y677951D01*
X1180721Y677703D01*
X1160716Y697707D01*
X1159456Y698549D01*
X1157970Y698845D01*
X838409D01*
X828201Y709053D01*
Y720840D01*
Y730001D01*
X817880D01*
X807559D01*
Y720840D01*
Y711254D01*
X801349D01*
X799862Y710958D01*
X798602Y710116D01*
X796268Y707782D01*
X795095Y708268D01*
Y716465D01*
X795250D01*
Y724045D01*
X791686D01*
X791210Y724140D01*
X790734Y724045D01*
X787170D01*
Y716465D01*
X787325D01*
Y705243D01*
X786727Y704995D01*
X784870Y703570D01*
X783445Y701713D01*
X782549Y699551D01*
X782243Y697230D01*
X782549Y694909D01*
X783445Y692747D01*
X784870Y690890D01*
X786727Y689465D01*
X788889Y688569D01*
X791210Y688263D01*
X793531Y688569D01*
X795693Y689465D01*
X797550Y690890D01*
X798975Y692747D01*
X799871Y694909D01*
X800177Y697230D01*
X799871Y699551D01*
X799623Y700150D01*
X802958Y703484D01*
X811369D01*
X811744Y703559D01*
X822707D01*
X834053Y692214D01*
X835031Y691560D01*
X834572Y690339D01*
X834390Y690363D01*
Y682834D01*
X841919D01*
X841781Y683885D01*
X840885Y686047D01*
X839460Y687904D01*
X837603Y689329D01*
X836248Y689891D01*
X836618Y691112D01*
X836800Y691076D01*
X845659D01*
Y684530D01*
X855980D01*
X866301D01*
Y691076D01*
X1156361D01*
X1175227Y672209D01*
X1174979Y671611D01*
X1174673Y669290D01*
X1174979Y666969D01*
X1175875Y664807D01*
X1177300Y662950D01*
X1179157Y661525D01*
X1181319Y660629D01*
X1183640Y660323D01*
X1185961Y660629D01*
X1188123Y661525D01*
X1189980Y662950D01*
X1191405Y664807D01*
X1192301Y666969D01*
X1192409Y667785D01*
X1193611Y668194D01*
X1232074Y629731D01*
X1231665Y628529D01*
X1230849Y628421D01*
X1228687Y627525D01*
X1226830Y626100D01*
X1225405Y624243D01*
X1225157Y623645D01*
X1021715D01*
X1020228Y623349D01*
X1018968Y622507D01*
X995976Y599515D01*
X794143D01*
X793895Y600113D01*
X792470Y601970D01*
X790613Y603395D01*
X788451Y604291D01*
X786130Y604597D01*
X783809Y604291D01*
X781647Y603395D01*
X779790Y601970D01*
X778365Y600113D01*
X777469Y597951D01*
X777163Y595630D01*
X777469Y593309D01*
X778365Y591147D01*
X779790Y589290D01*
X781647Y587865D01*
X783809Y586969D01*
X785485Y586748D01*
X785506Y586745D01*
Y585465D01*
X785485Y585462D01*
X783809Y585241D01*
X781647Y584345D01*
X779790Y582920D01*
X778365Y581063D01*
X777469Y578901D01*
X777163Y576580D01*
X777469Y574259D01*
X778365Y572097D01*
X779790Y570240D01*
X781647Y568815D01*
X783809Y567919D01*
X783944Y567901D01*
Y566620D01*
X783809Y566602D01*
X781647Y565706D01*
X779790Y564282D01*
X778365Y562425D01*
X777469Y560262D01*
X777163Y557941D01*
X777469Y555620D01*
X778365Y553458D01*
X778866Y552805D01*
X778304Y551666D01*
X770858D01*
X689119Y633404D01*
X689839Y634481D01*
X691099Y633959D01*
X693420Y633653D01*
X695741Y633959D01*
X697903Y634855D01*
X699760Y636280D01*
X701185Y638137D01*
X701433Y638735D01*
X713347D01*
X713595Y638137D01*
X715020Y636280D01*
X716877Y634855D01*
X719039Y633959D01*
X721360Y633653D01*
X723681Y633959D01*
X725843Y634855D01*
X727700Y636280D01*
X729125Y638137D01*
X730021Y640299D01*
X730327Y642620D01*
X730021Y644941D01*
X729125Y647103D01*
X727700Y648960D01*
X725843Y650385D01*
X723681Y651281D01*
X721360Y651587D01*
X719039Y651281D01*
X716877Y650385D01*
X715020Y648960D01*
X713595Y647103D01*
X713347Y646505D01*
X701433D01*
X701185Y647103D01*
X699760Y648960D01*
X697903Y650385D01*
X695741Y651281D01*
X693420Y651587D01*
X691099Y651281D01*
X688937Y650385D01*
X687080Y648960D01*
X685655Y647103D01*
X684759Y644941D01*
X684453Y642620D01*
X684759Y640299D01*
X685281Y639039D01*
X684204Y638320D01*
X659963Y662561D01*
X660211Y663159D01*
X660517Y665480D01*
X660211Y667801D01*
X659315Y669963D01*
X657890Y671820D01*
X656033Y673245D01*
X653871Y674141D01*
X653055Y674249D01*
X652646Y675451D01*
X661651Y684455D01*
X685407D01*
X685655Y683857D01*
X687080Y682000D01*
X688937Y680575D01*
X691099Y679679D01*
X693420Y679373D01*
X695741Y679679D01*
X697903Y680575D01*
X699760Y682000D01*
X701185Y683857D01*
X702081Y686019D01*
X702387Y688340D01*
X702081Y690661D01*
X701185Y692823D01*
X699760Y694680D01*
X697903Y696105D01*
X695741Y697001D01*
X693420Y697307D01*
X691099Y697001D01*
X688937Y696105D01*
X687080Y694680D01*
X685655Y692823D01*
X685407Y692225D01*
X660042D01*
X658555Y691929D01*
X657295Y691087D01*
X607011Y640803D01*
X606169Y639543D01*
X605873Y638056D01*
Y631687D01*
X573149Y598963D01*
X572551Y599211D01*
X570230Y599517D01*
X567909Y599211D01*
X565747Y598315D01*
X563890Y596890D01*
X562465Y595033D01*
X561569Y592871D01*
X561263Y590550D01*
X561569Y588229D01*
X562465Y586067D01*
X563890Y584210D01*
X565747Y582785D01*
X567909Y581889D01*
X570230Y581583D01*
X572551Y581889D01*
X574713Y582785D01*
X576570Y584210D01*
X577995Y586067D01*
X578891Y588229D01*
X579197Y590550D01*
X578891Y592871D01*
X578643Y593470D01*
X612505Y627331D01*
X613347Y628591D01*
X613643Y630078D01*
Y636447D01*
X641579Y664383D01*
X642781Y663975D01*
X642889Y663159D01*
X643785Y660997D01*
X645210Y659140D01*
X647067Y657715D01*
X649229Y656819D01*
X651550Y656513D01*
X653871Y656819D01*
X654470Y657067D01*
X765770Y545766D01*
X765050Y544690D01*
X764321Y544992D01*
X762000Y545298D01*
X759679Y544992D01*
X757517Y544096D01*
X755660Y542671D01*
X754235Y540814D01*
X753339Y538652D01*
X753033Y536331D01*
X753339Y534010D01*
X754235Y531848D01*
X755660Y529991D01*
X757517Y528565D01*
X759679Y527670D01*
X762000Y527364D01*
X764321Y527670D01*
X766483Y528565D01*
X768340Y529991D01*
X769765Y531848D01*
X770661Y534010D01*
X770967Y536331D01*
X770661Y538652D01*
X769765Y540814D01*
X768340Y542671D01*
X768145Y542821D01*
X768683Y544009D01*
X769249Y543896D01*
X778319D01*
X778881Y542757D01*
X778365Y542084D01*
X777469Y539922D01*
X777163Y537601D01*
X777469Y535280D01*
X778365Y533118D01*
X779790Y531260D01*
X781610Y529863D01*
Y454046D01*
X780377Y453535D01*
X778520Y452110D01*
X777095Y450253D01*
X776199Y448091D01*
X775893Y445770D01*
X776199Y443449D01*
X777095Y441287D01*
X778520Y439430D01*
X780377Y438005D01*
X782539Y437109D01*
X784860Y436803D01*
X785611Y436902D01*
X786204Y435699D01*
X777051Y426547D01*
X775849Y426955D01*
X775741Y427771D01*
X774845Y429933D01*
X773420Y431790D01*
X771563Y433215D01*
X770965Y433463D01*
Y476670D01*
X770669Y478157D01*
X769827Y479417D01*
X742500Y506744D01*
Y517215D01*
X759991D01*
X761925Y515281D01*
Y512203D01*
X761327Y511955D01*
X759470Y510530D01*
X758045Y508673D01*
X757149Y506511D01*
X756843Y504190D01*
X757149Y501869D01*
X758045Y499707D01*
X759470Y497850D01*
X761327Y496425D01*
X763489Y495529D01*
X765810Y495223D01*
X768131Y495529D01*
X770293Y496425D01*
X772150Y497850D01*
X773575Y499707D01*
X774471Y501869D01*
X774777Y504190D01*
X774471Y506511D01*
X773575Y508673D01*
X772150Y510530D01*
X770293Y511955D01*
X769695Y512203D01*
Y516890D01*
X769399Y518377D01*
X768557Y519637D01*
X764347Y523847D01*
X763087Y524689D01*
X761600Y524985D01*
X709793D01*
X708306Y524689D01*
X707046Y523847D01*
X700164Y516965D01*
X658253D01*
X658005Y517563D01*
X656580Y519420D01*
X654723Y520845D01*
X652561Y521741D01*
X650240Y522047D01*
X647919Y521741D01*
X645757Y520845D01*
X643900Y519420D01*
X643310Y518652D01*
X642040Y519083D01*
Y521810D01*
X627960D01*
Y521726D01*
X626800Y521460D01*
Y521460D01*
X612720D01*
Y521460D01*
X611560D01*
Y521460D01*
X597480D01*
Y521460D01*
X596320D01*
Y521460D01*
X582240D01*
Y514423D01*
X581715Y514319D01*
X580455Y513477D01*
X538186Y471208D01*
X536159Y470941D01*
X533997Y470045D01*
X532140Y468620D01*
X530715Y466763D01*
X529819Y464601D01*
X529513Y462280D01*
X529819Y459959D01*
X530405Y458545D01*
X529577Y457275D01*
X527443D01*
X527195Y457873D01*
X525770Y459730D01*
X523913Y461155D01*
X521751Y462051D01*
X520700Y462189D01*
Y453390D01*
Y444590D01*
X521751Y444729D01*
X523913Y445625D01*
X525770Y447050D01*
X527195Y448907D01*
X527443Y449505D01*
X530578D01*
X536114Y443970D01*
X535705Y442767D01*
X534889Y442660D01*
X532727Y441764D01*
X530870Y440339D01*
X529445Y438482D01*
X528549Y436320D01*
X528243Y433999D01*
X528549Y431678D01*
X528797Y431079D01*
X519223Y421506D01*
X518381Y420245D01*
X518085Y418759D01*
Y412454D01*
X513673Y408042D01*
X512500Y408528D01*
Y416940D01*
Y430020D01*
X509345D01*
Y439190D01*
X514165D01*
Y441960D01*
X510375D01*
Y444500D01*
X514165D01*
Y444747D01*
X515435Y445422D01*
X517109Y444729D01*
X518160Y444590D01*
Y453390D01*
Y462189D01*
X517109Y462051D01*
X514947Y461155D01*
X513770Y460252D01*
X512500Y460879D01*
Y468090D01*
Y481170D01*
X498420D01*
Y476325D01*
X458863D01*
X458615Y476923D01*
X457190Y478780D01*
X455333Y480205D01*
X453171Y481101D01*
X450850Y481407D01*
X448529Y481101D01*
X446367Y480205D01*
X445714Y479704D01*
X444575Y480266D01*
Y508532D01*
X445445Y509403D01*
X447040Y509193D01*
X449361Y509499D01*
X451523Y510395D01*
X453380Y511820D01*
X454805Y513677D01*
X455701Y515839D01*
X456007Y518160D01*
X455701Y520481D01*
X454805Y522643D01*
X453380Y524500D01*
X451523Y525925D01*
X449361Y526821D01*
X447040Y527127D01*
X444719Y526821D01*
X442557Y525925D01*
X440700Y524500D01*
X439275Y522643D01*
X438379Y520481D01*
X438073Y518160D01*
X438379Y515839D01*
X439115Y514061D01*
X437943Y512888D01*
X437101Y511628D01*
X436805Y510142D01*
Y412352D01*
X437101Y410865D01*
X437943Y409605D01*
X472461Y375087D01*
X473721Y374245D01*
X475207Y373950D01*
X479123D01*
X479554Y372679D01*
X478800Y372100D01*
X477375Y370243D01*
X476479Y368081D01*
X476340Y367030D01*
X493940D01*
X493801Y368081D01*
X492905Y370243D01*
X491480Y372100D01*
X490726Y372679D01*
X491157Y373950D01*
X536132D01*
X536909Y373173D01*
X538169Y372331D01*
X539655Y372035D01*
X605744D01*
X606472Y371086D01*
X608329Y369661D01*
X610492Y368765D01*
X612812Y368460D01*
X615133Y368765D01*
X617296Y369661D01*
X619153Y371086D01*
X620578Y372943D01*
X621474Y375106D01*
X621581Y375922D01*
X622784Y376330D01*
X632721Y366392D01*
Y349785D01*
X633017Y348299D01*
X633859Y347038D01*
X653445Y327453D01*
X654705Y326611D01*
X656192Y326315D01*
X664608D01*
X666095Y326611D01*
X667355Y327453D01*
X673307Y333405D01*
X674149Y334665D01*
X674445Y336152D01*
Y348416D01*
X674149Y349902D01*
X673307Y351163D01*
X628203Y396267D01*
X628689Y397440D01*
X635820D01*
X637307Y397735D01*
X638567Y398578D01*
X641557Y401568D01*
X642399Y402828D01*
X642695Y404314D01*
Y445016D01*
X642399Y446502D01*
X641557Y447763D01*
X638885Y450435D01*
Y496730D01*
X642040D01*
Y507077D01*
X643310Y507508D01*
X643900Y506740D01*
X645757Y505315D01*
X647919Y504419D01*
X650240Y504113D01*
X652561Y504419D01*
X654723Y505315D01*
X656580Y506740D01*
X658005Y508597D01*
X658253Y509195D01*
X701773D01*
X703260Y509491D01*
X704520Y510333D01*
X711402Y517215D01*
X712920D01*
Y511810D01*
X720210D01*
Y510540D01*
X721480D01*
Y501250D01*
X727500D01*
X727500Y501250D01*
X728575Y500780D01*
Y481560D01*
X723920D01*
Y478790D01*
X727710D01*
Y476250D01*
X723920D01*
Y473480D01*
X728575D01*
Y465050D01*
X723920D01*
Y462280D01*
X727710D01*
Y459740D01*
X723920D01*
Y456970D01*
X728575D01*
Y446000D01*
X723920D01*
Y443230D01*
X727710D01*
Y440690D01*
X723920D01*
Y437920D01*
X728575D01*
Y425680D01*
X723920D01*
Y422910D01*
X727710D01*
Y420370D01*
X723920D01*
Y417600D01*
X728575D01*
Y405360D01*
X724085D01*
Y402590D01*
X727875D01*
Y401320D01*
X728575D01*
X728835Y400014D01*
Y397280D01*
X736415D01*
Y405360D01*
X736345D01*
Y421640D01*
Y441960D01*
Y461010D01*
Y477520D01*
Y500116D01*
X737615Y500642D01*
X763195Y475061D01*
Y443193D01*
X761925Y443110D01*
X761771Y444281D01*
X760875Y446443D01*
X759450Y448300D01*
X757593Y449725D01*
X755431Y450621D01*
X754380Y450760D01*
Y441960D01*
Y433161D01*
X755431Y433299D01*
X757593Y434195D01*
X759450Y435620D01*
X760875Y437477D01*
X761771Y439639D01*
X761925Y440810D01*
X763195Y440727D01*
Y433463D01*
X762597Y433215D01*
X760740Y431790D01*
X759315Y429933D01*
X758419Y427771D01*
X758113Y425450D01*
X758419Y423129D01*
X759315Y420967D01*
X760740Y419110D01*
X762597Y417685D01*
X764759Y416789D01*
X765575Y416681D01*
X765984Y415479D01*
X727769Y377265D01*
X715403D01*
X715155Y377863D01*
X713730Y379720D01*
X711873Y381145D01*
X709711Y382041D01*
X707390Y382347D01*
X705069Y382041D01*
X702907Y381145D01*
X701050Y379720D01*
X699625Y377863D01*
X698729Y375701D01*
X698423Y373380D01*
X698729Y371059D01*
X699625Y368897D01*
X701050Y367040D01*
X702907Y365615D01*
X705069Y364719D01*
X707390Y364413D01*
X709711Y364719D01*
X711873Y365615D01*
X713730Y367040D01*
X715155Y368897D01*
X715403Y369495D01*
X729378D01*
X730865Y369791D01*
X732125Y370633D01*
X863807Y502315D01*
X864649Y503575D01*
X864945Y505062D01*
Y527927D01*
X865543Y528175D01*
X867400Y529600D01*
X868825Y531457D01*
X869721Y533619D01*
X870027Y535940D01*
X869721Y538261D01*
X868825Y540423D01*
X867400Y542280D01*
X865543Y543705D01*
X863381Y544601D01*
X861060Y544907D01*
X858739Y544601D01*
X856577Y543705D01*
X854720Y542280D01*
X853295Y540423D01*
X852399Y538261D01*
X852093Y535940D01*
X852399Y533619D01*
X853295Y531457D01*
X854720Y529600D01*
X856577Y528175D01*
X857175Y527927D01*
Y506671D01*
X794931Y444426D01*
X793728Y445019D01*
X793827Y445770D01*
X793521Y448091D01*
X792625Y450253D01*
X791200Y452110D01*
X789380Y453508D01*
Y529324D01*
X790613Y529836D01*
X792470Y531260D01*
X793895Y533118D01*
X794791Y535280D01*
X795097Y537601D01*
X794791Y539922D01*
X793895Y542084D01*
X792906Y543374D01*
X793019Y544945D01*
X793117Y545046D01*
X801717Y553645D01*
X877177D01*
X877425Y553047D01*
X878850Y551190D01*
X880707Y549765D01*
X882869Y548869D01*
X885190Y548563D01*
X887511Y548869D01*
X889673Y549765D01*
X891530Y551190D01*
X892955Y553047D01*
X893851Y555209D01*
X894157Y557530D01*
X893851Y559851D01*
X892955Y562013D01*
X891530Y563870D01*
X889673Y565295D01*
X887511Y566191D01*
X885190Y566497D01*
X882869Y566191D01*
X880707Y565295D01*
X878850Y563870D01*
X877425Y562013D01*
X877177Y561415D01*
X800107D01*
X798621Y561119D01*
X797361Y560277D01*
X796104Y559020D01*
X794940Y559415D01*
X794846Y559848D01*
X794791Y560262D01*
X794715Y560447D01*
X794683Y560590D01*
X802979Y568885D01*
X1180707D01*
X1180955Y568287D01*
X1182380Y566430D01*
X1184237Y565005D01*
X1186399Y564109D01*
X1188720Y563803D01*
X1191041Y564109D01*
X1192306Y564633D01*
X1193025Y563556D01*
X1190883Y561415D01*
X1182763D01*
X1182515Y562013D01*
X1181090Y563870D01*
X1179233Y565295D01*
X1177071Y566191D01*
X1174750Y566497D01*
X1172429Y566191D01*
X1170267Y565295D01*
X1168410Y563870D01*
X1166985Y562013D01*
X1166089Y559851D01*
X1165783Y557530D01*
X1166089Y555209D01*
X1166985Y553047D01*
X1168410Y551190D01*
X1170267Y549765D01*
X1172429Y548869D01*
X1173600Y548715D01*
X1173517Y547445D01*
X1168793D01*
X1168545Y548043D01*
X1167120Y549900D01*
X1165263Y551325D01*
X1163101Y552221D01*
X1160780Y552527D01*
X1158459Y552221D01*
X1156297Y551325D01*
X1154440Y549900D01*
X1153015Y548043D01*
X1152119Y545881D01*
X1151813Y543560D01*
X1152119Y541239D01*
X1153015Y539077D01*
X1154440Y537220D01*
X1156297Y535795D01*
X1158459Y534899D01*
X1160780Y534593D01*
X1163101Y534899D01*
X1165263Y535795D01*
X1167120Y537220D01*
X1168545Y539077D01*
X1168793Y539675D01*
X1181853D01*
X1182339Y538502D01*
X1051582Y407745D01*
X876693D01*
X876445Y408343D01*
X875020Y410200D01*
X873163Y411625D01*
X871001Y412521D01*
X868680Y412827D01*
X866359Y412521D01*
X864197Y411625D01*
X862340Y410200D01*
X860915Y408343D01*
X860019Y406181D01*
X859713Y403860D01*
X860019Y401539D01*
X860915Y399377D01*
X862340Y397520D01*
X864197Y396095D01*
X866359Y395199D01*
X868680Y394893D01*
X870275Y395103D01*
X870314Y395092D01*
X871342Y394064D01*
X871353Y394025D01*
X871143Y392430D01*
X871449Y390109D01*
X872345Y387947D01*
X873770Y386090D01*
X875627Y384665D01*
X877789Y383769D01*
X880110Y383463D01*
X882431Y383769D01*
X884593Y384665D01*
X886450Y386090D01*
X887875Y387947D01*
X888771Y390109D01*
X889077Y392430D01*
X888867Y394025D01*
X889737Y394895D01*
X1055295D01*
X1056782Y395191D01*
X1058042Y396033D01*
X1266397Y604388D01*
X1267239Y605648D01*
X1267535Y607135D01*
Y629042D01*
X1268708Y629528D01*
X1455213Y443023D01*
X1456473Y442181D01*
X1457960Y441885D01*
X1603617D01*
X1603865Y441287D01*
X1605290Y439430D01*
X1607147Y438005D01*
X1609309Y437109D01*
X1611630Y436803D01*
X1613951Y437109D01*
X1616113Y438005D01*
X1617970Y439430D01*
X1619395Y441287D01*
X1620291Y443449D01*
X1620597Y445770D01*
X1620291Y448091D01*
X1619395Y450253D01*
X1617970Y452110D01*
X1616113Y453535D01*
X1615058Y453973D01*
Y455347D01*
X1616113Y455785D01*
X1617970Y457210D01*
X1619395Y459067D01*
X1620291Y461229D01*
X1620597Y463550D01*
X1620291Y465871D01*
X1619395Y468033D01*
X1617970Y469890D01*
X1616113Y471315D01*
X1613951Y472211D01*
X1611630Y472517D01*
X1609309Y472211D01*
X1607147Y471315D01*
X1605290Y469890D01*
X1603865Y468033D01*
X1603617Y467435D01*
X1458299D01*
X1138713Y787020D01*
X1138961Y787619D01*
X1139267Y789940D01*
X1138961Y792261D01*
X1138065Y794423D01*
X1136640Y796280D01*
X1134783Y797705D01*
X1132621Y798601D01*
X1130300Y798907D01*
X1127979Y798601D01*
X1125817Y797705D01*
X1123960Y796280D01*
X1122535Y794423D01*
X1121639Y792261D01*
X1121333Y789940D01*
X1121372Y789648D01*
X1120169Y789055D01*
X1110055Y799169D01*
Y803517D01*
X1110653Y803765D01*
X1112510Y805190D01*
X1113935Y807047D01*
X1114831Y809209D01*
X1115137Y811530D01*
X1114831Y813851D01*
X1113935Y816013D01*
X1112510Y817870D01*
X1110653Y819295D01*
X1108491Y820191D01*
X1106170Y820497D01*
X1103849Y820191D01*
X1101687Y819295D01*
X1099830Y817870D01*
X1098405Y816013D01*
X1097509Y813851D01*
X1097203Y811530D01*
X1097509Y809209D01*
X1098405Y807047D01*
X1099830Y805190D01*
X1101687Y803765D01*
X1102285Y803517D01*
Y800903D01*
X1101112Y800417D01*
X1002162Y899367D01*
X1000902Y900209D01*
X999415Y900505D01*
X910294D01*
X898732Y912067D01*
X897472Y912909D01*
X895985Y913205D01*
X819543D01*
X819295Y913803D01*
X818794Y914456D01*
X819356Y915595D01*
X1002961D01*
X1045687Y872869D01*
X1045439Y872271D01*
X1045133Y869950D01*
X1045439Y867629D01*
X1046335Y865467D01*
X1047760Y863610D01*
X1049617Y862185D01*
X1051779Y861289D01*
X1054100Y860983D01*
X1056421Y861289D01*
X1058583Y862185D01*
X1060440Y863610D01*
X1061865Y865467D01*
X1062761Y867629D01*
X1063067Y869950D01*
X1062836Y871704D01*
X1064039Y872298D01*
X1176497Y759839D01*
X1176249Y759241D01*
X1175943Y756920D01*
X1176249Y754599D01*
X1177145Y752437D01*
X1178570Y750580D01*
X1180427Y749155D01*
X1182589Y748259D01*
X1184910Y747953D01*
X1187231Y748259D01*
X1189393Y749155D01*
X1191250Y750580D01*
X1192675Y752437D01*
X1193571Y754599D01*
X1193679Y755415D01*
X1194881Y755824D01*
X1199938Y750767D01*
Y741818D01*
X1200233Y740331D01*
X1201075Y739071D01*
X1212057Y728090D01*
X1211809Y727491D01*
X1211503Y725170D01*
X1211809Y722849D01*
X1212705Y720687D01*
X1214130Y718830D01*
X1215987Y717405D01*
X1218149Y716509D01*
X1220470Y716203D01*
X1222791Y716509D01*
X1224953Y717405D01*
X1226810Y718830D01*
X1228235Y720687D01*
X1229131Y722849D01*
X1229437Y725170D01*
X1229131Y727491D01*
X1228235Y729653D01*
X1226810Y731510D01*
X1224953Y732935D01*
X1222791Y733831D01*
X1220470Y734137D01*
X1218149Y733831D01*
X1217551Y733583D01*
X1207707Y743427D01*
Y752376D01*
X1207411Y753863D01*
X1206569Y755123D01*
X1011525Y950167D01*
X1010265Y951009D01*
X1008778Y951305D01*
D02*
G37*
G36*
X1430000Y718820D02*
X1427480D01*
Y716050D01*
X1430000D01*
Y718820D01*
D02*
G37*
G36*
X910590Y708660D02*
X907820D01*
Y706140D01*
X910590D01*
Y708660D01*
D02*
G37*
G36*
X947380Y705740D02*
X943610D01*
Y702470D01*
X947380D01*
Y705740D01*
D02*
G37*
G36*
X941070D02*
X937300D01*
Y702470D01*
X941070D01*
Y705740D01*
D02*
G37*
G36*
X831850Y690363D02*
X830799Y690225D01*
X828637Y689329D01*
X826780Y687904D01*
X825355Y686047D01*
X824459Y683885D01*
X824321Y682834D01*
X831850D01*
Y690363D01*
D02*
G37*
G36*
X1482090Y681473D02*
Y673944D01*
X1489619D01*
X1489481Y674995D01*
X1488585Y677157D01*
X1487160Y679014D01*
X1485303Y680439D01*
X1483141Y681335D01*
X1482090Y681473D01*
D02*
G37*
G36*
X1479550D02*
X1478499Y681335D01*
X1476337Y680439D01*
X1474480Y679014D01*
X1473055Y677157D01*
X1472159Y674995D01*
X1472021Y673944D01*
X1479550D01*
Y681473D01*
D02*
G37*
G36*
X841919Y680294D02*
X834390D01*
Y672764D01*
X835441Y672903D01*
X837603Y673798D01*
X839460Y675223D01*
X840885Y677080D01*
X841781Y679243D01*
X841919Y680294D01*
D02*
G37*
G36*
X831850D02*
X824321D01*
X824459Y679243D01*
X825355Y677080D01*
X826780Y675223D01*
X828637Y673798D01*
X830799Y672903D01*
X831850Y672764D01*
Y680294D01*
D02*
G37*
G36*
X802330Y677150D02*
X797560D01*
Y672630D01*
X802330D01*
Y677150D01*
D02*
G37*
G36*
X795020D02*
X790250D01*
Y672630D01*
X795020D01*
Y677150D01*
D02*
G37*
G36*
X918210Y675123D02*
Y667594D01*
X925740D01*
X925601Y668644D01*
X924705Y670807D01*
X923280Y672664D01*
X921423Y674089D01*
X919261Y674985D01*
X918210Y675123D01*
D02*
G37*
G36*
X915670D02*
X914619Y674985D01*
X912457Y674089D01*
X910600Y672664D01*
X909175Y670807D01*
X908279Y668644D01*
X908140Y667594D01*
X915670D01*
Y675123D01*
D02*
G37*
G36*
X802330Y670090D02*
X797560D01*
Y665570D01*
X802330D01*
Y670090D01*
D02*
G37*
G36*
X795020D02*
X790250D01*
Y665570D01*
X795020D01*
Y670090D01*
D02*
G37*
G36*
X740410Y671740D02*
Y664210D01*
X747940D01*
X747801Y665261D01*
X746905Y667423D01*
X745480Y669280D01*
X743623Y670705D01*
X741461Y671601D01*
X740410Y671740D01*
D02*
G37*
G36*
X737870D02*
X736819Y671601D01*
X734657Y670705D01*
X732800Y669280D01*
X731375Y667423D01*
X730479Y665261D01*
X730340Y664210D01*
X737870D01*
Y671740D01*
D02*
G37*
G36*
X1489619Y671404D02*
X1482090D01*
Y663874D01*
X1483141Y664013D01*
X1485303Y664908D01*
X1487160Y666333D01*
X1488585Y668190D01*
X1489481Y670353D01*
X1489619Y671404D01*
D02*
G37*
G36*
X1479550D02*
X1472021D01*
X1472159Y670353D01*
X1473055Y668190D01*
X1474480Y666333D01*
X1476337Y664908D01*
X1478499Y664013D01*
X1479550Y663874D01*
Y671404D01*
D02*
G37*
G36*
X925740Y665054D02*
X918210D01*
Y657524D01*
X919261Y657663D01*
X921423Y658558D01*
X923280Y659983D01*
X924705Y661840D01*
X925601Y664003D01*
X925740Y665054D01*
D02*
G37*
G36*
X915670D02*
X908140D01*
X908279Y664003D01*
X909175Y661840D01*
X910600Y659983D01*
X912457Y658558D01*
X914619Y657663D01*
X915670Y657524D01*
Y665054D01*
D02*
G37*
G36*
X747940Y661670D02*
X740410D01*
Y654140D01*
X741461Y654279D01*
X743623Y655175D01*
X745480Y656600D01*
X746905Y658457D01*
X747801Y660619D01*
X747940Y661670D01*
D02*
G37*
G36*
X737870D02*
X730340D01*
X730479Y660619D01*
X731375Y658457D01*
X732800Y656600D01*
X734657Y655175D01*
X736819Y654279D01*
X737870Y654140D01*
Y661670D01*
D02*
G37*
G36*
X443230Y658613D02*
Y651084D01*
X450760D01*
X450621Y652134D01*
X449725Y654297D01*
X448300Y656154D01*
X446443Y657579D01*
X444281Y658475D01*
X443230Y658613D01*
D02*
G37*
G36*
X440690D02*
X439639Y658475D01*
X437477Y657579D01*
X435620Y656154D01*
X434195Y654297D01*
X433299Y652134D01*
X433161Y651084D01*
X440690D01*
Y658613D01*
D02*
G37*
G36*
X829310Y657343D02*
Y649814D01*
X836840D01*
X836701Y650864D01*
X835805Y653027D01*
X834380Y654884D01*
X832523Y656309D01*
X830361Y657205D01*
X829310Y657343D01*
D02*
G37*
G36*
X826770D02*
X825719Y657205D01*
X823557Y656309D01*
X821700Y654884D01*
X820275Y653027D01*
X819379Y650864D01*
X819240Y649814D01*
X826770D01*
Y657343D01*
D02*
G37*
G36*
X450760Y648544D02*
X443230D01*
Y641014D01*
X444281Y641153D01*
X446443Y642048D01*
X448300Y643473D01*
X449725Y645330D01*
X450621Y647493D01*
X450760Y648544D01*
D02*
G37*
G36*
X440690D02*
X433161D01*
X433299Y647493D01*
X434195Y645330D01*
X435620Y643473D01*
X437477Y642048D01*
X439639Y641153D01*
X440690Y641014D01*
Y648544D01*
D02*
G37*
G36*
X836840Y647274D02*
X829310D01*
Y639744D01*
X830361Y639883D01*
X832523Y640778D01*
X834380Y642203D01*
X835805Y644060D01*
X836701Y646223D01*
X836840Y647274D01*
D02*
G37*
G36*
X826770D02*
X819240D01*
X819379Y646223D01*
X820275Y644060D01*
X821700Y642203D01*
X823557Y640778D01*
X825719Y639883D01*
X826770Y639744D01*
Y647274D01*
D02*
G37*
G36*
X802330Y663650D02*
X790250D01*
Y652070D01*
X795290D01*
X795917Y650800D01*
X795505Y650264D01*
X794609Y648101D01*
X794304Y645780D01*
X794609Y643460D01*
X795505Y641297D01*
X796930Y639440D01*
X798787Y638015D01*
X800950Y637119D01*
X803270Y636814D01*
X805591Y637119D01*
X807754Y638015D01*
X809611Y639440D01*
X811036Y641297D01*
X811932Y643460D01*
X812237Y645780D01*
X811932Y648101D01*
X811036Y650264D01*
X809611Y652121D01*
X807754Y653546D01*
X805591Y654442D01*
X804921Y654530D01*
X804915Y654560D01*
X804073Y655820D01*
X802330Y657564D01*
Y663650D01*
D02*
G37*
G36*
X866301Y681990D02*
X855980D01*
X845659D01*
Y672830D01*
Y655548D01*
X852095D01*
Y648093D01*
X851497Y647845D01*
X849640Y646420D01*
X848215Y644563D01*
X847319Y642401D01*
X847013Y640080D01*
X847319Y637759D01*
X848215Y635597D01*
X849640Y633740D01*
X851497Y632315D01*
X853659Y631419D01*
X855980Y631113D01*
X858301Y631419D01*
X860463Y632315D01*
X862320Y633740D01*
X863745Y635597D01*
X864641Y637759D01*
X864947Y640080D01*
X864641Y642401D01*
X863745Y644563D01*
X862320Y646420D01*
X860463Y647845D01*
X859865Y648093D01*
Y655548D01*
X866301D01*
Y672830D01*
Y681990D01*
D02*
G37*
G36*
X1614170Y586223D02*
Y578694D01*
X1621700D01*
X1621561Y579744D01*
X1620665Y581907D01*
X1619240Y583764D01*
X1617383Y585189D01*
X1615221Y586085D01*
X1614170Y586223D01*
D02*
G37*
G36*
X1611630D02*
X1610579Y586085D01*
X1608417Y585189D01*
X1606560Y583764D01*
X1605135Y581907D01*
X1604239Y579744D01*
X1604100Y578694D01*
X1611630D01*
Y586223D01*
D02*
G37*
G36*
X1621700Y576154D02*
X1614170D01*
Y568624D01*
X1615221Y568763D01*
X1617383Y569658D01*
X1619240Y571083D01*
X1620665Y572940D01*
X1621561Y575103D01*
X1621700Y576154D01*
D02*
G37*
G36*
X1611630D02*
X1604100D01*
X1604239Y575103D01*
X1605135Y572940D01*
X1606560Y571083D01*
X1608417Y569658D01*
X1610579Y568763D01*
X1611630Y568624D01*
Y576154D01*
D02*
G37*
G36*
X363620Y545479D02*
Y532150D01*
X376949D01*
X376613Y534702D01*
X375138Y538263D01*
X372791Y541321D01*
X369733Y543668D01*
X366172Y545143D01*
X363620Y545479D01*
D02*
G37*
G36*
X361080Y545479D02*
X358528Y545143D01*
X354967Y543668D01*
X351909Y541321D01*
X349562Y538263D01*
X348087Y534702D01*
X347751Y532150D01*
X361080D01*
Y545479D01*
D02*
G37*
G36*
X881380Y547447D02*
X879059Y547141D01*
X876897Y546245D01*
X875040Y544820D01*
X873615Y542963D01*
X872719Y540801D01*
X872413Y538480D01*
X872719Y536159D01*
X873615Y533997D01*
X875040Y532140D01*
X876897Y530715D01*
X879059Y529819D01*
X881380Y529513D01*
X883701Y529819D01*
X885863Y530715D01*
X887720Y532140D01*
X889145Y533997D01*
X890041Y536159D01*
X890347Y538480D01*
X890041Y540801D01*
X889145Y542963D01*
X887720Y544820D01*
X885863Y546245D01*
X883701Y547141D01*
X881380Y547447D01*
D02*
G37*
G36*
X647700Y607137D02*
X645379Y606831D01*
X643217Y605935D01*
X641360Y604510D01*
X639935Y602653D01*
X639039Y600491D01*
X638733Y598170D01*
X639039Y595849D01*
X639935Y593687D01*
X641360Y591830D01*
X643217Y590405D01*
X645379Y589509D01*
X647700Y589203D01*
X650021Y589509D01*
X652183Y590405D01*
X654040Y591830D01*
X655465Y593687D01*
X655713Y594285D01*
X677841D01*
X731997Y540130D01*
X731749Y539531D01*
X731443Y537210D01*
X731749Y534889D01*
X732645Y532727D01*
X734070Y530870D01*
X735927Y529445D01*
X738089Y528549D01*
X740410Y528243D01*
X742731Y528549D01*
X744893Y529445D01*
X746750Y530870D01*
X748175Y532727D01*
X749071Y534889D01*
X749377Y537210D01*
X749071Y539531D01*
X748175Y541693D01*
X746750Y543550D01*
X744893Y544975D01*
X742731Y545871D01*
X740410Y546177D01*
X738089Y545871D01*
X737490Y545623D01*
X682197Y600917D01*
X680937Y601759D01*
X679450Y602055D01*
X655713D01*
X655465Y602653D01*
X654040Y604510D01*
X652183Y605935D01*
X650021Y606831D01*
X647700Y607137D01*
D02*
G37*
G36*
X361080Y529610D02*
X347751D01*
X348087Y527058D01*
X349562Y523497D01*
X351909Y520439D01*
X354967Y518092D01*
X358528Y516617D01*
X361080Y516281D01*
Y529610D01*
D02*
G37*
G36*
X376949D02*
X363620D01*
Y516281D01*
X366172Y516617D01*
X369733Y518092D01*
X372791Y520439D01*
X375138Y523497D01*
X376613Y527058D01*
X376949Y529610D01*
D02*
G37*
G36*
X419450Y527752D02*
X416973Y527426D01*
X414664Y526469D01*
X412682Y524948D01*
X411161Y522966D01*
X410204Y520657D01*
X409878Y518180D01*
X410204Y515703D01*
X411161Y513394D01*
X412682Y511412D01*
X414664Y509891D01*
X416973Y508934D01*
X419450Y508608D01*
X421927Y508934D01*
X424236Y509891D01*
X426218Y511412D01*
X427739Y513394D01*
X428696Y515703D01*
X429022Y518180D01*
X428696Y520657D01*
X427739Y522966D01*
X426218Y524948D01*
X424236Y526469D01*
X421927Y527426D01*
X419450Y527752D01*
D02*
G37*
G36*
X1732510Y527280D02*
X1711730D01*
Y506500D01*
X1732510D01*
Y527280D01*
D02*
G37*
G36*
X718940Y509270D02*
X712920D01*
Y501250D01*
X718940D01*
Y509270D01*
D02*
G37*
G36*
X328050Y531961D02*
X324366Y531598D01*
X320825Y530524D01*
X317560Y528779D01*
X314699Y526431D01*
X312351Y523570D01*
X310606Y520305D01*
X309532Y516763D01*
X309169Y513080D01*
X309532Y509397D01*
X310606Y505855D01*
X312351Y502590D01*
X314699Y499729D01*
X317560Y497381D01*
X320825Y495636D01*
X324366Y494562D01*
X328050Y494199D01*
X331734Y494562D01*
X335275Y495636D01*
X338540Y497381D01*
X341401Y499729D01*
X343749Y502590D01*
X345494Y505855D01*
X346568Y509397D01*
X346931Y513080D01*
X346568Y516763D01*
X345494Y520305D01*
X343749Y523570D01*
X341401Y526431D01*
X338540Y528779D01*
X335275Y530524D01*
X331734Y531598D01*
X328050Y531961D01*
D02*
G37*
G36*
X419450Y504852D02*
X416973Y504526D01*
X414664Y503569D01*
X412682Y502048D01*
X411161Y500066D01*
X410204Y497757D01*
X409878Y495280D01*
X410204Y492803D01*
X411161Y490494D01*
X412682Y488512D01*
X414664Y486991D01*
X416973Y486034D01*
X419450Y485708D01*
X421927Y486034D01*
X424236Y486991D01*
X426218Y488512D01*
X427739Y490494D01*
X428696Y492803D01*
X429022Y495280D01*
X428696Y497757D01*
X427739Y500066D01*
X426218Y502048D01*
X424236Y503569D01*
X421927Y504526D01*
X419450Y504852D01*
D02*
G37*
G36*
X1722120Y501970D02*
X1719408Y501613D01*
X1716880Y500566D01*
X1714710Y498900D01*
X1713044Y496730D01*
X1711997Y494202D01*
X1711640Y491490D01*
X1711997Y488778D01*
X1713044Y486250D01*
X1714710Y484080D01*
X1716880Y482414D01*
X1719408Y481367D01*
X1722120Y481010D01*
X1724832Y481367D01*
X1727360Y482414D01*
X1729530Y484080D01*
X1731196Y486250D01*
X1732243Y488778D01*
X1732600Y491490D01*
X1732243Y494202D01*
X1731196Y496730D01*
X1729530Y498900D01*
X1727360Y500566D01*
X1724832Y501613D01*
X1722120Y501970D01*
D02*
G37*
G36*
X371250Y494752D02*
X368773Y494426D01*
X366464Y493470D01*
X364482Y491948D01*
X362961Y489966D01*
X362004Y487657D01*
X361678Y485180D01*
X362004Y482703D01*
X362961Y480394D01*
X364482Y478412D01*
X366464Y476890D01*
X368773Y475934D01*
X371250Y475608D01*
X373727Y475934D01*
X376036Y476890D01*
X378018Y478412D01*
X379539Y480394D01*
X380496Y482703D01*
X380822Y485180D01*
X380496Y487657D01*
X379539Y489966D01*
X378018Y491948D01*
X376036Y493470D01*
X373727Y494426D01*
X371250Y494752D01*
D02*
G37*
G36*
X353450Y484552D02*
X350973Y484226D01*
X348664Y483270D01*
X346682Y481748D01*
X345160Y479766D01*
X344204Y477457D01*
X343878Y474980D01*
X344204Y472503D01*
X345160Y470194D01*
X346682Y468212D01*
X348664Y466690D01*
X350973Y465734D01*
X353450Y465408D01*
X355927Y465734D01*
X358236Y466690D01*
X360218Y468212D01*
X361740Y470194D01*
X362696Y472503D01*
X363022Y474980D01*
X362696Y477457D01*
X361740Y479766D01*
X360218Y481748D01*
X358236Y483270D01*
X355927Y484226D01*
X353450Y484552D01*
D02*
G37*
G36*
X371250Y474352D02*
X368773Y474026D01*
X366464Y473069D01*
X364482Y471548D01*
X362961Y469566D01*
X362004Y467257D01*
X361678Y464780D01*
X362004Y462303D01*
X362961Y459994D01*
X364482Y458012D01*
X366464Y456491D01*
X368773Y455534D01*
X371250Y455208D01*
X373727Y455534D01*
X376036Y456491D01*
X378018Y458012D01*
X379539Y459994D01*
X380496Y462303D01*
X380822Y464780D01*
X380496Y467257D01*
X379539Y469566D01*
X378018Y471548D01*
X376036Y473069D01*
X373727Y474026D01*
X371250Y474352D01*
D02*
G37*
G36*
X678020Y453546D02*
X677128Y453369D01*
X675296Y452144D01*
X674925Y451589D01*
X673655D01*
X673284Y452144D01*
X671452Y453369D01*
X670560Y453546D01*
Y448150D01*
X668020D01*
Y453546D01*
X667128Y453369D01*
X665296Y452144D01*
X664925Y451589D01*
X663655D01*
X663284Y452144D01*
X661452Y453369D01*
X660560Y453546D01*
Y448150D01*
X659290D01*
Y446880D01*
X653894D01*
X654071Y445988D01*
X655296Y444156D01*
X655851Y443785D01*
Y442515D01*
X655296Y442144D01*
X654071Y440312D01*
X653894Y439420D01*
X659290D01*
Y436880D01*
X653894D01*
X654071Y435988D01*
X655296Y434156D01*
X655851Y433785D01*
Y432515D01*
X655296Y432144D01*
X654071Y430312D01*
X653894Y429420D01*
X659290D01*
Y428150D01*
X660560D01*
Y422754D01*
X661452Y422931D01*
X663284Y424156D01*
X663655Y424711D01*
X664925D01*
X665296Y424156D01*
X667128Y422931D01*
X668020Y422754D01*
Y428150D01*
X670560D01*
Y422754D01*
X671452Y422931D01*
X673284Y424156D01*
X673655Y424711D01*
X674925D01*
X675296Y424156D01*
X677128Y422931D01*
X678020Y422754D01*
Y428150D01*
X679290D01*
Y429420D01*
X684686D01*
X684509Y430312D01*
X683284Y432144D01*
X682729Y432515D01*
Y433785D01*
X683284Y434156D01*
X684509Y435988D01*
X684686Y436880D01*
X679290D01*
Y439420D01*
X684686D01*
X684509Y440312D01*
X683284Y442144D01*
X682729Y442515D01*
Y443785D01*
X683284Y444156D01*
X684509Y445988D01*
X684686Y446880D01*
X679290D01*
Y448150D01*
X678020D01*
Y453546D01*
D02*
G37*
G36*
X1210310Y457953D02*
Y450424D01*
X1217840D01*
X1217701Y451474D01*
X1216805Y453637D01*
X1215380Y455494D01*
X1213523Y456919D01*
X1211361Y457815D01*
X1210310Y457953D01*
D02*
G37*
G36*
X1207770D02*
X1206719Y457815D01*
X1204557Y456919D01*
X1202700Y455494D01*
X1201275Y453637D01*
X1200379Y451474D01*
X1200240Y450424D01*
X1207770D01*
Y457953D01*
D02*
G37*
G36*
X317500D02*
Y450424D01*
X325029D01*
X324891Y451474D01*
X323995Y453637D01*
X322570Y455494D01*
X320713Y456919D01*
X318551Y457815D01*
X317500Y457953D01*
D02*
G37*
G36*
X314960D02*
X313909Y457815D01*
X311747Y456919D01*
X309890Y455494D01*
X308465Y453637D01*
X307569Y451474D01*
X307430Y450424D01*
X314960D01*
Y457953D01*
D02*
G37*
G36*
X680560Y453546D02*
Y449420D01*
X684686D01*
X684509Y450312D01*
X683284Y452144D01*
X681452Y453369D01*
X680560Y453546D01*
D02*
G37*
G36*
X658020D02*
X657128Y453369D01*
X655296Y452144D01*
X654071Y450312D01*
X653894Y449420D01*
X658020D01*
Y453546D01*
D02*
G37*
G36*
X353450Y464152D02*
X350973Y463826D01*
X348664Y462869D01*
X346682Y461348D01*
X345160Y459366D01*
X344204Y457057D01*
X343878Y454580D01*
X344204Y452103D01*
X345160Y449794D01*
X346682Y447812D01*
X348664Y446291D01*
X350973Y445334D01*
X353450Y445008D01*
X355927Y445334D01*
X358236Y446291D01*
X360218Y447812D01*
X361740Y449794D01*
X362696Y452103D01*
X363022Y454580D01*
X362696Y457057D01*
X361740Y459366D01*
X360218Y461348D01*
X358236Y462869D01*
X355927Y463826D01*
X353450Y464152D01*
D02*
G37*
G36*
X751840Y450760D02*
X750789Y450621D01*
X748627Y449725D01*
X746770Y448300D01*
X745345Y446443D01*
X744449Y444281D01*
X744311Y443230D01*
X751840D01*
Y450760D01*
D02*
G37*
G36*
X1217840Y447884D02*
X1210310D01*
Y440354D01*
X1211361Y440493D01*
X1213523Y441388D01*
X1215380Y442813D01*
X1216805Y444670D01*
X1217701Y446833D01*
X1217840Y447884D01*
D02*
G37*
G36*
X1207770D02*
X1200240D01*
X1200379Y446833D01*
X1201275Y444670D01*
X1202700Y442813D01*
X1204557Y441388D01*
X1206719Y440493D01*
X1207770Y440354D01*
Y447884D01*
D02*
G37*
G36*
X325029D02*
X317500D01*
Y440354D01*
X318551Y440493D01*
X320713Y441388D01*
X322570Y442813D01*
X323995Y444670D01*
X324891Y446833D01*
X325029Y447884D01*
D02*
G37*
G36*
X314960D02*
X307430D01*
X307569Y446833D01*
X308465Y444670D01*
X309890Y442813D01*
X311747Y441388D01*
X313909Y440493D01*
X314960Y440354D01*
Y447884D01*
D02*
G37*
G36*
X1644650Y445253D02*
Y437724D01*
X1652180D01*
X1652041Y438774D01*
X1651145Y440937D01*
X1649720Y442794D01*
X1647863Y444219D01*
X1645701Y445115D01*
X1644650Y445253D01*
D02*
G37*
G36*
X1642110D02*
X1641059Y445115D01*
X1638897Y444219D01*
X1637040Y442794D01*
X1635615Y440937D01*
X1634719Y438774D01*
X1634581Y437724D01*
X1642110D01*
Y445253D01*
D02*
G37*
G36*
X371250Y453952D02*
X368773Y453626D01*
X366464Y452669D01*
X364482Y451148D01*
X362961Y449166D01*
X362004Y446857D01*
X361678Y444380D01*
X362004Y441903D01*
X362961Y439594D01*
X364482Y437612D01*
X366464Y436091D01*
X368773Y435134D01*
X371250Y434808D01*
X373727Y435134D01*
X376036Y436091D01*
X378018Y437612D01*
X379539Y439594D01*
X380496Y441903D01*
X380822Y444380D01*
X380496Y446857D01*
X379539Y449166D01*
X378018Y451148D01*
X376036Y452669D01*
X373727Y453626D01*
X371250Y453952D01*
D02*
G37*
G36*
X751840Y440690D02*
X744311D01*
X744449Y439639D01*
X745345Y437477D01*
X746770Y435620D01*
X748627Y434195D01*
X750789Y433299D01*
X751840Y433161D01*
Y440690D01*
D02*
G37*
G36*
X1652180Y435184D02*
X1644650D01*
Y427654D01*
X1645701Y427793D01*
X1647863Y428688D01*
X1649720Y430113D01*
X1651145Y431970D01*
X1652041Y434133D01*
X1652180Y435184D01*
D02*
G37*
G36*
X1642110D02*
X1634581D01*
X1634719Y434133D01*
X1635615Y431970D01*
X1637040Y430113D01*
X1638897Y428688D01*
X1641059Y427793D01*
X1642110Y427654D01*
Y435184D01*
D02*
G37*
G36*
X353450Y443752D02*
X350973Y443426D01*
X348664Y442469D01*
X346682Y440948D01*
X345160Y438966D01*
X344204Y436657D01*
X343878Y434180D01*
X344204Y431703D01*
X345160Y429394D01*
X346682Y427412D01*
X348664Y425891D01*
X350973Y424934D01*
X353450Y424608D01*
X355927Y424934D01*
X358236Y425891D01*
X360218Y427412D01*
X361740Y429394D01*
X362696Y431703D01*
X363022Y434180D01*
X362696Y436657D01*
X361740Y438966D01*
X360218Y440948D01*
X358236Y442469D01*
X355927Y443426D01*
X353450Y443752D01*
D02*
G37*
G36*
X684686Y426880D02*
X680560D01*
Y422754D01*
X681452Y422931D01*
X683284Y424156D01*
X684509Y425988D01*
X684686Y426880D01*
D02*
G37*
G36*
X658020D02*
X653894D01*
X654071Y425988D01*
X655296Y424156D01*
X657128Y422931D01*
X658020Y422754D01*
Y426880D01*
D02*
G37*
G36*
X371250Y433552D02*
X368773Y433226D01*
X366464Y432270D01*
X364482Y430748D01*
X362961Y428766D01*
X362004Y426457D01*
X361678Y423980D01*
X361055Y423270D01*
X343960D01*
Y404290D01*
X362940D01*
Y417135D01*
X364210Y417566D01*
X364482Y417212D01*
X366464Y415690D01*
X368773Y414734D01*
X371250Y414408D01*
X373727Y414734D01*
X376036Y415690D01*
X378018Y417212D01*
X379539Y419194D01*
X380496Y421503D01*
X380822Y423980D01*
X380496Y426457D01*
X379539Y428766D01*
X378018Y430748D01*
X376036Y432270D01*
X373727Y433226D01*
X371250Y433552D01*
D02*
G37*
G36*
X692150Y409017D02*
X689829Y408711D01*
X687667Y407815D01*
X685810Y406390D01*
X684385Y404533D01*
X684137Y403935D01*
X678910D01*
Y405090D01*
X667640D01*
Y400050D01*
Y395010D01*
X670485D01*
Y386040D01*
X667640D01*
Y381000D01*
Y375960D01*
X678910D01*
Y386040D01*
X678255D01*
Y395010D01*
X678910D01*
Y396165D01*
X684137D01*
X684385Y395567D01*
X685810Y393710D01*
X687667Y392285D01*
X689829Y391389D01*
X692150Y391083D01*
X694471Y391389D01*
X696633Y392285D01*
X698490Y393710D01*
X699915Y395567D01*
X700811Y397729D01*
X701117Y400050D01*
X700811Y402371D01*
X699915Y404533D01*
X698490Y406390D01*
X696633Y407815D01*
X694471Y408711D01*
X692150Y409017D01*
D02*
G37*
G36*
X665100Y405090D02*
X661830D01*
Y401320D01*
X665100D01*
Y405090D01*
D02*
G37*
G36*
X726605Y400050D02*
X724085D01*
Y397280D01*
X726605D01*
Y400050D01*
D02*
G37*
G36*
X1366520Y404613D02*
Y397084D01*
X1374050D01*
X1373911Y398134D01*
X1373015Y400297D01*
X1371590Y402154D01*
X1369733Y403579D01*
X1367571Y404475D01*
X1366520Y404613D01*
D02*
G37*
G36*
X1363980D02*
X1362929Y404475D01*
X1360767Y403579D01*
X1358910Y402154D01*
X1357485Y400297D01*
X1356589Y398134D01*
X1356451Y397084D01*
X1363980D01*
Y404613D01*
D02*
G37*
G36*
X665100Y398780D02*
X661830D01*
Y395010D01*
X665100D01*
Y398780D01*
D02*
G37*
G36*
X419450Y413452D02*
X416973Y413126D01*
X414664Y412169D01*
X412682Y410648D01*
X411161Y408666D01*
X410204Y406357D01*
X409878Y403880D01*
X410204Y401403D01*
X411161Y399094D01*
X412682Y397112D01*
X414664Y395591D01*
X416973Y394634D01*
X419450Y394308D01*
X421927Y394634D01*
X424236Y395591D01*
X426218Y397112D01*
X427739Y399094D01*
X428696Y401403D01*
X429022Y403880D01*
X428696Y406357D01*
X427739Y408666D01*
X426218Y410648D01*
X424236Y412169D01*
X421927Y413126D01*
X419450Y413452D01*
D02*
G37*
G36*
X1374050Y394544D02*
X1366520D01*
Y387014D01*
X1367571Y387153D01*
X1369733Y388048D01*
X1371590Y389473D01*
X1373015Y391330D01*
X1373911Y393493D01*
X1374050Y394544D01*
D02*
G37*
G36*
X1363980D02*
X1356451D01*
X1356589Y393493D01*
X1357485Y391330D01*
X1358910Y389473D01*
X1360767Y388048D01*
X1362929Y387153D01*
X1363980Y387014D01*
Y394544D01*
D02*
G37*
G36*
X665100Y386040D02*
X661830D01*
Y382270D01*
X665100D01*
Y386040D01*
D02*
G37*
G36*
X812800Y388103D02*
Y380574D01*
X820330D01*
X820191Y381624D01*
X819295Y383787D01*
X817870Y385644D01*
X816013Y387069D01*
X813851Y387965D01*
X812800Y388103D01*
D02*
G37*
G36*
X810260D02*
X809209Y387965D01*
X807047Y387069D01*
X805190Y385644D01*
X803765Y383787D01*
X802869Y381624D01*
X802730Y380574D01*
X810260D01*
Y388103D01*
D02*
G37*
G36*
X665100Y379730D02*
X661830D01*
Y375960D01*
X665100D01*
Y379730D01*
D02*
G37*
G36*
X419450Y390552D02*
X416973Y390226D01*
X414664Y389269D01*
X412682Y387748D01*
X411161Y385766D01*
X410204Y383457D01*
X409878Y380980D01*
X410204Y378503D01*
X411161Y376194D01*
X412682Y374212D01*
X414664Y372691D01*
X416973Y371734D01*
X419450Y371408D01*
X421927Y371734D01*
X424236Y372691D01*
X426218Y374212D01*
X427739Y376194D01*
X428696Y378503D01*
X429022Y380980D01*
X428696Y383457D01*
X427739Y385766D01*
X426218Y387748D01*
X424236Y389269D01*
X421927Y390226D01*
X419450Y390552D01*
D02*
G37*
G36*
X820330Y378034D02*
X812800D01*
Y370504D01*
X813851Y370643D01*
X816013Y371538D01*
X817870Y372963D01*
X819295Y374820D01*
X820191Y376983D01*
X820330Y378034D01*
D02*
G37*
G36*
X810260D02*
X802730D01*
X802869Y376983D01*
X803765Y374820D01*
X805190Y372963D01*
X807047Y371538D01*
X809209Y370643D01*
X810260Y370504D01*
Y378034D01*
D02*
G37*
G36*
X363620Y382879D02*
Y369550D01*
X376949D01*
X376613Y372102D01*
X375138Y375663D01*
X372791Y378721D01*
X369733Y381068D01*
X366172Y382543D01*
X363620Y382879D01*
D02*
G37*
G36*
X361080D02*
X358528Y382543D01*
X354967Y381068D01*
X351909Y378721D01*
X349562Y375663D01*
X348087Y372102D01*
X347751Y369550D01*
X361080D01*
Y382879D01*
D02*
G37*
G36*
X932180Y375403D02*
Y367874D01*
X939709D01*
X939571Y368924D01*
X938675Y371087D01*
X937250Y372944D01*
X935393Y374369D01*
X933231Y375265D01*
X932180Y375403D01*
D02*
G37*
G36*
X929640D02*
X928589Y375265D01*
X926427Y374369D01*
X924570Y372944D01*
X923145Y371087D01*
X922249Y368924D01*
X922111Y367874D01*
X929640D01*
Y375403D01*
D02*
G37*
G36*
X328050Y404961D02*
X324366Y404598D01*
X320825Y403524D01*
X317560Y401779D01*
X314699Y399431D01*
X312351Y396570D01*
X310606Y393305D01*
X309532Y389763D01*
X309169Y386080D01*
X309532Y382397D01*
X310606Y378855D01*
X312351Y375590D01*
X314699Y372729D01*
X317560Y370381D01*
X320825Y368636D01*
X324366Y367562D01*
X328050Y367199D01*
X331734Y367562D01*
X335275Y368636D01*
X338540Y370381D01*
X341401Y372729D01*
X343749Y375590D01*
X345494Y378855D01*
X346568Y382397D01*
X346931Y386080D01*
X346568Y389763D01*
X345494Y393305D01*
X343749Y396570D01*
X341401Y399431D01*
X338540Y401779D01*
X335275Y403524D01*
X331734Y404598D01*
X328050Y404961D01*
D02*
G37*
G36*
X1734820Y369723D02*
Y360680D01*
X1743862D01*
X1743673Y362122D01*
X1742626Y364650D01*
X1740960Y366820D01*
X1738790Y368486D01*
X1736262Y369533D01*
X1734820Y369723D01*
D02*
G37*
G36*
X1732280D02*
X1730838Y369533D01*
X1728310Y368486D01*
X1726140Y366820D01*
X1724474Y364650D01*
X1723427Y362122D01*
X1723237Y360680D01*
X1732280D01*
Y369723D01*
D02*
G37*
G36*
X939709Y365334D02*
X932180D01*
Y357804D01*
X933231Y357943D01*
X935393Y358838D01*
X937250Y360263D01*
X938675Y362120D01*
X939571Y364283D01*
X939709Y365334D01*
D02*
G37*
G36*
X929640D02*
X922111D01*
X922249Y364283D01*
X923145Y362120D01*
X924570Y360263D01*
X926427Y358838D01*
X928589Y357943D01*
X929640Y357804D01*
Y365334D01*
D02*
G37*
G36*
X493940Y364490D02*
X486410D01*
Y356960D01*
X487461Y357099D01*
X489623Y357995D01*
X491480Y359420D01*
X492905Y361277D01*
X493801Y363439D01*
X493940Y364490D01*
D02*
G37*
G36*
X483870D02*
X476340D01*
X476479Y363439D01*
X477375Y361277D01*
X478800Y359420D01*
X480657Y357995D01*
X482819Y357099D01*
X483870Y356960D01*
Y364490D01*
D02*
G37*
G36*
X376949Y367010D02*
X363620D01*
Y353681D01*
X366172Y354017D01*
X369733Y355492D01*
X372791Y357839D01*
X375138Y360897D01*
X376613Y364458D01*
X376949Y367010D01*
D02*
G37*
G36*
X361080D02*
X347751D01*
X348087Y364458D01*
X349562Y360897D01*
X351909Y357839D01*
X354967Y355492D01*
X358528Y354017D01*
X361080Y353681D01*
Y367010D01*
D02*
G37*
G36*
X1743862Y358140D02*
X1734820D01*
Y349098D01*
X1736262Y349287D01*
X1738790Y350334D01*
X1740960Y352000D01*
X1742626Y354170D01*
X1743673Y356698D01*
X1743862Y358140D01*
D02*
G37*
G36*
X1732280D02*
X1723237D01*
X1723427Y356698D01*
X1724474Y354170D01*
X1726140Y352000D01*
X1728310Y350334D01*
X1730838Y349287D01*
X1732280Y349098D01*
Y358140D01*
D02*
G37*
G36*
X553720Y341539D02*
Y334010D01*
X561250D01*
X561111Y335061D01*
X560215Y337223D01*
X558790Y339080D01*
X556933Y340505D01*
X554771Y341401D01*
X553720Y341539D01*
D02*
G37*
G36*
X551180D02*
X550129Y341401D01*
X547967Y340505D01*
X546110Y339080D01*
X544685Y337223D01*
X543789Y335061D01*
X543651Y334010D01*
X551180D01*
Y341539D01*
D02*
G37*
G36*
X561250Y331470D02*
X553720D01*
Y323941D01*
X554771Y324079D01*
X556933Y324975D01*
X558790Y326400D01*
X560215Y328257D01*
X561111Y330419D01*
X561250Y331470D01*
D02*
G37*
G36*
X551180D02*
X543651D01*
X543789Y330419D01*
X544685Y328257D01*
X546110Y326400D01*
X547967Y324975D01*
X550129Y324079D01*
X551180Y323941D01*
Y331470D01*
D02*
G37*
G36*
X1743940Y344400D02*
X1723160D01*
Y323620D01*
X1743940D01*
Y344400D01*
D02*
G37*
G36*
X1554480Y325873D02*
Y318344D01*
X1562009D01*
X1561871Y319394D01*
X1560975Y321557D01*
X1559550Y323414D01*
X1557693Y324839D01*
X1555531Y325735D01*
X1554480Y325873D01*
D02*
G37*
G36*
X1551940D02*
X1550889Y325735D01*
X1548727Y324839D01*
X1546870Y323414D01*
X1545445Y321557D01*
X1544549Y319394D01*
X1544411Y318344D01*
X1551940D01*
Y325873D01*
D02*
G37*
G36*
X1193800Y320793D02*
Y313264D01*
X1201329D01*
X1201191Y314314D01*
X1200295Y316477D01*
X1198870Y318334D01*
X1197013Y319759D01*
X1194851Y320655D01*
X1193800Y320793D01*
D02*
G37*
G36*
X1191260D02*
X1190209Y320655D01*
X1188047Y319759D01*
X1186190Y318334D01*
X1184765Y316477D01*
X1183869Y314314D01*
X1183730Y313264D01*
X1191260D01*
Y320793D01*
D02*
G37*
G36*
X1562009Y315804D02*
X1554480D01*
Y308274D01*
X1555531Y308413D01*
X1557693Y309308D01*
X1559550Y310733D01*
X1560975Y312590D01*
X1561871Y314753D01*
X1562009Y315804D01*
D02*
G37*
G36*
X1551940D02*
X1544411D01*
X1544549Y314753D01*
X1545445Y312590D01*
X1546870Y310733D01*
X1548727Y309308D01*
X1550889Y308413D01*
X1551940Y308274D01*
Y315804D01*
D02*
G37*
G36*
X1201329Y310724D02*
X1193800D01*
Y303194D01*
X1194851Y303333D01*
X1197013Y304228D01*
X1198870Y305653D01*
X1200295Y307510D01*
X1201191Y309673D01*
X1201329Y310724D01*
D02*
G37*
G36*
X1191260D02*
X1183730D01*
X1183869Y309673D01*
X1184765Y307510D01*
X1186190Y305653D01*
X1188047Y304228D01*
X1190209Y303333D01*
X1191260Y303194D01*
Y310724D01*
D02*
G37*
G36*
X339090Y309363D02*
Y301834D01*
X346619D01*
X346481Y302885D01*
X345585Y305047D01*
X344160Y306904D01*
X342303Y308329D01*
X340141Y309225D01*
X339090Y309363D01*
D02*
G37*
G36*
X336550D02*
X335499Y309225D01*
X333337Y308329D01*
X331480Y306904D01*
X330055Y305047D01*
X329159Y302885D01*
X329021Y301834D01*
X336550D01*
Y309363D01*
D02*
G37*
G36*
X656590Y305553D02*
Y298024D01*
X664119D01*
X663981Y299074D01*
X663085Y301237D01*
X661660Y303094D01*
X659803Y304519D01*
X657641Y305415D01*
X656590Y305553D01*
D02*
G37*
G36*
X654050D02*
X652999Y305415D01*
X650837Y304519D01*
X648980Y303094D01*
X647555Y301237D01*
X646659Y299074D01*
X646520Y298024D01*
X654050D01*
Y305553D01*
D02*
G37*
G36*
X346619Y299294D02*
X339090D01*
Y291764D01*
X340141Y291903D01*
X342303Y292798D01*
X344160Y294223D01*
X345585Y296080D01*
X346481Y298243D01*
X346619Y299294D01*
D02*
G37*
G36*
X336550D02*
X329021D01*
X329159Y298243D01*
X330055Y296080D01*
X331480Y294223D01*
X333337Y292798D01*
X335499Y291903D01*
X336550Y291764D01*
Y299294D01*
D02*
G37*
G36*
X664119Y295484D02*
X656590D01*
Y287954D01*
X657641Y288093D01*
X659803Y288988D01*
X661660Y290413D01*
X663085Y292270D01*
X663981Y294433D01*
X664119Y295484D01*
D02*
G37*
G36*
X654050D02*
X646520D01*
X646659Y294433D01*
X647555Y292270D01*
X648980Y290413D01*
X650837Y288988D01*
X652999Y288093D01*
X654050Y287954D01*
Y295484D01*
D02*
G37*
%LPD*%
G36*
X956666Y937316D02*
X956165Y936663D01*
X955917Y936065D01*
X757972D01*
X757446Y937335D01*
X758567Y938455D01*
X956104D01*
X956666Y937316D01*
D02*
G37*
G36*
X956165Y927697D02*
X957590Y925840D01*
X959160Y924635D01*
X958832Y923365D01*
X754859D01*
X754373Y924538D01*
X758131Y928295D01*
X955917D01*
X956165Y927697D01*
D02*
G37*
G36*
X904483Y895328D02*
X903997Y894155D01*
X841107D01*
X840321Y895111D01*
X840511Y895569D01*
X840817Y897890D01*
X840511Y900211D01*
X839615Y902373D01*
X838240Y904165D01*
X838312Y904600D01*
X838596Y905435D01*
X894376D01*
X904483Y895328D01*
D02*
G37*
G36*
X804266Y914456D02*
X803765Y913803D01*
X802869Y911641D01*
X802563Y909320D01*
X802869Y906999D01*
X803765Y904837D01*
X805190Y902980D01*
X807047Y901555D01*
X809209Y900659D01*
X811530Y900353D01*
X813851Y900659D01*
X816013Y901555D01*
X817870Y902980D01*
X819295Y904837D01*
X819543Y905435D01*
X825104D01*
X825388Y904600D01*
X825460Y904165D01*
X824085Y902373D01*
X823189Y900211D01*
X822883Y897890D01*
X823189Y895569D01*
X824085Y893407D01*
X825510Y891550D01*
X827367Y890125D01*
X829529Y889229D01*
X830700Y889075D01*
X830617Y887805D01*
X731128D01*
X730642Y888978D01*
X739479Y897815D01*
X762877D01*
X763125Y897217D01*
X764550Y895360D01*
X766407Y893935D01*
X768569Y893039D01*
X770890Y892733D01*
X773211Y893039D01*
X775373Y893935D01*
X777230Y895360D01*
X778655Y897217D01*
X779551Y899379D01*
X779857Y901700D01*
X779551Y904021D01*
X778655Y906183D01*
X777230Y908040D01*
X775373Y909465D01*
X773211Y910361D01*
X770890Y910667D01*
X768569Y910361D01*
X766407Y909465D01*
X764550Y908040D01*
X763125Y906183D01*
X762877Y905585D01*
X744264D01*
X743777Y906758D01*
X752615Y915595D01*
X803704D01*
X804266Y914456D01*
D02*
G37*
G36*
X1056448Y879889D02*
X1055854Y878686D01*
X1054100Y878917D01*
X1051779Y878611D01*
X1051180Y878363D01*
X1007317Y922227D01*
X1006057Y923069D01*
X1004570Y923365D01*
X969028D01*
X968700Y924635D01*
X970270Y925840D01*
X971695Y927697D01*
X972591Y929859D01*
X972897Y932180D01*
X972591Y934501D01*
X971695Y936663D01*
X971194Y937316D01*
X971756Y938455D01*
X997881D01*
X1056448Y879889D01*
D02*
G37*
G36*
X851778Y878862D02*
X843288Y870371D01*
X841791Y870991D01*
X839470Y871297D01*
X837149Y870991D01*
X834987Y870095D01*
X833130Y868670D01*
X831705Y866813D01*
X830809Y864651D01*
X830503Y862330D01*
X830809Y860009D01*
X831705Y857847D01*
X833130Y855990D01*
X834987Y854565D01*
X837149Y853669D01*
X839470Y853363D01*
X841791Y853669D01*
X843953Y854565D01*
X845810Y855990D01*
X847235Y857847D01*
X848131Y860009D01*
X848437Y862330D01*
X848180Y864277D01*
X858859Y874955D01*
X869744D01*
X870306Y873816D01*
X869805Y873163D01*
X868909Y871001D01*
X868603Y868680D01*
X868909Y866359D01*
X869805Y864197D01*
X871230Y862340D01*
X871059Y860915D01*
X869761Y859616D01*
X868559Y860025D01*
X868451Y860841D01*
X867555Y863003D01*
X866130Y864860D01*
X864273Y866285D01*
X862111Y867181D01*
X859790Y867487D01*
X857469Y867181D01*
X855307Y866285D01*
X853450Y864860D01*
X852025Y863003D01*
X851129Y860841D01*
X850823Y858520D01*
X851129Y856199D01*
X851377Y855601D01*
X825796Y830020D01*
X749935D01*
X748448Y829724D01*
X747188Y828882D01*
X720470Y802163D01*
X719871Y802411D01*
X717550Y802717D01*
X715229Y802411D01*
X713067Y801515D01*
X712414Y801014D01*
X711275Y801576D01*
Y862427D01*
X728883Y880035D01*
X851292D01*
X851778Y878862D01*
D02*
G37*
G36*
X857469Y849859D02*
X858285Y849751D01*
X858693Y848549D01*
X828237Y818092D01*
X759598D01*
X758111Y817797D01*
X756851Y816955D01*
X720470Y780573D01*
X719871Y780821D01*
X717550Y781127D01*
X715229Y780821D01*
X713067Y779925D01*
X712414Y779424D01*
X711275Y779986D01*
Y785924D01*
X712414Y786486D01*
X713067Y785985D01*
X715229Y785089D01*
X717550Y784783D01*
X719871Y785089D01*
X722033Y785985D01*
X723890Y787410D01*
X725315Y789267D01*
X726211Y791429D01*
X726517Y793750D01*
X726211Y796071D01*
X725963Y796669D01*
X751544Y822250D01*
X827405D01*
X828892Y822546D01*
X830152Y823388D01*
X856870Y850107D01*
X857469Y849859D01*
D02*
G37*
G36*
X1453943Y460803D02*
X1455203Y459961D01*
X1456690Y459665D01*
X1603617D01*
X1603865Y459067D01*
X1605290Y457210D01*
X1607147Y455785D01*
X1608202Y455347D01*
Y453973D01*
X1607147Y453535D01*
X1605290Y452110D01*
X1603865Y450253D01*
X1603617Y449655D01*
X1459569D01*
X1129415Y779809D01*
X1130008Y781012D01*
X1130300Y780973D01*
X1132621Y781279D01*
X1133220Y781527D01*
X1453943Y460803D01*
D02*
G37*
G36*
X1183813Y766891D02*
X1183405Y765689D01*
X1182589Y765581D01*
X1181991Y765333D01*
X1004962Y942362D01*
X1005448Y943535D01*
X1007169D01*
X1183813Y766891D01*
D02*
G37*
G36*
X698425Y859746D02*
Y762339D01*
X579417Y643331D01*
X578341Y644051D01*
X578891Y645379D01*
X579197Y647700D01*
X578891Y650021D01*
X578643Y650620D01*
X663702Y735678D01*
X664544Y736938D01*
X664840Y738425D01*
Y827820D01*
X697252Y860232D01*
X698425Y859746D01*
D02*
G37*
G36*
X542215Y727629D02*
Y613803D01*
X541617Y613555D01*
X540964Y613054D01*
X539825Y613616D01*
Y726898D01*
X541042Y728115D01*
X542215Y727629D01*
D02*
G37*
G36*
X1207625Y601307D02*
X1208450Y600231D01*
X1208241Y598574D01*
X1208216Y598547D01*
X1207962Y598377D01*
X1206789Y597205D01*
X1205011Y597941D01*
X1202690Y598247D01*
X1200369Y597941D01*
X1198207Y597045D01*
X1196350Y595620D01*
X1194925Y593763D01*
X1194029Y591601D01*
X1193723Y589280D01*
X1194029Y586959D01*
X1194925Y584797D01*
X1196350Y582940D01*
X1198207Y581515D01*
X1200369Y580619D01*
X1202690Y580313D01*
X1205011Y580619D01*
X1207173Y581515D01*
X1209030Y582940D01*
X1210455Y584797D01*
X1211351Y586959D01*
X1211657Y589280D01*
X1211447Y590875D01*
X1212318Y591745D01*
X1219555D01*
X1220041Y590572D01*
X1197934Y568465D01*
X1196857Y569184D01*
X1197381Y570449D01*
X1197687Y572770D01*
X1197381Y575091D01*
X1196485Y577253D01*
X1195060Y579110D01*
X1193203Y580535D01*
X1191041Y581431D01*
X1188720Y581737D01*
X1186399Y581431D01*
X1184237Y580535D01*
X1182380Y579110D01*
X1180955Y577253D01*
X1180707Y576655D01*
X1006693D01*
X1006572Y576814D01*
X1006224Y577925D01*
X1030204Y601905D01*
X1067244D01*
X1068081Y600951D01*
X1067993Y600284D01*
X1068299Y597963D01*
X1069195Y595800D01*
X1070620Y593943D01*
X1072477Y592518D01*
X1074639Y591623D01*
X1076960Y591317D01*
X1079281Y591623D01*
X1081443Y592518D01*
X1083300Y593943D01*
X1084725Y595800D01*
X1085621Y597963D01*
X1085927Y600284D01*
X1085839Y600951D01*
X1086676Y601905D01*
X1207377D01*
X1207625Y601307D01*
D02*
G37*
G36*
X1214240Y614605D02*
X1213069Y614451D01*
X1210907Y613555D01*
X1209050Y612130D01*
X1207625Y610273D01*
X1207377Y609675D01*
X1028595D01*
X1027109Y609379D01*
X1025848Y608537D01*
X1001586Y584275D01*
X790706Y584275D01*
X790613Y584345D01*
X788451Y585241D01*
X786775Y585462D01*
X786754Y585465D01*
Y586745D01*
X786775Y586748D01*
X788451Y586969D01*
X790613Y587865D01*
X792470Y589290D01*
X793895Y591147D01*
X794143Y591745D01*
X997585D01*
X999072Y592041D01*
X1000332Y592883D01*
X1023324Y615875D01*
X1214157D01*
X1214240Y614605D01*
D02*
G37*
G36*
X582240Y502615D02*
Y496380D01*
X585395D01*
Y494423D01*
X584797Y494175D01*
X582940Y492750D01*
X581515Y490893D01*
X580619Y488731D01*
X580313Y486410D01*
X580619Y484089D01*
X581515Y481927D01*
X582940Y480070D01*
X584797Y478645D01*
X586959Y477749D01*
X589280Y477443D01*
X591601Y477749D01*
X593763Y478645D01*
X595620Y480070D01*
X596135Y480741D01*
X597405Y480309D01*
Y474629D01*
X593470Y470693D01*
X592871Y470941D01*
X590550Y471247D01*
X588229Y470941D01*
X586067Y470045D01*
X584210Y468620D01*
X582785Y466763D01*
X581889Y464601D01*
X581583Y462280D01*
X581889Y459959D01*
X582785Y457797D01*
X581763Y457075D01*
X578891Y459947D01*
X577631Y460789D01*
X576144Y461085D01*
X548252D01*
X547415Y462039D01*
X547447Y462280D01*
X547141Y464601D01*
X546245Y466763D01*
X545587Y467621D01*
X581067Y503101D01*
X582240Y502615D01*
D02*
G37*
G36*
X498420Y456090D02*
X501575D01*
Y430020D01*
X498420D01*
Y416635D01*
X462673D01*
X462425Y417233D01*
X461000Y419090D01*
X459143Y420515D01*
X456981Y421411D01*
X454660Y421717D01*
X452339Y421411D01*
X450177Y420515D01*
X448320Y419090D01*
X446895Y417233D01*
X446197Y415549D01*
X445026Y415054D01*
X444715Y415048D01*
X444575Y415149D01*
Y464614D01*
X445714Y465176D01*
X446367Y464675D01*
X448529Y463779D01*
X450850Y463473D01*
X453171Y463779D01*
X455333Y464675D01*
X457190Y466100D01*
X458615Y467957D01*
X458863Y468555D01*
X498420D01*
Y456090D01*
D02*
G37*
G36*
X611560Y496380D02*
X612645Y495934D01*
Y463199D01*
X604246Y454799D01*
X603647Y455047D01*
X601326Y455353D01*
X599006Y455047D01*
X596843Y454152D01*
X594986Y452727D01*
X593561Y450870D01*
X592665Y448707D01*
X592558Y447891D01*
X591355Y447483D01*
X585345Y453493D01*
X586067Y454515D01*
X588229Y453619D01*
X590550Y453313D01*
X592871Y453619D01*
X595033Y454515D01*
X596890Y455940D01*
X598315Y457797D01*
X599211Y459959D01*
X599517Y462280D01*
X599211Y464601D01*
X598963Y465200D01*
X604037Y470273D01*
X604879Y471533D01*
X605175Y473020D01*
Y496380D01*
X611560D01*
Y496380D01*
D02*
G37*
G36*
X595283Y432567D02*
X596543Y431725D01*
X598030Y431430D01*
X603211D01*
X620237Y414404D01*
X619989Y413805D01*
X619683Y411484D01*
X619989Y409164D01*
X620479Y407981D01*
X619630Y406711D01*
X557245D01*
X556517Y407660D01*
X554660Y409085D01*
X552497Y409981D01*
X551681Y410089D01*
X551273Y411291D01*
X570437Y430455D01*
X574917D01*
X575165Y429857D01*
X576590Y428000D01*
X578447Y426575D01*
X580609Y425679D01*
X581660Y425541D01*
Y434340D01*
X584200D01*
Y425541D01*
X585251Y425679D01*
X587413Y426575D01*
X589270Y428000D01*
X590695Y429857D01*
X591591Y432019D01*
X591875Y434179D01*
X592848Y434809D01*
X592977Y434873D01*
X595283Y432567D01*
D02*
G37*
G36*
X631115Y448826D02*
X631411Y447339D01*
X632253Y446079D01*
X634925Y443407D01*
Y419310D01*
X633786Y418749D01*
X633133Y419250D01*
X630971Y420146D01*
X628650Y420451D01*
X626329Y420146D01*
X625731Y419898D01*
X607567Y438061D01*
X607353Y438204D01*
X607302Y439766D01*
X607667Y440046D01*
X609092Y441903D01*
X609987Y444066D01*
X610293Y446386D01*
X609987Y448707D01*
X609739Y449306D01*
X619277Y458843D01*
X620119Y460103D01*
X620415Y461590D01*
Y496380D01*
X626800D01*
Y496465D01*
X627960Y496730D01*
Y496730D01*
X631115D01*
Y448826D01*
D02*
G37*
G36*
X498420Y404940D02*
X508912D01*
X509398Y403767D01*
X503252Y397621D01*
X502929D01*
X501443Y397325D01*
X500182Y396483D01*
X499226Y395526D01*
X498922Y395760D01*
X496759Y396655D01*
X494438Y396961D01*
X492118Y396655D01*
X489955Y395760D01*
X488098Y394335D01*
X486673Y392477D01*
X485777Y390315D01*
X485471Y387994D01*
X485777Y385673D01*
X486673Y383511D01*
X487174Y382858D01*
X486612Y381719D01*
X476816D01*
X455756Y402779D01*
X456165Y403981D01*
X456981Y404089D01*
X459143Y404985D01*
X461000Y406410D01*
X462425Y408267D01*
X462673Y408865D01*
X498420D01*
Y404940D01*
D02*
G37*
G36*
X523165Y404887D02*
Y392467D01*
X523461Y390981D01*
X524303Y389721D01*
X531132Y382892D01*
X530645Y381719D01*
X502264D01*
X501703Y382858D01*
X502204Y383511D01*
X503099Y385673D01*
X503405Y387994D01*
X503321Y388634D01*
X504538Y389851D01*
X504861D01*
X506348Y390147D01*
X507608Y390989D01*
X521992Y405373D01*
X523165Y404887D01*
D02*
G37*
G36*
X656515Y349782D02*
Y348373D01*
X655917Y348125D01*
X654060Y346700D01*
X652635Y344843D01*
X651739Y342681D01*
X651631Y341865D01*
X650429Y341456D01*
X640491Y351395D01*
Y364148D01*
X641664Y364634D01*
X656515Y349782D01*
D02*
G37*
D17*
X576415Y440855D02*
X582930Y434340D01*
X566420Y440855D02*
X576415D01*
X519430Y453390D02*
X532187D01*
X547370Y438207D01*
Y429790D02*
Y438207D01*
X527050Y409470D02*
X547370Y429790D01*
X527050Y392467D02*
Y409470D01*
Y392467D02*
X535977Y383540D01*
X541760Y381000D02*
X576144D01*
X582731Y387587D01*
X617021D01*
X636606Y368001D01*
Y349785D02*
Y368001D01*
Y349785D02*
X656192Y330200D01*
X664608D01*
X670560Y336152D01*
Y348416D01*
X621229Y397747D02*
X670560Y348416D01*
X560971Y397747D02*
X621229D01*
X554385Y391160D02*
X560971Y397747D01*
X545968Y391160D02*
X554385D01*
X540016Y397112D02*
X545968Y391160D01*
X540016Y397112D02*
Y405528D01*
X568828Y434340D01*
X582930D01*
X521970Y410845D02*
Y418759D01*
X535977Y383540D02*
X539220D01*
X521970Y418759D02*
X537210Y433999D01*
X539220Y383540D02*
X541760Y381000D01*
X624836Y401325D02*
X635820D01*
X623333Y402827D02*
X624836Y401325D01*
X551683Y402827D02*
X623333D01*
X550176Y401320D02*
X551683Y402827D01*
X539655Y375920D02*
X611306D01*
X612812Y377427D01*
X638810Y404314D02*
Y445016D01*
X475207Y377834D02*
X537741D01*
X604820Y435314D02*
X628650Y411484D01*
X537741Y377834D02*
X539655Y375920D01*
X556489Y386080D02*
X559029Y388620D01*
X543864Y386080D02*
X556489D01*
X635820Y401325D02*
X638810Y404314D01*
X559029Y388620D02*
X576580D01*
X504861Y393736D02*
X521970Y410845D01*
X539832Y462280D02*
Y467360D01*
X598030Y435314D02*
X604820D01*
X538082Y388620D02*
X541324D01*
X539832Y458552D02*
Y462280D01*
X541324Y388620D02*
X543864Y386080D01*
X538480Y462280D02*
X539832D01*
X576144Y457200D02*
X598030Y435314D01*
X539832Y467360D02*
X583202Y510730D01*
X538480Y457200D02*
X576144D01*
X538480D02*
X539832Y458552D01*
X538480Y457200D02*
X550075Y445605D01*
X601326Y446386D02*
X616530Y461590D01*
Y500190D01*
X590550Y462280D02*
X601290Y473020D01*
X635000Y448826D02*
Y503270D01*
Y448826D02*
X638810Y445016D01*
X440690Y412352D02*
X475207Y377834D01*
X494438Y387994D02*
X497188D01*
X502929Y393736D02*
X504861D01*
X497188Y387994D02*
X502929Y393736D01*
X938312Y725170D02*
X939800Y723682D01*
X908782Y725025D02*
X928908D01*
X911860Y714680D02*
X942670D01*
X880110Y789940D02*
X894446Y775604D01*
X855263Y791428D02*
X878622D01*
X854710Y791981D02*
X855263Y791428D01*
X845820Y798830D02*
X852669Y791981D01*
X854710D01*
X878622Y791428D02*
X880110Y789940D01*
X1412240Y716280D02*
X1414989D01*
X1418799Y720090D02*
X1421440D01*
X1414989Y716280D02*
X1418799Y720090D01*
X796290Y657860D02*
X796540D01*
X801326Y647724D02*
Y653074D01*
Y647724D02*
X803270Y645780D01*
X796540Y657860D02*
X801326Y653074D01*
X550075Y445605D02*
X552450Y443230D01*
X660400Y340360D02*
Y351392D01*
X580627Y392667D02*
X619125D01*
X576580Y388620D02*
X580627Y392667D01*
X532130Y394572D02*
X538082Y388620D01*
X532130Y394572D02*
Y407366D01*
X552450Y427686D01*
Y443230D01*
X619125Y392667D02*
X660400Y351392D01*
X440690Y412352D02*
Y510142D01*
X438150Y910590D02*
Y919480D01*
X420370Y937260D02*
X438150Y919480D01*
Y910590D02*
X439420Y909320D01*
X379730Y916940D02*
Y918210D01*
Y916940D02*
X415290Y881380D01*
Y880110D02*
Y881380D01*
X535940Y580390D02*
X537210Y579120D01*
X535940Y580390D02*
Y728507D01*
X754853Y947420D01*
X546100Y731483D02*
X756957Y942340D01*
X999490D01*
X754853Y947420D02*
X1008778D01*
X999490Y942340D02*
X1184910Y756920D01*
X756522Y932180D02*
X963930D01*
X736202Y911860D02*
X756522Y932180D01*
X1008778Y947420D02*
X1203822Y752376D01*
Y741818D02*
Y752376D01*
Y741818D02*
X1220470Y725170D01*
X1004570Y919480D02*
X1054100Y869950D01*
X751006Y919480D02*
X1004570D01*
X546100Y605790D02*
Y731483D01*
X737870Y901700D02*
X770890D01*
X655875Y758745D02*
Y831533D01*
X702310Y760730D02*
Y866140D01*
X660955Y738425D02*
Y829429D01*
X733662Y911860D02*
X736202D01*
X692150Y870348D02*
X733662Y911860D01*
X692150Y867808D02*
Y870348D01*
X655875Y831533D02*
X692150Y867808D01*
X727274Y883920D02*
X997747D01*
X735766Y906780D02*
X738306D01*
X697230Y868244D02*
X735766Y906780D01*
X738306D02*
X751006Y919480D01*
X660955Y829429D02*
X697230Y865704D01*
X702310Y866140D02*
X737870Y901700D01*
X697230Y865704D02*
Y868244D01*
X707390Y730468D02*
Y864036D01*
X727274Y883920D01*
X567690Y670560D02*
X655875Y758745D01*
X570230Y647700D02*
X660955Y738425D01*
X569595Y628015D02*
X702310Y760730D01*
X570230Y590550D02*
X609758Y630078D01*
X1130300Y789940D02*
X1456690Y463550D01*
X1611630D01*
X1106170Y797560D02*
X1457960Y445770D01*
X1611630D01*
X1106170Y797560D02*
Y811530D01*
X857250Y878840D02*
X995643D01*
X1248410Y613447D02*
Y626073D01*
X839470Y890270D02*
X998581D01*
X1253490Y611343D02*
Y628177D01*
X993538Y873760D02*
X1243330Y623968D01*
X997747Y883920D02*
X1253490Y628177D01*
X1243330Y615552D02*
Y623968D01*
X998581Y890270D02*
X1258570Y630281D01*
X995643Y878840D02*
X1248410Y626073D01*
X1263650Y607135D02*
Y632385D01*
X999415Y896620D02*
X1263650Y632385D01*
X908050Y873760D02*
X993538D01*
X1258570Y609239D02*
Y630281D01*
X908685Y896620D02*
X999415D01*
X1223408Y595630D02*
X1243330Y615552D01*
X1157970Y694960D02*
X1183640Y669290D01*
X1192493Y557530D02*
X1248410Y613447D01*
X836800Y694960D02*
X1157970D01*
X997585Y595630D02*
X1021715Y619760D01*
X1233170D01*
X1003195Y580390D02*
X1028595Y605790D01*
X1215390D01*
X786130Y557941D02*
X786541D01*
X801370Y572770D02*
X1188720D01*
X786541Y557941D02*
X801370Y572770D01*
X786130Y595630D02*
X997585D01*
X609758Y638056D02*
X660042Y688340D01*
X693420D01*
X609758Y630078D02*
Y638056D01*
X840740Y862330D02*
X857250Y878840D01*
X839470Y862330D02*
X840740D01*
X811530Y909320D02*
X895985D01*
X831850Y897890D02*
X839470Y890270D01*
X717550Y793750D02*
X749935Y826135D01*
X679450Y598170D02*
X740410Y537210D01*
X647700Y598170D02*
X679450D01*
X800107Y557530D02*
X885190D01*
X790359Y547781D02*
X800107Y557530D01*
X761600Y521100D02*
X765810Y516890D01*
Y504190D02*
Y516890D01*
X785495Y446405D02*
Y536966D01*
X784860Y445770D02*
X785495Y446405D01*
Y536966D02*
X786130Y537601D01*
X735210Y508540D02*
X767080Y476670D01*
Y425450D02*
Y476670D01*
X709793Y521100D02*
X761600D01*
X729378Y373380D02*
X861060Y505062D01*
Y535940D01*
X651550Y665480D02*
X769249Y547781D01*
X790359D01*
X693420Y642620D02*
X721360D01*
X717550Y772160D02*
X759598Y814208D01*
X829846D01*
X875626Y859988D01*
Y866736D01*
X877570Y868680D01*
X749935Y826135D02*
X827405D01*
X859790Y858520D01*
X707986Y725844D02*
X709930Y723900D01*
X707986Y725844D02*
Y729872D01*
X707390Y730468D02*
X707986Y729872D01*
X1350388Y671830D02*
X1415685Y737126D01*
X1286510Y671830D02*
X1350388D01*
X1174750Y557530D02*
X1192493D01*
X1210708Y595630D02*
X1223408D01*
X1053191Y403860D02*
X1258570Y609239D01*
X894080Y859790D02*
X908050Y873760D01*
X895985Y909320D02*
X908685Y896620D01*
X817880Y713880D02*
X836800Y694960D01*
X1415685Y737126D02*
Y737693D01*
X1444399Y746239D02*
X1463990Y765830D01*
X1424231Y746239D02*
X1444399D01*
X1415685Y737693D02*
X1424231Y746239D01*
X1463990Y765830D02*
Y767080D01*
X1055295Y398780D02*
X1263650Y607135D01*
X1185707Y543560D02*
X1253490Y611343D01*
X786130Y576580D02*
X789940Y580390D01*
X650240Y513080D02*
X701773D01*
X709793Y521100D01*
X707390Y373380D02*
X729378D01*
X881778Y392430D02*
X888128Y398780D01*
X880110Y392430D02*
X881778D01*
X888128Y398780D02*
X1055295D01*
X1160780Y543560D02*
X1185707D01*
X868680Y403860D02*
X1053191D01*
X1204358Y589280D02*
X1210708Y595630D01*
X1202690Y589280D02*
X1204358D01*
X789940Y580390D02*
X1003195Y580390D01*
X855980Y640080D02*
Y665979D01*
X322580Y800100D02*
X452120D01*
X894446Y739361D02*
Y775604D01*
Y739361D02*
X908782Y725025D01*
X960450Y714680D02*
X962660Y712470D01*
X942670Y714680D02*
X960450D01*
X942670D02*
X943070Y714280D01*
X942340Y715010D02*
X942670Y714680D01*
X928908Y725025D02*
X929053Y725170D01*
X939800Y717550D02*
Y723682D01*
X929053Y725170D02*
X938312D01*
X941840Y715010D02*
X942340D01*
X941110Y715740D02*
X941840Y715010D01*
X941110Y715740D02*
Y716240D01*
X939800Y717550D02*
X941110Y716240D01*
X791210Y697230D02*
Y720255D01*
X811369Y707369D02*
X817880Y713880D01*
X801349Y707369D02*
X811369D01*
X791210Y697230D02*
X801349Y707369D01*
X880110Y785965D02*
Y789940D01*
X945080Y813000D02*
X963730D01*
X944880Y813200D02*
X945080Y813000D01*
X963730D02*
X963930Y812800D01*
X735210Y508540D02*
Y510540D01*
X732460Y441960D02*
Y461010D01*
Y401320D02*
Y421640D01*
Y477520D02*
Y507790D01*
X735210Y510540D01*
X732460Y421640D02*
Y441960D01*
Y461010D02*
Y477520D01*
X1389290Y777860D02*
X1389940Y778510D01*
X1385810Y739140D02*
X1389290Y742620D01*
Y777860D01*
X588780Y514920D02*
X589280D01*
X584590Y510730D02*
X588780Y514920D01*
X583202Y510730D02*
X584590D01*
X589280Y514920D02*
X604520D01*
X619760D01*
X620110Y515270D02*
X635000D01*
X619760Y514920D02*
X620110Y515270D01*
X619260Y502920D02*
X619760D01*
X616530Y500190D02*
X619260Y502920D01*
X601290Y473020D02*
Y500190D01*
X604020Y502920D01*
X604520D01*
X589280Y486410D02*
Y502920D01*
X674370Y400050D02*
X692150D01*
X674370Y381000D02*
Y400050D01*
X447040Y516492D02*
Y518160D01*
X440690Y510142D02*
X447040Y516492D01*
X550075Y445605D02*
X566420D01*
X505460Y423480D02*
Y462630D01*
X454660Y412750D02*
X504190D01*
X505460Y411480D01*
X450850Y472440D02*
X503270D01*
X505460Y474630D01*
X1463990Y765830D02*
X1505920Y723900D01*
X1506220D01*
X1422400Y772160D02*
Y786130D01*
Y762000D02*
Y772160D01*
X1407160Y787400D02*
X1422400Y772160D01*
X1407160Y801370D02*
X1422400Y786130D01*
X1439260Y762000D02*
X1443990Y766730D01*
X1422400Y762000D02*
X1439260D01*
X1443990Y766730D02*
Y767080D01*
X1421460Y730580D02*
X1424940Y734060D01*
X1421460Y720090D02*
Y730580D01*
D23*
X732625Y401320D02*
D03*
X727875D02*
D03*
X732460Y441960D02*
D03*
X727710D02*
D03*
X732460Y461010D02*
D03*
X727710D02*
D03*
X732460Y477520D02*
D03*
X727710D02*
D03*
X732460Y421640D02*
D03*
X727710D02*
D03*
X505625Y443230D02*
D03*
X510375D02*
D03*
X1402410Y801370D02*
D03*
X1407160D02*
D03*
X1402410Y787400D02*
D03*
X1407160D02*
D03*
X1426210Y720090D02*
D03*
X1421460D02*
D03*
D27*
X635000Y515270D02*
D03*
Y503270D02*
D03*
X619760Y514920D02*
D03*
Y502920D02*
D03*
X604520Y514920D02*
D03*
Y502920D02*
D03*
X589280Y514920D02*
D03*
Y502920D02*
D03*
X505460Y474630D02*
D03*
Y462630D02*
D03*
Y411480D02*
D03*
Y423480D02*
D03*
D35*
X880110Y785965D02*
D03*
Y781215D02*
D03*
X791210Y720255D02*
D03*
Y725005D02*
D03*
X939800Y725500D02*
D03*
Y730250D02*
D03*
X925830Y725335D02*
D03*
Y730085D02*
D03*
X911860Y725335D02*
D03*
Y730085D02*
D03*
Y714680D02*
D03*
Y709930D02*
D03*
X925830Y715010D02*
D03*
Y710260D02*
D03*
X566420Y445605D02*
D03*
Y440855D02*
D03*
X1424940Y738810D02*
D03*
Y734060D02*
D03*
D43*
X1443990Y767080D02*
D03*
X1463990D02*
D03*
D44*
X674370Y381000D02*
D03*
X666370D02*
D03*
X674370Y400050D02*
D03*
X666370D02*
D03*
D72*
X1733550Y359410D02*
D03*
X1722120Y491490D02*
D03*
D73*
X1733550Y334010D02*
D03*
X1722120Y516890D02*
D03*
D74*
X923290Y1202690D02*
D03*
X1710690D02*
D03*
X1532890D02*
D03*
X1316990D02*
D03*
X1139190D02*
D03*
X745490D02*
D03*
X529590D02*
D03*
X351790D02*
D03*
D75*
X419450Y403880D02*
D03*
Y380980D02*
D03*
Y495280D02*
D03*
Y518180D02*
D03*
X353450Y474980D02*
D03*
Y454580D02*
D03*
Y434180D02*
D03*
X371250Y485180D02*
D03*
Y464780D02*
D03*
Y444380D02*
D03*
Y423980D02*
D03*
D76*
X353450Y413780D02*
D03*
D77*
X362350Y368280D02*
D03*
Y530880D02*
D03*
D78*
X328050Y386080D02*
D03*
Y513080D02*
D03*
D80*
X659290Y428150D02*
D03*
Y438150D02*
D03*
Y448150D02*
D03*
X669290Y428150D02*
D03*
Y438150D02*
D03*
Y448150D02*
D03*
X679290Y428150D02*
D03*
Y438150D02*
D03*
Y448150D02*
D03*
D82*
X628650Y411484D02*
D03*
X537210Y433999D02*
D03*
X612812Y377427D02*
D03*
X550176Y401320D02*
D03*
X538480Y462280D02*
D03*
X519430Y453390D02*
D03*
X601326Y446386D02*
D03*
X590550Y462280D02*
D03*
X582930Y434340D02*
D03*
X494438Y387994D02*
D03*
X753110Y441960D02*
D03*
X732790Y748030D02*
D03*
X867260Y814070D02*
D03*
X845820Y798830D02*
D03*
X811530Y379304D02*
D03*
X655320Y296754D02*
D03*
X316230Y449154D02*
D03*
X337820Y300564D02*
D03*
X441960Y649814D02*
D03*
X828040Y648544D02*
D03*
X833120Y681564D02*
D03*
X916940Y666324D02*
D03*
X816610Y784434D02*
D03*
X906780Y804754D02*
D03*
X877570Y733634D02*
D03*
X713740Y891114D02*
D03*
X994410Y886034D02*
D03*
X1055370Y753954D02*
D03*
X1076960Y600284D02*
D03*
X930910Y366604D02*
D03*
X1192530Y311994D02*
D03*
X1209040Y449154D02*
D03*
X1365250Y395814D02*
D03*
X1553210Y317074D02*
D03*
X1643380Y436454D02*
D03*
X1612900Y577424D02*
D03*
X1386840Y734904D02*
D03*
X1480820Y672674D02*
D03*
X1412240Y716280D02*
D03*
X803270Y645780D02*
D03*
X739140Y662940D02*
D03*
X552450Y332740D02*
D03*
X485140Y365760D02*
D03*
X660400Y340360D02*
D03*
X420370Y937260D02*
D03*
X439420Y909320D02*
D03*
X415290Y880110D02*
D03*
X510540Y825500D02*
D03*
X337820Y981710D02*
D03*
X330200Y910590D02*
D03*
X633730Y852170D02*
D03*
X462280Y905510D02*
D03*
X532130Y904240D02*
D03*
X417830Y843280D02*
D03*
X391160Y826770D02*
D03*
X321310Y820420D02*
D03*
X1054100Y869950D02*
D03*
X963930Y932180D02*
D03*
X770890Y901700D02*
D03*
X546100Y605790D02*
D03*
X567690Y670560D02*
D03*
X570230Y647700D02*
D03*
X569595Y628015D02*
D03*
X570230Y590550D02*
D03*
X537210Y579120D02*
D03*
X1220470Y725170D02*
D03*
X1184910Y756920D02*
D03*
X693420Y688340D02*
D03*
X839470Y862330D02*
D03*
X859790Y858520D02*
D03*
X811530Y909320D02*
D03*
X717550Y793750D02*
D03*
X831850Y897890D02*
D03*
X647700Y598170D02*
D03*
X740410Y537210D02*
D03*
X881380Y538480D02*
D03*
X885190Y557530D02*
D03*
X762000Y536331D02*
D03*
X765810Y504190D02*
D03*
X861060Y535940D02*
D03*
X651550Y665480D02*
D03*
X786130Y557941D02*
D03*
Y537601D02*
D03*
X693420Y642620D02*
D03*
X877570Y868680D02*
D03*
X709930Y723900D02*
D03*
X717550Y772160D02*
D03*
X1183640Y669290D02*
D03*
X1286510Y671830D02*
D03*
X1188720Y572770D02*
D03*
X1174750Y557530D02*
D03*
X1233170Y619760D02*
D03*
X1215390Y605790D02*
D03*
X894080Y859790D02*
D03*
X1130300Y789940D02*
D03*
X1106170Y811530D02*
D03*
X1611630Y445770D02*
D03*
Y463550D02*
D03*
X786130Y576580D02*
D03*
X707390Y373380D02*
D03*
X784860Y445770D02*
D03*
X1160780Y543560D02*
D03*
X880110Y392430D02*
D03*
X868680Y403860D02*
D03*
X855980Y640080D02*
D03*
X786130Y595630D02*
D03*
X721360Y642620D02*
D03*
X1202690Y589280D02*
D03*
X452120Y800100D02*
D03*
X322580D02*
D03*
X379730Y918210D02*
D03*
X650240Y513080D02*
D03*
X962660Y712470D02*
D03*
X791210Y697230D02*
D03*
X963930Y812800D02*
D03*
X767080Y425450D02*
D03*
X1389940Y778510D02*
D03*
X589280Y486410D02*
D03*
X692150Y400050D02*
D03*
X447040Y518160D02*
D03*
X454660Y412750D02*
D03*
X450850Y472440D02*
D03*
X1506220Y723900D02*
D03*
X1422400Y762000D02*
D03*
D83*
X854710Y791981D02*
D03*
Y774700D02*
D03*
X817880Y713989D02*
D03*
Y731271D02*
D03*
X855980Y665979D02*
D03*
Y683260D02*
D03*
D84*
X796290Y657860D02*
D03*
Y671360D02*
D03*
X944880Y813200D02*
D03*
Y799700D02*
D03*
D85*
X942340Y715010D02*
D03*
Y707010D02*
D03*
D86*
X735210Y510540D02*
D03*
X720210D02*
D03*
X1400810Y739140D02*
D03*
X1385810D02*
D03*
M02*
