G04*
G04 #@! TF.GenerationSoftware,Altium Limited,Altium Designer,24.1.2 (44)*
G04*
G04 Layer_Color=16711935*
%FSLAX44Y44*%
%MOMM*%
G71*
G04*
G04 #@! TF.SameCoordinates,0A8073CA-4D69-4BD4-B8E1-8B9189CEBFBB*
G04*
G04*
G04 #@! TF.FilePolarity,Negative*
G04*
G01*
G75*
%ADD23R,0.2500X0.3000*%
%ADD35R,0.3000X0.2500*%
%ADD44R,0.4000X0.5000*%
%ADD57R,1.1032X1.0032*%
%ADD66R,1.4032X1.6532*%
%ADD72C,1.5700*%
%ADD73R,1.5700X1.5700*%
%ADD74C,9.5500*%
%ADD75C,1.3900*%
%ADD76R,1.3900X1.3900*%
%ADD77C,2.4200*%
%ADD78C,3.2500*%
%ADD79C,1.4732*%
%ADD80C,0.6000*%
%ADD83R,1.5562X1.5781*%
%ADD84R,0.7000X0.6500*%
%ADD85R,0.5000X0.4000*%
%ADD86R,0.9500X1.3500*%
D23*
X732625Y401320D02*
D03*
X727875D02*
D03*
X732460Y441960D02*
D03*
X727710D02*
D03*
X732460Y461010D02*
D03*
X727710D02*
D03*
X732460Y477520D02*
D03*
X727710D02*
D03*
X732460Y421640D02*
D03*
X727710D02*
D03*
X505625Y443230D02*
D03*
X510375D02*
D03*
X1402410Y801370D02*
D03*
X1407160D02*
D03*
X1402410Y787400D02*
D03*
X1407160D02*
D03*
X1426210Y720090D02*
D03*
X1421460D02*
D03*
D35*
X880110Y785965D02*
D03*
Y781215D02*
D03*
X791210Y720255D02*
D03*
Y725005D02*
D03*
X939800Y725500D02*
D03*
Y730250D02*
D03*
X925830Y725335D02*
D03*
Y730085D02*
D03*
X911860Y725335D02*
D03*
Y730085D02*
D03*
Y714680D02*
D03*
Y709930D02*
D03*
X925830Y715010D02*
D03*
Y710260D02*
D03*
X566420Y445605D02*
D03*
Y440855D02*
D03*
X1424940Y738810D02*
D03*
Y734060D02*
D03*
D44*
X674370Y381000D02*
D03*
X666370D02*
D03*
X674370Y400050D02*
D03*
X666370D02*
D03*
D57*
X635000Y515270D02*
D03*
Y503270D02*
D03*
X619760Y514920D02*
D03*
Y502920D02*
D03*
X604520Y514920D02*
D03*
Y502920D02*
D03*
X589280Y514920D02*
D03*
Y502920D02*
D03*
X505460Y474630D02*
D03*
Y462630D02*
D03*
Y411480D02*
D03*
Y423480D02*
D03*
D66*
X1443990Y767080D02*
D03*
X1463990D02*
D03*
D72*
X1733550Y359410D02*
D03*
X1722120Y491490D02*
D03*
D73*
X1733550Y334010D02*
D03*
X1722120Y516890D02*
D03*
D74*
X923290Y1202690D02*
D03*
X1710690D02*
D03*
X1532890D02*
D03*
X1316990D02*
D03*
X1139190D02*
D03*
X745490D02*
D03*
X529590D02*
D03*
X351790D02*
D03*
D75*
X419450Y403880D02*
D03*
Y380980D02*
D03*
Y495280D02*
D03*
Y518180D02*
D03*
X353450Y474980D02*
D03*
Y454580D02*
D03*
Y434180D02*
D03*
X371250Y485180D02*
D03*
Y464780D02*
D03*
Y444380D02*
D03*
Y423980D02*
D03*
D76*
X353450Y413780D02*
D03*
D77*
X362350Y368280D02*
D03*
Y530880D02*
D03*
D78*
X328050Y386080D02*
D03*
Y513080D02*
D03*
D79*
X628650Y411484D02*
D03*
X537210Y433999D02*
D03*
X612812Y377427D02*
D03*
X550176Y401320D02*
D03*
X538480Y462280D02*
D03*
X519430Y453390D02*
D03*
X601326Y446386D02*
D03*
X590550Y462280D02*
D03*
X582930Y434340D02*
D03*
X494438Y387994D02*
D03*
X753110Y441960D02*
D03*
X732790Y748030D02*
D03*
X867260Y814070D02*
D03*
X845820Y798830D02*
D03*
X811530Y379304D02*
D03*
X655320Y296754D02*
D03*
X316230Y449154D02*
D03*
X337820Y300564D02*
D03*
X441960Y649814D02*
D03*
X828040Y648544D02*
D03*
X833120Y681564D02*
D03*
X916940Y666324D02*
D03*
X816610Y784434D02*
D03*
X906780Y804754D02*
D03*
X877570Y733634D02*
D03*
X713740Y891114D02*
D03*
X994410Y886034D02*
D03*
X1055370Y753954D02*
D03*
X1076960Y600284D02*
D03*
X930910Y366604D02*
D03*
X1192530Y311994D02*
D03*
X1209040Y449154D02*
D03*
X1365250Y395814D02*
D03*
X1553210Y317074D02*
D03*
X1643380Y436454D02*
D03*
X1612900Y577424D02*
D03*
X1386840Y734904D02*
D03*
X1480820Y672674D02*
D03*
X1412240Y716280D02*
D03*
X803270Y645780D02*
D03*
X739140Y662940D02*
D03*
X552450Y332740D02*
D03*
X485140Y365760D02*
D03*
X660400Y340360D02*
D03*
X420370Y937260D02*
D03*
X439420Y909320D02*
D03*
X415290Y880110D02*
D03*
X510540Y825500D02*
D03*
X337820Y981710D02*
D03*
X330200Y910590D02*
D03*
X633730Y852170D02*
D03*
X462280Y905510D02*
D03*
X532130Y904240D02*
D03*
X417830Y843280D02*
D03*
X391160Y826770D02*
D03*
X321310Y820420D02*
D03*
X1054100Y869950D02*
D03*
X963930Y932180D02*
D03*
X770890Y901700D02*
D03*
X546100Y605790D02*
D03*
X567690Y670560D02*
D03*
X570230Y647700D02*
D03*
X569595Y628015D02*
D03*
X570230Y590550D02*
D03*
X537210Y579120D02*
D03*
X1220470Y725170D02*
D03*
X1184910Y756920D02*
D03*
X693420Y688340D02*
D03*
X839470Y862330D02*
D03*
X859790Y858520D02*
D03*
X811530Y909320D02*
D03*
X717550Y793750D02*
D03*
X831850Y897890D02*
D03*
X647700Y598170D02*
D03*
X740410Y537210D02*
D03*
X881380Y538480D02*
D03*
X885190Y557530D02*
D03*
X762000Y536331D02*
D03*
X765810Y504190D02*
D03*
X861060Y535940D02*
D03*
X651550Y665480D02*
D03*
X786130Y557941D02*
D03*
Y537601D02*
D03*
X693420Y642620D02*
D03*
X877570Y868680D02*
D03*
X709930Y723900D02*
D03*
X717550Y772160D02*
D03*
X1183640Y669290D02*
D03*
X1286510Y671830D02*
D03*
X1188720Y572770D02*
D03*
X1174750Y557530D02*
D03*
X1233170Y619760D02*
D03*
X1215390Y605790D02*
D03*
X894080Y859790D02*
D03*
X1130300Y789940D02*
D03*
X1106170Y811530D02*
D03*
X1611630Y445770D02*
D03*
Y463550D02*
D03*
X786130Y576580D02*
D03*
X707390Y373380D02*
D03*
X784860Y445770D02*
D03*
X1160780Y543560D02*
D03*
X880110Y392430D02*
D03*
X868680Y403860D02*
D03*
X855980Y640080D02*
D03*
X786130Y595630D02*
D03*
X721360Y642620D02*
D03*
X1202690Y589280D02*
D03*
X452120Y800100D02*
D03*
X322580D02*
D03*
X379730Y918210D02*
D03*
X650240Y513080D02*
D03*
X962660Y712470D02*
D03*
X791210Y697230D02*
D03*
X963930Y812800D02*
D03*
X767080Y425450D02*
D03*
X1389940Y778510D02*
D03*
X589280Y486410D02*
D03*
X692150Y400050D02*
D03*
X447040Y518160D02*
D03*
X454660Y412750D02*
D03*
X450850Y472440D02*
D03*
X1506220Y723900D02*
D03*
X1422400Y762000D02*
D03*
D80*
X659290Y428150D02*
D03*
Y438150D02*
D03*
Y448150D02*
D03*
X669290Y428150D02*
D03*
Y438150D02*
D03*
Y448150D02*
D03*
X679290Y428150D02*
D03*
Y438150D02*
D03*
Y448150D02*
D03*
D83*
X854710Y791981D02*
D03*
Y774700D02*
D03*
X817880Y713989D02*
D03*
Y731271D02*
D03*
X855980Y665979D02*
D03*
Y683260D02*
D03*
D84*
X796290Y657860D02*
D03*
Y671360D02*
D03*
X944880Y813200D02*
D03*
Y799700D02*
D03*
D85*
X942340Y715010D02*
D03*
Y707010D02*
D03*
D86*
X735210Y510540D02*
D03*
X720210D02*
D03*
X1400810Y739140D02*
D03*
X1385810D02*
D03*
M02*
