G04*
G04 #@! TF.GenerationSoftware,Altium Limited,Altium Designer,24.1.2 (44)*
G04*
G04 Layer_Color=255*
%FSLAX44Y44*%
%MOMM*%
G71*
G04*
G04 #@! TF.SameCoordinates,0A8073CA-4D69-4BD4-B8E1-8B9189CEBFBB*
G04*
G04*
G04 #@! TF.FilePolarity,Positive*
G04*
G01*
G75*
%ADD19R,0.3000X0.9900*%
%ADD20R,0.8000X0.9000*%
%ADD21R,3.3000X2.2000*%
%ADD22R,1.0000X2.2000*%
%ADD23R,0.2500X0.3000*%
G04:AMPARAMS|DCode=24|XSize=0.85mm|YSize=0.3mm|CornerRadius=0.15mm|HoleSize=0mm|Usage=FLASHONLY|Rotation=90.000|XOffset=0mm|YOffset=0mm|HoleType=Round|Shape=RoundedRectangle|*
%AMROUNDEDRECTD24*
21,1,0.8500,0.0000,0,0,90.0*
21,1,0.5500,0.3000,0,0,90.0*
1,1,0.3000,0.0000,0.2750*
1,1,0.3000,0.0000,-0.2750*
1,1,0.3000,0.0000,-0.2750*
1,1,0.3000,0.0000,0.2750*
%
%ADD24ROUNDEDRECTD24*%
G04:AMPARAMS|DCode=25|XSize=0.3mm|YSize=0.85mm|CornerRadius=0.15mm|HoleSize=0mm|Usage=FLASHONLY|Rotation=90.000|XOffset=0mm|YOffset=0mm|HoleType=Round|Shape=RoundedRectangle|*
%AMROUNDEDRECTD25*
21,1,0.3000,0.5500,0,0,90.0*
21,1,0.0000,0.8500,0,0,90.0*
1,1,0.3000,0.2750,0.0000*
1,1,0.3000,0.2750,0.0000*
1,1,0.3000,-0.2750,0.0000*
1,1,0.3000,-0.2750,0.0000*
%
%ADD25ROUNDEDRECTD25*%
%ADD26R,2.6000X2.6000*%
%ADD27R,0.9000X0.8000*%
%ADD28R,1.6500X0.7600*%
%ADD29R,1.2500X1.8000*%
%ADD30R,0.2794X1.3589*%
%ADD31R,1.3589X0.2794*%
%ADD32R,1.5500X0.6000*%
%ADD33R,0.4500X1.4500*%
%ADD34R,3.7500X1.0000*%
%ADD35R,0.3000X0.2500*%
%ADD36R,1.8000X1.4000*%
%ADD37R,1.4000X1.8000*%
%ADD38R,1.8000X0.6000*%
%ADD39R,0.8000X0.8000*%
G04:AMPARAMS|DCode=40|XSize=3.15mm|YSize=1.45mm|CornerRadius=0.0508mm|HoleSize=0mm|Usage=FLASHONLY|Rotation=270.000|XOffset=0mm|YOffset=0mm|HoleType=Round|Shape=RoundedRectangle|*
%AMROUNDEDRECTD40*
21,1,3.1500,1.3485,0,0,270.0*
21,1,3.0485,1.4500,0,0,270.0*
1,1,0.1015,-0.6743,-1.5243*
1,1,0.1015,-0.6743,1.5243*
1,1,0.1015,0.6743,1.5243*
1,1,0.1015,0.6743,-1.5243*
%
%ADD40ROUNDEDRECTD40*%
G04:AMPARAMS|DCode=41|XSize=0.9mm|YSize=1.45mm|CornerRadius=0.0495mm|HoleSize=0mm|Usage=FLASHONLY|Rotation=270.000|XOffset=0mm|YOffset=0mm|HoleType=Round|Shape=RoundedRectangle|*
%AMROUNDEDRECTD41*
21,1,0.9000,1.3510,0,0,270.0*
21,1,0.8010,1.4500,0,0,270.0*
1,1,0.0990,-0.6755,-0.4005*
1,1,0.0990,-0.6755,0.4005*
1,1,0.0990,0.6755,0.4005*
1,1,0.0990,0.6755,-0.4005*
%
%ADD41ROUNDEDRECTD41*%
%ADD42R,2.0000X2.0000*%
%ADD43R,1.2000X1.4500*%
%ADD44R,0.4000X0.5000*%
%ADD45R,1.4500X1.2000*%
%ADD46R,0.6587X0.8121*%
%ADD47R,1.5500X0.6000*%
%ADD48R,1.3000X1.1000*%
%ADD49R,1.8000X1.2500*%
%ADD50R,0.8000X0.8000*%
G04:AMPARAMS|DCode=51|XSize=1.8mm|YSize=3mm|CornerRadius=0mm|HoleSize=0mm|Usage=FLASHONLY|Rotation=270.000|XOffset=0mm|YOffset=0mm|HoleType=Round|Shape=Octagon|*
%AMOCTAGOND51*
4,1,8,1.5000,0.4500,1.5000,-0.4500,1.0500,-0.9000,-1.0500,-0.9000,-1.5000,-0.4500,-1.5000,0.4500,-1.0500,0.9000,1.0500,0.9000,1.5000,0.4500,0.0*
%
%ADD51OCTAGOND51*%

%ADD52R,1.2000X0.5000*%
%ADD53R,1.1000X0.5000*%
%ADD72C,1.5700*%
%ADD73R,1.5700X1.5700*%
%ADD74C,9.5500*%
%ADD75C,1.3900*%
%ADD76R,1.3900X1.3900*%
%ADD77C,2.4200*%
%ADD78C,3.2500*%
D19*
X406320Y772590D02*
D03*
X401320D02*
D03*
X396320D02*
D03*
Y756490D02*
D03*
X401320D02*
D03*
X406320D02*
D03*
X405050Y924990D02*
D03*
X400050D02*
D03*
X395050D02*
D03*
Y908890D02*
D03*
X400050D02*
D03*
X405050D02*
D03*
D20*
X566420Y925830D02*
D03*
X554420D02*
D03*
X517460Y927100D02*
D03*
X505460D02*
D03*
X464120D02*
D03*
X452120D02*
D03*
X409510Y859790D02*
D03*
X397510D02*
D03*
X811530Y458470D02*
D03*
X799530D02*
D03*
X810830Y426720D02*
D03*
X798830D02*
D03*
X810830Y410210D02*
D03*
X798830D02*
D03*
X737870Y474980D02*
D03*
X725870D02*
D03*
Y458470D02*
D03*
X737870D02*
D03*
X725520Y443230D02*
D03*
X737520D02*
D03*
X726440Y405130D02*
D03*
X738440D02*
D03*
X726440Y387350D02*
D03*
X738440D02*
D03*
X593090Y328930D02*
D03*
X605090D02*
D03*
X542990Y360680D02*
D03*
X554990D02*
D03*
D21*
X1365250Y462760D02*
D03*
X1446530Y307820D02*
D03*
D22*
X1342250Y522760D02*
D03*
X1365250D02*
D03*
X1388250D02*
D03*
X1469530Y367820D02*
D03*
X1446530D02*
D03*
X1423530D02*
D03*
D23*
X732790Y490220D02*
D03*
X728040D02*
D03*
X1603845Y496570D02*
D03*
X1599095D02*
D03*
X1568450Y431800D02*
D03*
X1563700D02*
D03*
X1551940Y612140D02*
D03*
X1547190D02*
D03*
X1579715Y668020D02*
D03*
X1574965D02*
D03*
X1365415Y576580D02*
D03*
X1370165D02*
D03*
X1447965Y425720D02*
D03*
X1452715D02*
D03*
X524510Y317500D02*
D03*
X519760D02*
D03*
D24*
X656790Y418650D02*
D03*
X661790D02*
D03*
X666790D02*
D03*
X671790D02*
D03*
X676790D02*
D03*
X681790D02*
D03*
Y457650D02*
D03*
X676790D02*
D03*
X671790D02*
D03*
X666790D02*
D03*
X661790D02*
D03*
X656790D02*
D03*
D25*
X688790Y425650D02*
D03*
Y430650D02*
D03*
Y435650D02*
D03*
Y440650D02*
D03*
Y445650D02*
D03*
Y450650D02*
D03*
X649790D02*
D03*
Y445650D02*
D03*
Y440650D02*
D03*
Y435650D02*
D03*
Y430650D02*
D03*
Y425650D02*
D03*
D26*
X669290Y438150D02*
D03*
D27*
X420370Y557530D02*
D03*
Y569530D02*
D03*
X394970Y557530D02*
D03*
Y569530D02*
D03*
X419100Y342900D02*
D03*
Y330900D02*
D03*
X1377950Y329630D02*
D03*
Y341630D02*
D03*
D28*
X480690Y487680D02*
D03*
Y474980D02*
D03*
Y462280D02*
D03*
Y449580D02*
D03*
Y436880D02*
D03*
Y424180D02*
D03*
Y411480D02*
D03*
X565790Y487680D02*
D03*
Y474980D02*
D03*
Y462280D02*
D03*
Y449580D02*
D03*
Y436880D02*
D03*
Y424180D02*
D03*
Y411480D02*
D03*
X480690Y398780D02*
D03*
X565790D02*
D03*
D29*
X765810Y289560D02*
D03*
X735310D02*
D03*
X765830Y351790D02*
D03*
X735330D02*
D03*
Y321310D02*
D03*
X765830D02*
D03*
D30*
X786930Y834009D02*
D03*
X791930D02*
D03*
X796930D02*
D03*
X801930D02*
D03*
X806930D02*
D03*
X811930D02*
D03*
X816930D02*
D03*
X821930D02*
D03*
X826930D02*
D03*
X831930D02*
D03*
X836930D02*
D03*
X841930D02*
D03*
X846930D02*
D03*
X851930D02*
D03*
X856930D02*
D03*
X861930D02*
D03*
X866930D02*
D03*
X871930D02*
D03*
X876930D02*
D03*
X881930D02*
D03*
X886930D02*
D03*
X891930D02*
D03*
X896930D02*
D03*
X901930D02*
D03*
X906930D02*
D03*
X911930D02*
D03*
X916930D02*
D03*
X921930D02*
D03*
X926930D02*
D03*
X931930D02*
D03*
X936930D02*
D03*
X941930D02*
D03*
X946930D02*
D03*
X951930D02*
D03*
X956930D02*
D03*
X961930D02*
D03*
Y618490D02*
D03*
X956930D02*
D03*
X951930D02*
D03*
X946930D02*
D03*
X941930D02*
D03*
X936930D02*
D03*
X931930D02*
D03*
X926930D02*
D03*
X921930D02*
D03*
X916930D02*
D03*
X911930D02*
D03*
X906930D02*
D03*
X901930D02*
D03*
X896930D02*
D03*
X891930D02*
D03*
X886930D02*
D03*
X881930D02*
D03*
X876930D02*
D03*
X871930D02*
D03*
X866930D02*
D03*
X861930D02*
D03*
X856930D02*
D03*
X851930D02*
D03*
X846930D02*
D03*
X841930D02*
D03*
X836930D02*
D03*
X831930D02*
D03*
X826930D02*
D03*
X821930D02*
D03*
X816930D02*
D03*
X811930D02*
D03*
X806930D02*
D03*
X801930D02*
D03*
X796930D02*
D03*
X791930D02*
D03*
X786930D02*
D03*
D31*
X982189Y813749D02*
D03*
Y808749D02*
D03*
Y803749D02*
D03*
Y798749D02*
D03*
Y793749D02*
D03*
Y788749D02*
D03*
Y783749D02*
D03*
Y778749D02*
D03*
Y773749D02*
D03*
Y768749D02*
D03*
Y763749D02*
D03*
Y758749D02*
D03*
Y753749D02*
D03*
Y748749D02*
D03*
Y743749D02*
D03*
Y738749D02*
D03*
Y733749D02*
D03*
Y728749D02*
D03*
Y723749D02*
D03*
Y718749D02*
D03*
Y713749D02*
D03*
Y708749D02*
D03*
Y703749D02*
D03*
Y698749D02*
D03*
Y693749D02*
D03*
Y688749D02*
D03*
Y683749D02*
D03*
Y678749D02*
D03*
Y673749D02*
D03*
Y668749D02*
D03*
Y663749D02*
D03*
Y658749D02*
D03*
Y653749D02*
D03*
Y648749D02*
D03*
Y643749D02*
D03*
Y638750D02*
D03*
X766671D02*
D03*
Y643749D02*
D03*
Y648749D02*
D03*
Y653749D02*
D03*
Y658749D02*
D03*
Y663749D02*
D03*
Y668749D02*
D03*
Y673749D02*
D03*
Y678749D02*
D03*
Y683749D02*
D03*
Y688749D02*
D03*
Y693749D02*
D03*
Y698749D02*
D03*
Y703749D02*
D03*
Y708749D02*
D03*
Y713749D02*
D03*
Y718749D02*
D03*
Y723749D02*
D03*
Y728749D02*
D03*
Y733749D02*
D03*
Y738749D02*
D03*
Y743749D02*
D03*
Y748749D02*
D03*
Y753749D02*
D03*
Y758749D02*
D03*
Y763749D02*
D03*
Y768749D02*
D03*
Y773749D02*
D03*
Y778749D02*
D03*
Y783749D02*
D03*
Y788749D02*
D03*
Y793749D02*
D03*
Y798749D02*
D03*
Y803749D02*
D03*
Y808749D02*
D03*
Y813749D02*
D03*
D32*
X857580Y294640D02*
D03*
Y307340D02*
D03*
Y320040D02*
D03*
Y332740D02*
D03*
X803580Y294640D02*
D03*
Y307340D02*
D03*
Y320040D02*
D03*
Y332740D02*
D03*
D33*
X1407200Y702020D02*
D03*
X1400700D02*
D03*
X1394200D02*
D03*
X1387700D02*
D03*
X1381200D02*
D03*
X1374700D02*
D03*
X1368200D02*
D03*
X1361700D02*
D03*
X1355200D02*
D03*
X1348700D02*
D03*
Y761020D02*
D03*
X1355200D02*
D03*
X1361700D02*
D03*
X1368200D02*
D03*
X1374700D02*
D03*
X1381200D02*
D03*
X1387700D02*
D03*
X1394200D02*
D03*
X1400700D02*
D03*
X1407200D02*
D03*
D34*
X290100Y885190D02*
D03*
Y859790D02*
D03*
Y834390D02*
D03*
X357600Y885190D02*
D03*
Y859790D02*
D03*
Y834390D02*
D03*
X290100Y808990D02*
D03*
X357600D02*
D03*
Y732790D02*
D03*
X290100D02*
D03*
X357600Y758190D02*
D03*
X290100D02*
D03*
X357600Y783590D02*
D03*
X290100D02*
D03*
D35*
X1689100Y456260D02*
D03*
Y461010D02*
D03*
X1440180Y537210D02*
D03*
Y532460D02*
D03*
X1520190Y383375D02*
D03*
Y378625D02*
D03*
D36*
X1581150Y483270D02*
D03*
Y509270D02*
D03*
X1419860Y521970D02*
D03*
Y547970D02*
D03*
X1499870Y368300D02*
D03*
Y394300D02*
D03*
D37*
X1553210Y452120D02*
D03*
X1579210D02*
D03*
X1536700Y632460D02*
D03*
X1562700D02*
D03*
X1379820Y557530D02*
D03*
X1353820D02*
D03*
X1463040Y404130D02*
D03*
X1437040D02*
D03*
X1634490Y351790D02*
D03*
X1660490D02*
D03*
D38*
X1556860Y668020D02*
D03*
X1536860Y658520D02*
D03*
Y677520D02*
D03*
D39*
X1395730Y344050D02*
D03*
Y329050D02*
D03*
D40*
X1598660Y295910D02*
D03*
D41*
X1660160Y318910D02*
D03*
Y295910D02*
D03*
Y272910D02*
D03*
D42*
X1696720Y374330D02*
D03*
Y334330D02*
D03*
D43*
X1634490Y378460D02*
D03*
X1614490D02*
D03*
X1429070Y702310D02*
D03*
X1449070D02*
D03*
D44*
X1663510Y377190D02*
D03*
X1671510D02*
D03*
D45*
X1311910Y648020D02*
D03*
Y668020D02*
D03*
X1391920Y652780D02*
D03*
Y672780D02*
D03*
X1366520Y648020D02*
D03*
Y668020D02*
D03*
X1338580Y648020D02*
D03*
Y668020D02*
D03*
X1418590Y652780D02*
D03*
Y672780D02*
D03*
X1445260Y652780D02*
D03*
Y672780D02*
D03*
D46*
X1669197Y544830D02*
D03*
X1655663D02*
D03*
D47*
X1689430Y521970D02*
D03*
Y509270D02*
D03*
Y496570D02*
D03*
Y483870D02*
D03*
X1635430D02*
D03*
Y496570D02*
D03*
Y509270D02*
D03*
Y521970D02*
D03*
D48*
X512400Y300980D02*
D03*
X533400D02*
D03*
Y284480D02*
D03*
X512400D02*
D03*
D49*
X485140Y314980D02*
D03*
Y284480D02*
D03*
X562610D02*
D03*
Y314980D02*
D03*
D50*
X568840Y943610D02*
D03*
X553840D02*
D03*
X520580Y944880D02*
D03*
X505580D02*
D03*
X467360Y946150D02*
D03*
X452360D02*
D03*
D51*
X1533740Y492760D02*
D03*
D52*
X1553740Y507760D02*
D03*
Y477760D02*
D03*
D53*
X1554240Y492760D02*
D03*
D72*
X1733550Y359410D02*
D03*
X1722120Y491490D02*
D03*
D73*
X1733550Y334010D02*
D03*
X1722120Y516890D02*
D03*
D74*
X923290Y1202690D02*
D03*
X1710690D02*
D03*
X1532890D02*
D03*
X1316990D02*
D03*
X1139190D02*
D03*
X745490D02*
D03*
X529590D02*
D03*
X351790D02*
D03*
D75*
X419450Y403880D02*
D03*
Y380980D02*
D03*
Y495280D02*
D03*
Y518180D02*
D03*
X353450Y474980D02*
D03*
Y454580D02*
D03*
Y434180D02*
D03*
X371250Y485180D02*
D03*
Y464780D02*
D03*
Y444380D02*
D03*
Y423980D02*
D03*
D76*
X353450Y413780D02*
D03*
D77*
X362350Y368280D02*
D03*
Y530880D02*
D03*
D78*
X328050Y386080D02*
D03*
Y513080D02*
D03*
M02*
