G04*
G04 #@! TF.GenerationSoftware,Altium Limited,Altium Designer,24.1.2 (44)*
G04*
G04 Layer_Color=0*
%FSLAX44Y44*%
%MOMM*%
G71*
G04*
G04 #@! TF.SameCoordinates,0A8073CA-4D69-4BD4-B8E1-8B9189CEBFBB*
G04*
G04*
G04 #@! TF.FilePolarity,Positive*
G04*
G01*
G75*
%ADD87C,0.1000*%
D87*
X401320Y759540D02*
Y769540D01*
X396320Y764540D02*
X406320D01*
X400050Y911940D02*
Y921940D01*
X395050Y916940D02*
X405050D01*
X725415Y490220D02*
X735415D01*
X730415Y485220D02*
Y495220D01*
X669290Y433150D02*
Y443150D01*
X664290Y438150D02*
X674290D01*
X1372950Y731520D02*
X1382950D01*
X1377950Y726520D02*
Y736520D01*
X1728550Y346710D02*
X1738550D01*
X1733550Y341710D02*
Y351710D01*
X1684100Y458635D02*
X1694100D01*
X1689100Y453635D02*
Y463635D01*
X1601470Y491570D02*
Y501570D01*
X1596470Y496570D02*
X1606470D01*
X1576150Y496270D02*
X1586150D01*
X1581150Y491270D02*
Y501270D01*
X1566210Y447120D02*
Y457120D01*
X1561210Y452120D02*
X1571210D01*
X1566075Y426800D02*
Y436800D01*
X1561075Y431800D02*
X1571075D01*
X1549565Y607140D02*
Y617140D01*
X1544565Y612140D02*
X1554565D01*
X1549700Y627460D02*
Y637460D01*
X1544700Y632460D02*
X1554700D01*
X1577340Y663020D02*
Y673020D01*
X1572340Y668020D02*
X1582340D01*
X1366820Y552530D02*
Y562530D01*
X1361820Y557530D02*
X1371820D01*
X1367790Y571580D02*
Y581580D01*
X1362790Y576580D02*
X1372790D01*
X1435180Y534835D02*
X1445180D01*
X1440180Y529835D02*
Y539835D01*
X1414860Y534970D02*
X1424860D01*
X1419860Y529970D02*
Y539970D01*
X1450340Y420720D02*
Y430720D01*
X1445340Y425720D02*
X1455340D01*
X1450040Y399130D02*
Y409130D01*
X1445040Y404130D02*
X1455040D01*
X1390730Y336550D02*
X1400730D01*
X1395730Y331550D02*
Y341550D01*
X1515190Y381000D02*
X1525190D01*
X1520190Y376000D02*
Y386000D01*
X1494870Y381300D02*
X1504870D01*
X1499870Y376300D02*
Y386300D01*
X1642490Y351790D02*
X1652490D01*
X1647490Y346790D02*
Y356790D01*
X1667510Y372190D02*
Y382190D01*
X1662510Y377190D02*
X1672510D01*
X918290Y1202690D02*
X928290D01*
X923290Y1197690D02*
Y1207690D01*
X1717120Y504190D02*
X1727120D01*
X1722120Y499190D02*
Y509190D01*
X1662430Y539830D02*
Y549830D01*
X1657430Y544830D02*
X1667430D01*
X1662430Y497920D02*
Y507920D01*
X1657430Y502920D02*
X1667430D01*
X522900Y287730D02*
Y297730D01*
X517900Y292730D02*
X527900D01*
X522135Y312500D02*
Y322500D01*
X517135Y317500D02*
X527135D01*
X344250Y449580D02*
X354250D01*
X349250Y444580D02*
Y454580D01*
X561340Y938610D02*
Y948610D01*
X556340Y943610D02*
X566340D01*
X513080Y939880D02*
Y949880D01*
X508080Y944880D02*
X518080D01*
X459860Y941150D02*
Y951150D01*
X454860Y946150D02*
X464860D01*
X1705690Y1202690D02*
X1715690D01*
X1710690Y1197690D02*
Y1207690D01*
X1527890Y1202690D02*
X1537890D01*
X1532890Y1197690D02*
Y1207690D01*
X1311990Y1202690D02*
X1321990D01*
X1316990Y1197690D02*
Y1207690D01*
X1134190Y1202690D02*
X1144190D01*
X1139190Y1197690D02*
Y1207690D01*
X740490Y1202690D02*
X750490D01*
X745490Y1197690D02*
Y1207690D01*
X524590Y1202690D02*
X534590D01*
X529590Y1197690D02*
Y1207690D01*
X346790Y1202690D02*
X356790D01*
X351790Y1197690D02*
Y1207690D01*
M02*
