%TF.GenerationSoftware,Altium Limited,Altium Designer,24.1.2 (44)*%
G04 Layer_Color=32896*
%FSLAX45Y45*%
%MOMM*%
%TF.SameCoordinates,57B3B6A3-E825-4013-9261-08072AB09D51*%
%TF.FilePolarity,Positive*%
%TF.FileFunction,Other,Bottom_Assembly*%
%TF.Part,Single*%
G01*
G75*
%TA.AperFunction,NonConductor*%
%ADD64C,0.20000*%
G36*
X8516859Y7833241D02*
X8520108Y7832908D01*
X8521524Y7832658D01*
X8522940Y7832324D01*
X8524273Y7832075D01*
X8525523Y7831741D01*
X8526689Y7831408D01*
X8527689Y7831158D01*
X8528522Y7830825D01*
X8529272Y7830575D01*
X8529855Y7830408D01*
X8530355Y7830242D01*
X8530605Y7830075D01*
X8530688D01*
X8532105Y7829409D01*
X8533521Y7828659D01*
X8534771Y7827909D01*
X8535937Y7827076D01*
X8537103Y7826243D01*
X8538103Y7825410D01*
X8539019Y7824660D01*
X8539769Y7823827D01*
X8540519Y7823077D01*
X8541186Y7822410D01*
X8541685Y7821744D01*
X8542102Y7821244D01*
X8542519Y7820744D01*
X8542769Y7820411D01*
X8542852Y7820244D01*
X8542935Y7820161D01*
X8543685Y7818911D01*
X8544268Y7817578D01*
X8544851Y7816162D01*
X8545351Y7814746D01*
X8546101Y7811913D01*
X8546601Y7809247D01*
X8546768Y7807997D01*
X8546851Y7806914D01*
X8546934Y7805831D01*
X8547017Y7804998D01*
X8547101Y7804248D01*
Y7803249D01*
X8547017Y7801416D01*
X8546851Y7799666D01*
X8546601Y7798000D01*
X8546268Y7796417D01*
X8545851Y7794917D01*
X8545351Y7793501D01*
X8544935Y7792251D01*
X8544351Y7791002D01*
X8543852Y7790002D01*
X8543435Y7789086D01*
X8542935Y7788252D01*
X8542519Y7787586D01*
X8542185Y7787003D01*
X8541935Y7786669D01*
X8541769Y7786420D01*
X8541685Y7786336D01*
X8540602Y7785087D01*
X8539436Y7783920D01*
X8538186Y7782837D01*
X8536853Y7781921D01*
X8535520Y7781004D01*
X8534271Y7780254D01*
X8532938Y7779505D01*
X8531688Y7778921D01*
X8530438Y7778338D01*
X8529355Y7777922D01*
X8528356Y7777505D01*
X8527522Y7777172D01*
X8526773Y7777005D01*
X8526189Y7776839D01*
X8525856Y7776672D01*
X8525773D01*
X8523607Y7785170D01*
X8525106Y7785586D01*
X8526439Y7786003D01*
X8527689Y7786503D01*
X8528939Y7787003D01*
X8530022Y7787586D01*
X8531022Y7788086D01*
X8531938Y7788669D01*
X8532688Y7789252D01*
X8533438Y7789752D01*
X8534021Y7790252D01*
X8534604Y7790752D01*
X8535021Y7791085D01*
X8535354Y7791418D01*
X8535604Y7791668D01*
X8535687Y7791835D01*
X8535770Y7791918D01*
X8536520Y7792835D01*
X8537103Y7793834D01*
X8537687Y7794834D01*
X8538103Y7795917D01*
X8538853Y7797917D01*
X8539353Y7799833D01*
X8539519Y7800666D01*
X8539603Y7801499D01*
X8539686Y7802165D01*
X8539769Y7802832D01*
X8539853Y7803332D01*
Y7803998D01*
X8539686Y7806164D01*
X8539353Y7808164D01*
X8538936Y7809997D01*
X8538353Y7811663D01*
X8537770Y7812996D01*
X8537520Y7813579D01*
X8537353Y7813996D01*
X8537103Y7814412D01*
X8537020Y7814662D01*
X8536853Y7814829D01*
Y7814912D01*
X8535604Y7816662D01*
X8534187Y7818161D01*
X8532688Y7819411D01*
X8531188Y7820494D01*
X8529855Y7821327D01*
X8529272Y7821577D01*
X8528772Y7821827D01*
X8528356Y7822077D01*
X8528022Y7822244D01*
X8527856Y7822327D01*
X8527772D01*
X8525440Y7823077D01*
X8522940Y7823660D01*
X8520608Y7824077D01*
X8518358Y7824326D01*
X8517358Y7824493D01*
X8516442D01*
X8515609Y7824576D01*
X8514859Y7824660D01*
X8514276D01*
X8513859D01*
X8513609D01*
X8513526D01*
X8511193Y7824576D01*
X8508944Y7824326D01*
X8506861Y7823993D01*
X8504945Y7823660D01*
X8504195Y7823493D01*
X8503445Y7823327D01*
X8502779Y7823160D01*
X8502196Y7822993D01*
X8501779Y7822827D01*
X8501446Y7822744D01*
X8501279Y7822660D01*
X8501196D01*
X8499030Y7821827D01*
X8497197Y7820744D01*
X8495531Y7819578D01*
X8494198Y7818411D01*
X8493115Y7817412D01*
X8492365Y7816578D01*
X8492032Y7816245D01*
X8491865Y7815995D01*
X8491698Y7815829D01*
Y7815745D01*
X8491032Y7814746D01*
X8490532Y7813746D01*
X8489615Y7811663D01*
X8488949Y7809580D01*
X8488532Y7807664D01*
X8488449Y7806748D01*
X8488282Y7805915D01*
X8488199Y7805165D01*
Y7804582D01*
X8488116Y7804082D01*
Y7803332D01*
X8488282Y7800999D01*
X8488616Y7798916D01*
X8489116Y7797083D01*
X8489699Y7795501D01*
X8490365Y7794251D01*
X8490615Y7793751D01*
X8490865Y7793334D01*
X8491032Y7793001D01*
X8491198Y7792751D01*
X8491365Y7792668D01*
Y7792585D01*
X8492032Y7791835D01*
X8492698Y7791085D01*
X8494281Y7789752D01*
X8495947Y7788669D01*
X8497613Y7787753D01*
X8499113Y7787003D01*
X8499780Y7786753D01*
X8500363Y7786503D01*
X8500863Y7786336D01*
X8501196Y7786170D01*
X8501446Y7786086D01*
X8501529D01*
X8499530Y7777755D01*
X8497947Y7778255D01*
X8496364Y7778921D01*
X8494947Y7779588D01*
X8493614Y7780338D01*
X8492448Y7781088D01*
X8491282Y7781837D01*
X8490282Y7782587D01*
X8489366Y7783337D01*
X8488532Y7784087D01*
X8487783Y7784753D01*
X8487199Y7785420D01*
X8486700Y7785920D01*
X8486283Y7786336D01*
X8486033Y7786753D01*
X8485866Y7786919D01*
X8485783Y7787003D01*
X8484950Y7788252D01*
X8484117Y7789585D01*
X8483534Y7790918D01*
X8482951Y7792251D01*
X8482451Y7793668D01*
X8482034Y7795001D01*
X8481451Y7797500D01*
X8481284Y7798666D01*
X8481118Y7799749D01*
X8481034Y7800749D01*
X8480951Y7801582D01*
X8480868Y7802249D01*
Y7804748D01*
X8481034Y7806248D01*
X8481451Y7809164D01*
X8482117Y7811830D01*
X8482451Y7812996D01*
X8482784Y7814162D01*
X8483200Y7815162D01*
X8483534Y7816079D01*
X8483867Y7816828D01*
X8484200Y7817495D01*
X8484450Y7817995D01*
X8484617Y7818411D01*
X8484700Y7818661D01*
X8484783Y7818745D01*
X8485533Y7819994D01*
X8486366Y7821244D01*
X8488199Y7823410D01*
X8490032Y7825326D01*
X8491865Y7826826D01*
X8492781Y7827492D01*
X8493531Y7828076D01*
X8494281Y7828575D01*
X8494864Y7828909D01*
X8495364Y7829242D01*
X8495781Y7829492D01*
X8496031Y7829575D01*
X8496114Y7829658D01*
X8497530Y7830325D01*
X8499030Y7830908D01*
X8501946Y7831825D01*
X8504862Y7832491D01*
X8506278Y7832741D01*
X8507611Y7832908D01*
X8508861Y7833074D01*
X8509944Y7833241D01*
X8510943Y7833324D01*
X8511860D01*
X8512526Y7833407D01*
X8513109D01*
X8513443D01*
X8513526D01*
X8516859Y7833241D01*
D02*
G37*
G36*
X8504862Y7762009D02*
X8504195Y7760593D01*
X8503529Y7759177D01*
X8502862Y7757927D01*
X8502279Y7756844D01*
X8501779Y7755927D01*
X8501612Y7755594D01*
X8501446Y7755344D01*
X8501362Y7755261D01*
Y7755178D01*
X8500363Y7753511D01*
X8499363Y7752095D01*
X8498447Y7750762D01*
X8497613Y7749679D01*
X8496947Y7748846D01*
X8496364Y7748179D01*
X8496031Y7747846D01*
X8495947Y7747679D01*
X8546018D01*
Y7739848D01*
X8481701D01*
Y7744930D01*
X8483284Y7745847D01*
X8484783Y7746930D01*
X8486283Y7748096D01*
X8487533Y7749179D01*
X8488699Y7750262D01*
X8489532Y7751095D01*
X8489865Y7751428D01*
X8490115Y7751678D01*
X8490199Y7751845D01*
X8490282Y7751928D01*
X8491865Y7753845D01*
X8493281Y7755761D01*
X8494614Y7757760D01*
X8495697Y7759510D01*
X8496530Y7761093D01*
X8496947Y7761759D01*
X8497197Y7762342D01*
X8497447Y7762759D01*
X8497613Y7763092D01*
X8497780Y7763342D01*
Y7763425D01*
X8505445D01*
X8504862Y7762009D01*
D02*
G37*
G36*
X8517692Y7719603D02*
X8520774Y7719437D01*
X8523523Y7719103D01*
X8526106Y7718687D01*
X8528522Y7718270D01*
X8530605Y7717687D01*
X8532521Y7717104D01*
X8534271Y7716521D01*
X8535770Y7715938D01*
X8537020Y7715438D01*
X8538103Y7714855D01*
X8539019Y7714438D01*
X8539686Y7714021D01*
X8540103Y7713688D01*
X8540436Y7713522D01*
X8540519Y7713438D01*
X8541685Y7712355D01*
X8542685Y7711272D01*
X8543602Y7710106D01*
X8544351Y7708939D01*
X8544935Y7707690D01*
X8545518Y7706440D01*
X8545934Y7705274D01*
X8546268Y7704107D01*
X8546518Y7703024D01*
X8546768Y7702024D01*
X8546934Y7701191D01*
X8547017Y7700358D01*
Y7699775D01*
X8547101Y7699275D01*
Y7698859D01*
X8547017Y7697609D01*
X8546934Y7696359D01*
X8546518Y7694110D01*
X8545934Y7692110D01*
X8545185Y7690444D01*
X8544851Y7689694D01*
X8544518Y7689111D01*
X8544185Y7688528D01*
X8543935Y7688111D01*
X8543685Y7687778D01*
X8543518Y7687445D01*
X8543352Y7687362D01*
Y7687278D01*
X8541852Y7685612D01*
X8540103Y7684196D01*
X8538353Y7683029D01*
X8536603Y7682030D01*
X8535104Y7681280D01*
X8534437Y7680947D01*
X8533854Y7680697D01*
X8533354Y7680530D01*
X8533021Y7680363D01*
X8532771Y7680280D01*
X8532688D01*
X8531355Y7679863D01*
X8529938Y7679530D01*
X8526939Y7678947D01*
X8523857Y7678530D01*
X8520941Y7678197D01*
X8519608Y7678114D01*
X8518358Y7678031D01*
X8517275D01*
X8516359Y7677947D01*
X8515526D01*
X8514942D01*
X8514609D01*
X8514442D01*
X8512693D01*
X8511027Y7678031D01*
X8509527Y7678114D01*
X8508111Y7678197D01*
X8506694Y7678281D01*
X8505528Y7678447D01*
X8504362Y7678530D01*
X8503362Y7678697D01*
X8502446Y7678864D01*
X8501612Y7678947D01*
X8500946Y7679114D01*
X8500363Y7679197D01*
X8499946Y7679280D01*
X8499613Y7679364D01*
X8499446Y7679447D01*
X8499363D01*
X8497363Y7680030D01*
X8495447Y7680613D01*
X8493864Y7681280D01*
X8492448Y7681946D01*
X8491282Y7682529D01*
X8490449Y7682946D01*
X8490199Y7683113D01*
X8489949Y7683279D01*
X8489865Y7683363D01*
X8489782D01*
X8488366Y7684362D01*
X8487199Y7685445D01*
X8486200Y7686528D01*
X8485283Y7687528D01*
X8484617Y7688445D01*
X8484200Y7689111D01*
X8483867Y7689611D01*
X8483784Y7689694D01*
Y7689778D01*
X8483117Y7691277D01*
X8482617Y7692860D01*
X8482201Y7694360D01*
X8481951Y7695776D01*
X8481784Y7697026D01*
Y7697526D01*
X8481701Y7698025D01*
Y7700108D01*
X8481867Y7701358D01*
X8482284Y7703607D01*
X8482867Y7705607D01*
X8483534Y7707273D01*
X8483950Y7708023D01*
X8484284Y7708606D01*
X8484617Y7709189D01*
X8484867Y7709606D01*
X8485117Y7709939D01*
X8485283Y7710189D01*
X8485367Y7710356D01*
X8485450Y7710439D01*
X8486949Y7712022D01*
X8488699Y7713438D01*
X8490532Y7714605D01*
X8492198Y7715604D01*
X8493781Y7716354D01*
X8494448Y7716687D01*
X8495031Y7716937D01*
X8495531Y7717104D01*
X8495864Y7717271D01*
X8496114Y7717354D01*
X8496197D01*
X8497530Y7717770D01*
X8498946Y7718104D01*
X8501946Y7718687D01*
X8505028Y7719103D01*
X8507944Y7719353D01*
X8509277Y7719520D01*
X8510527D01*
X8511610Y7719603D01*
X8512526Y7719687D01*
X8513359D01*
X8513943D01*
X8514276D01*
X8514442D01*
X8517692Y7719603D01*
D02*
G37*
G36*
X8200293Y7332188D02*
X8202293Y7331855D01*
X8204042Y7331355D01*
X8205542Y7330855D01*
X8206708Y7330272D01*
X8207208Y7330022D01*
X8207625Y7329772D01*
X8207958Y7329522D01*
X8208208Y7329438D01*
X8208291Y7329272D01*
X8208374D01*
X8209874Y7328022D01*
X8211124Y7326606D01*
X8212207Y7325106D01*
X8213040Y7323607D01*
X8213706Y7322274D01*
X8213956Y7321774D01*
X8214206Y7321274D01*
X8214373Y7320857D01*
X8214456Y7320524D01*
X8214540Y7320357D01*
Y7320274D01*
X8215289Y7321940D01*
X8216123Y7323357D01*
X8216956Y7324606D01*
X8217789Y7325606D01*
X8218539Y7326356D01*
X8219122Y7326939D01*
X8219455Y7327272D01*
X8219622Y7327356D01*
X8220955Y7328189D01*
X8222288Y7328772D01*
X8223537Y7329189D01*
X8224787Y7329438D01*
X8225870Y7329688D01*
X8226703Y7329772D01*
X8227036D01*
X8227286D01*
X8227370D01*
X8227453D01*
X8228703Y7329688D01*
X8229952Y7329522D01*
X8231119Y7329272D01*
X8232285Y7328939D01*
X8234285Y7328105D01*
X8236034Y7327189D01*
X8236701Y7326689D01*
X8237367Y7326273D01*
X8237950Y7325773D01*
X8238450Y7325440D01*
X8238783Y7325106D01*
X8239033Y7324856D01*
X8239200Y7324690D01*
X8239283Y7324606D01*
X8240116Y7323607D01*
X8240949Y7322607D01*
X8241533Y7321441D01*
X8242116Y7320357D01*
X8242616Y7319191D01*
X8243032Y7318108D01*
X8243615Y7315942D01*
X8243782Y7314942D01*
X8243949Y7314026D01*
X8244032Y7313193D01*
X8244115Y7312526D01*
X8244199Y7311943D01*
Y7311110D01*
X8244115Y7309610D01*
X8244032Y7308111D01*
X8243782Y7306778D01*
X8243449Y7305528D01*
X8243116Y7304362D01*
X8242699Y7303195D01*
X8242199Y7302195D01*
X8241783Y7301362D01*
X8241366Y7300529D01*
X8240866Y7299779D01*
X8240450Y7299196D01*
X8240116Y7298696D01*
X8239783Y7298280D01*
X8239616Y7298030D01*
X8239450Y7297863D01*
X8239367Y7297780D01*
X8238450Y7296863D01*
X8237534Y7296114D01*
X8236534Y7295447D01*
X8235534Y7294864D01*
X8234534Y7294447D01*
X8233535Y7294031D01*
X8231702Y7293448D01*
X8230119Y7293031D01*
X8229369Y7292948D01*
X8228786Y7292865D01*
X8228286Y7292781D01*
X8227953D01*
X8227703D01*
X8227620D01*
X8225953Y7292865D01*
X8224454Y7293114D01*
X8223121Y7293531D01*
X8221954Y7293948D01*
X8221038Y7294364D01*
X8220288Y7294781D01*
X8219872Y7295031D01*
X8219705Y7295114D01*
X8218539Y7296114D01*
X8217455Y7297197D01*
X8216622Y7298446D01*
X8215873Y7299613D01*
X8215289Y7300696D01*
X8214873Y7301529D01*
X8214706Y7301862D01*
X8214623Y7302112D01*
X8214540Y7302279D01*
Y7302362D01*
X8213873Y7300279D01*
X8213040Y7298530D01*
X8212040Y7296947D01*
X8211124Y7295697D01*
X8210207Y7294697D01*
X8209458Y7293948D01*
X8208958Y7293531D01*
X8208874Y7293364D01*
X8208791D01*
X8207125Y7292281D01*
X8205375Y7291532D01*
X8203709Y7290948D01*
X8202043Y7290615D01*
X8200543Y7290365D01*
X8199960Y7290282D01*
X8199460D01*
X8198960Y7290199D01*
X8198627D01*
X8198460D01*
X8198377D01*
X8196877Y7290282D01*
X8195378Y7290448D01*
X8193962Y7290698D01*
X8192629Y7291115D01*
X8191379Y7291532D01*
X8190212Y7292031D01*
X8189213Y7292531D01*
X8188213Y7293114D01*
X8187380Y7293614D01*
X8186630Y7294114D01*
X8185964Y7294614D01*
X8185380Y7295031D01*
X8184964Y7295447D01*
X8184631Y7295697D01*
X8184464Y7295864D01*
X8184381Y7295947D01*
X8183381Y7297113D01*
X8182548Y7298280D01*
X8181798Y7299529D01*
X8181131Y7300779D01*
X8180632Y7302112D01*
X8180132Y7303362D01*
X8179465Y7305778D01*
X8179299Y7306944D01*
X8179132Y7307944D01*
X8178965Y7308860D01*
X8178882Y7309694D01*
X8178799Y7310360D01*
Y7311276D01*
X8178882Y7313026D01*
X8179049Y7314609D01*
X8179299Y7316192D01*
X8179715Y7317608D01*
X8180132Y7319024D01*
X8180548Y7320274D01*
X8181048Y7321357D01*
X8181631Y7322440D01*
X8182131Y7323357D01*
X8182631Y7324190D01*
X8183048Y7324856D01*
X8183548Y7325440D01*
X8183881Y7325939D01*
X8184131Y7326273D01*
X8184297Y7326439D01*
X8184381Y7326523D01*
X8185464Y7327522D01*
X8186547Y7328439D01*
X8187713Y7329189D01*
X8188879Y7329938D01*
X8190046Y7330438D01*
X8191212Y7330938D01*
X8192295Y7331355D01*
X8193378Y7331605D01*
X8194378Y7331855D01*
X8195211Y7332021D01*
X8196044Y7332188D01*
X8196794Y7332271D01*
X8197377Y7332354D01*
X8197794D01*
X8198044D01*
X8198127D01*
X8200293Y7332188D01*
D02*
G37*
G36*
X8202293Y7274536D02*
X8200793Y7274119D01*
X8199460Y7273703D01*
X8198210Y7273203D01*
X8196961Y7272703D01*
X8195878Y7272120D01*
X8194878Y7271620D01*
X8193962Y7271037D01*
X8193212Y7270454D01*
X8192462Y7269954D01*
X8191879Y7269454D01*
X8191296Y7268954D01*
X8190879Y7268621D01*
X8190546Y7268287D01*
X8190296Y7268038D01*
X8190212Y7267871D01*
X8190129Y7267788D01*
X8189379Y7266871D01*
X8188796Y7265871D01*
X8188213Y7264872D01*
X8187796Y7263789D01*
X8187047Y7261789D01*
X8186547Y7259873D01*
X8186380Y7259040D01*
X8186297Y7258207D01*
X8186213Y7257540D01*
X8186130Y7256874D01*
X8186047Y7256374D01*
Y7255707D01*
X8186213Y7253541D01*
X8186547Y7251542D01*
X8186963Y7249709D01*
X8187546Y7248043D01*
X8188130Y7246710D01*
X8188380Y7246126D01*
X8188546Y7245710D01*
X8188796Y7245293D01*
X8188879Y7245043D01*
X8189046Y7244877D01*
Y7244793D01*
X8190296Y7243044D01*
X8191712Y7241544D01*
X8193212Y7240295D01*
X8194711Y7239212D01*
X8196044Y7238378D01*
X8196627Y7238129D01*
X8197127Y7237879D01*
X8197544Y7237629D01*
X8197877Y7237462D01*
X8198044Y7237379D01*
X8198127D01*
X8200460Y7236629D01*
X8202959Y7236046D01*
X8205292Y7235629D01*
X8207541Y7235379D01*
X8208541Y7235213D01*
X8209458D01*
X8210291Y7235129D01*
X8211040Y7235046D01*
X8211624D01*
X8212040D01*
X8212290D01*
X8212373D01*
X8214706Y7235129D01*
X8216956Y7235379D01*
X8219038Y7235712D01*
X8220955Y7236046D01*
X8221704Y7236212D01*
X8222454Y7236379D01*
X8223121Y7236546D01*
X8223704Y7236712D01*
X8224120Y7236879D01*
X8224454Y7236962D01*
X8224620Y7237045D01*
X8224704D01*
X8226870Y7237879D01*
X8228703Y7238962D01*
X8230369Y7240128D01*
X8231702Y7241294D01*
X8232785Y7242294D01*
X8233535Y7243127D01*
X8233868Y7243460D01*
X8234035Y7243710D01*
X8234201Y7243877D01*
Y7243960D01*
X8234868Y7244960D01*
X8235368Y7245960D01*
X8236284Y7248043D01*
X8236951Y7250125D01*
X8237367Y7252042D01*
X8237450Y7252958D01*
X8237617Y7253791D01*
X8237700Y7254541D01*
Y7255124D01*
X8237784Y7255624D01*
Y7256374D01*
X8237617Y7258707D01*
X8237284Y7260789D01*
X8236784Y7262622D01*
X8236201Y7264205D01*
X8235534Y7265455D01*
X8235284Y7265955D01*
X8235034Y7266371D01*
X8234868Y7266705D01*
X8234701Y7266954D01*
X8234534Y7267038D01*
Y7267121D01*
X8233868Y7267871D01*
X8233201Y7268621D01*
X8231619Y7269954D01*
X8229952Y7271037D01*
X8228286Y7271953D01*
X8226786Y7272703D01*
X8226120Y7272953D01*
X8225537Y7273203D01*
X8225037Y7273370D01*
X8224704Y7273536D01*
X8224454Y7273619D01*
X8224370D01*
X8226370Y7281951D01*
X8227953Y7281451D01*
X8229536Y7280784D01*
X8230952Y7280118D01*
X8232285Y7279368D01*
X8233451Y7278618D01*
X8234618Y7277868D01*
X8235618Y7277119D01*
X8236534Y7276369D01*
X8237367Y7275619D01*
X8238117Y7274952D01*
X8238700Y7274286D01*
X8239200Y7273786D01*
X8239616Y7273370D01*
X8239866Y7272953D01*
X8240033Y7272786D01*
X8240116Y7272703D01*
X8240949Y7271453D01*
X8241783Y7270120D01*
X8242366Y7268787D01*
X8242949Y7267454D01*
X8243449Y7266038D01*
X8243865Y7264705D01*
X8244449Y7262206D01*
X8244615Y7261039D01*
X8244782Y7259956D01*
X8244865Y7258957D01*
X8244948Y7258123D01*
X8245032Y7257457D01*
Y7254958D01*
X8244865Y7253458D01*
X8244449Y7250542D01*
X8243782Y7247876D01*
X8243449Y7246710D01*
X8243116Y7245543D01*
X8242699Y7244544D01*
X8242366Y7243627D01*
X8242033Y7242877D01*
X8241699Y7242211D01*
X8241449Y7241711D01*
X8241283Y7241294D01*
X8241199Y7241044D01*
X8241116Y7240961D01*
X8240366Y7239711D01*
X8239533Y7238462D01*
X8237700Y7236296D01*
X8235867Y7234379D01*
X8234035Y7232880D01*
X8233118Y7232213D01*
X8232368Y7231630D01*
X8231619Y7231130D01*
X8231035Y7230797D01*
X8230535Y7230464D01*
X8230119Y7230214D01*
X8229869Y7230131D01*
X8229786Y7230047D01*
X8228369Y7229381D01*
X8226870Y7228798D01*
X8223954Y7227881D01*
X8221038Y7227215D01*
X8219622Y7226965D01*
X8218289Y7226798D01*
X8217039Y7226631D01*
X8215956Y7226465D01*
X8214956Y7226382D01*
X8214040D01*
X8213373Y7226298D01*
X8212790D01*
X8212457D01*
X8212373D01*
X8209041Y7226465D01*
X8205792Y7226798D01*
X8204376Y7227048D01*
X8202959Y7227381D01*
X8201626Y7227631D01*
X8200377Y7227964D01*
X8199210Y7228298D01*
X8198210Y7228548D01*
X8197377Y7228881D01*
X8196627Y7229131D01*
X8196044Y7229297D01*
X8195544Y7229464D01*
X8195295Y7229631D01*
X8195211D01*
X8193795Y7230297D01*
X8192379Y7231047D01*
X8191129Y7231797D01*
X8189963Y7232630D01*
X8188796Y7233463D01*
X8187796Y7234296D01*
X8186880Y7235046D01*
X8186130Y7235879D01*
X8185380Y7236629D01*
X8184714Y7237295D01*
X8184214Y7237962D01*
X8183797Y7238462D01*
X8183381Y7238962D01*
X8183131Y7239295D01*
X8183048Y7239462D01*
X8182964Y7239545D01*
X8182215Y7240795D01*
X8181631Y7242128D01*
X8181048Y7243544D01*
X8180548Y7244960D01*
X8179798Y7247793D01*
X8179299Y7250459D01*
X8179132Y7251708D01*
X8179049Y7252791D01*
X8178965Y7253874D01*
X8178882Y7254708D01*
X8178799Y7255457D01*
Y7256457D01*
X8178882Y7258290D01*
X8179049Y7260040D01*
X8179299Y7261706D01*
X8179632Y7263289D01*
X8180048Y7264788D01*
X8180548Y7266205D01*
X8180965Y7267454D01*
X8181548Y7268704D01*
X8182048Y7269704D01*
X8182464Y7270620D01*
X8182964Y7271453D01*
X8183381Y7272120D01*
X8183714Y7272703D01*
X8183964Y7273036D01*
X8184131Y7273286D01*
X8184214Y7273370D01*
X8185297Y7274619D01*
X8186463Y7275786D01*
X8187713Y7276869D01*
X8189046Y7277785D01*
X8190379Y7278701D01*
X8191629Y7279451D01*
X8192962Y7280201D01*
X8194211Y7280784D01*
X8195461Y7281367D01*
X8196544Y7281784D01*
X8197544Y7282201D01*
X8198377Y7282534D01*
X8199127Y7282700D01*
X8199710Y7282867D01*
X8200043Y7283034D01*
X8200127D01*
X8202293Y7274536D01*
D02*
G37*
G36*
X8582043Y6901652D02*
X8583959Y6901319D01*
X8585709Y6900819D01*
X8587208Y6900236D01*
X8588458Y6899653D01*
X8588875Y6899403D01*
X8589291Y6899153D01*
X8589624Y6898986D01*
X8589874Y6898820D01*
X8589958Y6898653D01*
X8590041D01*
X8591457Y6897403D01*
X8592624Y6895904D01*
X8593623Y6894487D01*
X8594373Y6893071D01*
X8594873Y6891821D01*
X8595123Y6891238D01*
X8595290Y6890738D01*
X8595373Y6890405D01*
X8595456Y6890072D01*
X8595540Y6889905D01*
Y6889822D01*
X8596373Y6891321D01*
X8597206Y6892654D01*
X8598122Y6893821D01*
X8599039Y6894737D01*
X8599788Y6895487D01*
X8600372Y6895987D01*
X8600788Y6896320D01*
X8600955Y6896404D01*
X8602288Y6897153D01*
X8603621Y6897737D01*
X8604871Y6898070D01*
X8606037Y6898403D01*
X8607037Y6898570D01*
X8607870Y6898653D01*
X8608370D01*
X8608453D01*
X8608536D01*
X8610119Y6898570D01*
X8611619Y6898320D01*
X8613035Y6897903D01*
X8614285Y6897487D01*
X8615285Y6896987D01*
X8616118Y6896653D01*
X8616618Y6896320D01*
X8616701Y6896237D01*
X8616784D01*
X8618200Y6895320D01*
X8619367Y6894237D01*
X8620450Y6893071D01*
X8621366Y6891988D01*
X8622033Y6890988D01*
X8622533Y6890238D01*
X8622699Y6889905D01*
X8622866Y6889655D01*
X8622949Y6889572D01*
Y6889489D01*
X8623699Y6887822D01*
X8624282Y6886156D01*
X8624615Y6884573D01*
X8624949Y6883074D01*
X8625115Y6881824D01*
Y6881241D01*
X8625199Y6880824D01*
Y6879908D01*
X8625115Y6878491D01*
X8625032Y6877158D01*
X8624532Y6874659D01*
X8623782Y6872493D01*
X8623366Y6871577D01*
X8623033Y6870660D01*
X8622616Y6869910D01*
X8622199Y6869161D01*
X8621783Y6868577D01*
X8621450Y6868077D01*
X8621200Y6867661D01*
X8620950Y6867411D01*
X8620866Y6867244D01*
X8620783Y6867161D01*
X8619950Y6866245D01*
X8619034Y6865411D01*
X8617034Y6863995D01*
X8615035Y6862912D01*
X8613118Y6861996D01*
X8612202Y6861662D01*
X8611369Y6861412D01*
X8610536Y6861163D01*
X8609953Y6860996D01*
X8609369Y6860829D01*
X8608953Y6860746D01*
X8608703Y6860663D01*
X8608620D01*
X8607203Y6868494D01*
X8609203Y6868911D01*
X8610952Y6869410D01*
X8612452Y6870077D01*
X8613618Y6870743D01*
X8614618Y6871327D01*
X8615285Y6871826D01*
X8615618Y6872160D01*
X8615784Y6872326D01*
X8616784Y6873576D01*
X8617451Y6874826D01*
X8617951Y6876159D01*
X8618367Y6877325D01*
X8618534Y6878408D01*
X8618617Y6879325D01*
X8618700Y6879658D01*
Y6880074D01*
X8618617Y6881741D01*
X8618284Y6883157D01*
X8617784Y6884490D01*
X8617284Y6885573D01*
X8616701Y6886406D01*
X8616284Y6887073D01*
X8615951Y6887406D01*
X8615784Y6887572D01*
X8614701Y6888572D01*
X8613452Y6889322D01*
X8612285Y6889822D01*
X8611202Y6890238D01*
X8610202Y6890405D01*
X8609453Y6890488D01*
X8608869Y6890572D01*
X8608786D01*
X8608703D01*
X8607703Y6890488D01*
X8606787Y6890405D01*
X8605120Y6889905D01*
X8603704Y6889322D01*
X8602538Y6888572D01*
X8601705Y6887822D01*
X8601038Y6887156D01*
X8600705Y6886656D01*
X8600538Y6886573D01*
Y6886489D01*
X8599705Y6884990D01*
X8599039Y6883407D01*
X8598622Y6881907D01*
X8598289Y6880491D01*
X8598122Y6879325D01*
X8598039Y6878325D01*
X8597956Y6877992D01*
Y6877075D01*
X8598039Y6876659D01*
X8598122Y6876409D01*
Y6876242D01*
X8591207Y6875326D01*
X8591457Y6876492D01*
X8591707Y6877575D01*
X8591874Y6878575D01*
X8591957Y6879408D01*
X8592040Y6879991D01*
Y6880907D01*
X8591874Y6882907D01*
X8591457Y6884657D01*
X8590957Y6886156D01*
X8590291Y6887489D01*
X8589624Y6888489D01*
X8589125Y6889239D01*
X8588708Y6889739D01*
X8588541Y6889905D01*
X8587875Y6890572D01*
X8587125Y6891072D01*
X8585709Y6891988D01*
X8584209Y6892654D01*
X8582793Y6893071D01*
X8581543Y6893321D01*
X8580960Y6893404D01*
X8580543D01*
X8580127Y6893488D01*
X8579877D01*
X8579710D01*
X8579627D01*
X8578627D01*
X8577627Y6893321D01*
X8575795Y6892904D01*
X8574128Y6892238D01*
X8572795Y6891571D01*
X8571629Y6890905D01*
X8570796Y6890238D01*
X8570546Y6889989D01*
X8570296Y6889822D01*
X8570213Y6889739D01*
X8570129Y6889655D01*
X8569463Y6888905D01*
X8568880Y6888156D01*
X8567880Y6886573D01*
X8567213Y6884990D01*
X8566797Y6883490D01*
X8566464Y6882240D01*
X8566380Y6881657D01*
Y6881157D01*
X8566297Y6880824D01*
Y6880241D01*
X8566464Y6878575D01*
X8566797Y6876992D01*
X8567213Y6875659D01*
X8567797Y6874492D01*
X8568297Y6873493D01*
X8568796Y6872826D01*
X8569130Y6872410D01*
X8569213Y6872243D01*
X8569796Y6871660D01*
X8570463Y6871160D01*
X8572046Y6870244D01*
X8573629Y6869410D01*
X8575211Y6868827D01*
X8576711Y6868327D01*
X8577294Y6868161D01*
X8577877Y6867994D01*
X8578294Y6867911D01*
X8578627Y6867828D01*
X8578877Y6867744D01*
X8578960D01*
X8577877Y6859913D01*
X8576378Y6860079D01*
X8574962Y6860413D01*
X8573712Y6860746D01*
X8572462Y6861246D01*
X8571296Y6861746D01*
X8570213Y6862246D01*
X8569213Y6862829D01*
X8568297Y6863329D01*
X8567547Y6863912D01*
X8566797Y6864412D01*
X8566214Y6864912D01*
X8565714Y6865328D01*
X8565297Y6865745D01*
X8565047Y6865995D01*
X8564881Y6866161D01*
X8564797Y6866245D01*
X8563881Y6867328D01*
X8563131Y6868411D01*
X8562465Y6869577D01*
X8561882Y6870827D01*
X8561465Y6871993D01*
X8561048Y6873159D01*
X8560465Y6875326D01*
X8560215Y6876325D01*
X8560049Y6877325D01*
X8559965Y6878158D01*
X8559882Y6878825D01*
X8559799Y6879408D01*
Y6880241D01*
X8559882Y6881991D01*
X8560049Y6883573D01*
X8560299Y6885156D01*
X8560715Y6886573D01*
X8561132Y6887989D01*
X8561632Y6889239D01*
X8562131Y6890405D01*
X8562715Y6891488D01*
X8563215Y6892405D01*
X8563714Y6893238D01*
X8564214Y6893987D01*
X8564631Y6894571D01*
X8565047Y6895071D01*
X8565297Y6895404D01*
X8565464Y6895570D01*
X8565547Y6895654D01*
X8566630Y6896737D01*
X8567797Y6897653D01*
X8569046Y6898486D01*
X8570213Y6899236D01*
X8571462Y6899819D01*
X8572629Y6900319D01*
X8573795Y6900736D01*
X8574878Y6901069D01*
X8575878Y6901319D01*
X8576794Y6901486D01*
X8577627Y6901652D01*
X8578377Y6901735D01*
X8578960Y6901819D01*
X8579460D01*
X8579710D01*
X8579794D01*
X8582043Y6901652D01*
D02*
G37*
G36*
X8625199Y6834669D02*
X8623616Y6833753D01*
X8622116Y6832670D01*
X8620616Y6831503D01*
X8619367Y6830420D01*
X8618200Y6829337D01*
X8617367Y6828504D01*
X8617034Y6828171D01*
X8616784Y6827921D01*
X8616701Y6827754D01*
X8616618Y6827671D01*
X8615035Y6825755D01*
X8613618Y6823839D01*
X8612285Y6821839D01*
X8611202Y6820090D01*
X8610369Y6818507D01*
X8609953Y6817840D01*
X8609703Y6817257D01*
X8609453Y6816841D01*
X8609286Y6816507D01*
X8609119Y6816257D01*
Y6816174D01*
X8601455D01*
X8602038Y6817590D01*
X8602704Y6819007D01*
X8603371Y6820423D01*
X8604037Y6821673D01*
X8604621Y6822756D01*
X8605120Y6823672D01*
X8605287Y6824005D01*
X8605454Y6824255D01*
X8605537Y6824339D01*
Y6824422D01*
X8606537Y6826088D01*
X8607537Y6827505D01*
X8608453Y6828837D01*
X8609286Y6829921D01*
X8609953Y6830754D01*
X8610536Y6831420D01*
X8610869Y6831753D01*
X8610952Y6831920D01*
X8560882D01*
Y6839751D01*
X8625199D01*
Y6834669D01*
D02*
G37*
G36*
X8583293Y6794430D02*
X8581793Y6794013D01*
X8580460Y6793597D01*
X8579210Y6793097D01*
X8577961Y6792597D01*
X8576878Y6792014D01*
X8575878Y6791514D01*
X8574962Y6790931D01*
X8574212Y6790347D01*
X8573462Y6789847D01*
X8572879Y6789348D01*
X8572296Y6788848D01*
X8571879Y6788514D01*
X8571546Y6788181D01*
X8571296Y6787931D01*
X8571212Y6787765D01*
X8571129Y6787681D01*
X8570379Y6786765D01*
X8569796Y6785765D01*
X8569213Y6784765D01*
X8568796Y6783682D01*
X8568047Y6781683D01*
X8567547Y6779767D01*
X8567380Y6778934D01*
X8567297Y6778100D01*
X8567213Y6777434D01*
X8567130Y6776767D01*
X8567047Y6776268D01*
Y6775601D01*
X8567213Y6773435D01*
X8567547Y6771436D01*
X8567963Y6769603D01*
X8568546Y6767936D01*
X8569130Y6766603D01*
X8569380Y6766020D01*
X8569546Y6765604D01*
X8569796Y6765187D01*
X8569879Y6764937D01*
X8570046Y6764771D01*
Y6764687D01*
X8571296Y6762938D01*
X8572712Y6761438D01*
X8574212Y6760188D01*
X8575711Y6759105D01*
X8577044Y6758272D01*
X8577627Y6758022D01*
X8578127Y6757772D01*
X8578544Y6757522D01*
X8578877Y6757356D01*
X8579044Y6757272D01*
X8579127D01*
X8581460Y6756523D01*
X8583959Y6755939D01*
X8586292Y6755523D01*
X8588541Y6755273D01*
X8589541Y6755106D01*
X8590458D01*
X8591291Y6755023D01*
X8592040Y6754940D01*
X8592624D01*
X8593040D01*
X8593290D01*
X8593373D01*
X8595706Y6755023D01*
X8597956Y6755273D01*
X8600038Y6755606D01*
X8601955Y6755939D01*
X8602704Y6756106D01*
X8603454Y6756273D01*
X8604121Y6756439D01*
X8604704Y6756606D01*
X8605120Y6756773D01*
X8605454Y6756856D01*
X8605620Y6756939D01*
X8605704D01*
X8607870Y6757772D01*
X8609703Y6758855D01*
X8611369Y6760022D01*
X8612702Y6761188D01*
X8613785Y6762188D01*
X8614535Y6763021D01*
X8614868Y6763354D01*
X8615035Y6763604D01*
X8615201Y6763771D01*
Y6763854D01*
X8615868Y6764854D01*
X8616368Y6765854D01*
X8617284Y6767936D01*
X8617951Y6770019D01*
X8618367Y6771935D01*
X8618450Y6772852D01*
X8618617Y6773685D01*
X8618700Y6774435D01*
Y6775018D01*
X8618784Y6775518D01*
Y6776268D01*
X8618617Y6778600D01*
X8618284Y6780683D01*
X8617784Y6782516D01*
X8617201Y6784099D01*
X8616534Y6785349D01*
X8616284Y6785849D01*
X8616034Y6786265D01*
X8615868Y6786598D01*
X8615701Y6786848D01*
X8615534Y6786932D01*
Y6787015D01*
X8614868Y6787765D01*
X8614201Y6788514D01*
X8612619Y6789847D01*
X8610952Y6790931D01*
X8609286Y6791847D01*
X8607786Y6792597D01*
X8607120Y6792847D01*
X8606537Y6793097D01*
X8606037Y6793263D01*
X8605704Y6793430D01*
X8605454Y6793513D01*
X8605370D01*
X8607370Y6801844D01*
X8608953Y6801345D01*
X8610536Y6800678D01*
X8611952Y6800012D01*
X8613285Y6799262D01*
X8614451Y6798512D01*
X8615618Y6797762D01*
X8616618Y6797012D01*
X8617534Y6796263D01*
X8618367Y6795513D01*
X8619117Y6794846D01*
X8619700Y6794180D01*
X8620200Y6793680D01*
X8620616Y6793263D01*
X8620866Y6792847D01*
X8621033Y6792680D01*
X8621116Y6792597D01*
X8621949Y6791347D01*
X8622783Y6790014D01*
X8623366Y6788681D01*
X8623949Y6787348D01*
X8624449Y6785932D01*
X8624865Y6784599D01*
X8625449Y6782099D01*
X8625615Y6780933D01*
X8625782Y6779850D01*
X8625865Y6778850D01*
X8625948Y6778017D01*
X8626032Y6777351D01*
Y6774851D01*
X8625865Y6773352D01*
X8625449Y6770436D01*
X8624782Y6767770D01*
X8624449Y6766603D01*
X8624116Y6765437D01*
X8623699Y6764437D01*
X8623366Y6763521D01*
X8623033Y6762771D01*
X8622699Y6762105D01*
X8622449Y6761605D01*
X8622283Y6761188D01*
X8622199Y6760938D01*
X8622116Y6760855D01*
X8621366Y6759605D01*
X8620533Y6758356D01*
X8618700Y6756189D01*
X8616867Y6754273D01*
X8615035Y6752774D01*
X8614118Y6752107D01*
X8613368Y6751524D01*
X8612619Y6751024D01*
X8612035Y6750691D01*
X8611535Y6750358D01*
X8611119Y6750108D01*
X8610869Y6750024D01*
X8610786Y6749941D01*
X8609369Y6749275D01*
X8607870Y6748691D01*
X8604954Y6747775D01*
X8602038Y6747108D01*
X8600622Y6746858D01*
X8599289Y6746692D01*
X8598039Y6746525D01*
X8596956Y6746359D01*
X8595956Y6746275D01*
X8595040D01*
X8594373Y6746192D01*
X8593790D01*
X8593457D01*
X8593373D01*
X8590041Y6746359D01*
X8586792Y6746692D01*
X8585376Y6746942D01*
X8583959Y6747275D01*
X8582626Y6747525D01*
X8581377Y6747858D01*
X8580210Y6748191D01*
X8579210Y6748441D01*
X8578377Y6748775D01*
X8577627Y6749025D01*
X8577044Y6749191D01*
X8576544Y6749358D01*
X8576295Y6749524D01*
X8576211D01*
X8574795Y6750191D01*
X8573379Y6750941D01*
X8572129Y6751691D01*
X8570963Y6752524D01*
X8569796Y6753357D01*
X8568796Y6754190D01*
X8567880Y6754940D01*
X8567130Y6755773D01*
X8566380Y6756523D01*
X8565714Y6757189D01*
X8565214Y6757856D01*
X8564797Y6758356D01*
X8564381Y6758855D01*
X8564131Y6759189D01*
X8564048Y6759355D01*
X8563964Y6759439D01*
X8563215Y6760688D01*
X8562631Y6762021D01*
X8562048Y6763438D01*
X8561548Y6764854D01*
X8560798Y6767686D01*
X8560299Y6770352D01*
X8560132Y6771602D01*
X8560049Y6772685D01*
X8559965Y6773768D01*
X8559882Y6774601D01*
X8559799Y6775351D01*
Y6776351D01*
X8559882Y6778184D01*
X8560049Y6779933D01*
X8560299Y6781600D01*
X8560632Y6783183D01*
X8561048Y6784682D01*
X8561548Y6786098D01*
X8561965Y6787348D01*
X8562548Y6788598D01*
X8563048Y6789598D01*
X8563464Y6790514D01*
X8563964Y6791347D01*
X8564381Y6792014D01*
X8564714Y6792597D01*
X8564964Y6792930D01*
X8565131Y6793180D01*
X8565214Y6793263D01*
X8566297Y6794513D01*
X8567463Y6795679D01*
X8568713Y6796762D01*
X8570046Y6797679D01*
X8571379Y6798595D01*
X8572629Y6799345D01*
X8573962Y6800095D01*
X8575211Y6800678D01*
X8576461Y6801261D01*
X8577544Y6801678D01*
X8578544Y6802094D01*
X8579377Y6802428D01*
X8580127Y6802594D01*
X8580710Y6802761D01*
X8581043Y6802927D01*
X8581127D01*
X8583293Y6794430D01*
D02*
G37*
%LPC*%
G36*
X8515942Y7711605D02*
X8515109D01*
X8514609D01*
X8514526D01*
X8514442D01*
X8511610Y7711522D01*
X8509027Y7711439D01*
X8506611Y7711272D01*
X8504445Y7710939D01*
X8502446Y7710689D01*
X8500696Y7710356D01*
X8499113Y7709939D01*
X8497780Y7709606D01*
X8496530Y7709189D01*
X8495531Y7708856D01*
X8494698Y7708523D01*
X8494031Y7708190D01*
X8493531Y7707940D01*
X8493115Y7707773D01*
X8492948Y7707690D01*
X8492865Y7707606D01*
X8492032Y7706940D01*
X8491282Y7706273D01*
X8490699Y7705607D01*
X8490199Y7704857D01*
X8489366Y7703441D01*
X8488782Y7702024D01*
X8488449Y7700858D01*
X8488282Y7699858D01*
X8488199Y7699442D01*
Y7698942D01*
X8488282Y7697942D01*
X8488449Y7696942D01*
X8488699Y7696026D01*
X8489032Y7695193D01*
X8489865Y7693610D01*
X8490782Y7692277D01*
X8491782Y7691194D01*
X8492615Y7690444D01*
X8492948Y7690111D01*
X8493198Y7689944D01*
X8493365Y7689778D01*
X8493448D01*
X8494531Y7689111D01*
X8495864Y7688528D01*
X8497280Y7688028D01*
X8498863Y7687611D01*
X8500613Y7687278D01*
X8502362Y7686945D01*
X8505861Y7686528D01*
X8507528Y7686362D01*
X8509194Y7686195D01*
X8510610Y7686112D01*
X8511860D01*
X8512943Y7686029D01*
X8513776D01*
X8514276D01*
X8514359D01*
X8514442D01*
X8517275D01*
X8519858Y7686195D01*
X8522190Y7686362D01*
X8524357Y7686612D01*
X8526273Y7686862D01*
X8528022Y7687195D01*
X8529522Y7687528D01*
X8530855Y7687861D01*
X8532021Y7688278D01*
X8532938Y7688611D01*
X8533771Y7688944D01*
X8534354Y7689194D01*
X8534854Y7689444D01*
X8535187Y7689611D01*
X8535354Y7689694D01*
X8535437Y7689778D01*
X8536354Y7690444D01*
X8537103Y7691194D01*
X8537853Y7691944D01*
X8538436Y7692777D01*
X8538936Y7693527D01*
X8539353Y7694276D01*
X8539936Y7695693D01*
X8540352Y7696942D01*
X8540436Y7697526D01*
X8540519Y7697942D01*
X8540602Y7698359D01*
Y7698859D01*
X8540519Y7699858D01*
X8540352Y7700775D01*
X8540103Y7701691D01*
X8539769Y7702524D01*
X8538936Y7704107D01*
X8538020Y7705440D01*
X8537103Y7706523D01*
X8536270Y7707273D01*
X8535937Y7707523D01*
X8535687Y7707773D01*
X8535520Y7707856D01*
X8535437Y7707940D01*
X8534354Y7708606D01*
X8533021Y7709106D01*
X8531605Y7709606D01*
X8529938Y7710022D01*
X8528272Y7710439D01*
X8526523Y7710689D01*
X8523024Y7711105D01*
X8521274Y7711272D01*
X8519691Y7711439D01*
X8518275Y7711522D01*
X8517025D01*
X8515942Y7711605D01*
D02*
G37*
G36*
X8227869Y7321690D02*
X8227620D01*
X8227536D01*
X8227453D01*
X8225953Y7321607D01*
X8224620Y7321274D01*
X8223371Y7320774D01*
X8222371Y7320274D01*
X8221538Y7319691D01*
X8220955Y7319274D01*
X8220621Y7318941D01*
X8220455Y7318775D01*
X8219538Y7317608D01*
X8218788Y7316358D01*
X8218289Y7315109D01*
X8217955Y7313942D01*
X8217789Y7312943D01*
X8217705Y7312110D01*
X8217622Y7311776D01*
Y7311360D01*
X8217705Y7309694D01*
X8218039Y7308194D01*
X8218539Y7306861D01*
X8219038Y7305778D01*
X8219538Y7304861D01*
X8220038Y7304195D01*
X8220371Y7303862D01*
X8220455Y7303695D01*
X8221621Y7302779D01*
X8222871Y7302029D01*
X8224120Y7301529D01*
X8225287Y7301196D01*
X8226287Y7301029D01*
X8227120Y7300946D01*
X8227453Y7300862D01*
X8227703D01*
X8227786D01*
X8227869D01*
X8229286Y7301029D01*
X8230619Y7301362D01*
X8231785Y7301779D01*
X8232868Y7302362D01*
X8233618Y7302862D01*
X8234285Y7303362D01*
X8234618Y7303695D01*
X8234784Y7303778D01*
X8235784Y7304945D01*
X8236451Y7306194D01*
X8236951Y7307444D01*
X8237367Y7308610D01*
X8237534Y7309694D01*
X8237617Y7310527D01*
X8237700Y7310860D01*
Y7311276D01*
X8237534Y7312859D01*
X8237200Y7314276D01*
X8236784Y7315525D01*
X8236201Y7316608D01*
X8235618Y7317525D01*
X8235201Y7318191D01*
X8234868Y7318525D01*
X8234701Y7318691D01*
X8233535Y7319691D01*
X8232368Y7320441D01*
X8231119Y7320941D01*
X8229952Y7321357D01*
X8228953Y7321524D01*
X8228203Y7321607D01*
X8227869Y7321690D01*
D02*
G37*
G36*
X8198627Y7324273D02*
X8198294D01*
X8198127D01*
X8198044D01*
X8197044D01*
X8196044Y7324107D01*
X8194295Y7323690D01*
X8192712Y7323107D01*
X8191379Y7322440D01*
X8190296Y7321774D01*
X8189546Y7321191D01*
X8189046Y7320774D01*
X8188963Y7320691D01*
X8188879Y7320607D01*
X8188213Y7319941D01*
X8187713Y7319191D01*
X8186797Y7317608D01*
X8186213Y7316025D01*
X8185714Y7314609D01*
X8185464Y7313276D01*
X8185380Y7312693D01*
Y7312193D01*
X8185297Y7311860D01*
Y7311276D01*
X8185380Y7309943D01*
X8185547Y7308694D01*
X8185797Y7307611D01*
X8186130Y7306528D01*
X8186463Y7305695D01*
X8186713Y7305111D01*
X8186880Y7304695D01*
X8186963Y7304528D01*
X8187713Y7303445D01*
X8188463Y7302445D01*
X8189296Y7301612D01*
X8190046Y7300946D01*
X8190712Y7300446D01*
X8191296Y7300113D01*
X8191629Y7299863D01*
X8191795Y7299779D01*
X8192962Y7299280D01*
X8194128Y7298946D01*
X8195295Y7298613D01*
X8196294Y7298446D01*
X8197127Y7298363D01*
X8197794Y7298280D01*
X8198210D01*
X8198377D01*
X8199377Y7298363D01*
X8200377Y7298446D01*
X8202126Y7298863D01*
X8203709Y7299446D01*
X8205042Y7300113D01*
X8206125Y7300696D01*
X8206875Y7301279D01*
X8207375Y7301696D01*
X8207541Y7301862D01*
X8208208Y7302529D01*
X8208791Y7303279D01*
X8209624Y7304778D01*
X8210291Y7306361D01*
X8210791Y7307777D01*
X8211040Y7309110D01*
X8211124Y7309610D01*
Y7310110D01*
X8211207Y7310527D01*
Y7312110D01*
X8211040Y7313109D01*
X8210624Y7314942D01*
X8210041Y7316525D01*
X8209374Y7317941D01*
X8208624Y7319024D01*
X8208041Y7319858D01*
X8207625Y7320357D01*
X8207541Y7320524D01*
X8207458D01*
X8206792Y7321191D01*
X8206042Y7321774D01*
X8204459Y7322690D01*
X8202876Y7323357D01*
X8201376Y7323773D01*
X8200043Y7324107D01*
X8199460Y7324190D01*
X8199044D01*
X8198627Y7324273D01*
D02*
G37*
%LPD*%
D64*
X8419290Y7618096D02*
Y8048716D01*
Y7618096D02*
X8674910D01*
Y8048716D01*
X8419290D02*
X8674910D01*
X8774600Y7789650D02*
Y7882150D01*
Y7789650D02*
X8827600D01*
Y7882150D01*
X8774600D02*
X8827600D01*
X8306610Y7010990D02*
Y7441610D01*
X8050990D02*
X8306610D01*
X8050990Y7010990D02*
Y7441610D01*
Y7010990D02*
X8306610D01*
X7938600Y7180050D02*
Y7272550D01*
X7885600D02*
X7938600D01*
X7885600Y7180050D02*
Y7272550D01*
Y7180050D02*
X7938600D01*
X8017900Y6536100D02*
Y6756100D01*
X7907900D02*
X8017900D01*
X7907900Y6536100D02*
Y6756100D01*
Y6536100D02*
X8017900D01*
X8687610Y6530884D02*
Y6961504D01*
X8431990D02*
X8687610D01*
X8431990Y6530884D02*
Y6961504D01*
Y6530884D02*
X8687610D01*
X9380900Y7040100D02*
Y7180100D01*
Y7040100D02*
X9465900D01*
Y7180100D01*
X9380900D02*
X9465900D01*
X9424500Y7232500D02*
Y7325000D01*
X9371500D02*
X9424500D01*
X9371500Y7232500D02*
Y7325000D01*
Y7232500D02*
X9424500D01*
X9284800Y7230850D02*
Y7323350D01*
X9231800D02*
X9284800D01*
X9231800Y7230850D02*
Y7323350D01*
Y7230850D02*
X9284800D01*
X9145100D02*
Y7323350D01*
X9092100D02*
X9145100D01*
X9092100Y7230850D02*
Y7323350D01*
Y7230850D02*
X9145100D01*
X9092100Y7076800D02*
Y7169300D01*
Y7076800D02*
X9145100D01*
Y7169300D01*
X9092100D02*
X9145100D01*
X9231800Y7080100D02*
Y7172600D01*
Y7080100D02*
X9284800D01*
Y7172600D01*
X9231800D02*
X9284800D01*
X9393800Y7954500D02*
Y8174500D01*
Y7954500D02*
X9503800D01*
Y8174500D01*
X9393800D02*
X9503800D01*
X7137100Y5190400D02*
X7417100D01*
X7137100Y5020400D02*
Y5190400D01*
Y5020400D02*
X7417100D01*
Y5190400D01*
X7256250Y4039700D02*
X7348750D01*
X7256250Y3986700D02*
Y4039700D01*
Y3986700D02*
X7348750D01*
Y4039700D01*
X7254600Y4446100D02*
X7347100D01*
X7254600Y4393100D02*
Y4446100D01*
Y4393100D02*
X7347100D01*
Y4446100D01*
X7254600Y4636600D02*
X7347100D01*
X7254600Y4583600D02*
Y4636600D01*
Y4583600D02*
X7347100D01*
Y4636600D01*
X7254600Y4801700D02*
X7347100D01*
X7254600Y4748700D02*
Y4801700D01*
Y4748700D02*
X7347100D01*
Y4801700D01*
X7254600Y4242900D02*
X7347100D01*
X7254600Y4189900D02*
Y4242900D01*
Y4189900D02*
X7347100D01*
Y4242900D01*
X6633700Y3852500D02*
X6773700D01*
X6633700Y3767500D02*
Y3852500D01*
Y3767500D02*
X6773700D01*
Y3852500D01*
X6633700Y4043000D02*
X6773700D01*
X6633700Y3958000D02*
Y4043000D01*
Y3958000D02*
X6773700D01*
Y4043000D01*
X5033750Y4405800D02*
X5126250D01*
Y4458800D01*
X5033750D02*
X5126250D01*
X5033750Y4405800D02*
Y4458800D01*
X5637700Y4386050D02*
Y4478550D01*
Y4386050D02*
X5690700D01*
Y4478550D01*
X5637700D02*
X5690700D01*
X13793100Y7306400D02*
Y7476400D01*
X14073100D01*
Y7306400D02*
Y7476400D01*
X13793100Y7306400D02*
X14073100D01*
X14094099Y7987200D02*
Y8040200D01*
X14001601Y7987200D02*
X14094099D01*
X14001601D02*
Y8040200D01*
X14094099D01*
Y7847500D02*
Y7900500D01*
X14001601Y7847500D02*
X14094099D01*
X14001601D02*
Y7900500D01*
X14094099D01*
X14192101Y7174400D02*
Y7227400D01*
X14284599D01*
Y7174400D02*
Y7227400D01*
X14192101Y7174400D02*
X14284599D01*
X14222900Y7318100D02*
X14275900D01*
X14222900D02*
Y7410600D01*
X14275900D01*
Y7318100D02*
Y7410600D01*
%TF.MD5,7919d8dd5a629ab044f0b4e170a40d4d*%
M02*
