%TF.GenerationSoftware,Altium Limited,Altium Designer,24.1.2 (44)*%
G04 Layer_Color=0*
%FSLAX45Y45*%
%MOMM*%
%TF.SameCoordinates,57B3B6A3-E825-4013-9261-08072AB09D51*%
%TF.FilePolarity,Positive*%
%TF.FileFunction,Other,Top_Component_Center*%
%TF.Part,Single*%
G01*
G75*
%TA.AperFunction,NonConductor*%
%ADD88C,0.10000*%
D88*
X4013200Y7595400D02*
Y7695400D01*
X3963200Y7645400D02*
X4063200D01*
X4000500Y9119400D02*
Y9219400D01*
X3950500Y9169400D02*
X4050500D01*
X7254150Y4902200D02*
X7354150D01*
X7304150Y4852200D02*
Y4952200D01*
X6692900Y4331500D02*
Y4431500D01*
X6642900Y4381500D02*
X6742900D01*
X13729500Y7315200D02*
X13829500D01*
X13779500Y7265200D02*
Y7365200D01*
X17285500Y3467100D02*
X17385500D01*
X17335500Y3417100D02*
Y3517100D01*
X16841000Y4586350D02*
X16941000D01*
X16891000Y4536350D02*
Y4636350D01*
X16014700Y4915700D02*
Y5015700D01*
X15964700Y4965700D02*
X16064700D01*
X15761501Y4962700D02*
X15861501D01*
X15811501Y4912700D02*
Y5012700D01*
X15662100Y4471200D02*
Y4571200D01*
X15612100Y4521200D02*
X15712100D01*
X15660750Y4268000D02*
Y4368000D01*
X15610750Y4318000D02*
X15710750D01*
X15495650Y6071400D02*
Y6171400D01*
X15445650Y6121400D02*
X15545650D01*
X15497000Y6274600D02*
Y6374600D01*
X15447000Y6324600D02*
X15547000D01*
X15773399Y6630200D02*
Y6730200D01*
X15723399Y6680200D02*
X15823399D01*
X13668201Y5525300D02*
Y5625300D01*
X13618201Y5575300D02*
X13718201D01*
X13677901Y5715800D02*
Y5815800D01*
X13627901Y5765800D02*
X13727901D01*
X14351801Y5348350D02*
X14451801D01*
X14401801Y5298350D02*
Y5398350D01*
X14148599Y5349700D02*
X14248599D01*
X14198599Y5299700D02*
Y5399700D01*
X14503400Y4207200D02*
Y4307200D01*
X14453400Y4257200D02*
X14553400D01*
X14500400Y3991300D02*
Y4091300D01*
X14450400Y4041300D02*
X14550400D01*
X13907300Y3365500D02*
X14007300D01*
X13957300Y3315500D02*
Y3415500D01*
X15151900Y3810000D02*
X15251900D01*
X15201900Y3760000D02*
Y3860000D01*
X14948700Y3813000D02*
X15048700D01*
X14998700Y3763000D02*
Y3863000D01*
X16424899Y3517900D02*
X16524899D01*
X16474899Y3467900D02*
Y3567900D01*
X16675101Y3721900D02*
Y3821900D01*
X16625101Y3771900D02*
X16725101D01*
X9182900Y12026900D02*
X9282900D01*
X9232900Y11976900D02*
Y12076900D01*
X17171201Y5041900D02*
X17271201D01*
X17221201Y4991900D02*
Y5091900D01*
X16624300Y5398300D02*
Y5498300D01*
X16574300Y5448300D02*
X16674300D01*
X16624300Y4979200D02*
Y5079200D01*
X16574300Y5029200D02*
X16674300D01*
X5229000Y2877300D02*
Y2977300D01*
X5179000Y2927300D02*
X5279000D01*
X5221350Y3125000D02*
Y3225000D01*
X5171350Y3175000D02*
X5271350D01*
X3442500Y4495800D02*
X3542500D01*
X3492500Y4445800D02*
Y4545800D01*
X5613400Y9386100D02*
Y9486100D01*
X5563400Y9436100D02*
X5663400D01*
X5130800Y9398800D02*
Y9498800D01*
X5080800Y9448800D02*
X5180800D01*
X4598600Y9411500D02*
Y9511500D01*
X4548600Y9461500D02*
X4648600D01*
X17056900Y12026900D02*
X17156900D01*
X17106900Y11976900D02*
Y12076900D01*
X15278900Y12026900D02*
X15378900D01*
X15328900Y11976900D02*
Y12076900D01*
X13119901Y12026900D02*
X13219901D01*
X13169901Y11976900D02*
Y12076900D01*
X11341900Y12026900D02*
X11441900D01*
X11391900Y11976900D02*
Y12076900D01*
X7404900Y12026900D02*
X7504900D01*
X7454900Y11976900D02*
Y12076900D01*
X5245900Y12026900D02*
X5345900D01*
X5295900Y11976900D02*
Y12076900D01*
X3467900Y12026900D02*
X3567900D01*
X3517900Y11976900D02*
Y12076900D01*
%TF.MD5,2e6cd49fd76a7507aa8bd78940f312f1*%
M02*
