%TF.GenerationSoftware,Altium Limited,Altium Designer,24.1.2 (44)*%
G04 Layer_Color=255*
%FSLAX45Y45*%
%MOMM*%
%TF.SameCoordinates,57B3B6A3-E825-4013-9261-08072AB09D51*%
%TF.FilePolarity,Positive*%
%TF.FileFunction,Pads,Bot*%
%TF.Part,Single*%
G01*
G75*
%TA.AperFunction,SMDPad,CuDef*%
%ADD14R,0.25000X0.30000*%
%ADD18R,0.90000X0.80000*%
%ADD26R,0.30000X0.25000*%
%ADD34R,1.20000X1.45000*%
%ADD35R,0.40000X0.50000*%
%TA.AperFunction,ComponentPad*%
%ADD47C,1.57000*%
%ADD48R,1.57000X1.57000*%
%ADD49C,9.55000*%
%ADD50C,1.39000*%
%ADD51R,1.39000X1.39000*%
%ADD52C,2.42000*%
%ADD53C,3.25000*%
%TA.AperFunction,SMDPad,CuDef*%
%ADD56R,1.55620X1.57807*%
%ADD57R,0.70000X0.65000*%
%ADD58R,0.50000X0.40000*%
%ADD59R,0.95000X1.35000*%
D14*
X7326250Y4013200D02*
D03*
X7278750D02*
D03*
X7324600Y4419600D02*
D03*
X7277100D02*
D03*
X7324600Y4610100D02*
D03*
X7277100D02*
D03*
X7324600Y4775200D02*
D03*
X7277100D02*
D03*
X7324600Y4216400D02*
D03*
X7277100D02*
D03*
X5056250Y4432300D02*
D03*
X5103750D02*
D03*
X14024100Y8013700D02*
D03*
X14071600D02*
D03*
X14024100Y7874000D02*
D03*
X14071600D02*
D03*
X14262100Y7200900D02*
D03*
X14214600D02*
D03*
D18*
X6350000Y5152700D02*
D03*
Y5032700D02*
D03*
X6197600Y5149200D02*
D03*
Y5029200D02*
D03*
X6045200Y5149200D02*
D03*
Y5029200D02*
D03*
X5892800Y5149200D02*
D03*
Y5029200D02*
D03*
X5054600Y4746300D02*
D03*
Y4626300D02*
D03*
Y4114800D02*
D03*
Y4234800D02*
D03*
D26*
X8801100Y7859650D02*
D03*
Y7812150D02*
D03*
X7912100Y7202550D02*
D03*
Y7250050D02*
D03*
X9398000Y7255000D02*
D03*
Y7302500D02*
D03*
X9258300Y7253350D02*
D03*
Y7300850D02*
D03*
X9118600Y7253350D02*
D03*
Y7300850D02*
D03*
Y7146800D02*
D03*
Y7099300D02*
D03*
X9258300Y7150100D02*
D03*
Y7102600D02*
D03*
X5664200Y4456050D02*
D03*
Y4408550D02*
D03*
X14249400Y7388100D02*
D03*
Y7340600D02*
D03*
D34*
X14439900Y7670800D02*
D03*
X14639900D02*
D03*
D35*
X6743700Y3810000D02*
D03*
X6663700D02*
D03*
X6743700Y4000500D02*
D03*
X6663700D02*
D03*
D47*
X17335500Y3594100D02*
D03*
X17221201Y4914900D02*
D03*
D48*
X17335500Y3340100D02*
D03*
X17221201Y5168900D02*
D03*
D49*
X9232900Y12026900D02*
D03*
X17106900D02*
D03*
X15328900D02*
D03*
X13169901D02*
D03*
X11391900D02*
D03*
X7454900D02*
D03*
X5295900D02*
D03*
X3517900D02*
D03*
D50*
X4194500Y4038800D02*
D03*
Y3809800D02*
D03*
Y4952800D02*
D03*
Y5181800D02*
D03*
X3534500Y4749800D02*
D03*
Y4545800D02*
D03*
Y4341800D02*
D03*
X3712500Y4851800D02*
D03*
Y4647800D02*
D03*
Y4443800D02*
D03*
Y4239800D02*
D03*
D51*
X3534500Y4137800D02*
D03*
D52*
X3623500Y3682800D02*
D03*
Y5308800D02*
D03*
D53*
X3280500Y3860800D02*
D03*
Y5130800D02*
D03*
D56*
X8547100Y7919812D02*
D03*
Y7747000D02*
D03*
X8178800Y7139894D02*
D03*
Y7312706D02*
D03*
X8559800Y6659788D02*
D03*
Y6832600D02*
D03*
D57*
X7962900Y6578600D02*
D03*
Y6713600D02*
D03*
X9448800Y8132000D02*
D03*
Y7997000D02*
D03*
D58*
X9423400Y7150100D02*
D03*
Y7070100D02*
D03*
D59*
X7352100Y5105400D02*
D03*
X7202100D02*
D03*
X14008099Y7391400D02*
D03*
X13858099D02*
D03*
%TF.MD5,8c1ca6cd5e3938eca67b800165eca17f*%
M02*
