%TF.GenerationSoftware,Altium Limited,Altium Designer,24.1.2 (44)*%
G04 Layer_Color=65535*
%FSLAX45Y45*%
%MOMM*%
%TF.SameCoordinates,57B3B6A3-E825-4013-9261-08072AB09D51*%
%TF.FilePolarity,Positive*%
%TF.FileFunction,Legend,Top*%
%TF.Part,Single*%
G01*
G75*
%TA.AperFunction,NonConductor*%
%ADD60C,0.25000*%
%ADD61C,0.60000*%
%ADD62C,0.15000*%
%ADD63C,0.50000*%
%ADD64C,0.20000*%
%ADD65C,0.15240*%
%ADD66C,0.07620*%
%ADD67C,0.25400*%
%ADD68R,2.60000X0.77780*%
G36*
X7573360Y6706545D02*
X7547960D01*
Y6668445D01*
X7573360D01*
Y6706545D01*
D02*
G37*
G36*
X8038350Y6091555D02*
X8000250D01*
Y6066155D01*
X8038350D01*
Y6091555D01*
D02*
G37*
G36*
X8538350D02*
X8500250D01*
Y6066155D01*
X8538350D01*
Y6091555D01*
D02*
G37*
G36*
X7573360Y7206545D02*
X7547960D01*
Y7168445D01*
X7573360D01*
Y7206545D01*
D02*
G37*
G36*
Y7706545D02*
X7547960D01*
Y7668445D01*
X7573360D01*
Y7706545D01*
D02*
G37*
G36*
X8088350Y8433435D02*
X8050250D01*
Y8458835D01*
X8088350D01*
Y8433435D01*
D02*
G37*
G36*
X8588350D02*
X8550250D01*
Y8458835D01*
X8588350D01*
Y8433435D01*
D02*
G37*
G36*
X9038350Y6091555D02*
X9000250D01*
Y6066155D01*
X9038350D01*
Y6091555D01*
D02*
G37*
G36*
X9538350D02*
X9500250D01*
Y6066155D01*
X9538350D01*
Y6091555D01*
D02*
G37*
G36*
X9915240Y6756545D02*
X9940640D01*
Y6718445D01*
X9915240D01*
Y6756545D01*
D02*
G37*
G36*
Y7256545D02*
X9940640D01*
Y7218445D01*
X9915240D01*
Y7256545D01*
D02*
G37*
G36*
X9088350Y8433435D02*
X9050250D01*
Y8458835D01*
X9088350D01*
Y8433435D01*
D02*
G37*
G36*
X9588350D02*
X9550250D01*
Y8458835D01*
X9588350D01*
Y8433435D01*
D02*
G37*
G36*
X9915240Y7756545D02*
X9940640D01*
Y7718445D01*
X9915240D01*
Y7756545D01*
D02*
G37*
D60*
X4075700Y7830400D02*
G03*
X4075700Y7830400I-12500J0D01*
G01*
X4063000Y9354400D02*
G03*
X4063000Y9354400I-12500J0D01*
G01*
X14000000Y5227600D02*
G03*
X14000000Y5227600I-12500J0D01*
G01*
X6580400Y4086500D02*
G03*
X6580400Y4086500I-12500J0D01*
G01*
X5807900Y3987800D02*
G03*
X5807900Y3987800I-12500J0D01*
G01*
X8048300Y3412400D02*
G03*
X8048300Y3412400I-12500J0D01*
G01*
X14084500Y7752700D02*
G03*
X14084500Y7752700I-12500J0D01*
G01*
X3823500Y7327900D02*
G03*
X3823500Y7327900I-12500J0D01*
G01*
X17348000Y3154600D02*
G03*
X17348000Y3154600I-12500J0D01*
G01*
X15381100Y6860200D02*
G03*
X15381100Y6860200I-12500J0D01*
G01*
X13969800Y3195500D02*
G03*
X13969800Y3195500I-12500J0D01*
G01*
X14812801Y3678200D02*
G03*
X14812801Y3678200I-12500J0D01*
G01*
X16614101Y2629100D02*
G03*
X16614101Y2629100I-12500J0D01*
G01*
X16979700Y3898300D02*
G03*
X16979700Y3898300I-12500J0D01*
G01*
X17233701Y5354400D02*
G03*
X17233701Y5354400I-12500J0D01*
G01*
X16234300Y5219700D02*
G03*
X16234300Y5219700I-12500J0D01*
G01*
X5136500Y2734800D02*
G03*
X5136500Y2734800I-12500J0D01*
G01*
X2594500Y4137800D02*
G03*
X2594500Y4137800I-12500J0D01*
G01*
X5455900Y9436100D02*
G03*
X5455900Y9436100I-12500J0D01*
G01*
X4973300Y9448800D02*
G03*
X4973300Y9448800I-12500J0D01*
G01*
X4441100Y9461500D02*
G03*
X4441100Y9461500I-12500J0D01*
G01*
X15565150Y4697600D02*
G03*
X15565150Y4697600I-12500J0D01*
G01*
D61*
X8283300Y3281900D02*
G03*
X8283300Y3281900I-30000J0D01*
G01*
D62*
X9888195Y12026900D02*
G03*
X9888195Y12026900I-655295J0D01*
G01*
X17762195D02*
G03*
X17762195Y12026900I-655295J0D01*
G01*
X15984195D02*
G03*
X15984195Y12026900I-655295J0D01*
G01*
X13825195D02*
G03*
X13825195Y12026900I-655295J0D01*
G01*
X12047195D02*
G03*
X12047195Y12026900I-655295J0D01*
G01*
X8110195D02*
G03*
X8110195Y12026900I-655295J0D01*
G01*
X5951195D02*
G03*
X5951195Y12026900I-655295J0D01*
G01*
X4173195D02*
G03*
X4173195Y12026900I-655295J0D01*
G01*
D63*
X16581799Y5196700D02*
G03*
X16581799Y5196700I-25000J0D01*
G01*
D64*
X4115700Y7580400D02*
Y7710400D01*
X3910700Y7580400D02*
Y7710400D01*
X4103000Y9104400D02*
Y9234400D01*
X3898000Y9104400D02*
Y9234400D01*
X13317500Y4767600D02*
Y5087600D01*
X13987500Y4767600D02*
Y5087600D01*
X13317500Y4767600D02*
X13987500D01*
X13317500Y5087600D02*
X13987500D01*
X7272650Y4848200D02*
X7335650D01*
X7272650Y4956200D02*
X7335650D01*
X6487900Y4176500D02*
Y4204000D01*
Y4559000D02*
Y4586500D01*
X6870400D02*
X6897900D01*
X6487900D02*
X6515400D01*
X6897900Y4176500D02*
Y4204000D01*
Y4559000D02*
Y4586500D01*
X6870400Y4176500D02*
X6897900D01*
X6487900D02*
X6515400D01*
X4777900Y5067300D02*
X5686900D01*
X4777900Y4954800D02*
Y5067300D01*
X5686900Y4954800D02*
Y5067300D01*
Y3797300D02*
Y3909800D01*
X4777900Y3797300D02*
Y3909800D01*
Y3797300D02*
X5686900D01*
X7455600Y2815600D02*
X7555600D01*
X7455600Y2975600D02*
X7555600D01*
X7455800Y3437900D02*
X7555800D01*
X7455800Y3597900D02*
X7555800D01*
X8153300Y2891900D02*
X8458300D01*
X8153300Y3381900D02*
X8458300D01*
Y2891900D02*
Y3381900D01*
X8153300Y2891900D02*
Y3381900D01*
X13449500Y7130200D02*
Y7500200D01*
X14109500Y7130200D02*
Y7500200D01*
X3688500Y6810900D02*
Y7238900D01*
X2788500Y6810900D02*
Y7243900D01*
Y6810900D02*
X3688500D01*
X2788500Y8935900D02*
Y9368900D01*
X3688500Y8935900D02*
Y9368900D01*
X2788500D02*
X3688500D01*
X17202000Y3194100D02*
X17469000D01*
Y3740100D01*
X17202000D02*
X17469000D01*
X17202000Y3194100D02*
Y3740100D01*
X16837000Y4554850D02*
Y4617850D01*
X16945000Y4554850D02*
Y4617850D01*
X15983200Y4911700D02*
X16046201D01*
X15983200Y5019700D02*
X16046201D01*
X15786501Y4697700D02*
X15836501D01*
X15811501Y4672700D02*
Y4722700D01*
X15721500Y4940200D02*
Y4985200D01*
X15901500Y4940200D02*
Y4985200D01*
X15397099Y4496200D02*
Y4546200D01*
X15372099Y4521200D02*
X15422099D01*
X15639600Y4611200D02*
X15684599D01*
X15639600Y4431200D02*
X15684599D01*
X15629250Y4264000D02*
X15692250D01*
X15629250Y4372000D02*
X15692250D01*
X15464149Y6067400D02*
X15527150D01*
X15464149Y6175400D02*
X15527150D01*
X15232001Y6299600D02*
Y6349600D01*
X15207001Y6324600D02*
X15257001D01*
X15474500Y6414600D02*
X15519501D01*
X15474500Y6234600D02*
X15519501D01*
X15558600Y6525200D02*
Y6610200D01*
X15498599Y6525200D02*
X15558600D01*
Y6750200D02*
Y6835200D01*
X15498599D02*
X15558600D01*
X15741901Y6626200D02*
X15804900D01*
X15741901Y6734200D02*
X15804900D01*
X13933200Y5550300D02*
Y5600300D01*
X13908200Y5575300D02*
X13958200D01*
X13645700Y5485300D02*
X13690700D01*
X13645700Y5665300D02*
X13690700D01*
X13646400Y5819800D02*
X13709399D01*
X13646400Y5711800D02*
X13709399D01*
X14455800Y5316850D02*
Y5379850D01*
X14347800Y5316850D02*
Y5379850D01*
X14173599Y5084700D02*
X14223599D01*
X14198599Y5059700D02*
Y5109700D01*
X14108600Y5327200D02*
Y5372200D01*
X14288600Y5327200D02*
Y5372200D01*
X14471899Y4311200D02*
X14534900D01*
X14471899Y4203200D02*
X14534900D01*
X14765401Y4016300D02*
Y4066300D01*
X14740401Y4041300D02*
X14790401D01*
X14477901Y3951300D02*
X14522900D01*
X14477901Y4131300D02*
X14522900D01*
X14037300Y3295500D02*
Y3435500D01*
X13877299Y3295500D02*
Y3435500D01*
X15255901Y3778500D02*
Y3841500D01*
X15147900Y3778500D02*
Y3841500D01*
X14973700Y3548000D02*
X15023700D01*
X14998700Y3523000D02*
Y3573000D01*
X14908701Y3790500D02*
Y3835500D01*
X15088699Y3790500D02*
Y3835500D01*
X14130299Y3538200D02*
X14800301D01*
X14130299Y3218200D02*
X14800301D01*
Y3538200D01*
X14130299Y3218200D02*
Y3538200D01*
X16452400Y3607900D02*
X16497400D01*
X16452400Y3427900D02*
X16497400D01*
X16714900Y3517900D02*
X16764900D01*
X16739900Y3492900D02*
Y3542900D01*
X16089101Y3294100D02*
X16499100D01*
X16089101Y2624100D02*
X16499100D01*
X16089101D02*
Y3294100D01*
X16499100Y2624100D02*
Y3294100D01*
X16837199Y3469800D02*
Y3603300D01*
X17097200D01*
Y3469800D02*
Y3603300D01*
X16234900Y3722100D02*
X16254900D01*
X16234900Y3847100D02*
X16254900D01*
X16622600Y3834400D02*
X16727600D01*
X16622600Y3709400D02*
X16727600D01*
X14380701Y7085600D02*
X14400700D01*
X14380701Y6960600D02*
X14400700D01*
X13056599Y6570200D02*
Y6590200D01*
X13181599Y6570200D02*
Y6590200D01*
X13856700Y6617800D02*
Y6637800D01*
X13981700Y6617800D02*
Y6637800D01*
X13602699Y6570200D02*
Y6590200D01*
X13727699Y6570200D02*
Y6590200D01*
X13323300Y6570200D02*
Y6590200D01*
X13448300Y6570200D02*
Y6590200D01*
X14123399Y6617800D02*
Y6637800D01*
X14248399Y6617800D02*
Y6637800D01*
X14390100Y6617800D02*
Y6637800D01*
X14515100Y6617800D02*
Y6637800D01*
X7455800Y3293100D02*
X7555800D01*
X7455800Y3133100D02*
X7555800D01*
X17087700Y5314900D02*
X17354700D01*
X17087700Y4768900D02*
Y5314900D01*
Y4768900D02*
X17354700D01*
Y5314900D01*
X16523692Y5533300D02*
X16724907D01*
X16523692Y5363300D02*
X16724907D01*
X16474300Y4779200D02*
Y5279200D01*
Y4779200D02*
X16774300D01*
Y5279200D01*
X16474300D02*
X16774300D01*
X5436500Y2792300D02*
Y3062300D01*
X5021500Y2792300D02*
Y3062300D01*
X4931400Y2947300D02*
Y3047300D01*
X4771400Y2947300D02*
Y3047300D01*
X5546100Y2947300D02*
Y3047300D01*
X5706100Y2947300D02*
Y3047300D01*
X5189850Y3121000D02*
X5252850D01*
X5189850Y3229000D02*
X5252850D01*
X3782000Y5439300D02*
X4340000D01*
X2645000D02*
X3465000D01*
X2645000Y3552300D02*
Y5439300D01*
X3782000Y3552300D02*
X4340000D01*
X2645000D02*
X3465000D01*
X4340000D02*
Y5439300D01*
X5543400Y9356100D02*
X5683400D01*
X5543400Y9516100D02*
X5683400D01*
X5060800Y9368800D02*
X5200800D01*
X5060800Y9528800D02*
X5200800D01*
X4528600Y9381500D02*
X4668600D01*
X4528600Y9541500D02*
X4668600D01*
X15227650Y5057600D02*
Y5157600D01*
X15487650D01*
X15227650Y4697600D02*
Y4797600D01*
Y4697600D02*
X15487650D01*
D65*
X9766650Y8184739D02*
Y8284845D01*
X9666544Y6240145D02*
X9766650D01*
X7721950D02*
Y6340251D01*
Y8184739D02*
Y8284845D01*
X9666544D02*
X9766650D01*
Y6240145D02*
Y6340251D01*
X7721950Y6240145D02*
X7822056D01*
X7721950Y8284845D02*
X7822056D01*
D66*
X7503510Y8242894D02*
X7588149Y8158255D01*
X7503510D02*
X7588149Y8242894D01*
X7503510Y8200574D02*
X7588149D01*
X7545830Y8158255D02*
Y8242894D01*
D67*
X17220799Y2921394D02*
X17271577Y2922187D01*
X17246188Y2921790D01*
X17243810Y3074123D01*
X17218817Y3048337D01*
X17449298Y2924964D02*
X17347745Y2923377D01*
X17447713Y3026519D01*
X17447314Y3051907D01*
X17421530Y3076899D01*
X17370752Y3076106D01*
X17345760Y3050321D01*
X17497696Y3078090D02*
X17499281Y2976535D01*
X17550853Y2926551D01*
X17600838Y2978122D01*
X17599249Y3079676D01*
X17333070Y3951624D02*
X17307286Y3976616D01*
X17256509Y3975823D01*
X17231516Y3950037D01*
X17233102Y3848483D01*
X17258888Y3823490D01*
X17309666Y3824284D01*
X17334657Y3850069D01*
X17333865Y3900847D01*
X17283087Y3900053D01*
X17385832Y3825474D02*
X17383452Y3977806D01*
X17487387Y3827061D01*
X17485007Y3979393D01*
X17535783Y3980186D02*
X17538164Y3827854D01*
X17614330Y3829044D01*
X17639322Y3854830D01*
X17637737Y3956384D01*
X17611951Y3981376D01*
X17535783Y3980186D01*
X14058900Y3124200D02*
Y2971849D01*
X13982726D01*
X13957333Y2997241D01*
Y3048025D01*
X13982726Y3073417D01*
X14058900D01*
X13906549Y2971849D02*
Y3124200D01*
X13855766Y3073417D01*
X13804982Y3124200D01*
Y2971849D01*
X13754199Y3124200D02*
Y2971849D01*
X13678023D01*
X13652631Y2997241D01*
Y3048025D01*
X13678023Y3073417D01*
X13754199D01*
X13703415D02*
X13652631Y3124200D01*
X17218771Y4675524D02*
X17192986Y4700516D01*
X17142209Y4699723D01*
X17117216Y4673937D01*
X17118803Y4572383D01*
X17144589Y4547390D01*
X17195366Y4548184D01*
X17220358Y4573969D01*
X17271532Y4549374D02*
X17269946Y4650929D01*
X17319930Y4702499D01*
X17371500Y4652515D01*
X17373087Y4550961D01*
X17371896Y4627127D01*
X17270341Y4625540D01*
X17423865Y4551754D02*
X17421484Y4704086D01*
X17525420Y4553341D01*
X17523039Y4705673D01*
X17573817Y4706466D02*
X17576196Y4554134D01*
X17677753Y4555721D01*
X17195767Y5575259D02*
X17170375Y5600651D01*
X17119592D01*
X17094200Y5575259D01*
Y5473692D01*
X17119592Y5448300D01*
X17170375D01*
X17195767Y5473692D01*
X17246552Y5448300D02*
Y5549867D01*
X17297334Y5600651D01*
X17348119Y5549867D01*
Y5448300D01*
Y5524475D01*
X17246552D01*
X17398901Y5448300D02*
Y5600651D01*
X17500468Y5448300D01*
Y5600651D01*
X17551253D02*
Y5448300D01*
Y5524475D01*
X17652818D01*
Y5600651D01*
Y5448300D01*
X7520940Y8686751D02*
Y8559792D01*
X7546332Y8534400D01*
X7597115D01*
X7622507Y8559792D01*
Y8686751D01*
X7673291Y8534400D02*
X7724074D01*
X7698683D01*
Y8686751D01*
X7673291Y8661359D01*
X15862334Y3568683D02*
X15836942Y3594075D01*
X15786159D01*
X15760767Y3568683D01*
Y3467117D01*
X15786159Y3441725D01*
X15836942D01*
X15862334Y3467117D01*
X15913116Y3568683D02*
X15938509Y3594075D01*
X15989291D01*
X16014684Y3568683D01*
Y3543292D01*
X15989291Y3517900D01*
X15963901D01*
X15989291D01*
X16014684Y3492508D01*
Y3467117D01*
X15989291Y3441725D01*
X15938509D01*
X15913116Y3467117D01*
X16167033Y3594075D02*
X16065466D01*
Y3517900D01*
X16116251Y3543292D01*
X16141643D01*
X16167033Y3517900D01*
Y3467117D01*
X16141643Y3441725D01*
X16090858D01*
X16065466Y3467117D01*
X17538724Y3365529D02*
Y3314745D01*
Y3340137D01*
X17665683D01*
X17691075Y3314745D01*
Y3289353D01*
X17665683Y3263961D01*
X17691075Y3416312D02*
Y3467096D01*
Y3441704D01*
X17538724D01*
X17564116Y3416312D01*
Y3543271D02*
X17538724Y3568663D01*
Y3619446D01*
X17564116Y3644838D01*
X17665683D01*
X17691075Y3619446D01*
Y3568663D01*
X17665683Y3543271D01*
X17564116D01*
X5397467Y2565424D02*
Y2590816D01*
X5346683Y2641599D01*
X5295900Y2590816D01*
Y2565424D01*
X5346683Y2641599D02*
Y2717775D01*
X5245116D02*
X5194333D01*
X5219724D01*
Y2565424D01*
X5245116Y2590816D01*
X4737100Y5308551D02*
Y5181592D01*
X4762492Y5156200D01*
X4813275D01*
X4838667Y5181592D01*
Y5308551D01*
X4889451Y5156200D02*
X4940234D01*
X4914843D01*
Y5308551D01*
X4889451Y5283159D01*
X5016410Y5156200D02*
X5067193D01*
X5041801D01*
Y5308551D01*
X5016410Y5283159D01*
X6705662Y4851375D02*
Y4724417D01*
X6731054Y4699025D01*
X6781837D01*
X6807229Y4724417D01*
Y4851375D01*
X6858012Y4699025D02*
X6908796D01*
X6883404D01*
Y4851375D01*
X6858012Y4825983D01*
X6984971D02*
X7010363Y4851375D01*
X7061147D01*
X7086539Y4825983D01*
Y4724417D01*
X7061147Y4699025D01*
X7010363D01*
X6984971Y4724417D01*
Y4825983D01*
X15709924Y2844841D02*
X15836884D01*
X15862276Y2870233D01*
Y2921017D01*
X15836884Y2946408D01*
X15709924D01*
X15836884Y2997192D02*
X15862276Y3022584D01*
Y3073367D01*
X15836884Y3098759D01*
X15735316D01*
X15709924Y3073367D01*
Y3022584D01*
X15735316Y2997192D01*
X15760709D01*
X15786099Y3022584D01*
Y3098759D01*
X15199361Y5397451D02*
Y5270492D01*
X15224751Y5245100D01*
X15275536D01*
X15300928Y5270492D01*
Y5397451D01*
X15351711Y5372059D02*
X15377103Y5397451D01*
X15427885D01*
X15453278Y5372059D01*
Y5346667D01*
X15427885Y5321275D01*
X15453278Y5295883D01*
Y5270492D01*
X15427885Y5245100D01*
X15377103D01*
X15351711Y5270492D01*
Y5295883D01*
X15377103Y5321275D01*
X15351711Y5346667D01*
Y5372059D01*
X15377103Y5321275D02*
X15427885D01*
X15379741Y7086575D02*
Y6959617D01*
X15405133Y6934225D01*
X15455917D01*
X15481308Y6959617D01*
Y7086575D01*
X15532092D02*
X15633659D01*
Y7061183D01*
X15532092Y6959617D01*
Y6934225D01*
X12992142Y5448275D02*
Y5321317D01*
X13017532Y5295925D01*
X13068317D01*
X13093707Y5321317D01*
Y5448275D01*
X13246059D02*
X13195274Y5422883D01*
X13144492Y5372100D01*
Y5321317D01*
X13169884Y5295925D01*
X13220667D01*
X13246059Y5321317D01*
Y5346708D01*
X13220667Y5372100D01*
X13144492D01*
X14592259Y2730524D02*
Y2857483D01*
X14566867Y2882875D01*
X14516083D01*
X14490692Y2857483D01*
Y2730524D01*
X14338341D02*
X14439908D01*
Y2806699D01*
X14389125Y2781308D01*
X14363733D01*
X14338341Y2806699D01*
Y2857483D01*
X14363733Y2882875D01*
X14414516D01*
X14439908Y2857483D01*
X16306841Y4673575D02*
Y4546617D01*
X16332233Y4521225D01*
X16383017D01*
X16408408Y4546617D01*
Y4673575D01*
X16535367Y4521225D02*
Y4673575D01*
X16459192Y4597400D01*
X16560759D01*
X7970520Y3665171D02*
Y3538212D01*
X7995912Y3512820D01*
X8046695D01*
X8072087Y3538212D01*
Y3665171D01*
X8122871Y3639779D02*
X8148263Y3665171D01*
X8199046D01*
X8224438Y3639779D01*
Y3614387D01*
X8199046Y3588995D01*
X8173654D01*
X8199046D01*
X8224438Y3563603D01*
Y3538212D01*
X8199046Y3512820D01*
X8148263D01*
X8122871Y3538212D01*
X13081041Y7404075D02*
Y7277117D01*
X13106433Y7251725D01*
X13157217D01*
X13182608Y7277117D01*
Y7404075D01*
X13334959Y7251725D02*
X13233392D01*
X13334959Y7353292D01*
Y7378683D01*
X13309567Y7404075D01*
X13258784D01*
X13233392Y7378683D01*
X5016566Y9017025D02*
Y9169375D01*
X5092741D01*
X5118133Y9143983D01*
Y9093200D01*
X5092741Y9067808D01*
X5016566D01*
X5067349D02*
X5118133Y9017025D01*
X5168917Y9143983D02*
X5194308Y9169375D01*
X5245092D01*
X5270484Y9143983D01*
Y9118592D01*
X5245092Y9093200D01*
X5219700D01*
X5245092D01*
X5270484Y9067808D01*
Y9042417D01*
X5245092Y9017025D01*
X5194308D01*
X5168917Y9042417D01*
X5321267D02*
X5346659Y9017025D01*
X5397443D01*
X5422834Y9042417D01*
Y9143983D01*
X5397443Y9169375D01*
X5346659D01*
X5321267Y9143983D01*
Y9118592D01*
X5346659Y9093200D01*
X5422834D01*
X5511866Y9017025D02*
Y9169375D01*
X5588041D01*
X5613433Y9143983D01*
Y9093200D01*
X5588041Y9067808D01*
X5511866D01*
X5562649D02*
X5613433Y9017025D01*
X5664217Y9143983D02*
X5689608Y9169375D01*
X5740392D01*
X5765784Y9143983D01*
Y9118592D01*
X5740392Y9093200D01*
X5715000D01*
X5740392D01*
X5765784Y9067808D01*
Y9042417D01*
X5740392Y9017025D01*
X5689608D01*
X5664217Y9042417D01*
X5816567Y9143983D02*
X5841959Y9169375D01*
X5892743D01*
X5918134Y9143983D01*
Y9118592D01*
X5892743Y9093200D01*
X5918134Y9067808D01*
Y9042417D01*
X5892743Y9017025D01*
X5841959D01*
X5816567Y9042417D01*
Y9067808D01*
X5841959Y9093200D01*
X5816567Y9118592D01*
Y9143983D01*
X5841959Y9093200D02*
X5892743D01*
X4495866Y9004325D02*
Y9156675D01*
X4572041D01*
X4597433Y9131283D01*
Y9080500D01*
X4572041Y9055108D01*
X4495866D01*
X4546649D02*
X4597433Y9004325D01*
X4648217Y9131283D02*
X4673608Y9156675D01*
X4724392D01*
X4749784Y9131283D01*
Y9105892D01*
X4724392Y9080500D01*
X4699000D01*
X4724392D01*
X4749784Y9055108D01*
Y9029717D01*
X4724392Y9004325D01*
X4673608D01*
X4648217Y9029717D01*
X4800567Y9156675D02*
X4902134D01*
Y9131283D01*
X4800567Y9029717D01*
Y9004325D01*
X4191066Y8496325D02*
Y8648675D01*
X4267241D01*
X4292633Y8623283D01*
Y8572500D01*
X4267241Y8547108D01*
X4191066D01*
X4241849D02*
X4292633Y8496325D01*
X4343417Y8623283D02*
X4368808Y8648675D01*
X4419592D01*
X4444984Y8623283D01*
Y8597892D01*
X4419592Y8572500D01*
X4394200D01*
X4419592D01*
X4444984Y8547108D01*
Y8521717D01*
X4419592Y8496325D01*
X4368808D01*
X4343417Y8521717D01*
X4597334Y8648675D02*
X4546551Y8623283D01*
X4495767Y8572500D01*
Y8521717D01*
X4521159Y8496325D01*
X4571943D01*
X4597334Y8521717D01*
Y8547108D01*
X4571943Y8572500D01*
X4495767D01*
X5829326Y3098735D02*
X5981677Y3098734D01*
X5981676Y3022558D01*
X5956285Y2997167D01*
X5905501Y2997167D01*
X5880109Y3022559D01*
X5880110Y3098734D01*
X5880109Y3047951D02*
X5829326Y2997168D01*
X5956284Y2946383D02*
X5981676Y2920991D01*
X5981675Y2870208D01*
X5956283Y2844816D01*
X5930892Y2844816D01*
X5905500Y2870208D01*
X5905500Y2895600D01*
X5905500Y2870208D01*
X5880108Y2844817D01*
X5854716Y2844817D01*
X5829324Y2870209D01*
X5829325Y2920992D01*
X5854717Y2946384D01*
X5981674Y2692465D02*
X5981675Y2794032D01*
X5905499Y2794033D01*
X5930891Y2743249D01*
X5930890Y2717857D01*
X5905498Y2692466D01*
X5854715Y2692466D01*
X5829323Y2717858D01*
X5829324Y2768642D01*
X5854716Y2794033D01*
X16421584Y5599617D02*
X16420753Y5751966D01*
X16496927Y5752381D01*
X16522456Y5727128D01*
X16522736Y5676346D01*
X16497482Y5650816D01*
X16421307Y5650400D01*
X16472090Y5650677D02*
X16523151Y5600172D01*
X16573241Y5727406D02*
X16598492Y5752936D01*
X16649277Y5753213D01*
X16674806Y5727960D01*
X16674944Y5702568D01*
X16649690Y5677038D01*
X16624300Y5676900D01*
X16649690Y5677038D01*
X16675221Y5651785D01*
X16675360Y5626394D01*
X16650107Y5600864D01*
X16599324Y5600587D01*
X16573795Y5625840D01*
X16802457Y5601695D02*
X16801624Y5754044D01*
X16725867Y5677454D01*
X16827431Y5678008D01*
X4494884Y3187279D02*
X4647233Y3187985D01*
X4647586Y3111811D01*
X4622312Y3086301D01*
X4571529Y3086066D01*
X4546020Y3111340D01*
X4545667Y3187514D01*
X4545902Y3136731D02*
X4495355Y3085713D01*
X4622548Y3035518D02*
X4648057Y3010244D01*
X4648292Y2959461D01*
X4623018Y2933952D01*
X4597627Y2933834D01*
X4572118Y2959108D01*
X4572000Y2984500D01*
X4572118Y2959108D01*
X4546844Y2933599D01*
X4521452Y2933481D01*
X4495943Y2958755D01*
X4495708Y3009538D01*
X4520982Y3035048D01*
X4623254Y2883169D02*
X4648763Y2857895D01*
X4648999Y2807112D01*
X4623725Y2781603D01*
X4598333Y2781485D01*
X4572824Y2806759D01*
X4572706Y2832151D01*
X4572824Y2806759D01*
X4547550Y2781250D01*
X4522159Y2781132D01*
X4496649Y2806406D01*
X4496414Y2857189D01*
X4521688Y2882698D01*
X4330675Y5803966D02*
X4178324D01*
Y5880141D01*
X4203716Y5905533D01*
X4254500D01*
X4279892Y5880141D01*
Y5803966D01*
Y5854749D02*
X4330675Y5905533D01*
Y6057883D02*
Y5956316D01*
X4229108Y6057883D01*
X4203716D01*
X4178324Y6032492D01*
Y5981708D01*
X4203716Y5956316D01*
X4178324Y6210234D02*
X4203716Y6159450D01*
X4254500Y6108667D01*
X4305283D01*
X4330675Y6134059D01*
Y6184842D01*
X4305283Y6210234D01*
X4279892D01*
X4254500Y6184842D01*
Y6108667D01*
X4000475Y5816666D02*
X3848124D01*
Y5892841D01*
X3873516Y5918233D01*
X3924300D01*
X3949692Y5892841D01*
Y5816666D01*
Y5867449D02*
X4000475Y5918233D01*
Y6070583D02*
Y5969016D01*
X3898908Y6070583D01*
X3873516D01*
X3848124Y6045192D01*
Y5994408D01*
X3873516Y5969016D01*
X3848124Y6222934D02*
Y6121367D01*
X3924300D01*
X3898908Y6172150D01*
Y6197542D01*
X3924300Y6222934D01*
X3975083D01*
X4000475Y6197542D01*
Y6146759D01*
X3975083Y6121367D01*
X4292575Y2794066D02*
X4140224D01*
Y2870241D01*
X4165616Y2895633D01*
X4216400D01*
X4241792Y2870241D01*
Y2794066D01*
Y2844849D02*
X4292575Y2895633D01*
Y3047983D02*
Y2946416D01*
X4191008Y3047983D01*
X4165616D01*
X4140224Y3022592D01*
Y2971808D01*
X4165616Y2946416D01*
X4292575Y3174942D02*
X4140224D01*
X4216400Y3098767D01*
Y3200334D01*
X6146866Y3086125D02*
Y3238475D01*
X6223041D01*
X6248433Y3213083D01*
Y3162300D01*
X6223041Y3136908D01*
X6146866D01*
X6197649D02*
X6248433Y3086125D01*
X6400784D02*
X6299217D01*
X6400784Y3187692D01*
Y3213083D01*
X6375392Y3238475D01*
X6324608D01*
X6299217Y3213083D01*
X6451567D02*
X6476959Y3238475D01*
X6527743D01*
X6553134Y3213083D01*
Y3187692D01*
X6527743Y3162300D01*
X6502351D01*
X6527743D01*
X6553134Y3136908D01*
Y3111517D01*
X6527743Y3086125D01*
X6476959D01*
X6451567Y3111517D01*
X7467666Y4572025D02*
Y4724375D01*
X7543841D01*
X7569233Y4698983D01*
Y4648200D01*
X7543841Y4622808D01*
X7467666D01*
X7518449D02*
X7569233Y4572025D01*
X7721584D02*
X7620017D01*
X7721584Y4673592D01*
Y4698983D01*
X7696192Y4724375D01*
X7645408D01*
X7620017Y4698983D01*
X7873934Y4572025D02*
X7772367D01*
X7873934Y4673592D01*
Y4698983D01*
X7848543Y4724375D01*
X7797759D01*
X7772367Y4698983D01*
X7476858Y3949725D02*
Y4102075D01*
X7553033D01*
X7578425Y4076683D01*
Y4025900D01*
X7553033Y4000508D01*
X7476858D01*
X7527641D02*
X7578425Y3949725D01*
X7730776D02*
X7629209D01*
X7730776Y4051292D01*
Y4076683D01*
X7705384Y4102075D01*
X7654600D01*
X7629209Y4076683D01*
X7781559Y3949725D02*
X7832343D01*
X7806951D01*
Y4102075D01*
X7781559Y4076683D01*
X7476866Y3733825D02*
Y3886175D01*
X7553041D01*
X7578433Y3860783D01*
Y3810000D01*
X7553041Y3784608D01*
X7476866D01*
X7527649D02*
X7578433Y3733825D01*
X7730784D02*
X7629217D01*
X7730784Y3835392D01*
Y3860783D01*
X7705392Y3886175D01*
X7654609D01*
X7629217Y3860783D01*
X7781567D02*
X7806959Y3886175D01*
X7857743D01*
X7883135Y3860783D01*
Y3759217D01*
X7857743Y3733825D01*
X7806959D01*
X7781567Y3759217D01*
Y3860783D01*
X8216962Y4521225D02*
Y4673575D01*
X8293137D01*
X8318529Y4648183D01*
Y4597400D01*
X8293137Y4572008D01*
X8216962D01*
X8267745D02*
X8318529Y4521225D01*
X8369312D02*
X8420096D01*
X8394704D01*
Y4673575D01*
X8369312Y4648183D01*
X8496271Y4546617D02*
X8521663Y4521225D01*
X8572447D01*
X8597839Y4546617D01*
Y4648183D01*
X8572447Y4673575D01*
X8521663D01*
X8496271Y4648183D01*
Y4622792D01*
X8521663Y4597400D01*
X8597839D01*
X8191562Y3962425D02*
Y4114775D01*
X8267737D01*
X8293129Y4089383D01*
Y4038600D01*
X8267737Y4013208D01*
X8191562D01*
X8242345D02*
X8293129Y3962425D01*
X8343912D02*
X8394696D01*
X8369304D01*
Y4114775D01*
X8343912Y4089383D01*
X8470871D02*
X8496263Y4114775D01*
X8547047D01*
X8572439Y4089383D01*
Y4063992D01*
X8547047Y4038600D01*
X8572439Y4013208D01*
Y3987817D01*
X8547047Y3962425D01*
X8496263D01*
X8470871Y3987817D01*
Y4013208D01*
X8496263Y4038600D01*
X8470871Y4063992D01*
Y4089383D01*
X8496263Y4038600D02*
X8547047D01*
X8191562Y4178325D02*
Y4330675D01*
X8267737D01*
X8293129Y4305283D01*
Y4254500D01*
X8267737Y4229108D01*
X8191562D01*
X8242345D02*
X8293129Y4178325D01*
X8343912D02*
X8394696D01*
X8369304D01*
Y4330675D01*
X8343912Y4305283D01*
X8470871Y4330675D02*
X8572439D01*
Y4305283D01*
X8470871Y4203717D01*
Y4178325D01*
X7467662Y4775225D02*
Y4927575D01*
X7543837D01*
X7569229Y4902183D01*
Y4851400D01*
X7543837Y4826008D01*
X7467662D01*
X7518445D02*
X7569229Y4775225D01*
X7620012D02*
X7670796D01*
X7645404D01*
Y4927575D01*
X7620012Y4902183D01*
X7848539Y4927575D02*
X7797755Y4902183D01*
X7746971Y4851400D01*
Y4800617D01*
X7772363Y4775225D01*
X7823147D01*
X7848539Y4800617D01*
Y4826008D01*
X7823147Y4851400D01*
X7746971D01*
X7467662Y4368825D02*
Y4521175D01*
X7543837D01*
X7569229Y4495783D01*
Y4445000D01*
X7543837Y4419608D01*
X7467662D01*
X7518445D02*
X7569229Y4368825D01*
X7620012D02*
X7670796D01*
X7645404D01*
Y4521175D01*
X7620012Y4495783D01*
X7848539Y4521175D02*
X7746971D01*
Y4445000D01*
X7797755Y4470392D01*
X7823147D01*
X7848539Y4445000D01*
Y4394217D01*
X7823147Y4368825D01*
X7772363D01*
X7746971Y4394217D01*
X4943862Y3556025D02*
Y3708375D01*
X5020037D01*
X5045429Y3682983D01*
Y3632200D01*
X5020037Y3606808D01*
X4943862D01*
X4994645D02*
X5045429Y3556025D01*
X5096213D02*
X5146996D01*
X5121604D01*
Y3708375D01*
X5096213Y3682983D01*
X5299347Y3556025D02*
Y3708375D01*
X5223171Y3632200D01*
X5324739D01*
X13766776Y3594161D02*
X13614424D01*
Y3670337D01*
X13639816Y3695729D01*
X13690601D01*
X13715993Y3670337D01*
Y3594161D01*
Y3644945D02*
X13766776Y3695729D01*
Y3746512D02*
Y3797296D01*
Y3771904D01*
X13614424D01*
X13639816Y3746512D01*
Y3873471D02*
X13614424Y3898863D01*
Y3949646D01*
X13639816Y3975038D01*
X13665208D01*
X13690601Y3949646D01*
Y3924255D01*
Y3949646D01*
X13715993Y3975038D01*
X13741383D01*
X13766776Y3949646D01*
Y3898863D01*
X13741383Y3873471D01*
X15951262Y3975125D02*
Y4127475D01*
X16027437D01*
X16052829Y4102083D01*
Y4051300D01*
X16027437Y4025908D01*
X15951262D01*
X16002045D02*
X16052829Y3975125D01*
X16103612D02*
X16154396D01*
X16129004D01*
Y4127475D01*
X16103612Y4102083D01*
X16332140Y3975125D02*
X16230571D01*
X16332140Y4076692D01*
Y4102083D01*
X16306747Y4127475D01*
X16255963D01*
X16230571Y4102083D01*
X7162746Y3594075D02*
Y3441724D01*
X7086571D01*
X7061179Y3467116D01*
Y3517899D01*
X7086571Y3543291D01*
X7162746D01*
X7111963D02*
X7061179Y3594075D01*
X7010396D02*
X6959612D01*
X6985004D01*
Y3441724D01*
X7010396Y3467116D01*
X6883437Y3594075D02*
X6832653D01*
X6858045D01*
Y3441724D01*
X6883437Y3467116D01*
X7162738Y3301975D02*
Y3149624D01*
X7086563D01*
X7061171Y3175016D01*
Y3225799D01*
X7086563Y3251191D01*
X7162738D01*
X7111955D02*
X7061171Y3301975D01*
X7010388D02*
X6959604D01*
X6984996D01*
Y3149624D01*
X7010388Y3175016D01*
X6883429D02*
X6858037Y3149624D01*
X6807253D01*
X6781861Y3175016D01*
Y3276583D01*
X6807253Y3301975D01*
X6858037D01*
X6883429Y3276583D01*
Y3175016D01*
X7162759Y2959075D02*
Y2806724D01*
X7086583D01*
X7061192Y2832116D01*
Y2882899D01*
X7086583Y2908291D01*
X7162759D01*
X7111975D02*
X7061192Y2959075D01*
X7010408Y2933683D02*
X6985016Y2959075D01*
X6934233D01*
X6908841Y2933683D01*
Y2832116D01*
X6934233Y2806724D01*
X6985016D01*
X7010408Y2832116D01*
Y2857508D01*
X6985016Y2882899D01*
X6908841D01*
X13182574Y6057941D02*
X13030225D01*
Y6134117D01*
X13055617Y6159508D01*
X13106400D01*
X13131792Y6134117D01*
Y6057941D01*
Y6108725D02*
X13182574Y6159508D01*
X13055617Y6210292D02*
X13030225Y6235684D01*
Y6286467D01*
X13055617Y6311859D01*
X13081007D01*
X13106400Y6286467D01*
X13131792Y6311859D01*
X13157182D01*
X13182574Y6286467D01*
Y6235684D01*
X13157182Y6210292D01*
X13131792D01*
X13106400Y6235684D01*
X13081007Y6210292D01*
X13055617D01*
X13106400Y6235684D02*
Y6286467D01*
X13969975Y6096041D02*
X13817625D01*
Y6172217D01*
X13843018Y6197608D01*
X13893800D01*
X13919193Y6172217D01*
Y6096041D01*
Y6146825D02*
X13969975Y6197608D01*
X13817625Y6248392D02*
Y6349959D01*
X13843018D01*
X13944583Y6248392D01*
X13969975D01*
X13741373Y6045239D02*
X13589021Y6045243D01*
X13589023Y6121418D01*
X13614417Y6146809D01*
X13665199Y6146808D01*
X13690590Y6121416D01*
X13690588Y6045240D01*
X13690590Y6096024D02*
X13741376Y6146806D01*
X13589027Y6299161D02*
X13614418Y6248376D01*
X13665199Y6197592D01*
X13715984Y6197590D01*
X13741376Y6222982D01*
X13741377Y6273765D01*
X13715987Y6299158D01*
X13690594Y6299158D01*
X13665202Y6273767D01*
X13665199Y6197592D01*
X13461975Y6048441D02*
X13309625D01*
Y6124616D01*
X13335017Y6150008D01*
X13385800D01*
X13411192Y6124616D01*
Y6048441D01*
Y6099225D02*
X13461975Y6150008D01*
X13309625Y6302359D02*
Y6200792D01*
X13385800D01*
X13360408Y6251575D01*
Y6276967D01*
X13385800Y6302359D01*
X13436583D01*
X13461975Y6276967D01*
Y6226184D01*
X13436583Y6200792D01*
X14249371Y6094439D02*
X14097021Y6094443D01*
X14097023Y6170618D01*
X14122417Y6196010D01*
X14173199Y6196008D01*
X14198592Y6170616D01*
X14198589Y6094441D01*
X14198590Y6145224D02*
X14249374Y6196007D01*
X14249377Y6322966D02*
X14097028Y6322969D01*
X14173201Y6246792D01*
X14173203Y6348359D01*
X14503375Y6094441D02*
X14351025D01*
Y6170617D01*
X14376418Y6196008D01*
X14427200D01*
X14452592Y6170617D01*
Y6094441D01*
Y6145225D02*
X14503375Y6196008D01*
X14376418Y6246792D02*
X14351025Y6272184D01*
Y6322967D01*
X14376418Y6348359D01*
X14401808D01*
X14427200Y6322967D01*
Y6297575D01*
Y6322967D01*
X14452592Y6348359D01*
X14477983D01*
X14503375Y6322967D01*
Y6272184D01*
X14477983Y6246792D01*
X14668541Y6946925D02*
Y7099275D01*
X14744717D01*
X14770108Y7073883D01*
Y7023100D01*
X14744717Y6997708D01*
X14668541D01*
X14719325D02*
X14770108Y6946925D01*
X14922459D02*
X14820892D01*
X14922459Y7048492D01*
Y7073883D01*
X14897067Y7099275D01*
X14846284D01*
X14820892Y7073883D01*
X2715260Y9466580D02*
Y9618931D01*
X2791435D01*
X2816827Y9593539D01*
Y9542755D01*
X2791435Y9517363D01*
X2715260D01*
X2867611Y9466580D02*
X2918394D01*
X2893003D01*
Y9618931D01*
X2867611Y9593539D01*
X2684747Y5687011D02*
X2633963D01*
X2659355D01*
Y5560052D01*
X2633963Y5534660D01*
X2608572D01*
X2583180Y5560052D01*
X2735531Y5534660D02*
X2786314D01*
X2760923D01*
Y5687011D01*
X2735531Y5661619D01*
X2862490Y5534660D02*
X2913273D01*
X2887881D01*
Y5687011D01*
X2862490Y5661619D01*
X17424493Y4978202D02*
X17424631Y4927419D01*
X17424562Y4952811D01*
X17551521Y4953154D01*
X17576981Y4927831D01*
X17577049Y4902440D01*
X17551727Y4876979D01*
X17551314Y5029329D02*
X17576637Y5054790D01*
X17576500Y5105573D01*
X17551039Y5130896D01*
X17449474Y5130621D01*
X17424150Y5105160D01*
X17424287Y5054377D01*
X17449748Y5029054D01*
X17475139Y5029123D01*
X17500462Y5054583D01*
X17500256Y5130759D01*
X2969227Y12931091D02*
X2918443D01*
X2943835D01*
Y12804132D01*
X2918443Y12778740D01*
X2893052D01*
X2867660Y12804132D01*
X3020011Y12905699D02*
X3045403Y12931091D01*
X3096186D01*
X3121578Y12905699D01*
Y12880307D01*
X3096186Y12854915D01*
X3121578Y12829523D01*
Y12804132D01*
X3096186Y12778740D01*
X3045403D01*
X3020011Y12804132D01*
Y12829523D01*
X3045403Y12854915D01*
X3020011Y12880307D01*
Y12905699D01*
X3045403Y12854915D02*
X3096186D01*
X4747227Y12931091D02*
X4696443D01*
X4721835D01*
Y12804132D01*
X4696443Y12778740D01*
X4671052D01*
X4645660Y12804132D01*
X4798011Y12931091D02*
X4899578D01*
Y12905699D01*
X4798011Y12804132D01*
Y12778740D01*
X6906227Y12931091D02*
X6855443D01*
X6880835D01*
Y12804132D01*
X6855443Y12778740D01*
X6830052D01*
X6804660Y12804132D01*
X7058578Y12931091D02*
X7007794Y12905699D01*
X6957011Y12854915D01*
Y12804132D01*
X6982403Y12778740D01*
X7033186D01*
X7058578Y12804132D01*
Y12829523D01*
X7033186Y12854915D01*
X6957011D01*
X8684227Y12931091D02*
X8633443D01*
X8658835D01*
Y12804132D01*
X8633443Y12778740D01*
X8608052D01*
X8582660Y12804132D01*
X8836578Y12931091D02*
X8735011D01*
Y12854915D01*
X8785794Y12880307D01*
X8811186D01*
X8836578Y12854915D01*
Y12804132D01*
X8811186Y12778740D01*
X8760403D01*
X8735011Y12804132D01*
X10843227Y12931091D02*
X10792443D01*
X10817835D01*
Y12804132D01*
X10792443Y12778740D01*
X10767052D01*
X10741660Y12804132D01*
X10970186Y12778740D02*
Y12931091D01*
X10894011Y12854915D01*
X10995578D01*
X12621227Y12931091D02*
X12570443D01*
X12595835D01*
Y12804132D01*
X12570443Y12778740D01*
X12545052D01*
X12519660Y12804132D01*
X12672011Y12905699D02*
X12697403Y12931091D01*
X12748186D01*
X12773578Y12905699D01*
Y12880307D01*
X12748186Y12854915D01*
X12722794D01*
X12748186D01*
X12773578Y12829523D01*
Y12804132D01*
X12748186Y12778740D01*
X12697403D01*
X12672011Y12804132D01*
X14780228Y12931091D02*
X14729443D01*
X14754836D01*
Y12804132D01*
X14729443Y12778740D01*
X14704053D01*
X14678661Y12804132D01*
X14932578Y12778740D02*
X14831010D01*
X14932578Y12880307D01*
Y12905699D01*
X14907185Y12931091D01*
X14856403D01*
X14831010Y12905699D01*
X16558228Y12931091D02*
X16507443D01*
X16532835D01*
Y12804132D01*
X16507443Y12778740D01*
X16482053D01*
X16456660Y12804132D01*
X16609010Y12778740D02*
X16659795D01*
X16634402D01*
Y12931091D01*
X16609010Y12905699D01*
X16560825Y4127475D02*
X16459258D01*
Y4051300D01*
X16510040D01*
X16459258D01*
Y3975125D01*
X16611607Y4127475D02*
Y3975125D01*
X16687784D01*
X16713176Y4000517D01*
Y4025908D01*
X16687784Y4051300D01*
X16611607D01*
X16687784D01*
X16713176Y4076692D01*
Y4102083D01*
X16687784Y4127475D01*
X16611607D01*
X16763959Y3975125D02*
X16814743D01*
X16789351D01*
Y4127475D01*
X16763959Y4102083D01*
X4960620Y9766251D02*
Y9613900D01*
X5036795D01*
X5062187Y9639292D01*
Y9740859D01*
X5036795Y9766251D01*
X4960620D01*
X5112971D02*
X5214538D01*
Y9740859D01*
X5112971Y9639292D01*
Y9613900D01*
X5443220Y9753551D02*
Y9601200D01*
X5519395D01*
X5544787Y9626592D01*
Y9728159D01*
X5519395Y9753551D01*
X5443220D01*
X5697138D02*
X5646354Y9728159D01*
X5595571Y9677375D01*
Y9626592D01*
X5620963Y9601200D01*
X5671746D01*
X5697138Y9626592D01*
Y9651983D01*
X5671746Y9677375D01*
X5595571D01*
X4429760Y9778951D02*
Y9626600D01*
X4505935D01*
X4531327Y9651992D01*
Y9753559D01*
X4505935Y9778951D01*
X4429760D01*
X4683678D02*
X4582111D01*
Y9702775D01*
X4632894Y9728167D01*
X4658286D01*
X4683678Y9702775D01*
Y9651992D01*
X4658286Y9626600D01*
X4607503D01*
X4582111Y9651992D01*
X3914140Y9608771D02*
Y9456420D01*
X3990315D01*
X4015707Y9481812D01*
Y9583379D01*
X3990315Y9608771D01*
X3914140D01*
X4142666Y9456420D02*
Y9608771D01*
X4066491Y9532595D01*
X4168058D01*
X4127541Y8026375D02*
Y7874025D01*
X4203717D01*
X4229108Y7899417D01*
Y8000983D01*
X4203717Y8026375D01*
X4127541D01*
X4279892Y8000983D02*
X4305284Y8026375D01*
X4356067D01*
X4381459Y8000983D01*
Y7975592D01*
X4356067Y7950200D01*
X4330675D01*
X4356067D01*
X4381459Y7924808D01*
Y7899417D01*
X4356067Y7874025D01*
X4305284D01*
X4279892Y7899417D01*
X13855725Y3594141D02*
X14008075D01*
Y3670317D01*
X13982683Y3695708D01*
X13881117D01*
X13855725Y3670317D01*
Y3594141D01*
X14008075Y3848059D02*
Y3746492D01*
X13906508Y3848059D01*
X13881117D01*
X13855725Y3822667D01*
Y3771884D01*
X13881117Y3746492D01*
X16916434Y4127475D02*
Y3975125D01*
X16992609D01*
X17017999Y4000517D01*
Y4102083D01*
X16992609Y4127475D01*
X16916434D01*
X17068784Y3975125D02*
X17119566D01*
X17094176D01*
Y4127475D01*
X17068784Y4102083D01*
X5346667Y3314715D02*
X5372058Y3289324D01*
X5422842Y3289323D01*
X5448234Y3314715D01*
X5448235Y3416282D01*
X5422843Y3441674D01*
X5372060Y3441674D01*
X5346667Y3416282D01*
X5219709Y3441676D02*
X5219708Y3289325D01*
X5295883Y3365499D01*
X5194316Y3365500D01*
X5143532Y3289325D02*
X5041965Y3289326D01*
X5041965Y3314718D01*
X5143533Y3416284D01*
X5143534Y3441676D01*
X7188225Y5143483D02*
X7162833Y5168875D01*
X7112050D01*
X7086658Y5143483D01*
Y5041917D01*
X7112050Y5016525D01*
X7162833D01*
X7188225Y5041917D01*
X7315184Y5016525D02*
Y5168875D01*
X7239008Y5092700D01*
X7340576D01*
X7391359Y5016525D02*
X7442143D01*
X7416751D01*
Y5168875D01*
X7391359Y5143483D01*
X16002017Y5207033D02*
X15976625Y5181641D01*
Y5130858D01*
X16002017Y5105466D01*
X16103583D01*
X16128975Y5130858D01*
Y5181641D01*
X16103583Y5207033D01*
X16002017Y5257817D02*
X15976625Y5283208D01*
Y5333992D01*
X16002017Y5359384D01*
X16027408D01*
X16052800Y5333992D01*
Y5308600D01*
Y5333992D01*
X16078192Y5359384D01*
X16103583D01*
X16128975Y5333992D01*
Y5283208D01*
X16103583Y5257817D01*
X16128975Y5486343D02*
X15976625D01*
X16052800Y5410167D01*
Y5511734D01*
X15760716Y5334033D02*
X15735326Y5308641D01*
Y5257858D01*
X15760716Y5232466D01*
X15862283D01*
X15887675Y5257858D01*
Y5308641D01*
X15862283Y5334033D01*
X15760716Y5384817D02*
X15735326Y5410208D01*
Y5460992D01*
X15760716Y5486384D01*
X15786108D01*
X15811501Y5460992D01*
Y5435600D01*
Y5460992D01*
X15836893Y5486384D01*
X15862283D01*
X15887675Y5460992D01*
Y5410208D01*
X15862283Y5384817D01*
X15760716Y5537167D02*
X15735326Y5562559D01*
Y5613343D01*
X15760716Y5638734D01*
X15786108D01*
X15811501Y5613343D01*
Y5587951D01*
Y5613343D01*
X15836893Y5638734D01*
X15862283D01*
X15887675Y5613343D01*
Y5562559D01*
X15862283Y5537167D01*
X15875034Y4356083D02*
X15849641Y4381475D01*
X15798859D01*
X15773466Y4356083D01*
Y4254517D01*
X15798859Y4229125D01*
X15849641D01*
X15875034Y4254517D01*
X15925816Y4356083D02*
X15951208Y4381475D01*
X16001991D01*
X16027383Y4356083D01*
Y4330692D01*
X16001991Y4305300D01*
X15976601D01*
X16001991D01*
X16027383Y4279908D01*
Y4254517D01*
X16001991Y4229125D01*
X15951208D01*
X15925816Y4254517D01*
X16179733Y4229125D02*
X16078168D01*
X16179733Y4330692D01*
Y4356083D01*
X16154343Y4381475D01*
X16103558D01*
X16078168Y4356083D01*
X15087625Y4571983D02*
X15062233Y4597375D01*
X15011450D01*
X14986058Y4571983D01*
Y4470417D01*
X15011450Y4445025D01*
X15062233D01*
X15087625Y4470417D01*
X15138408Y4571983D02*
X15163800Y4597375D01*
X15214584D01*
X15239977Y4571983D01*
Y4546592D01*
X15214584Y4521200D01*
X15189192D01*
X15214584D01*
X15239977Y4495808D01*
Y4470417D01*
X15214584Y4445025D01*
X15163800D01*
X15138408Y4470417D01*
X15290759Y4445025D02*
X15341544D01*
X15316151D01*
Y4597375D01*
X15290759Y4571983D01*
X15865633Y6172183D02*
X15840240Y6197575D01*
X15789458D01*
X15764066Y6172183D01*
Y6070617D01*
X15789458Y6045225D01*
X15840240D01*
X15865633Y6070617D01*
X15916415Y6172183D02*
X15941808Y6197575D01*
X15992592D01*
X16017984Y6172183D01*
Y6146792D01*
X15992592Y6121400D01*
X15967200D01*
X15992592D01*
X16017984Y6096008D01*
Y6070617D01*
X15992592Y6045225D01*
X15941808D01*
X15916415Y6070617D01*
X16068767Y6172183D02*
X16094159Y6197575D01*
X16144943D01*
X16170334Y6172183D01*
Y6070617D01*
X16144943Y6045225D01*
X16094159D01*
X16068767Y6070617D01*
Y6172183D01*
X15875034Y6375383D02*
X15849641Y6400775D01*
X15798859D01*
X15773466Y6375383D01*
Y6273817D01*
X15798859Y6248425D01*
X15849641D01*
X15875034Y6273817D01*
X16027383Y6248425D02*
X15925816D01*
X16027383Y6349992D01*
Y6375383D01*
X16001991Y6400775D01*
X15951208D01*
X15925816Y6375383D01*
X16078168Y6273817D02*
X16103558Y6248425D01*
X16154343D01*
X16179733Y6273817D01*
Y6375383D01*
X16154343Y6400775D01*
X16103558D01*
X16078168Y6375383D01*
Y6349992D01*
X16103558Y6324600D01*
X16179733D01*
X15862334Y6934183D02*
X15836942Y6959575D01*
X15786159D01*
X15760767Y6934183D01*
Y6832617D01*
X15786159Y6807225D01*
X15836942D01*
X15862334Y6832617D01*
X16014684Y6807225D02*
X15913116D01*
X16014684Y6908792D01*
Y6934183D01*
X15989291Y6959575D01*
X15938509D01*
X15913116Y6934183D01*
X16065466D02*
X16090858Y6959575D01*
X16141643D01*
X16167033Y6934183D01*
Y6908792D01*
X16141643Y6883400D01*
X16167033Y6858008D01*
Y6832617D01*
X16141643Y6807225D01*
X16090858D01*
X16065466Y6832617D01*
Y6858008D01*
X16090858Y6883400D01*
X16065466Y6908792D01*
Y6934183D01*
X16090858Y6883400D02*
X16141643D01*
X13423866Y5765816D02*
X13449258Y5740424D01*
X13500043D01*
X13525433Y5765816D01*
Y5867383D01*
X13500043Y5892775D01*
X13449258D01*
X13423866Y5867383D01*
X13271516Y5892775D02*
X13373083D01*
X13271516Y5791208D01*
Y5765816D01*
X13296909Y5740424D01*
X13347691D01*
X13373083Y5765816D01*
X13220734Y5740424D02*
X13119167D01*
Y5765816D01*
X13220734Y5867383D01*
Y5892775D01*
X13271468Y5537216D02*
X13296860Y5511824D01*
X13347643D01*
X13373035Y5537216D01*
Y5638783D01*
X13347643Y5664175D01*
X13296860D01*
X13271468Y5638783D01*
X13119116Y5664175D02*
X13220683D01*
X13119116Y5562608D01*
Y5537216D01*
X13144508Y5511824D01*
X13195293D01*
X13220683Y5537216D01*
X12966766Y5511824D02*
X13017549Y5537216D01*
X13068333Y5587999D01*
Y5638783D01*
X13042941Y5664175D01*
X12992157D01*
X12966766Y5638783D01*
Y5613391D01*
X12992157Y5587999D01*
X13068333D01*
X14389117Y5613433D02*
X14363725Y5588041D01*
Y5537258D01*
X14389117Y5511866D01*
X14490683D01*
X14516075Y5537258D01*
Y5588041D01*
X14490683Y5613433D01*
X14516075Y5765784D02*
Y5664217D01*
X14414508Y5765784D01*
X14389117D01*
X14363725Y5740392D01*
Y5689608D01*
X14389117Y5664217D01*
X14363725Y5918134D02*
Y5816567D01*
X14439900D01*
X14414508Y5867351D01*
Y5892743D01*
X14439900Y5918134D01*
X14490683D01*
X14516075Y5892743D01*
Y5841959D01*
X14490683Y5816567D01*
X14147816Y4705033D02*
X14122424Y4679641D01*
Y4628857D01*
X14147816Y4603466D01*
X14249384D01*
X14274776Y4628857D01*
Y4679641D01*
X14249384Y4705033D01*
X14274776Y4857383D02*
Y4755816D01*
X14173209Y4857383D01*
X14147816D01*
X14122424Y4831992D01*
Y4781208D01*
X14147816Y4755816D01*
X14274776Y4984342D02*
X14122424D01*
X14198599Y4908167D01*
Y5009734D01*
X14274767Y4206416D02*
X14300159Y4181024D01*
X14350941D01*
X14376334Y4206416D01*
Y4307983D01*
X14350941Y4333375D01*
X14300159D01*
X14274767Y4307983D01*
X14122417Y4333375D02*
X14223982D01*
X14122417Y4231808D01*
Y4206416D01*
X14147807Y4181024D01*
X14198592D01*
X14223982Y4206416D01*
X14071632D02*
X14046242Y4181024D01*
X13995457D01*
X13970065Y4206416D01*
Y4231808D01*
X13995457Y4257200D01*
X14020850D01*
X13995457D01*
X13970065Y4282591D01*
Y4307983D01*
X13995457Y4333375D01*
X14046242D01*
X14071632Y4307983D01*
X14135068Y3977816D02*
X14160458Y3952424D01*
X14211243D01*
X14236633Y3977816D01*
Y4079383D01*
X14211243Y4104775D01*
X14160458D01*
X14135068Y4079383D01*
X13982716Y4104775D02*
X14084283D01*
X13982716Y4003208D01*
Y3977816D01*
X14008109Y3952424D01*
X14058891D01*
X14084283Y3977816D01*
X13830367Y4104775D02*
X13931934D01*
X13830367Y4003208D01*
Y3977816D01*
X13855757Y3952424D01*
X13906541D01*
X13931934Y3977816D01*
X15214616Y3416325D02*
X15189224Y3390933D01*
Y3340150D01*
X15214616Y3314758D01*
X15316183D01*
X15341576Y3340150D01*
Y3390933D01*
X15316183Y3416325D01*
X15341576Y3568676D02*
Y3467108D01*
X15240009Y3568676D01*
X15214616D01*
X15189224Y3543284D01*
Y3492500D01*
X15214616Y3467108D01*
X15341576Y3619459D02*
Y3670243D01*
Y3644851D01*
X15189224D01*
X15214616Y3619459D01*
X14960616Y3162333D02*
X14935223Y3136941D01*
Y3086157D01*
X14960616Y3060766D01*
X15062183D01*
X15087575Y3086157D01*
Y3136941D01*
X15062183Y3162333D01*
X15087575Y3314683D02*
Y3213116D01*
X14986008Y3314683D01*
X14960616D01*
X14935223Y3289292D01*
Y3238508D01*
X14960616Y3213116D01*
Y3365467D02*
X14935223Y3390859D01*
Y3441642D01*
X14960616Y3467034D01*
X15062183D01*
X15087575Y3441642D01*
Y3390859D01*
X15062183Y3365467D01*
X14960616D01*
X16789429Y4444983D02*
X16764037Y4470375D01*
X16713254D01*
X16687862Y4444983D01*
Y4343417D01*
X16713254Y4318025D01*
X16764037D01*
X16789429Y4343417D01*
X16840211Y4318025D02*
X16890996D01*
X16865604D01*
Y4470375D01*
X16840211Y4444983D01*
X16967171Y4343417D02*
X16992563Y4318025D01*
X17043347D01*
X17068739Y4343417D01*
Y4444983D01*
X17043347Y4470375D01*
X16992563D01*
X16967171Y4444983D01*
Y4419592D01*
X16992563Y4394200D01*
X17068739D01*
D68*
X16967033Y3564188D02*
D03*
%TF.MD5,5372dab3e76b800abf9a8bed8091526f*%
M02*
