%TF.GenerationSoftware,Altium Limited,Altium Designer,24.1.2 (44)*%
G04 Layer_Color=32768*
%FSLAX45Y45*%
%MOMM*%
%TF.SameCoordinates,57B3B6A3-E825-4013-9261-08072AB09D51*%
%TF.FilePolarity,Positive*%
%TF.FileFunction,Other,Bottom_3D_Body*%
%TF.Part,Single*%
G01*
G75*
%TA.AperFunction,NonConductor*%
%ADD64C,0.20000*%
%ADD88C,0.10000*%
D64*
X8484600Y7733406D02*
Y7933406D01*
Y7733406D02*
X8609600D01*
Y7933406D01*
X8484600D02*
X8609600D01*
X8784600Y7804400D02*
Y7867400D01*
Y7804400D02*
X8817600D01*
Y7867400D01*
X8784600D02*
X8817600D01*
X8241300Y7126300D02*
Y7326300D01*
X8116300D02*
X8241300D01*
X8116300Y7126300D02*
Y7326300D01*
Y7126300D02*
X8241300D01*
X7928600Y7194800D02*
Y7257800D01*
X7895600D02*
X7928600D01*
X7895600Y7194800D02*
Y7257800D01*
Y7194800D02*
X7928600D01*
X8007900Y6561100D02*
Y6731100D01*
X7917900D02*
X8007900D01*
X7917900Y6561100D02*
Y6731100D01*
Y6561100D02*
X8007900D01*
X8622300Y6646194D02*
Y6846194D01*
X8497300D02*
X8622300D01*
X8497300Y6646194D02*
Y6846194D01*
Y6646194D02*
X8622300D01*
X9390900Y7052600D02*
Y7167600D01*
Y7052600D02*
X9455900D01*
Y7167600D01*
X9390900D02*
X9455900D01*
X9414500Y7247250D02*
Y7310250D01*
X9381500D02*
X9414500D01*
X9381500Y7247250D02*
Y7310250D01*
Y7247250D02*
X9414500D01*
X9274800Y7245600D02*
Y7308600D01*
X9241800D02*
X9274800D01*
X9241800Y7245600D02*
Y7308600D01*
Y7245600D02*
X9274800D01*
X9135100D02*
Y7308600D01*
X9102100D02*
X9135100D01*
X9102100Y7245600D02*
Y7308600D01*
Y7245600D02*
X9135100D01*
X9102100Y7091550D02*
Y7154550D01*
Y7091550D02*
X9135100D01*
Y7154550D01*
X9102100D02*
X9135100D01*
X9241800Y7094850D02*
Y7157850D01*
Y7094850D02*
X9274800D01*
Y7157850D01*
X9241800D02*
X9274800D01*
X9403800Y7979500D02*
Y8149500D01*
Y7979500D02*
X9493800D01*
Y8149500D01*
X9403800D02*
X9493800D01*
X7167100Y5177900D02*
X7387100D01*
X7167100Y5032900D02*
Y5177900D01*
Y5032900D02*
X7387100D01*
Y5177900D01*
X7271000Y4029700D02*
X7334000D01*
X7271000Y3996700D02*
Y4029700D01*
Y3996700D02*
X7334000D01*
Y4029700D01*
X7269350Y4436100D02*
X7332350D01*
X7269350Y4403100D02*
Y4436100D01*
Y4403100D02*
X7332350D01*
Y4436100D01*
X7269350Y4626600D02*
X7332350D01*
X7269350Y4593600D02*
Y4626600D01*
Y4593600D02*
X7332350D01*
Y4626600D01*
X7269350Y4791700D02*
X7332350D01*
X7269350Y4758700D02*
Y4791700D01*
Y4758700D02*
X7332350D01*
Y4791700D01*
X7269350Y4232900D02*
X7332350D01*
X7269350Y4199900D02*
Y4232900D01*
Y4199900D02*
X7332350D01*
Y4232900D01*
X6646200Y3842500D02*
X6761200D01*
X6646200Y3777500D02*
Y3842500D01*
Y3777500D02*
X6761200D01*
Y3842500D01*
X6646200Y4033000D02*
X6761200D01*
X6646200Y3968000D02*
Y4033000D01*
Y3968000D02*
X6761200D01*
Y4033000D01*
X5048500Y4415800D02*
X5111500D01*
Y4448800D01*
X5048500D02*
X5111500D01*
X5048500Y4415800D02*
Y4448800D01*
X5647700Y4400800D02*
Y4463800D01*
Y4400800D02*
X5680700D01*
Y4463800D01*
X5647700D02*
X5680700D01*
X13823100Y7318900D02*
Y7463900D01*
X14043100D01*
Y7318900D02*
Y7463900D01*
X13823100Y7318900D02*
X14043100D01*
X14079350Y7997200D02*
Y8030200D01*
X14016350Y7997200D02*
X14079350D01*
X14016350D02*
Y8030200D01*
X14079350D01*
Y7857500D02*
Y7890500D01*
X14016350Y7857500D02*
X14079350D01*
X14016350D02*
Y7890500D01*
X14079350D01*
X14206850Y7184400D02*
Y7217400D01*
X14269850D01*
Y7184400D02*
Y7217400D01*
X14206850Y7184400D02*
X14269850D01*
X14232899Y7332850D02*
X14265900D01*
X14232899D02*
Y7395850D01*
X14265900D01*
Y7332850D02*
Y7395850D01*
D88*
X6300000Y5002700D02*
Y5182700D01*
X6400000Y5002700D02*
Y5182700D01*
X6300000D02*
X6400000D01*
X6300000Y5002700D02*
X6400000D01*
X6147600Y4999200D02*
Y5179200D01*
X6247600Y4999200D02*
Y5179200D01*
X6147600D02*
X6247600D01*
X6147600Y4999200D02*
X6247600D01*
X5995200D02*
Y5179200D01*
X6095200Y4999200D02*
Y5179200D01*
X5995200D02*
X6095200D01*
X5995200Y4999200D02*
X6095200D01*
X5842800D02*
Y5179200D01*
X5942800Y4999200D02*
Y5179200D01*
X5842800D02*
X5942800D01*
X5842800Y4999200D02*
X5942800D01*
X5004600Y4596300D02*
Y4776300D01*
X5104600Y4596300D02*
Y4776300D01*
X5004600D02*
X5104600D01*
X5004600Y4596300D02*
X5104600D01*
X5104600Y4084800D02*
Y4264800D01*
X5004600Y4084800D02*
Y4264800D01*
Y4084800D02*
X5104600D01*
X5004600Y4264800D02*
X5104600D01*
X14434900Y7603300D02*
X14644901D01*
X14434900Y7738300D02*
X14644901D01*
X14434900Y7603300D02*
Y7738300D01*
X14644901Y7603300D02*
Y7738300D01*
%TF.MD5,266cbab66de94a214e9f7b3d0915a6b8*%
M02*
