G04*
G04 #@! TF.GenerationSoftware,Altium Limited,Altium Designer,24.1.2 (44)*
G04*
G04 Layer_Color=32896*
%FSLAX44Y44*%
%MOMM*%
G71*
G04*
G04 #@! TF.SameCoordinates,0A8073CA-4D69-4BD4-B8E1-8B9189CEBFBB*
G04*
G04*
G04 #@! TF.FilePolarity,Positive*
G04*
G01*
G75*
%ADD14C,0.2000*%
G36*
X851686Y783324D02*
X852011Y783291D01*
X852152Y783266D01*
X852294Y783232D01*
X852427Y783207D01*
X852552Y783174D01*
X852669Y783141D01*
X852769Y783116D01*
X852852Y783083D01*
X852927Y783057D01*
X852986Y783041D01*
X853036Y783024D01*
X853061Y783008D01*
X853069D01*
X853211Y782941D01*
X853352Y782866D01*
X853477Y782791D01*
X853594Y782708D01*
X853710Y782624D01*
X853810Y782541D01*
X853902Y782466D01*
X853977Y782383D01*
X854052Y782308D01*
X854119Y782241D01*
X854168Y782174D01*
X854210Y782124D01*
X854252Y782074D01*
X854277Y782041D01*
X854285Y782024D01*
X854294Y782016D01*
X854369Y781891D01*
X854427Y781758D01*
X854485Y781616D01*
X854535Y781475D01*
X854610Y781191D01*
X854660Y780925D01*
X854677Y780800D01*
X854685Y780691D01*
X854693Y780583D01*
X854702Y780500D01*
X854710Y780425D01*
Y780325D01*
X854702Y780142D01*
X854685Y779967D01*
X854660Y779800D01*
X854627Y779642D01*
X854585Y779492D01*
X854535Y779350D01*
X854493Y779225D01*
X854435Y779100D01*
X854385Y779000D01*
X854343Y778909D01*
X854294Y778825D01*
X854252Y778759D01*
X854219Y778700D01*
X854193Y778667D01*
X854177Y778642D01*
X854168Y778634D01*
X854060Y778509D01*
X853944Y778392D01*
X853819Y778284D01*
X853685Y778192D01*
X853552Y778100D01*
X853427Y778025D01*
X853294Y777951D01*
X853169Y777892D01*
X853044Y777834D01*
X852935Y777792D01*
X852836Y777750D01*
X852752Y777717D01*
X852677Y777701D01*
X852619Y777684D01*
X852586Y777667D01*
X852577D01*
X852361Y778517D01*
X852511Y778559D01*
X852644Y778600D01*
X852769Y778650D01*
X852894Y778700D01*
X853002Y778759D01*
X853102Y778809D01*
X853194Y778867D01*
X853269Y778925D01*
X853344Y778975D01*
X853402Y779025D01*
X853460Y779075D01*
X853502Y779109D01*
X853535Y779142D01*
X853560Y779167D01*
X853569Y779184D01*
X853577Y779192D01*
X853652Y779284D01*
X853710Y779383D01*
X853769Y779483D01*
X853810Y779592D01*
X853885Y779792D01*
X853935Y779983D01*
X853952Y780067D01*
X853960Y780150D01*
X853969Y780217D01*
X853977Y780283D01*
X853985Y780333D01*
Y780400D01*
X853969Y780616D01*
X853935Y780816D01*
X853894Y781000D01*
X853835Y781166D01*
X853777Y781300D01*
X853752Y781358D01*
X853735Y781400D01*
X853710Y781441D01*
X853702Y781466D01*
X853685Y781483D01*
Y781491D01*
X853560Y781666D01*
X853419Y781816D01*
X853269Y781941D01*
X853119Y782049D01*
X852986Y782133D01*
X852927Y782158D01*
X852877Y782183D01*
X852836Y782208D01*
X852802Y782224D01*
X852786Y782233D01*
X852777D01*
X852544Y782308D01*
X852294Y782366D01*
X852061Y782408D01*
X851836Y782433D01*
X851736Y782449D01*
X851644D01*
X851561Y782458D01*
X851486Y782466D01*
X851428D01*
X851386D01*
X851361D01*
X851353D01*
X851119Y782458D01*
X850894Y782433D01*
X850686Y782399D01*
X850495Y782366D01*
X850419Y782349D01*
X850344Y782333D01*
X850278Y782316D01*
X850220Y782299D01*
X850178Y782283D01*
X850145Y782274D01*
X850128Y782266D01*
X850120D01*
X849903Y782183D01*
X849720Y782074D01*
X849553Y781958D01*
X849420Y781841D01*
X849312Y781741D01*
X849237Y781658D01*
X849203Y781625D01*
X849186Y781600D01*
X849170Y781583D01*
Y781574D01*
X849103Y781475D01*
X849053Y781375D01*
X848961Y781166D01*
X848895Y780958D01*
X848853Y780766D01*
X848845Y780675D01*
X848828Y780592D01*
X848820Y780517D01*
Y780458D01*
X848812Y780408D01*
Y780333D01*
X848828Y780100D01*
X848862Y779892D01*
X848912Y779708D01*
X848970Y779550D01*
X849036Y779425D01*
X849062Y779375D01*
X849087Y779333D01*
X849103Y779300D01*
X849120Y779275D01*
X849137Y779267D01*
Y779258D01*
X849203Y779184D01*
X849270Y779109D01*
X849428Y778975D01*
X849595Y778867D01*
X849761Y778775D01*
X849911Y778700D01*
X849978Y778675D01*
X850036Y778650D01*
X850086Y778634D01*
X850120Y778617D01*
X850145Y778609D01*
X850153D01*
X849953Y777775D01*
X849795Y777825D01*
X849636Y777892D01*
X849495Y777959D01*
X849361Y778034D01*
X849245Y778109D01*
X849128Y778184D01*
X849028Y778259D01*
X848937Y778334D01*
X848853Y778409D01*
X848778Y778475D01*
X848720Y778542D01*
X848670Y778592D01*
X848628Y778634D01*
X848603Y778675D01*
X848587Y778692D01*
X848578Y778700D01*
X848495Y778825D01*
X848412Y778959D01*
X848353Y779092D01*
X848295Y779225D01*
X848245Y779367D01*
X848203Y779500D01*
X848145Y779750D01*
X848128Y779867D01*
X848112Y779975D01*
X848103Y780075D01*
X848095Y780158D01*
X848087Y780225D01*
Y780475D01*
X848103Y780625D01*
X848145Y780916D01*
X848212Y781183D01*
X848245Y781300D01*
X848278Y781416D01*
X848320Y781516D01*
X848353Y781608D01*
X848387Y781683D01*
X848420Y781749D01*
X848445Y781799D01*
X848462Y781841D01*
X848470Y781866D01*
X848478Y781874D01*
X848553Y781999D01*
X848637Y782124D01*
X848820Y782341D01*
X849003Y782533D01*
X849186Y782683D01*
X849278Y782749D01*
X849353Y782808D01*
X849428Y782858D01*
X849486Y782891D01*
X849536Y782924D01*
X849578Y782949D01*
X849603Y782958D01*
X849611Y782966D01*
X849753Y783033D01*
X849903Y783091D01*
X850195Y783183D01*
X850486Y783249D01*
X850628Y783274D01*
X850761Y783291D01*
X850886Y783307D01*
X850994Y783324D01*
X851094Y783332D01*
X851186D01*
X851253Y783341D01*
X851311D01*
X851344D01*
X851353D01*
X851686Y783324D01*
D02*
G37*
G36*
X850486Y776201D02*
X850419Y776059D01*
X850353Y775918D01*
X850286Y775793D01*
X850228Y775684D01*
X850178Y775593D01*
X850161Y775559D01*
X850145Y775534D01*
X850136Y775526D01*
Y775518D01*
X850036Y775351D01*
X849936Y775210D01*
X849845Y775076D01*
X849761Y774968D01*
X849695Y774885D01*
X849636Y774818D01*
X849603Y774785D01*
X849595Y774768D01*
X854602D01*
Y773985D01*
X848170D01*
Y774493D01*
X848328Y774585D01*
X848478Y774693D01*
X848628Y774810D01*
X848753Y774918D01*
X848870Y775026D01*
X848953Y775109D01*
X848987Y775143D01*
X849012Y775168D01*
X849020Y775184D01*
X849028Y775193D01*
X849186Y775385D01*
X849328Y775576D01*
X849461Y775776D01*
X849570Y775951D01*
X849653Y776109D01*
X849695Y776176D01*
X849720Y776234D01*
X849745Y776276D01*
X849761Y776309D01*
X849778Y776334D01*
Y776342D01*
X850545D01*
X850486Y776201D01*
D02*
G37*
G36*
X851769Y771960D02*
X852077Y771944D01*
X852352Y771910D01*
X852611Y771869D01*
X852852Y771827D01*
X853061Y771769D01*
X853252Y771710D01*
X853427Y771652D01*
X853577Y771594D01*
X853702Y771544D01*
X853810Y771486D01*
X853902Y771444D01*
X853969Y771402D01*
X854010Y771369D01*
X854044Y771352D01*
X854052Y771344D01*
X854168Y771236D01*
X854268Y771127D01*
X854360Y771011D01*
X854435Y770894D01*
X854493Y770769D01*
X854552Y770644D01*
X854593Y770527D01*
X854627Y770411D01*
X854652Y770302D01*
X854677Y770202D01*
X854693Y770119D01*
X854702Y770036D01*
Y769977D01*
X854710Y769928D01*
Y769886D01*
X854702Y769761D01*
X854693Y769636D01*
X854652Y769411D01*
X854593Y769211D01*
X854519Y769044D01*
X854485Y768969D01*
X854452Y768911D01*
X854418Y768853D01*
X854393Y768811D01*
X854369Y768778D01*
X854352Y768745D01*
X854335Y768736D01*
Y768728D01*
X854185Y768561D01*
X854010Y768420D01*
X853835Y768303D01*
X853660Y768203D01*
X853510Y768128D01*
X853444Y768095D01*
X853385Y768070D01*
X853335Y768053D01*
X853302Y768036D01*
X853277Y768028D01*
X853269D01*
X853136Y767986D01*
X852994Y767953D01*
X852694Y767895D01*
X852386Y767853D01*
X852094Y767820D01*
X851961Y767811D01*
X851836Y767803D01*
X851728D01*
X851636Y767795D01*
X851553D01*
X851494D01*
X851461D01*
X851444D01*
X851269D01*
X851103Y767803D01*
X850953Y767811D01*
X850811Y767820D01*
X850669Y767828D01*
X850553Y767845D01*
X850436Y767853D01*
X850336Y767870D01*
X850245Y767886D01*
X850161Y767895D01*
X850095Y767911D01*
X850036Y767920D01*
X849995Y767928D01*
X849961Y767936D01*
X849945Y767945D01*
X849936D01*
X849736Y768003D01*
X849545Y768061D01*
X849386Y768128D01*
X849245Y768195D01*
X849128Y768253D01*
X849045Y768295D01*
X849020Y768311D01*
X848995Y768328D01*
X848987Y768336D01*
X848978D01*
X848837Y768436D01*
X848720Y768544D01*
X848620Y768653D01*
X848528Y768753D01*
X848462Y768845D01*
X848420Y768911D01*
X848387Y768961D01*
X848378Y768969D01*
Y768978D01*
X848312Y769128D01*
X848262Y769286D01*
X848220Y769436D01*
X848195Y769578D01*
X848178Y769703D01*
Y769753D01*
X848170Y769802D01*
Y770011D01*
X848187Y770136D01*
X848228Y770361D01*
X848287Y770561D01*
X848353Y770727D01*
X848395Y770802D01*
X848428Y770861D01*
X848462Y770919D01*
X848487Y770961D01*
X848512Y770994D01*
X848528Y771019D01*
X848537Y771036D01*
X848545Y771044D01*
X848695Y771202D01*
X848870Y771344D01*
X849053Y771460D01*
X849220Y771560D01*
X849378Y771635D01*
X849445Y771669D01*
X849503Y771694D01*
X849553Y771710D01*
X849586Y771727D01*
X849611Y771735D01*
X849620D01*
X849753Y771777D01*
X849895Y771810D01*
X850195Y771869D01*
X850503Y771910D01*
X850794Y771935D01*
X850928Y771952D01*
X851053D01*
X851161Y771960D01*
X851253Y771969D01*
X851336D01*
X851394D01*
X851428D01*
X851444D01*
X851769Y771960D01*
D02*
G37*
G36*
X820029Y733219D02*
X820229Y733186D01*
X820404Y733136D01*
X820554Y733085D01*
X820671Y733027D01*
X820721Y733002D01*
X820762Y732977D01*
X820796Y732952D01*
X820821Y732944D01*
X820829Y732927D01*
X820837D01*
X820987Y732802D01*
X821112Y732661D01*
X821221Y732511D01*
X821304Y732361D01*
X821371Y732227D01*
X821396Y732177D01*
X821421Y732127D01*
X821437Y732086D01*
X821446Y732052D01*
X821454Y732036D01*
Y732027D01*
X821529Y732194D01*
X821612Y732336D01*
X821696Y732461D01*
X821779Y732561D01*
X821854Y732636D01*
X821912Y732694D01*
X821945Y732727D01*
X821962Y732736D01*
X822095Y732819D01*
X822229Y732877D01*
X822354Y732919D01*
X822479Y732944D01*
X822587Y732969D01*
X822670Y732977D01*
X822704D01*
X822729D01*
X822737D01*
X822745D01*
X822870Y732969D01*
X822995Y732952D01*
X823112Y732927D01*
X823229Y732894D01*
X823428Y732811D01*
X823603Y732719D01*
X823670Y732669D01*
X823737Y732627D01*
X823795Y732577D01*
X823845Y732544D01*
X823878Y732511D01*
X823903Y732486D01*
X823920Y732469D01*
X823928Y732461D01*
X824012Y732361D01*
X824095Y732261D01*
X824153Y732144D01*
X824212Y732036D01*
X824262Y731919D01*
X824303Y731811D01*
X824361Y731594D01*
X824378Y731494D01*
X824395Y731403D01*
X824403Y731319D01*
X824411Y731253D01*
X824420Y731194D01*
Y731111D01*
X824411Y730961D01*
X824403Y730811D01*
X824378Y730678D01*
X824345Y730553D01*
X824312Y730436D01*
X824270Y730320D01*
X824220Y730219D01*
X824178Y730136D01*
X824137Y730053D01*
X824087Y729978D01*
X824045Y729920D01*
X824012Y729870D01*
X823978Y729828D01*
X823962Y729803D01*
X823945Y729786D01*
X823937Y729778D01*
X823845Y729686D01*
X823753Y729611D01*
X823653Y729545D01*
X823553Y729486D01*
X823453Y729445D01*
X823354Y729403D01*
X823170Y729345D01*
X823012Y729303D01*
X822937Y729295D01*
X822879Y729286D01*
X822829Y729278D01*
X822795D01*
X822770D01*
X822762D01*
X822595Y729286D01*
X822445Y729311D01*
X822312Y729353D01*
X822195Y729395D01*
X822104Y729436D01*
X822029Y729478D01*
X821987Y729503D01*
X821971Y729511D01*
X821854Y729611D01*
X821746Y729720D01*
X821662Y729845D01*
X821587Y729961D01*
X821529Y730070D01*
X821487Y730153D01*
X821471Y730186D01*
X821462Y730211D01*
X821454Y730228D01*
Y730236D01*
X821387Y730028D01*
X821304Y729853D01*
X821204Y729695D01*
X821112Y729570D01*
X821021Y729470D01*
X820946Y729395D01*
X820896Y729353D01*
X820887Y729336D01*
X820879D01*
X820713Y729228D01*
X820537Y729153D01*
X820371Y729095D01*
X820204Y729062D01*
X820054Y729036D01*
X819996Y729028D01*
X819946D01*
X819896Y729020D01*
X819863D01*
X819846D01*
X819838D01*
X819688Y729028D01*
X819538Y729045D01*
X819396Y729070D01*
X819263Y729111D01*
X819138Y729153D01*
X819021Y729203D01*
X818921Y729253D01*
X818821Y729311D01*
X818738Y729361D01*
X818663Y729411D01*
X818596Y729461D01*
X818538Y729503D01*
X818496Y729545D01*
X818463Y729570D01*
X818446Y729586D01*
X818438Y729595D01*
X818338Y729711D01*
X818255Y729828D01*
X818180Y729953D01*
X818113Y730078D01*
X818063Y730211D01*
X818013Y730336D01*
X817946Y730578D01*
X817930Y730694D01*
X817913Y730794D01*
X817896Y730886D01*
X817888Y730969D01*
X817880Y731036D01*
Y731128D01*
X817888Y731303D01*
X817905Y731461D01*
X817930Y731619D01*
X817971Y731761D01*
X818013Y731902D01*
X818055Y732027D01*
X818105Y732136D01*
X818163Y732244D01*
X818213Y732336D01*
X818263Y732419D01*
X818305Y732486D01*
X818355Y732544D01*
X818388Y732594D01*
X818413Y732627D01*
X818430Y732644D01*
X818438Y732652D01*
X818546Y732752D01*
X818655Y732844D01*
X818771Y732919D01*
X818888Y732994D01*
X819005Y733044D01*
X819121Y733094D01*
X819230Y733136D01*
X819338Y733160D01*
X819438Y733186D01*
X819521Y733202D01*
X819604Y733219D01*
X819679Y733227D01*
X819738Y733235D01*
X819779D01*
X819804D01*
X819813D01*
X820029Y733219D01*
D02*
G37*
G36*
X820229Y727454D02*
X820079Y727412D01*
X819946Y727370D01*
X819821Y727320D01*
X819696Y727270D01*
X819588Y727212D01*
X819488Y727162D01*
X819396Y727104D01*
X819321Y727045D01*
X819246Y726995D01*
X819188Y726945D01*
X819130Y726895D01*
X819088Y726862D01*
X819055Y726829D01*
X819030Y726804D01*
X819021Y726787D01*
X819013Y726779D01*
X818938Y726687D01*
X818880Y726587D01*
X818821Y726487D01*
X818780Y726379D01*
X818705Y726179D01*
X818655Y725987D01*
X818638Y725904D01*
X818630Y725821D01*
X818621Y725754D01*
X818613Y725687D01*
X818605Y725637D01*
Y725571D01*
X818621Y725354D01*
X818655Y725154D01*
X818696Y724971D01*
X818755Y724804D01*
X818813Y724671D01*
X818838Y724613D01*
X818855Y724571D01*
X818880Y724529D01*
X818888Y724504D01*
X818905Y724488D01*
Y724479D01*
X819030Y724304D01*
X819171Y724154D01*
X819321Y724029D01*
X819471Y723921D01*
X819604Y723838D01*
X819663Y723813D01*
X819713Y723788D01*
X819754Y723763D01*
X819788Y723746D01*
X819804Y723738D01*
X819813D01*
X820046Y723663D01*
X820296Y723605D01*
X820529Y723563D01*
X820754Y723538D01*
X820854Y723521D01*
X820946D01*
X821029Y723513D01*
X821104Y723505D01*
X821162D01*
X821204D01*
X821229D01*
X821237D01*
X821471Y723513D01*
X821696Y723538D01*
X821904Y723571D01*
X822095Y723605D01*
X822170Y723621D01*
X822245Y723638D01*
X822312Y723655D01*
X822370Y723671D01*
X822412Y723688D01*
X822445Y723696D01*
X822462Y723705D01*
X822470D01*
X822687Y723788D01*
X822870Y723896D01*
X823037Y724013D01*
X823170Y724129D01*
X823279Y724229D01*
X823354Y724313D01*
X823387Y724346D01*
X823403Y724371D01*
X823420Y724388D01*
Y724396D01*
X823487Y724496D01*
X823537Y724596D01*
X823628Y724804D01*
X823695Y725013D01*
X823737Y725204D01*
X823745Y725296D01*
X823762Y725379D01*
X823770Y725454D01*
Y725512D01*
X823778Y725562D01*
Y725637D01*
X823762Y725871D01*
X823728Y726079D01*
X823678Y726262D01*
X823620Y726421D01*
X823553Y726545D01*
X823528Y726596D01*
X823503Y726637D01*
X823487Y726671D01*
X823470Y726695D01*
X823453Y726704D01*
Y726712D01*
X823387Y726787D01*
X823320Y726862D01*
X823162Y726995D01*
X822995Y727104D01*
X822829Y727195D01*
X822679Y727270D01*
X822612Y727295D01*
X822554Y727320D01*
X822504Y727337D01*
X822470Y727354D01*
X822445Y727362D01*
X822437D01*
X822637Y728195D01*
X822795Y728145D01*
X822954Y728078D01*
X823095Y728012D01*
X823229Y727937D01*
X823345Y727862D01*
X823462Y727787D01*
X823562Y727712D01*
X823653Y727637D01*
X823737Y727562D01*
X823812Y727495D01*
X823870Y727429D01*
X823920Y727379D01*
X823962Y727337D01*
X823987Y727295D01*
X824003Y727279D01*
X824012Y727270D01*
X824095Y727145D01*
X824178Y727012D01*
X824237Y726879D01*
X824295Y726745D01*
X824345Y726604D01*
X824387Y726470D01*
X824445Y726221D01*
X824462Y726104D01*
X824478Y725996D01*
X824486Y725896D01*
X824495Y725812D01*
X824503Y725746D01*
Y725496D01*
X824486Y725346D01*
X824445Y725054D01*
X824378Y724788D01*
X824345Y724671D01*
X824312Y724554D01*
X824270Y724454D01*
X824237Y724363D01*
X824203Y724288D01*
X824170Y724221D01*
X824145Y724171D01*
X824128Y724129D01*
X824120Y724104D01*
X824112Y724096D01*
X824037Y723971D01*
X823953Y723846D01*
X823770Y723630D01*
X823587Y723438D01*
X823403Y723288D01*
X823312Y723221D01*
X823237Y723163D01*
X823162Y723113D01*
X823103Y723080D01*
X823054Y723046D01*
X823012Y723021D01*
X822987Y723013D01*
X822979Y723005D01*
X822837Y722938D01*
X822687Y722880D01*
X822395Y722788D01*
X822104Y722721D01*
X821962Y722697D01*
X821829Y722680D01*
X821704Y722663D01*
X821596Y722646D01*
X821496Y722638D01*
X821404D01*
X821337Y722630D01*
X821279D01*
X821246D01*
X821237D01*
X820904Y722646D01*
X820579Y722680D01*
X820438Y722705D01*
X820296Y722738D01*
X820163Y722763D01*
X820038Y722796D01*
X819921Y722830D01*
X819821Y722855D01*
X819738Y722888D01*
X819663Y722913D01*
X819604Y722930D01*
X819554Y722946D01*
X819529Y722963D01*
X819521D01*
X819380Y723030D01*
X819238Y723105D01*
X819113Y723180D01*
X818996Y723263D01*
X818880Y723346D01*
X818780Y723430D01*
X818688Y723505D01*
X818613Y723588D01*
X818538Y723663D01*
X818471Y723729D01*
X818421Y723796D01*
X818380Y723846D01*
X818338Y723896D01*
X818313Y723930D01*
X818305Y723946D01*
X818296Y723954D01*
X818222Y724080D01*
X818163Y724213D01*
X818105Y724354D01*
X818055Y724496D01*
X817980Y724779D01*
X817930Y725046D01*
X817913Y725171D01*
X817905Y725279D01*
X817896Y725387D01*
X817888Y725471D01*
X817880Y725546D01*
Y725646D01*
X817888Y725829D01*
X817905Y726004D01*
X817930Y726171D01*
X817963Y726329D01*
X818005Y726479D01*
X818055Y726620D01*
X818096Y726745D01*
X818155Y726870D01*
X818205Y726970D01*
X818246Y727062D01*
X818296Y727145D01*
X818338Y727212D01*
X818371Y727270D01*
X818396Y727304D01*
X818413Y727329D01*
X818421Y727337D01*
X818530Y727462D01*
X818646Y727579D01*
X818771Y727687D01*
X818905Y727778D01*
X819038Y727870D01*
X819163Y727945D01*
X819296Y728020D01*
X819421Y728078D01*
X819546Y728137D01*
X819654Y728178D01*
X819754Y728220D01*
X819838Y728253D01*
X819913Y728270D01*
X819971Y728287D01*
X820004Y728303D01*
X820013D01*
X820229Y727454D01*
D02*
G37*
G36*
X858204Y690165D02*
X858396Y690132D01*
X858571Y690082D01*
X858721Y690024D01*
X858846Y689965D01*
X858887Y689940D01*
X858929Y689915D01*
X858962Y689899D01*
X858987Y689882D01*
X858996Y689865D01*
X859004D01*
X859146Y689740D01*
X859262Y689590D01*
X859362Y689449D01*
X859437Y689307D01*
X859487Y689182D01*
X859512Y689124D01*
X859529Y689074D01*
X859537Y689041D01*
X859546Y689007D01*
X859554Y688990D01*
Y688982D01*
X859637Y689132D01*
X859721Y689265D01*
X859812Y689382D01*
X859904Y689474D01*
X859979Y689549D01*
X860037Y689599D01*
X860079Y689632D01*
X860096Y689640D01*
X860229Y689715D01*
X860362Y689774D01*
X860487Y689807D01*
X860604Y689840D01*
X860704Y689857D01*
X860787Y689865D01*
X860837D01*
X860845D01*
X860854D01*
X861012Y689857D01*
X861162Y689832D01*
X861303Y689790D01*
X861429Y689749D01*
X861528Y689699D01*
X861612Y689665D01*
X861662Y689632D01*
X861670Y689624D01*
X861678D01*
X861820Y689532D01*
X861937Y689424D01*
X862045Y689307D01*
X862137Y689199D01*
X862203Y689099D01*
X862253Y689024D01*
X862270Y688990D01*
X862287Y688966D01*
X862295Y688957D01*
Y688949D01*
X862370Y688782D01*
X862428Y688616D01*
X862461Y688457D01*
X862495Y688307D01*
X862512Y688182D01*
Y688124D01*
X862520Y688082D01*
Y687991D01*
X862512Y687849D01*
X862503Y687716D01*
X862453Y687466D01*
X862378Y687249D01*
X862337Y687158D01*
X862303Y687066D01*
X862262Y686991D01*
X862220Y686916D01*
X862178Y686858D01*
X862145Y686808D01*
X862120Y686766D01*
X862095Y686741D01*
X862087Y686724D01*
X862078Y686716D01*
X861995Y686625D01*
X861903Y686541D01*
X861703Y686400D01*
X861504Y686291D01*
X861312Y686200D01*
X861220Y686166D01*
X861137Y686141D01*
X861054Y686116D01*
X860995Y686100D01*
X860937Y686083D01*
X860895Y686075D01*
X860870Y686066D01*
X860862D01*
X860720Y686849D01*
X860920Y686891D01*
X861095Y686941D01*
X861245Y687008D01*
X861362Y687074D01*
X861462Y687133D01*
X861528Y687183D01*
X861562Y687216D01*
X861578Y687233D01*
X861678Y687358D01*
X861745Y687483D01*
X861795Y687616D01*
X861837Y687732D01*
X861853Y687841D01*
X861862Y687933D01*
X861870Y687966D01*
Y688007D01*
X861862Y688174D01*
X861828Y688316D01*
X861778Y688449D01*
X861728Y688557D01*
X861670Y688641D01*
X861628Y688707D01*
X861595Y688741D01*
X861578Y688757D01*
X861470Y688857D01*
X861345Y688932D01*
X861228Y688982D01*
X861120Y689024D01*
X861020Y689041D01*
X860945Y689049D01*
X860887Y689057D01*
X860879D01*
X860870D01*
X860770Y689049D01*
X860679Y689041D01*
X860512Y688990D01*
X860370Y688932D01*
X860254Y688857D01*
X860171Y688782D01*
X860104Y688716D01*
X860070Y688666D01*
X860054Y688657D01*
Y688649D01*
X859970Y688499D01*
X859904Y688341D01*
X859862Y688191D01*
X859829Y688049D01*
X859812Y687933D01*
X859804Y687832D01*
X859796Y687799D01*
Y687708D01*
X859804Y687666D01*
X859812Y687641D01*
Y687624D01*
X859121Y687533D01*
X859146Y687649D01*
X859171Y687757D01*
X859187Y687858D01*
X859196Y687941D01*
X859204Y687999D01*
Y688091D01*
X859187Y688291D01*
X859146Y688466D01*
X859096Y688616D01*
X859029Y688749D01*
X858962Y688849D01*
X858913Y688924D01*
X858871Y688974D01*
X858854Y688990D01*
X858788Y689057D01*
X858712Y689107D01*
X858571Y689199D01*
X858421Y689265D01*
X858279Y689307D01*
X858154Y689332D01*
X858096Y689340D01*
X858054D01*
X858013Y689349D01*
X857988D01*
X857971D01*
X857963D01*
X857863D01*
X857763Y689332D01*
X857579Y689290D01*
X857413Y689224D01*
X857280Y689157D01*
X857163Y689090D01*
X857080Y689024D01*
X857055Y688999D01*
X857030Y688982D01*
X857021Y688974D01*
X857013Y688966D01*
X856946Y688891D01*
X856888Y688816D01*
X856788Y688657D01*
X856721Y688499D01*
X856680Y688349D01*
X856646Y688224D01*
X856638Y688166D01*
Y688116D01*
X856630Y688082D01*
Y688024D01*
X856646Y687858D01*
X856680Y687699D01*
X856721Y687566D01*
X856780Y687449D01*
X856830Y687349D01*
X856880Y687283D01*
X856913Y687241D01*
X856921Y687224D01*
X856980Y687166D01*
X857046Y687116D01*
X857205Y687024D01*
X857363Y686941D01*
X857521Y686883D01*
X857671Y686833D01*
X857729Y686816D01*
X857788Y686799D01*
X857829Y686791D01*
X857863Y686783D01*
X857888Y686774D01*
X857896D01*
X857788Y685991D01*
X857638Y686008D01*
X857496Y686041D01*
X857371Y686075D01*
X857246Y686125D01*
X857130Y686175D01*
X857021Y686225D01*
X856921Y686283D01*
X856830Y686333D01*
X856755Y686391D01*
X856680Y686441D01*
X856621Y686491D01*
X856571Y686533D01*
X856530Y686574D01*
X856505Y686600D01*
X856488Y686616D01*
X856480Y686625D01*
X856388Y686733D01*
X856313Y686841D01*
X856246Y686958D01*
X856188Y687083D01*
X856146Y687199D01*
X856105Y687316D01*
X856047Y687533D01*
X856021Y687633D01*
X856005Y687732D01*
X855996Y687816D01*
X855988Y687883D01*
X855980Y687941D01*
Y688024D01*
X855988Y688199D01*
X856005Y688357D01*
X856030Y688516D01*
X856071Y688657D01*
X856113Y688799D01*
X856163Y688924D01*
X856213Y689041D01*
X856272Y689149D01*
X856321Y689240D01*
X856371Y689324D01*
X856421Y689399D01*
X856463Y689457D01*
X856505Y689507D01*
X856530Y689540D01*
X856546Y689557D01*
X856555Y689565D01*
X856663Y689674D01*
X856780Y689765D01*
X856905Y689849D01*
X857021Y689924D01*
X857146Y689982D01*
X857263Y690032D01*
X857380Y690074D01*
X857488Y690107D01*
X857588Y690132D01*
X857679Y690149D01*
X857763Y690165D01*
X857838Y690173D01*
X857896Y690182D01*
X857946D01*
X857971D01*
X857979D01*
X858204Y690165D01*
D02*
G37*
G36*
X862520Y683467D02*
X862362Y683375D01*
X862212Y683267D01*
X862062Y683150D01*
X861937Y683042D01*
X861820Y682934D01*
X861737Y682850D01*
X861703Y682817D01*
X861678Y682792D01*
X861670Y682775D01*
X861662Y682767D01*
X861504Y682576D01*
X861362Y682384D01*
X861228Y682184D01*
X861120Y682009D01*
X861037Y681851D01*
X860995Y681784D01*
X860970Y681726D01*
X860945Y681684D01*
X860929Y681651D01*
X860912Y681626D01*
Y681617D01*
X860145D01*
X860204Y681759D01*
X860270Y681901D01*
X860337Y682042D01*
X860404Y682167D01*
X860462Y682276D01*
X860512Y682367D01*
X860529Y682401D01*
X860545Y682426D01*
X860554Y682434D01*
Y682442D01*
X860654Y682609D01*
X860754Y682750D01*
X860845Y682884D01*
X860929Y682992D01*
X860995Y683075D01*
X861054Y683142D01*
X861087Y683175D01*
X861095Y683192D01*
X856088D01*
Y683975D01*
X862520D01*
Y683467D01*
D02*
G37*
G36*
X858329Y679443D02*
X858179Y679401D01*
X858046Y679360D01*
X857921Y679310D01*
X857796Y679260D01*
X857688Y679201D01*
X857588Y679151D01*
X857496Y679093D01*
X857421Y679035D01*
X857346Y678985D01*
X857288Y678935D01*
X857230Y678885D01*
X857188Y678851D01*
X857155Y678818D01*
X857130Y678793D01*
X857121Y678776D01*
X857113Y678768D01*
X857038Y678677D01*
X856980Y678577D01*
X856921Y678476D01*
X856880Y678368D01*
X856805Y678168D01*
X856755Y677977D01*
X856738Y677893D01*
X856730Y677810D01*
X856721Y677743D01*
X856713Y677677D01*
X856705Y677627D01*
Y677560D01*
X856721Y677344D01*
X856755Y677144D01*
X856796Y676960D01*
X856855Y676794D01*
X856913Y676660D01*
X856938Y676602D01*
X856955Y676560D01*
X856980Y676519D01*
X856988Y676494D01*
X857005Y676477D01*
Y676469D01*
X857130Y676294D01*
X857271Y676144D01*
X857421Y676019D01*
X857571Y675910D01*
X857704Y675827D01*
X857763Y675802D01*
X857813Y675777D01*
X857854Y675752D01*
X857888Y675736D01*
X857904Y675727D01*
X857913D01*
X858146Y675652D01*
X858396Y675594D01*
X858629Y675552D01*
X858854Y675527D01*
X858954Y675511D01*
X859046D01*
X859129Y675502D01*
X859204Y675494D01*
X859262D01*
X859304D01*
X859329D01*
X859337D01*
X859571Y675502D01*
X859796Y675527D01*
X860004Y675561D01*
X860195Y675594D01*
X860270Y675611D01*
X860345Y675627D01*
X860412Y675644D01*
X860470Y675661D01*
X860512Y675677D01*
X860545Y675686D01*
X860562Y675694D01*
X860570D01*
X860787Y675777D01*
X860970Y675885D01*
X861137Y676002D01*
X861270Y676119D01*
X861378Y676219D01*
X861453Y676302D01*
X861487Y676335D01*
X861504Y676360D01*
X861520Y676377D01*
Y676385D01*
X861587Y676485D01*
X861637Y676585D01*
X861728Y676794D01*
X861795Y677002D01*
X861837Y677194D01*
X861845Y677285D01*
X861862Y677368D01*
X861870Y677443D01*
Y677502D01*
X861878Y677552D01*
Y677627D01*
X861862Y677860D01*
X861828Y678068D01*
X861778Y678252D01*
X861720Y678410D01*
X861653Y678535D01*
X861628Y678585D01*
X861603Y678626D01*
X861587Y678660D01*
X861570Y678685D01*
X861553Y678693D01*
Y678701D01*
X861487Y678776D01*
X861420Y678851D01*
X861262Y678985D01*
X861095Y679093D01*
X860929Y679185D01*
X860779Y679260D01*
X860712Y679285D01*
X860654Y679310D01*
X860604Y679326D01*
X860570Y679343D01*
X860545Y679351D01*
X860537D01*
X860737Y680184D01*
X860895Y680135D01*
X861054Y680068D01*
X861195Y680001D01*
X861329Y679926D01*
X861445Y679851D01*
X861562Y679776D01*
X861662Y679701D01*
X861753Y679626D01*
X861837Y679551D01*
X861912Y679485D01*
X861970Y679418D01*
X862020Y679368D01*
X862062Y679326D01*
X862087Y679285D01*
X862103Y679268D01*
X862112Y679260D01*
X862195Y679135D01*
X862278Y679001D01*
X862337Y678868D01*
X862395Y678735D01*
X862445Y678593D01*
X862486Y678460D01*
X862545Y678210D01*
X862561Y678093D01*
X862578Y677985D01*
X862587Y677885D01*
X862595Y677802D01*
X862603Y677735D01*
Y677485D01*
X862587Y677335D01*
X862545Y677044D01*
X862478Y676777D01*
X862445Y676660D01*
X862412Y676544D01*
X862370Y676444D01*
X862337Y676352D01*
X862303Y676277D01*
X862270Y676210D01*
X862245Y676161D01*
X862228Y676119D01*
X862220Y676094D01*
X862212Y676086D01*
X862137Y675960D01*
X862053Y675836D01*
X861870Y675619D01*
X861687Y675427D01*
X861504Y675277D01*
X861412Y675211D01*
X861337Y675152D01*
X861262Y675102D01*
X861204Y675069D01*
X861153Y675036D01*
X861112Y675011D01*
X861087Y675002D01*
X861079Y674994D01*
X860937Y674928D01*
X860787Y674869D01*
X860495Y674778D01*
X860204Y674711D01*
X860062Y674686D01*
X859929Y674669D01*
X859804Y674652D01*
X859696Y674636D01*
X859596Y674628D01*
X859504D01*
X859437Y674619D01*
X859379D01*
X859346D01*
X859337D01*
X859004Y674636D01*
X858679Y674669D01*
X858538Y674694D01*
X858396Y674727D01*
X858263Y674753D01*
X858138Y674786D01*
X858021Y674819D01*
X857921Y674844D01*
X857838Y674877D01*
X857763Y674902D01*
X857704Y674919D01*
X857654Y674936D01*
X857629Y674952D01*
X857621D01*
X857479Y675019D01*
X857338Y675094D01*
X857213Y675169D01*
X857096Y675252D01*
X856980Y675336D01*
X856880Y675419D01*
X856788Y675494D01*
X856713Y675577D01*
X856638Y675652D01*
X856571Y675719D01*
X856521Y675786D01*
X856480Y675836D01*
X856438Y675885D01*
X856413Y675919D01*
X856405Y675936D01*
X856396Y675944D01*
X856321Y676069D01*
X856263Y676202D01*
X856205Y676344D01*
X856155Y676485D01*
X856080Y676769D01*
X856030Y677035D01*
X856013Y677160D01*
X856005Y677269D01*
X855996Y677377D01*
X855988Y677460D01*
X855980Y677535D01*
Y677635D01*
X855988Y677818D01*
X856005Y677993D01*
X856030Y678160D01*
X856063Y678318D01*
X856105Y678468D01*
X856155Y678610D01*
X856197Y678735D01*
X856255Y678860D01*
X856305Y678960D01*
X856346Y679051D01*
X856396Y679135D01*
X856438Y679201D01*
X856471Y679260D01*
X856496Y679293D01*
X856513Y679318D01*
X856521Y679326D01*
X856630Y679451D01*
X856746Y679568D01*
X856871Y679676D01*
X857005Y679768D01*
X857138Y679859D01*
X857263Y679934D01*
X857396Y680010D01*
X857521Y680068D01*
X857646Y680126D01*
X857754Y680168D01*
X857854Y680209D01*
X857938Y680243D01*
X858013Y680259D01*
X858071Y680276D01*
X858104Y680293D01*
X858113D01*
X858329Y679443D01*
D02*
G37*
%LPC*%
G36*
X851594Y771161D02*
X851511D01*
X851461D01*
X851453D01*
X851444D01*
X851161Y771152D01*
X850903Y771144D01*
X850661Y771127D01*
X850444Y771094D01*
X850245Y771069D01*
X850070Y771036D01*
X849911Y770994D01*
X849778Y770961D01*
X849653Y770919D01*
X849553Y770886D01*
X849470Y770852D01*
X849403Y770819D01*
X849353Y770794D01*
X849312Y770777D01*
X849295Y770769D01*
X849286Y770761D01*
X849203Y770694D01*
X849128Y770627D01*
X849070Y770561D01*
X849020Y770486D01*
X848937Y770344D01*
X848878Y770202D01*
X848845Y770086D01*
X848828Y769986D01*
X848820Y769944D01*
Y769894D01*
X848828Y769794D01*
X848845Y769694D01*
X848870Y769603D01*
X848903Y769519D01*
X848987Y769361D01*
X849078Y769228D01*
X849178Y769119D01*
X849261Y769044D01*
X849295Y769011D01*
X849320Y768994D01*
X849336Y768978D01*
X849345D01*
X849453Y768911D01*
X849586Y768853D01*
X849728Y768803D01*
X849886Y768761D01*
X850061Y768728D01*
X850236Y768695D01*
X850586Y768653D01*
X850753Y768636D01*
X850919Y768620D01*
X851061Y768611D01*
X851186D01*
X851294Y768603D01*
X851378D01*
X851428D01*
X851436D01*
X851444D01*
X851728D01*
X851986Y768620D01*
X852219Y768636D01*
X852436Y768661D01*
X852627Y768686D01*
X852802Y768719D01*
X852952Y768753D01*
X853085Y768786D01*
X853202Y768828D01*
X853294Y768861D01*
X853377Y768894D01*
X853435Y768919D01*
X853485Y768944D01*
X853519Y768961D01*
X853535Y768969D01*
X853544Y768978D01*
X853635Y769044D01*
X853710Y769119D01*
X853785Y769194D01*
X853844Y769278D01*
X853894Y769353D01*
X853935Y769428D01*
X853994Y769569D01*
X854035Y769694D01*
X854044Y769753D01*
X854052Y769794D01*
X854060Y769836D01*
Y769886D01*
X854052Y769986D01*
X854035Y770078D01*
X854010Y770169D01*
X853977Y770252D01*
X853894Y770411D01*
X853802Y770544D01*
X853710Y770652D01*
X853627Y770727D01*
X853594Y770752D01*
X853569Y770777D01*
X853552Y770786D01*
X853544Y770794D01*
X853435Y770861D01*
X853302Y770911D01*
X853160Y770961D01*
X852994Y771002D01*
X852827Y771044D01*
X852652Y771069D01*
X852302Y771111D01*
X852127Y771127D01*
X851969Y771144D01*
X851827Y771152D01*
X851702D01*
X851594Y771161D01*
D02*
G37*
G36*
X822787Y732169D02*
X822762D01*
X822754D01*
X822745D01*
X822595Y732161D01*
X822462Y732127D01*
X822337Y732077D01*
X822237Y732027D01*
X822154Y731969D01*
X822095Y731927D01*
X822062Y731894D01*
X822046Y731878D01*
X821954Y731761D01*
X821879Y731636D01*
X821829Y731511D01*
X821796Y731394D01*
X821779Y731294D01*
X821770Y731211D01*
X821762Y731178D01*
Y731136D01*
X821770Y730969D01*
X821804Y730819D01*
X821854Y730686D01*
X821904Y730578D01*
X821954Y730486D01*
X822004Y730419D01*
X822037Y730386D01*
X822046Y730369D01*
X822162Y730278D01*
X822287Y730203D01*
X822412Y730153D01*
X822529Y730120D01*
X822629Y730103D01*
X822712Y730095D01*
X822745Y730086D01*
X822770D01*
X822779D01*
X822787D01*
X822929Y730103D01*
X823062Y730136D01*
X823178Y730178D01*
X823287Y730236D01*
X823362Y730286D01*
X823428Y730336D01*
X823462Y730369D01*
X823478Y730378D01*
X823578Y730495D01*
X823645Y730619D01*
X823695Y730744D01*
X823737Y730861D01*
X823753Y730969D01*
X823762Y731053D01*
X823770Y731086D01*
Y731128D01*
X823753Y731286D01*
X823720Y731428D01*
X823678Y731553D01*
X823620Y731661D01*
X823562Y731752D01*
X823520Y731819D01*
X823487Y731852D01*
X823470Y731869D01*
X823354Y731969D01*
X823237Y732044D01*
X823112Y732094D01*
X822995Y732136D01*
X822895Y732152D01*
X822820Y732161D01*
X822787Y732169D01*
D02*
G37*
G36*
X819863Y732427D02*
X819829D01*
X819813D01*
X819804D01*
X819704D01*
X819604Y732411D01*
X819429Y732369D01*
X819271Y732311D01*
X819138Y732244D01*
X819030Y732177D01*
X818955Y732119D01*
X818905Y732077D01*
X818896Y732069D01*
X818888Y732061D01*
X818821Y731994D01*
X818771Y731919D01*
X818680Y731761D01*
X818621Y731602D01*
X818571Y731461D01*
X818546Y731328D01*
X818538Y731269D01*
Y731219D01*
X818530Y731186D01*
Y731128D01*
X818538Y730994D01*
X818555Y730869D01*
X818580Y730761D01*
X818613Y730653D01*
X818646Y730570D01*
X818671Y730511D01*
X818688Y730470D01*
X818696Y730453D01*
X818771Y730344D01*
X818846Y730245D01*
X818930Y730161D01*
X819005Y730095D01*
X819071Y730045D01*
X819130Y730011D01*
X819163Y729986D01*
X819180Y729978D01*
X819296Y729928D01*
X819413Y729895D01*
X819529Y729861D01*
X819629Y729845D01*
X819713Y729836D01*
X819779Y729828D01*
X819821D01*
X819838D01*
X819938Y729836D01*
X820038Y729845D01*
X820213Y729886D01*
X820371Y729945D01*
X820504Y730011D01*
X820612Y730070D01*
X820687Y730128D01*
X820738Y730170D01*
X820754Y730186D01*
X820821Y730253D01*
X820879Y730328D01*
X820962Y730478D01*
X821029Y730636D01*
X821079Y730778D01*
X821104Y730911D01*
X821112Y730961D01*
Y731011D01*
X821121Y731053D01*
Y731211D01*
X821104Y731311D01*
X821062Y731494D01*
X821004Y731653D01*
X820937Y731794D01*
X820862Y731902D01*
X820804Y731986D01*
X820762Y732036D01*
X820754Y732052D01*
X820746D01*
X820679Y732119D01*
X820604Y732177D01*
X820446Y732269D01*
X820288Y732336D01*
X820138Y732377D01*
X820004Y732411D01*
X819946Y732419D01*
X819904D01*
X819863Y732427D01*
D02*
G37*
%LPD*%
D14*
X841929Y761810D02*
Y804872D01*
Y761810D02*
X867491D01*
Y804872D01*
X841929D02*
X867491D01*
X877460Y778965D02*
Y788215D01*
Y778965D02*
X882760D01*
Y788215D01*
X877460D02*
X882760D01*
X830661Y701099D02*
Y744161D01*
X805099D02*
X830661D01*
X805099Y701099D02*
Y744161D01*
Y701099D02*
X830661D01*
X793860Y718005D02*
Y727255D01*
X788560D02*
X793860D01*
X788560Y718005D02*
Y727255D01*
Y718005D02*
X793860D01*
X801790Y653610D02*
Y675610D01*
X790790D02*
X801790D01*
X790790Y653610D02*
Y675610D01*
Y653610D02*
X801790D01*
X868761Y653088D02*
Y696150D01*
X843199D02*
X868761D01*
X843199Y653088D02*
Y696150D01*
Y653088D02*
X868761D01*
X938090Y704010D02*
Y718010D01*
Y704010D02*
X946590D01*
Y718010D01*
X938090D02*
X946590D01*
X942450Y723250D02*
Y732500D01*
X937150D02*
X942450D01*
X937150Y723250D02*
Y732500D01*
Y723250D02*
X942450D01*
X928480Y723085D02*
Y732335D01*
X923180D02*
X928480D01*
X923180Y723085D02*
Y732335D01*
Y723085D02*
X928480D01*
X914510D02*
Y732335D01*
X909210D02*
X914510D01*
X909210Y723085D02*
Y732335D01*
Y723085D02*
X914510D01*
X909210Y707680D02*
Y716930D01*
Y707680D02*
X914510D01*
Y716930D01*
X909210D02*
X914510D01*
X923180Y708010D02*
Y717260D01*
Y708010D02*
X928480D01*
Y717260D01*
X923180D02*
X928480D01*
X939380Y795450D02*
Y817450D01*
Y795450D02*
X950380D01*
Y817450D01*
X939380D02*
X950380D01*
X713710Y519040D02*
X741710D01*
X713710Y502040D02*
Y519040D01*
Y502040D02*
X741710D01*
Y519040D01*
X725625Y403970D02*
X734875D01*
X725625Y398670D02*
Y403970D01*
Y398670D02*
X734875D01*
Y403970D01*
X725460Y444610D02*
X734710D01*
X725460Y439310D02*
Y444610D01*
Y439310D02*
X734710D01*
Y444610D01*
X725460Y463660D02*
X734710D01*
X725460Y458360D02*
Y463660D01*
Y458360D02*
X734710D01*
Y463660D01*
X725460Y480170D02*
X734710D01*
X725460Y474870D02*
Y480170D01*
Y474870D02*
X734710D01*
Y480170D01*
X725460Y424290D02*
X734710D01*
X725460Y418990D02*
Y424290D01*
Y418990D02*
X734710D01*
Y424290D01*
X663370Y385250D02*
X677370D01*
X663370Y376750D02*
Y385250D01*
Y376750D02*
X677370D01*
Y385250D01*
X663370Y404300D02*
X677370D01*
X663370Y395800D02*
Y404300D01*
Y395800D02*
X677370D01*
Y404300D01*
X503375Y440580D02*
X512625D01*
Y445880D01*
X503375D02*
X512625D01*
X503375Y440580D02*
Y445880D01*
X563770Y438605D02*
Y447855D01*
Y438605D02*
X569070D01*
Y447855D01*
X563770D02*
X569070D01*
X1379310Y730640D02*
Y747640D01*
X1407310D01*
Y730640D02*
Y747640D01*
X1379310Y730640D02*
X1407310D01*
X1409410Y798720D02*
Y804020D01*
X1400160Y798720D02*
X1409410D01*
X1400160D02*
Y804020D01*
X1409410D01*
Y784750D02*
Y790050D01*
X1400160Y784750D02*
X1409410D01*
X1400160D02*
Y790050D01*
X1409410D01*
X1419210Y717440D02*
Y722740D01*
X1428460D01*
Y717440D02*
Y722740D01*
X1419210Y717440D02*
X1428460D01*
X1422290Y731810D02*
X1427590D01*
X1422290D02*
Y741060D01*
X1427590D01*
Y731810D02*
Y741060D01*
M02*
