%TF.GenerationSoftware,Altium Limited,Altium Designer,24.1.2 (44)*%
G04 Layer_Color=32768*
%FSLAX45Y45*%
%MOMM*%
%TF.SameCoordinates,57B3B6A3-E825-4013-9261-08072AB09D51*%
%TF.FilePolarity,Positive*%
%TF.FileFunction,Other,Top_Courtyard*%
%TF.Part,Single*%
G01*
G75*
%TA.AperFunction,NonConductor*%
%ADD64C,0.20000*%
%ADD65C,0.15240*%
%ADD88C,0.10000*%
%ADD91C,0.05000*%
G36*
X7829930Y6227445D02*
X7709250D01*
Y6348125D01*
X7573360D01*
Y8176865D01*
X7709250D01*
Y8297545D01*
X7829930D01*
Y8433435D01*
X9658670D01*
Y8297545D01*
X9779350D01*
Y8176865D01*
X9915240D01*
Y6348125D01*
X9779350D01*
Y6227445D01*
X9658670D01*
Y6091555D01*
X7829930D01*
Y6227445D01*
D02*
G37*
D64*
X4108200Y7505400D02*
Y7785400D01*
X3918200Y7505400D02*
X4108200D01*
X3918200D02*
Y7785400D01*
X4108200D01*
X4095500Y9029400D02*
Y9309400D01*
X3905500Y9029400D02*
X4095500D01*
X3905500D02*
Y9309400D01*
X4095500D01*
X7257900Y4875700D02*
X7350400D01*
X7257900D02*
Y4928700D01*
X7350400D01*
Y4875700D02*
Y4928700D01*
X6445400Y4134000D02*
Y4629000D01*
X6940400D01*
Y4134000D02*
Y4629000D01*
X6445400Y4134000D02*
X6940400D01*
X13424500Y7692700D02*
X14134500D01*
X13424500Y6937700D02*
Y7692700D01*
Y6937700D02*
X14134500D01*
Y7692700D01*
X17192000Y3184100D02*
X17478999D01*
Y3750100D01*
X17192000D02*
X17478999D01*
X17192000Y3184100D02*
Y3750100D01*
X16864500Y4632600D02*
X16917500D01*
X16864500Y4540100D02*
Y4632600D01*
Y4540100D02*
X16917500D01*
Y4632600D01*
X15968449Y4939200D02*
Y4992200D01*
Y4939200D02*
X16060950D01*
Y4992200D01*
X15968449D02*
X16060950D01*
X15711501Y5172700D02*
X15911501D01*
X15711501Y4752700D02*
Y5172700D01*
Y4752700D02*
X15911501D01*
Y5172700D01*
X15872099Y4421200D02*
Y4621200D01*
X15452100D02*
X15872099D01*
X15452100Y4421200D02*
Y4621200D01*
Y4421200D02*
X15872099D01*
X15614500Y4291500D02*
Y4344500D01*
Y4291500D02*
X15707001D01*
Y4344500D01*
X15614500D02*
X15707001D01*
X15449400Y6094900D02*
Y6147900D01*
Y6094900D02*
X15541901D01*
Y6147900D01*
X15449400D02*
X15541901D01*
X15707001Y6224600D02*
Y6424600D01*
X15287000D02*
X15707001D01*
X15287000Y6224600D02*
Y6424600D01*
Y6224600D02*
X15707001D01*
X15727150Y6653700D02*
Y6706700D01*
Y6653700D02*
X15819650D01*
Y6706700D01*
X15727150D02*
X15819650D01*
X13458200Y5475300D02*
Y5675300D01*
Y5475300D02*
X13878200D01*
Y5675300D01*
X13458200D02*
X13878200D01*
X13724150Y5739300D02*
Y5792300D01*
X13631650D02*
X13724150D01*
X13631650Y5739300D02*
Y5792300D01*
Y5739300D02*
X13724150D01*
X14375301Y5302100D02*
X14428300D01*
Y5394600D01*
X14375301D02*
X14428300D01*
X14375301Y5302100D02*
Y5394600D01*
X14098599Y5559700D02*
X14298599D01*
X14098599Y5139700D02*
Y5559700D01*
Y5139700D02*
X14298599D01*
Y5559700D01*
X14549651Y4230700D02*
Y4283700D01*
X14457150D02*
X14549651D01*
X14457150Y4230700D02*
Y4283700D01*
Y4230700D02*
X14549651D01*
X14290401Y3941300D02*
Y4141300D01*
Y3941300D02*
X14710400D01*
Y4141300D01*
X14290401D02*
X14710400D01*
X13902299Y3240500D02*
X14012300D01*
Y3490500D01*
X13902299D02*
X14012300D01*
X13902299Y3240500D02*
Y3490500D01*
X15175400Y3763750D02*
X15228400D01*
Y3856250D01*
X15175400D02*
X15228400D01*
X15175400Y3763750D02*
Y3856250D01*
X14898700Y4023000D02*
X15098700D01*
X14898700Y3603000D02*
Y4023000D01*
Y3603000D02*
X15098700D01*
Y4023000D01*
X16264900Y3617900D02*
X16684900D01*
Y3417900D02*
Y3617900D01*
X16264900Y3417900D02*
X16684900D01*
X16264900D02*
Y3617900D01*
X16745100Y3734400D02*
Y3809400D01*
X16605099D02*
X16745100D01*
X16605099Y3734400D02*
Y3809400D01*
Y3734400D02*
X16745100D01*
X8567605Y12692187D02*
X9898195D01*
X8567605Y10508893D02*
Y12692187D01*
Y10508893D02*
X9898195D01*
Y12692187D01*
X17077699Y5324900D02*
X17364700D01*
X17077699Y4758900D02*
Y5324900D01*
Y4758900D02*
X17364700D01*
Y5324900D01*
X16513693Y5393300D02*
Y5503300D01*
Y5393300D02*
X16734908D01*
Y5503300D01*
X16513693D02*
X16734908D01*
X16266800Y4754200D02*
Y5304200D01*
Y4754200D02*
X16981799D01*
Y5304200D01*
X16266800D02*
X16981799D01*
X5049000Y2779800D02*
Y3074800D01*
Y2779800D02*
X5409000D01*
Y3074800D01*
X5049000D02*
X5409000D01*
X5175100Y3148500D02*
Y3201500D01*
Y3148500D02*
X5267600D01*
Y3201500D01*
X5175100D02*
X5267600D01*
X2635000Y5449300D02*
X4350000D01*
X2635000Y3542300D02*
Y5449300D01*
Y3542300D02*
X4350000D01*
Y5449300D01*
X5488400Y9381100D02*
Y9491100D01*
Y9381100D02*
X5738400D01*
Y9491100D01*
X5488400D02*
X5738400D01*
X5005800Y9393800D02*
Y9503800D01*
Y9393800D02*
X5255800D01*
Y9503800D01*
X5005800D02*
X5255800D01*
X4473600Y9406500D02*
Y9516500D01*
Y9406500D02*
X4723600D01*
Y9516500D01*
X4473600D02*
X4723600D01*
X16441605Y12692187D02*
X17772195D01*
X16441605Y10508893D02*
Y12692187D01*
Y10508893D02*
X17772195D01*
Y12692187D01*
X14663605D02*
X15994196D01*
X14663605Y10508893D02*
Y12692187D01*
Y10508893D02*
X15994196D01*
Y12692187D01*
X12504605D02*
X13835194D01*
X12504605Y10508893D02*
Y12692187D01*
Y10508893D02*
X13835194D01*
Y12692187D01*
X10726605D02*
X12057195D01*
X10726605Y10508893D02*
Y12692187D01*
Y10508893D02*
X12057195D01*
Y12692187D01*
X6789605D02*
X8120195D01*
X6789605Y10508893D02*
Y12692187D01*
Y10508893D02*
X8120195D01*
Y12692187D01*
X4630605D02*
X5961195D01*
X4630605Y10508893D02*
Y12692187D01*
Y10508893D02*
X5961195D01*
Y12692187D01*
X2852605D02*
X4183195D01*
X2852605Y10508893D02*
Y12692187D01*
Y10508893D02*
X4183195D01*
Y12692187D01*
D65*
X9658670Y6227445D02*
X9779350D01*
X9658670Y6091555D02*
Y6227445D01*
X7829930Y6091555D02*
X9658670D01*
X7829930D02*
Y6227445D01*
X7709250D02*
X7829930D01*
X9658670Y8297545D02*
X9779350D01*
X9658670D02*
Y8433435D01*
X7829930D02*
X9658670D01*
X7829930Y8297545D02*
Y8433435D01*
X7709250Y8297545D02*
X7829930D01*
X9779350Y8176865D02*
Y8297545D01*
Y8176865D02*
X9915240D01*
Y6348125D02*
Y8176865D01*
X9779350Y6348125D02*
X9915240D01*
X9779350Y6227445D02*
Y6348125D01*
X7709250Y8176865D02*
Y8297545D01*
X7573360Y8176865D02*
X7709250D01*
X7573360Y6348125D02*
Y8176865D01*
Y6348125D02*
X7709250D01*
Y6227445D02*
Y6348125D01*
D88*
X5604200Y9208300D02*
Y9308300D01*
X5554200Y9258300D02*
X5654200D01*
X5114600Y9221000D02*
Y9321000D01*
X5064600Y9271000D02*
X5164600D01*
X4581200Y9221000D02*
Y9321000D01*
X4531200Y9271000D02*
X4631200D01*
X4035100Y8547900D02*
Y8647900D01*
X3985100Y8597900D02*
X4085100D01*
X13602499Y4927600D02*
X13702499D01*
X13652499Y4877600D02*
Y4977600D01*
X8055300Y4534700D02*
Y4634700D01*
X8005300Y4584700D02*
X8105300D01*
X8048300Y4217200D02*
Y4317200D01*
X7998300Y4267200D02*
X8098300D01*
X8048300Y4052100D02*
Y4152100D01*
X7998300Y4102100D02*
X8098300D01*
X7318700Y4699800D02*
Y4799800D01*
X7268700Y4749800D02*
X7368700D01*
X7318700Y4534700D02*
Y4634700D01*
X7268700Y4584700D02*
X7368700D01*
X7315200Y4382300D02*
Y4482300D01*
X7265200Y4432300D02*
X7365200D01*
X7324400Y4001300D02*
Y4101300D01*
X7274400Y4051300D02*
X7374400D01*
X7324400Y3823500D02*
Y3923500D01*
X7274400Y3873500D02*
X7374400D01*
X5990900Y3239300D02*
Y3339300D01*
X5940900Y3289300D02*
X6040900D01*
X5489900Y3556800D02*
Y3656800D01*
X5439900Y3606800D02*
X5539900D01*
X4153700Y5635300D02*
X4253700D01*
X4203700Y5585300D02*
Y5685300D01*
X3899700Y5635300D02*
X3999700D01*
X3949700Y5585300D02*
Y5685300D01*
X4141000Y3369000D02*
X4241000D01*
X4191000Y3319000D02*
Y3419000D01*
X5232400Y4382300D02*
Y4482300D01*
X5182400Y4432300D02*
X5282400D01*
X7505600Y2845600D02*
Y2945600D01*
X7455600Y2895600D02*
X7555600D01*
X7505800Y3467900D02*
Y3567900D01*
X7455800Y3517900D02*
X7555800D01*
X8305800Y3086900D02*
Y3186900D01*
X8255800Y3136900D02*
X8355800D01*
X15468600Y6630200D02*
Y6730200D01*
X15418600Y6680200D02*
X15518600D01*
X13779500Y3306300D02*
Y3406300D01*
X13729500Y3356300D02*
X13829500D01*
X14465300Y3328200D02*
Y3428200D01*
X14415300Y3378200D02*
X14515300D01*
X16294099Y2909100D02*
Y3009100D01*
X16244099Y2959100D02*
X16344099D01*
X16967200Y3493300D02*
Y3593300D01*
X16917200Y3543300D02*
X17017200D01*
X16244901Y3734600D02*
Y3834600D01*
X16194901Y3784600D02*
X16294901D01*
X14390700Y6973100D02*
Y7073100D01*
X14340700Y7023100D02*
X14440700D01*
X13069099Y6580200D02*
X13169099D01*
X13119099Y6530200D02*
Y6630200D01*
X13869200Y6627800D02*
X13969200D01*
X13919200Y6577800D02*
Y6677800D01*
X13615199Y6580200D02*
X13715199D01*
X13665199Y6530200D02*
Y6630200D01*
X13335800Y6580200D02*
X13435800D01*
X13385800Y6530200D02*
Y6630200D01*
X14135899Y6627800D02*
X14235899D01*
X14185899Y6577800D02*
Y6677800D01*
X14402600Y6627800D02*
X14502600D01*
X14452600Y6577800D02*
Y6677800D01*
X7455800Y3213100D02*
X7555800D01*
X7505800Y3163100D02*
Y3263100D01*
X4851400Y2947300D02*
Y3047300D01*
X4801400Y2997300D02*
X4901400D01*
X5626100Y2947300D02*
Y3047300D01*
X5576100Y2997300D02*
X5676100D01*
X15357651Y4877600D02*
Y4977600D01*
X15307651Y4927600D02*
X15407651D01*
D91*
X5494200Y9198300D02*
X5714200D01*
X5494200Y9318300D02*
X5714200D01*
Y9198300D02*
Y9318300D01*
X5494200Y9198300D02*
Y9318300D01*
X5004600Y9211000D02*
X5224600D01*
X5004600Y9331000D02*
X5224600D01*
Y9211000D02*
Y9331000D01*
X5004600Y9211000D02*
Y9331000D01*
X4471200Y9211000D02*
X4691200D01*
X4471200Y9331000D02*
X4691200D01*
Y9211000D02*
Y9331000D01*
X4471200Y9211000D02*
Y9331000D01*
X3925100Y8537900D02*
X4145100D01*
X3925100Y8657900D02*
X4145100D01*
Y8537900D02*
Y8657900D01*
X3925100Y8537900D02*
Y8657900D01*
X13292500Y4492600D02*
Y5362600D01*
X14012500Y4492600D02*
Y5362600D01*
X13292500Y4492600D02*
X14012500D01*
X13292500Y5362600D02*
X14012500D01*
X7945300Y4524700D02*
X8165300D01*
X7945300Y4644700D02*
X8165300D01*
Y4524700D02*
Y4644700D01*
X7945300Y4524700D02*
Y4644700D01*
X7938300Y4207200D02*
X8158300D01*
X7938300Y4327200D02*
X8158300D01*
Y4207200D02*
Y4327200D01*
X7938300Y4207200D02*
Y4327200D01*
Y4042100D02*
X8158300D01*
X7938300Y4162100D02*
X8158300D01*
Y4042100D02*
Y4162100D01*
X7938300Y4042100D02*
Y4162100D01*
X7208700Y4689800D02*
X7428700D01*
X7208700Y4809800D02*
X7428700D01*
Y4689800D02*
Y4809800D01*
X7208700Y4689800D02*
Y4809800D01*
Y4644700D02*
X7428700D01*
X7208700Y4524700D02*
X7428700D01*
X7208700D02*
Y4644700D01*
X7428700Y4524700D02*
Y4644700D01*
X7205200Y4492300D02*
X7425200D01*
X7205200Y4372300D02*
X7425200D01*
X7205200D02*
Y4492300D01*
X7425200Y4372300D02*
Y4492300D01*
X7214400Y4111300D02*
X7434400D01*
X7214400Y3991300D02*
X7434400D01*
X7214400D02*
Y4111300D01*
X7434400Y3991300D02*
Y4111300D01*
X7214400Y3933500D02*
X7434400D01*
X7214400Y3813500D02*
X7434400D01*
X7214400D02*
Y3933500D01*
X7434400Y3813500D02*
Y3933500D01*
X5880900Y3349300D02*
X6100900D01*
X5880900Y3229300D02*
X6100900D01*
X5880900D02*
Y3349300D01*
X6100900Y3229300D02*
Y3349300D01*
X5379900Y3666800D02*
X5599900D01*
X5379900Y3546800D02*
X5599900D01*
X5379900D02*
Y3666800D01*
X5599900Y3546800D02*
Y3666800D01*
X4143700Y5525300D02*
Y5745300D01*
X4263700Y5525300D02*
Y5745300D01*
X4143700Y5525300D02*
X4263700D01*
X4143700Y5745300D02*
X4263700D01*
X3889700Y5525300D02*
Y5745300D01*
X4009700Y5525300D02*
Y5745300D01*
X3889700Y5525300D02*
X4009700D01*
X3889700Y5745300D02*
X4009700D01*
X4251000Y3259000D02*
Y3479000D01*
X4131000Y3259000D02*
Y3479000D01*
X4251000D01*
X4131000Y3259000D02*
X4251000D01*
X4714400Y5077300D02*
X5750400D01*
Y3787300D02*
Y5077300D01*
X4714400Y3787300D02*
Y5077300D01*
Y3787300D02*
X5750400D01*
X7240600Y2755600D02*
X7770600D01*
X7240600Y3035600D02*
X7770600D01*
Y2755600D02*
Y3035600D01*
X7240600Y2755600D02*
Y3035600D01*
X7240800Y3377900D02*
X7770800D01*
X7240800Y3657900D02*
X7770800D01*
Y3377900D02*
Y3657900D01*
X7240800Y3377900D02*
Y3657900D01*
X7948300Y2881900D02*
X8663300D01*
X7948300D02*
Y3391900D01*
X8663300Y2881900D02*
Y3391900D01*
X7948300D02*
X8663300D01*
X2693500Y6790900D02*
Y9388900D01*
X3783500D01*
Y6790900D02*
Y9388900D01*
X2693500Y6790900D02*
X3783500D01*
X3238500Y8039900D02*
Y8139900D01*
X3188500Y8089900D02*
X3288500D01*
X15256100Y6500200D02*
X15681100D01*
X15256100Y6860200D02*
X15681100D01*
Y6500200D02*
Y6860200D01*
X15256100Y6500200D02*
Y6860200D01*
X13719501Y3246300D02*
X13839500D01*
X13719501Y3466300D02*
X13839500D01*
X13719501Y3246300D02*
Y3466300D01*
X13839500Y3246300D02*
Y3466300D01*
X14105299Y3813200D02*
X14825301D01*
X14105299Y2943200D02*
X14825301D01*
Y3813200D01*
X14105299Y2943200D02*
Y3813200D01*
X15904100Y3304100D02*
X16684100D01*
X15904100Y2614100D02*
X16684100D01*
X15904100D02*
Y3304100D01*
X16684100Y2614100D02*
Y3304100D01*
X16827200Y3853300D02*
X17107201D01*
X16827200Y3233300D02*
X17107201D01*
Y3853300D01*
X16827200Y3233300D02*
Y3853300D01*
X16034900Y3659600D02*
X16454900D01*
X16034900Y3909600D02*
X16454900D01*
Y3659600D02*
Y3909600D01*
X16034900Y3659600D02*
Y3909600D01*
X14180701Y7148100D02*
X14600700D01*
X14180701Y6898100D02*
X14600700D01*
X14180701D02*
Y7148100D01*
X14600700Y6898100D02*
Y7148100D01*
X12994099Y6370200D02*
Y6790200D01*
X13244099Y6370200D02*
Y6790200D01*
X12994099Y6370200D02*
X13244099D01*
X12994099Y6790200D02*
X13244099D01*
X13794200Y6417800D02*
Y6837800D01*
X14044200Y6417800D02*
Y6837800D01*
X13794200Y6417800D02*
X14044200D01*
X13794200Y6837800D02*
X14044200D01*
X13540199Y6370200D02*
Y6790200D01*
X13790199Y6370200D02*
Y6790200D01*
X13540199Y6370200D02*
X13790199D01*
X13540199Y6790200D02*
X13790199D01*
X13260800Y6370200D02*
Y6790200D01*
X13510800Y6370200D02*
Y6790200D01*
X13260800Y6370200D02*
X13510800D01*
X13260800Y6790200D02*
X13510800D01*
X14060899Y6417800D02*
Y6837800D01*
X14310899Y6417800D02*
Y6837800D01*
X14060899Y6417800D02*
X14310899D01*
X14060899Y6837800D02*
X14310899D01*
X14327600Y6417800D02*
Y6837800D01*
X14577600Y6417800D02*
Y6837800D01*
X14327600Y6417800D02*
X14577600D01*
X14327600Y6837800D02*
X14577600D01*
X7240800Y3073100D02*
Y3353100D01*
X7770800Y3073100D02*
Y3353100D01*
X7240800D02*
X7770800D01*
X7240800Y3073100D02*
X7770800D01*
X4711400Y3262300D02*
X4991400D01*
X4711400Y2732300D02*
X4991400D01*
Y3262300D01*
X4711400Y2732300D02*
Y3262300D01*
X5486100Y2732300D02*
X5766100D01*
X5486100Y3262300D02*
X5766100D01*
X5486100Y2732300D02*
Y3262300D01*
X5766100Y2732300D02*
Y3262300D01*
X15177400Y5167600D02*
X15607401D01*
X15177400Y4687600D02*
X15607401D01*
X15177400D02*
Y5167600D01*
X15607401Y4687600D02*
Y5167600D01*
%TF.MD5,e35cb8b0725d10324142d394fe208c15*%
M02*
