%TF.GenerationSoftware,Altium Limited,Altium Designer,24.1.2 (44)*%
G04 Layer_Physical_Order=1*
G04 Layer_Color=255*
%FSLAX45Y45*%
%MOMM*%
%TF.SameCoordinates,57B3B6A3-E825-4013-9261-08072AB09D51*%
%TF.FilePolarity,Positive*%
%TF.FileFunction,Copper,L1,Top,Signal*%
%TF.Part,Single*%
G01*
G75*
%TA.AperFunction,SMDPad,CuDef*%
%ADD10R,0.30000X0.99000*%
%ADD11R,0.80000X0.90000*%
%ADD12R,3.30000X2.20000*%
%ADD13R,1.00000X2.20000*%
%ADD14R,0.25000X0.30000*%
G04:AMPARAMS|DCode=15|XSize=0.85mm|YSize=0.3mm|CornerRadius=0.15mm|HoleSize=0mm|Usage=FLASHONLY|Rotation=90.000|XOffset=0mm|YOffset=0mm|HoleType=Round|Shape=RoundedRectangle|*
%AMROUNDEDRECTD15*
21,1,0.85000,0.00000,0,0,90.0*
21,1,0.55000,0.30000,0,0,90.0*
1,1,0.30000,0.00000,0.27500*
1,1,0.30000,0.00000,-0.27500*
1,1,0.30000,0.00000,-0.27500*
1,1,0.30000,0.00000,0.27500*
%
%ADD15ROUNDEDRECTD15*%
G04:AMPARAMS|DCode=16|XSize=0.3mm|YSize=0.85mm|CornerRadius=0.15mm|HoleSize=0mm|Usage=FLASHONLY|Rotation=90.000|XOffset=0mm|YOffset=0mm|HoleType=Round|Shape=RoundedRectangle|*
%AMROUNDEDRECTD16*
21,1,0.30000,0.55000,0,0,90.0*
21,1,0.00000,0.85000,0,0,90.0*
1,1,0.30000,0.27500,0.00000*
1,1,0.30000,0.27500,0.00000*
1,1,0.30000,-0.27500,0.00000*
1,1,0.30000,-0.27500,0.00000*
%
%ADD16ROUNDEDRECTD16*%
%ADD17R,2.60000X2.60000*%
%ADD18R,0.90000X0.80000*%
%ADD19R,1.65000X0.76000*%
%ADD20R,1.25000X1.80000*%
%ADD21R,0.27940X1.35890*%
%ADD22R,1.35890X0.27940*%
%ADD23R,1.55000X0.60000*%
%ADD24R,0.45000X1.45000*%
%ADD25R,3.75000X1.00000*%
%ADD26R,0.30000X0.25000*%
%ADD27R,1.80000X1.40000*%
%ADD28R,1.40000X1.80000*%
%ADD29R,1.80000X0.60000*%
%ADD30R,0.80000X0.80000*%
G04:AMPARAMS|DCode=31|XSize=3.15mm|YSize=1.45mm|CornerRadius=0.05075mm|HoleSize=0mm|Usage=FLASHONLY|Rotation=270.000|XOffset=0mm|YOffset=0mm|HoleType=Round|Shape=RoundedRectangle|*
%AMROUNDEDRECTD31*
21,1,3.15000,1.34850,0,0,270.0*
21,1,3.04850,1.45000,0,0,270.0*
1,1,0.10150,-0.67425,-1.52425*
1,1,0.10150,-0.67425,1.52425*
1,1,0.10150,0.67425,1.52425*
1,1,0.10150,0.67425,-1.52425*
%
%ADD31ROUNDEDRECTD31*%
G04:AMPARAMS|DCode=32|XSize=0.9mm|YSize=1.45mm|CornerRadius=0.0495mm|HoleSize=0mm|Usage=FLASHONLY|Rotation=270.000|XOffset=0mm|YOffset=0mm|HoleType=Round|Shape=RoundedRectangle|*
%AMROUNDEDRECTD32*
21,1,0.90000,1.35100,0,0,270.0*
21,1,0.80100,1.45000,0,0,270.0*
1,1,0.09900,-0.67550,-0.40050*
1,1,0.09900,-0.67550,0.40050*
1,1,0.09900,0.67550,0.40050*
1,1,0.09900,0.67550,-0.40050*
%
%ADD32ROUNDEDRECTD32*%
%ADD33R,2.00000X2.00000*%
%ADD34R,1.20000X1.45000*%
%ADD35R,0.40000X0.50000*%
%ADD36R,1.45000X1.20000*%
%ADD37R,0.65872X0.81213*%
%ADD38R,1.55000X0.60000*%
%TA.AperFunction,ConnectorPad*%
%ADD39R,1.30000X1.10000*%
%TA.AperFunction,SMDPad,CuDef*%
%ADD40R,1.80000X1.25000*%
%ADD41R,0.80000X0.80000*%
G04:AMPARAMS|DCode=42|XSize=1.8mm|YSize=3mm|CornerRadius=0mm|HoleSize=0mm|Usage=FLASHONLY|Rotation=270.000|XOffset=0mm|YOffset=0mm|HoleType=Round|Shape=Octagon|*
%AMOCTAGOND42*
4,1,8,1.50000,0.45000,1.50000,-0.45000,1.05000,-0.90000,-1.05000,-0.90000,-1.50000,-0.45000,-1.50000,0.45000,-1.05000,0.90000,1.05000,0.90000,1.50000,0.45000,0.0*
%
%ADD42OCTAGOND42*%

%ADD43R,1.20000X0.50000*%
%ADD44R,1.10000X0.50000*%
%TA.AperFunction,Conductor*%
%ADD45C,0.25400*%
%ADD46C,0.50800*%
%TA.AperFunction,ComponentPad*%
%ADD47C,1.57000*%
%ADD48R,1.57000X1.57000*%
%ADD49C,9.55000*%
%ADD50C,1.39000*%
%ADD51R,1.39000X1.39000*%
%ADD52C,2.42000*%
%ADD53C,3.25000*%
%TA.AperFunction,ViaPad*%
%ADD54C,1.27000*%
%ADD55C,0.60000*%
G36*
X17780000Y2540000D02*
X2540000D01*
Y12700000D01*
X17780000D01*
Y2540000D01*
D02*
G37*
%LPC*%
G36*
X17106900Y12530879D02*
X17041118Y12526567D01*
X16976460Y12513706D01*
X16914037Y12492516D01*
X16854910Y12463359D01*
X16800098Y12426733D01*
X16750533Y12383267D01*
X16707066Y12333703D01*
X16670441Y12278889D01*
X16641284Y12219764D01*
X16620094Y12157339D01*
X16607233Y12092682D01*
X16602921Y12026900D01*
X16607233Y11961118D01*
X16620094Y11896461D01*
X16641284Y11834036D01*
X16670441Y11774911D01*
X16707066Y11720097D01*
X16724866Y11699802D01*
X13797580Y8772517D01*
X13785846Y8777377D01*
Y10428909D01*
X15001802Y11644865D01*
X15022096Y11627067D01*
X15076910Y11590441D01*
X15136037Y11561284D01*
X15198460Y11540094D01*
X15263118Y11527233D01*
X15328900Y11522921D01*
X15394682Y11527233D01*
X15459338Y11540094D01*
X15521764Y11561284D01*
X15580888Y11590441D01*
X15635703Y11627067D01*
X15685268Y11670533D01*
X15728732Y11720097D01*
X15765359Y11774911D01*
X15794516Y11834036D01*
X15815706Y11896461D01*
X15828568Y11961118D01*
X15832880Y12026900D01*
X15828568Y12092682D01*
X15815706Y12157339D01*
X15794516Y12219764D01*
X15765359Y12278889D01*
X15728732Y12333703D01*
X15685268Y12383267D01*
X15635703Y12426733D01*
X15580888Y12463359D01*
X15521764Y12492516D01*
X15459338Y12513706D01*
X15394682Y12526567D01*
X15328900Y12530879D01*
X15263118Y12526567D01*
X15198460Y12513706D01*
X15136037Y12492516D01*
X15076910Y12463359D01*
X15022096Y12426733D01*
X14972533Y12383267D01*
X14929066Y12333703D01*
X14892441Y12278889D01*
X14863284Y12219764D01*
X14842094Y12157339D01*
X14829233Y12092682D01*
X14824921Y12026900D01*
X14829233Y11961118D01*
X14842094Y11896461D01*
X14863284Y11834036D01*
X14892441Y11774911D01*
X14929066Y11720097D01*
X14946864Y11699802D01*
X13732581Y10485517D01*
X13720847Y10490377D01*
Y11514800D01*
X13717889Y11529666D01*
X13709470Y11542269D01*
X13551935Y11699802D01*
X13569733Y11720097D01*
X13606358Y11774911D01*
X13635516Y11834036D01*
X13656706Y11896461D01*
X13669566Y11961118D01*
X13673878Y12026900D01*
X13669566Y12092682D01*
X13656706Y12157339D01*
X13635516Y12219764D01*
X13606358Y12278889D01*
X13569733Y12333703D01*
X13526266Y12383267D01*
X13476703Y12426733D01*
X13421889Y12463359D01*
X13362764Y12492516D01*
X13300339Y12513706D01*
X13235683Y12526567D01*
X13169901Y12530879D01*
X13104118Y12526567D01*
X13039461Y12513706D01*
X12977036Y12492516D01*
X12917911Y12463359D01*
X12863097Y12426733D01*
X12813533Y12383267D01*
X12770067Y12333703D01*
X12733441Y12278889D01*
X12704284Y12219764D01*
X12683094Y12157339D01*
X12670233Y12092682D01*
X12665921Y12026900D01*
X12670233Y11961118D01*
X12683094Y11896461D01*
X12704284Y11834036D01*
X12733441Y11774911D01*
X12770067Y11720097D01*
X12813533Y11670533D01*
X12863097Y11627067D01*
X12917911Y11590441D01*
X12977036Y11561284D01*
X13039461Y11540094D01*
X13104118Y11527233D01*
X13169901Y11522921D01*
X13235683Y11527233D01*
X13300339Y11540094D01*
X13362764Y11561284D01*
X13421889Y11590441D01*
X13476703Y11627067D01*
X13496999Y11644865D01*
X13643153Y11498709D01*
Y8653303D01*
X13631419Y8648443D01*
X11430747Y10849116D01*
Y11525467D01*
X11457682Y11527233D01*
X11522339Y11540094D01*
X11584764Y11561284D01*
X11643889Y11590441D01*
X11698703Y11627067D01*
X11748267Y11670533D01*
X11791733Y11720097D01*
X11828359Y11774911D01*
X11857516Y11834036D01*
X11878706Y11896461D01*
X11891567Y11961118D01*
X11895879Y12026900D01*
X11891567Y12092682D01*
X11878706Y12157339D01*
X11857516Y12219764D01*
X11828359Y12278889D01*
X11791733Y12333703D01*
X11748267Y12383267D01*
X11698703Y12426733D01*
X11643889Y12463359D01*
X11584764Y12492516D01*
X11522339Y12513706D01*
X11457682Y12526567D01*
X11391900Y12530879D01*
X11326118Y12526567D01*
X11261461Y12513706D01*
X11199036Y12492516D01*
X11139911Y12463359D01*
X11085097Y12426733D01*
X11035533Y12383267D01*
X10992067Y12333703D01*
X10955441Y12278889D01*
X10926284Y12219764D01*
X10905094Y12157339D01*
X10892233Y12092682D01*
X10887921Y12026900D01*
X10892233Y11961118D01*
X10905094Y11896461D01*
X10926284Y11834036D01*
X10955441Y11774911D01*
X10992067Y11720097D01*
X11035533Y11670533D01*
X11085097Y11627067D01*
X11139911Y11590441D01*
X11199036Y11561284D01*
X11261461Y11540094D01*
X11326118Y11527233D01*
X11353053Y11525467D01*
Y10833026D01*
X11356011Y10818160D01*
X11364431Y10805557D01*
X13578152Y8591835D01*
Y7753178D01*
X13566420Y7748317D01*
X9614935Y11699802D01*
X9632733Y11720097D01*
X9669359Y11774911D01*
X9698516Y11834036D01*
X9719706Y11896461D01*
X9732567Y11961118D01*
X9736879Y12026900D01*
X9732567Y12092682D01*
X9719706Y12157339D01*
X9698516Y12219764D01*
X9669359Y12278889D01*
X9632733Y12333703D01*
X9589267Y12383267D01*
X9539703Y12426733D01*
X9484889Y12463359D01*
X9425764Y12492516D01*
X9363339Y12513706D01*
X9298682Y12526567D01*
X9232900Y12530879D01*
X9167118Y12526567D01*
X9102461Y12513706D01*
X9040036Y12492516D01*
X8980911Y12463359D01*
X8926097Y12426733D01*
X8876533Y12383267D01*
X8833067Y12333703D01*
X8796441Y12278889D01*
X8767284Y12219764D01*
X8746094Y12157339D01*
X8733233Y12092682D01*
X8728921Y12026900D01*
X8733233Y11961118D01*
X8746094Y11896461D01*
X8767284Y11834036D01*
X8796441Y11774911D01*
X8833067Y11720097D01*
X8876533Y11670533D01*
X8926097Y11627067D01*
X8980911Y11590441D01*
X9040036Y11561284D01*
X9102461Y11540094D01*
X9167118Y11527233D01*
X9232900Y11522921D01*
X9298682Y11527233D01*
X9363339Y11540094D01*
X9425764Y11561284D01*
X9484889Y11590441D01*
X9539703Y11627067D01*
X9559998Y11644865D01*
X11395010Y9809853D01*
X11388754Y9798148D01*
X11387686Y9798361D01*
X9738377D01*
X7836935Y11699802D01*
X7854733Y11720097D01*
X7891359Y11774911D01*
X7920516Y11834036D01*
X7941706Y11896461D01*
X7954567Y11961118D01*
X7958879Y12026900D01*
X7954567Y12092682D01*
X7941706Y12157339D01*
X7920516Y12219764D01*
X7891359Y12278889D01*
X7854733Y12333703D01*
X7811267Y12383267D01*
X7761703Y12426733D01*
X7706889Y12463359D01*
X7647764Y12492516D01*
X7585339Y12513706D01*
X7520682Y12526567D01*
X7454900Y12530879D01*
X7389118Y12526567D01*
X7324461Y12513706D01*
X7262036Y12492516D01*
X7202911Y12463359D01*
X7148097Y12426733D01*
X7098533Y12383267D01*
X7055067Y12333703D01*
X7018441Y12278889D01*
X6989284Y12219764D01*
X6968094Y12157339D01*
X6955233Y12092682D01*
X6950921Y12026900D01*
X6955233Y11961118D01*
X6968094Y11896461D01*
X6989284Y11834036D01*
X7018441Y11774911D01*
X7055067Y11720097D01*
X7098533Y11670533D01*
X7148097Y11627067D01*
X7202911Y11590441D01*
X7262036Y11561284D01*
X7324461Y11540094D01*
X7389118Y11527233D01*
X7454900Y11522921D01*
X7520682Y11527233D01*
X7585339Y11540094D01*
X7647764Y11561284D01*
X7706889Y11590441D01*
X7761703Y11627067D01*
X7781998Y11644865D01*
X9694817Y9732046D01*
X9707420Y9723625D01*
X9722286Y9720668D01*
X11371595D01*
X13439101Y7653162D01*
Y7512300D01*
X13929300D01*
Y7610200D01*
X13954700D01*
Y7512300D01*
X13994299D01*
Y7610199D01*
Y7708100D01*
X13964841D01*
X13960757Y7720126D01*
X13962804Y7721696D01*
X13977054Y7740266D01*
X13986012Y7761893D01*
X13989067Y7785100D01*
X13986012Y7808307D01*
X13977054Y7829934D01*
X13962804Y7848504D01*
X13944234Y7862754D01*
X13922607Y7871712D01*
X13899400Y7874767D01*
X13876192Y7871712D01*
X13854565Y7862754D01*
X13848038Y7857744D01*
X13836646Y7863361D01*
Y8701709D01*
X16779802Y11644865D01*
X16800098Y11627067D01*
X16854910Y11590441D01*
X16914037Y11561284D01*
X16976460Y11540094D01*
X17041118Y11527233D01*
X17106900Y11522921D01*
X17172682Y11527233D01*
X17237338Y11540094D01*
X17299763Y11561284D01*
X17358888Y11590441D01*
X17413702Y11627067D01*
X17463268Y11670533D01*
X17506734Y11720097D01*
X17543359Y11774911D01*
X17572516Y11834036D01*
X17593706Y11896461D01*
X17606567Y11961118D01*
X17610880Y12026900D01*
X17606567Y12092682D01*
X17593706Y12157339D01*
X17572516Y12219764D01*
X17543359Y12278889D01*
X17506734Y12333703D01*
X17463268Y12383267D01*
X17413702Y12426733D01*
X17358888Y12463359D01*
X17299763Y12492516D01*
X17237338Y12513706D01*
X17172682Y12526567D01*
X17106900Y12530879D01*
D02*
G37*
G36*
X3390900Y9905095D02*
Y9829800D01*
X3466195D01*
X3464812Y9840307D01*
X3455854Y9861934D01*
X3441604Y9880504D01*
X3423034Y9894754D01*
X3401407Y9903712D01*
X3390900Y9905095D01*
D02*
G37*
G36*
X3365500D02*
X3354993Y9903712D01*
X3333366Y9894754D01*
X3314796Y9880504D01*
X3300546Y9861934D01*
X3291588Y9840307D01*
X3290205Y9829800D01*
X3365500D01*
Y9905095D01*
D02*
G37*
G36*
X3466195Y9804400D02*
X3390900D01*
Y9729105D01*
X3401407Y9730488D01*
X3423034Y9739446D01*
X3441604Y9753696D01*
X3455854Y9772266D01*
X3464812Y9793893D01*
X3466195Y9804400D01*
D02*
G37*
G36*
X3365500D02*
X3290205D01*
X3291588Y9793893D01*
X3300546Y9772266D01*
X3314796Y9753696D01*
X3333366Y9739446D01*
X3354993Y9730488D01*
X3365500Y9729105D01*
Y9804400D01*
D02*
G37*
G36*
X5295900Y12530879D02*
X5230118Y12526567D01*
X5165461Y12513706D01*
X5103036Y12492516D01*
X5043911Y12463359D01*
X4989097Y12426733D01*
X4939533Y12383267D01*
X4896067Y12333703D01*
X4859441Y12278889D01*
X4830284Y12219764D01*
X4809094Y12157339D01*
X4796233Y12092682D01*
X4791921Y12026900D01*
X4796233Y11961118D01*
X4809094Y11896461D01*
X4830284Y11834036D01*
X4859441Y11774911D01*
X4896067Y11720097D01*
X4939533Y11670533D01*
X4989097Y11627067D01*
X5043911Y11590441D01*
X5103036Y11561284D01*
X5165461Y11540094D01*
X5230118Y11527233D01*
X5295900Y11522921D01*
X5361682Y11527233D01*
X5426339Y11540094D01*
X5488764Y11561284D01*
X5547889Y11590441D01*
X5602703Y11627067D01*
X5622998Y11644865D01*
X7743083Y9524780D01*
X7738223Y9513047D01*
X6086691D01*
X3899935Y11699802D01*
X3917733Y11720097D01*
X3954359Y11774911D01*
X3983516Y11834036D01*
X4004706Y11896461D01*
X4017567Y11961118D01*
X4021879Y12026900D01*
X4017567Y12092682D01*
X4004706Y12157339D01*
X3983516Y12219764D01*
X3954359Y12278889D01*
X3917733Y12333703D01*
X3874267Y12383267D01*
X3824703Y12426733D01*
X3769889Y12463359D01*
X3710764Y12492516D01*
X3648339Y12513706D01*
X3583682Y12526567D01*
X3517900Y12530879D01*
X3452118Y12526567D01*
X3387461Y12513706D01*
X3325036Y12492516D01*
X3265911Y12463359D01*
X3211097Y12426733D01*
X3161533Y12383267D01*
X3118067Y12333703D01*
X3081441Y12278889D01*
X3052284Y12219764D01*
X3031094Y12157339D01*
X3018233Y12092682D01*
X3013921Y12026900D01*
X3018233Y11961118D01*
X3031094Y11896461D01*
X3052284Y11834036D01*
X3081441Y11774911D01*
X3118067Y11720097D01*
X3161533Y11670533D01*
X3211097Y11627067D01*
X3265911Y11590441D01*
X3325036Y11561284D01*
X3387461Y11540094D01*
X3452118Y11527233D01*
X3517900Y11522921D01*
X3583682Y11527233D01*
X3648339Y11540094D01*
X3710764Y11561284D01*
X3769889Y11590441D01*
X3824703Y11627067D01*
X3844998Y11644865D01*
X6043131Y9446731D01*
X6055734Y9438311D01*
X6070600Y9435353D01*
X10321709D01*
X12901131Y6855931D01*
X12913734Y6847511D01*
X12928600Y6844553D01*
X13173624D01*
X13178484Y6832820D01*
X13114618Y6768955D01*
X13104234Y6766889D01*
X13102304Y6765600D01*
X13021201D01*
Y6594800D01*
X13217000D01*
Y6761463D01*
X13249290Y6793753D01*
X13377023D01*
X13381883Y6782020D01*
X13365463Y6765600D01*
X13287900D01*
Y6594800D01*
X13483701D01*
Y6740798D01*
X13567300D01*
Y6594800D01*
X13763100D01*
Y6723163D01*
X13774469Y6734531D01*
X13782889Y6747134D01*
X13785846Y6762000D01*
Y6875890D01*
X13798546Y6881151D01*
X13854764Y6824933D01*
X13849904Y6813200D01*
X13821300D01*
Y6642400D01*
X14017101D01*
Y6744751D01*
X14028833Y6749611D01*
X14030814Y6747631D01*
X14043416Y6739211D01*
X14058282Y6736254D01*
X14088000D01*
Y6642400D01*
X14283800D01*
Y6800669D01*
X14283800Y6804132D01*
X14295093Y6814600D01*
X14298460Y6814502D01*
X14354700Y6758263D01*
Y6642400D01*
X14524353D01*
Y6613200D01*
X14354700D01*
Y6497337D01*
X14298460Y6441098D01*
X14295093Y6441001D01*
X14283800Y6451468D01*
X14283800Y6454273D01*
Y6613200D01*
X14088000D01*
Y6484253D01*
X14087254Y6480500D01*
Y6301732D01*
X13969780Y6184259D01*
X13958047Y6189119D01*
Y6442400D01*
X14017101D01*
Y6613200D01*
X13821300D01*
Y6442400D01*
X13880353D01*
Y6166674D01*
X13746925Y6033247D01*
X13277277D01*
X13272417Y6044980D01*
X13622237Y6394800D01*
X13763100D01*
Y6565600D01*
X13567300D01*
Y6449737D01*
X13436380Y6318817D01*
X13424648Y6323677D01*
Y6394800D01*
X13483701D01*
Y6565600D01*
X13287900D01*
Y6394800D01*
X13346953D01*
Y6301232D01*
X13180568Y6134847D01*
X12865100D01*
X12850233Y6131889D01*
X12837631Y6123469D01*
X12810909Y6096747D01*
X12344029D01*
X12343197Y6109447D01*
X12354907Y6110988D01*
X12376534Y6119946D01*
X12395104Y6134196D01*
X12409354Y6152766D01*
X12411834Y6158753D01*
X13093700D01*
X13108566Y6161711D01*
X13121169Y6170131D01*
X13146568Y6195531D01*
X13154990Y6208134D01*
X13157947Y6223000D01*
Y6394800D01*
X13217000D01*
Y6565600D01*
X13021201D01*
Y6394800D01*
X13080254D01*
Y6239091D01*
X13077609Y6236447D01*
X12411834D01*
X12409354Y6242434D01*
X12395104Y6261004D01*
X12376534Y6275254D01*
X12354907Y6284212D01*
X12331700Y6287267D01*
X12308493Y6284212D01*
X12286866Y6275254D01*
X12268296Y6261004D01*
X12254046Y6242434D01*
X12245088Y6220807D01*
X12242033Y6197600D01*
X12245088Y6174393D01*
X12254046Y6152766D01*
X12268296Y6134196D01*
X12286866Y6119946D01*
X12308493Y6110988D01*
X12320203Y6109447D01*
X12319371Y6096747D01*
X12234034D01*
X12231554Y6102734D01*
X12217304Y6121304D01*
X12198734Y6135554D01*
X12177107Y6144512D01*
X12153900Y6147567D01*
X12130693Y6144512D01*
X12109066Y6135554D01*
X12090496Y6121304D01*
X12076246Y6102734D01*
X12067288Y6081107D01*
X12064233Y6057900D01*
X12067288Y6034693D01*
X12076246Y6013066D01*
X12090496Y5994496D01*
X12109066Y5980246D01*
X12130693Y5971288D01*
X12153900Y5968233D01*
X12177107Y5971288D01*
X12198734Y5980246D01*
X12217304Y5994496D01*
X12231554Y6013066D01*
X12234034Y6019053D01*
X12788465D01*
X12793325Y6007320D01*
X12717651Y5931647D01*
X12107034D01*
X12104554Y5937634D01*
X12090304Y5956204D01*
X12071734Y5970454D01*
X12050107Y5979412D01*
X12026900Y5982467D01*
X12003693Y5979412D01*
X11982066Y5970454D01*
X11963496Y5956204D01*
X11949246Y5937634D01*
X11940288Y5916007D01*
X11937233Y5892800D01*
X11940288Y5869593D01*
X11949246Y5847966D01*
X11963496Y5829396D01*
X11982066Y5815146D01*
X12003693Y5806188D01*
X12026900Y5803133D01*
X12050107Y5806188D01*
X12071734Y5815146D01*
X12090304Y5829396D01*
X12104554Y5847966D01*
X12107034Y5853953D01*
X12703923D01*
X12708783Y5842220D01*
X12633109Y5766547D01*
X11967334D01*
X11964854Y5772534D01*
X11950604Y5791104D01*
X11932034Y5805354D01*
X11910407Y5814312D01*
X11887200Y5817367D01*
X11863993Y5814312D01*
X11842366Y5805354D01*
X11823796Y5791104D01*
X11809546Y5772534D01*
X11800588Y5750907D01*
X11797533Y5727700D01*
X11800588Y5704493D01*
X11809546Y5682866D01*
X11823796Y5664296D01*
X11842366Y5650046D01*
X11863993Y5641088D01*
X11887200Y5638033D01*
X11910407Y5641088D01*
X11932034Y5650046D01*
X11950604Y5664296D01*
X11964854Y5682866D01*
X11967334Y5688853D01*
X12610665D01*
X12615525Y5677120D01*
X12552551Y5614147D01*
X11827634D01*
X11825154Y5620134D01*
X11810904Y5638704D01*
X11792334Y5652954D01*
X11770707Y5661912D01*
X11747500Y5664967D01*
X11724293Y5661912D01*
X11702666Y5652954D01*
X11684096Y5638704D01*
X11669846Y5620134D01*
X11660888Y5598507D01*
X11657833Y5575300D01*
X11660888Y5552093D01*
X11669846Y5530466D01*
X11684096Y5511896D01*
X11702666Y5497646D01*
X11724293Y5488688D01*
X11736003Y5487147D01*
X11735171Y5474447D01*
X11687934D01*
X11685454Y5480434D01*
X11671204Y5499004D01*
X11652634Y5513254D01*
X11631007Y5522212D01*
X11607800Y5525267D01*
X11584593Y5522212D01*
X11562966Y5513254D01*
X11544396Y5499004D01*
X11530146Y5480434D01*
X11521188Y5458807D01*
X11518133Y5435600D01*
X11521188Y5412393D01*
X11530146Y5390766D01*
X11544396Y5372196D01*
X11562966Y5357946D01*
X11584593Y5348988D01*
X11607800Y5345933D01*
X11631007Y5348988D01*
X11652634Y5357946D01*
X11671204Y5372196D01*
X11685454Y5390766D01*
X11687934Y5396753D01*
X12573000D01*
X12587866Y5399711D01*
X12600469Y5408131D01*
X13046291Y5853953D01*
X13805099D01*
X13819966Y5856911D01*
X13832568Y5865331D01*
X14409637Y6442400D01*
X14524353D01*
Y6376391D01*
X13838663Y5690700D01*
X13779745D01*
Y5726550D01*
X13776788Y5741416D01*
X13768369Y5754019D01*
X13739549Y5782837D01*
Y5806200D01*
X13663745D01*
Y5770559D01*
X13662798Y5765800D01*
X13663745Y5761041D01*
Y5725400D01*
X13687112D01*
X13702052Y5710459D01*
Y5632600D01*
X13702800Y5628846D01*
Y5536846D01*
X13686900D01*
X13672034Y5533889D01*
X13659431Y5525469D01*
X13645332Y5511370D01*
X13633600Y5516231D01*
Y5562600D01*
X13550900D01*
Y5459900D01*
X13577269D01*
X13582130Y5448167D01*
X13497710Y5363746D01*
X13459801D01*
X13456047Y5363000D01*
X13347099D01*
Y5266446D01*
X12153500D01*
X12138634Y5263489D01*
X12126031Y5255068D01*
X9856209Y2985247D01*
X8678700D01*
Y3001800D01*
X8472900D01*
Y2985247D01*
X8331200D01*
X8316334Y2982289D01*
X8303731Y2973869D01*
X8061109Y2731247D01*
X7544891D01*
X7441000Y2835137D01*
Y3011000D01*
X7391947D01*
Y3097700D01*
X7441200D01*
Y3328500D01*
X7392147D01*
Y3402500D01*
X7441200D01*
Y3479053D01*
X7453900D01*
X7468766Y3482011D01*
X7481369Y3490431D01*
X7544428Y3553491D01*
X7548418Y3559463D01*
X7558667Y3569711D01*
X7570400Y3564851D01*
Y3402500D01*
X7691262D01*
X7793831Y3299931D01*
X7806434Y3291511D01*
X7821300Y3288553D01*
X7932900D01*
Y3272000D01*
X8064975D01*
X8071764Y3259300D01*
X8069924Y3256546D01*
X8053100D01*
X8049347Y3255800D01*
X7932900D01*
Y3239247D01*
X7746200D01*
Y3328500D01*
X7570400D01*
Y3097700D01*
X7746200D01*
Y3161553D01*
X7932900D01*
Y3145000D01*
X8138700D01*
Y3202865D01*
X8143089Y3209434D01*
X8143566Y3211828D01*
X8771905Y3840168D01*
X8777893Y3837688D01*
X8801100Y3834633D01*
X8824307Y3837688D01*
X8845934Y3846646D01*
X8864504Y3860896D01*
X8878754Y3879466D01*
X8887712Y3901093D01*
X8890767Y3924300D01*
X8887712Y3947507D01*
X8878754Y3969134D01*
X8864504Y3987704D01*
X8845934Y4001954D01*
X8824307Y4010912D01*
X8801100Y4013967D01*
X8785145Y4011867D01*
X8784759Y4011983D01*
X8774483Y4022259D01*
X8774366Y4022645D01*
X8776467Y4038600D01*
X8773412Y4061807D01*
X8764454Y4083434D01*
X8750204Y4102004D01*
X8731634Y4116254D01*
X8710007Y4125212D01*
X8686800Y4128267D01*
X8663593Y4125212D01*
X8641966Y4116254D01*
X8623396Y4102004D01*
X8609146Y4083434D01*
X8600188Y4061807D01*
X8597133Y4038600D01*
X8600188Y4015393D01*
X8602668Y4009405D01*
X8073131Y3479869D01*
X8064711Y3467266D01*
X8061753Y3452400D01*
Y3382800D01*
X7932900D01*
Y3366247D01*
X7837390D01*
X7746200Y3457437D01*
Y3633300D01*
X7638849D01*
X7633989Y3645033D01*
X7762239Y3773283D01*
X7837212D01*
X7852078Y3776240D01*
X7864680Y3784661D01*
X8108469Y4028449D01*
X8110641Y4031700D01*
X8173700D01*
Y4172500D01*
X8147147D01*
Y4196800D01*
X8173700D01*
Y4337600D01*
X8147147D01*
Y4514300D01*
X8180700D01*
Y4655100D01*
X8117640D01*
X8115468Y4658351D01*
X7996550Y4777269D01*
X7983948Y4785689D01*
X7969082Y4788647D01*
X7444100D01*
Y4820200D01*
X7417547D01*
Y4851400D01*
X7414589Y4866266D01*
X7406169Y4878869D01*
X7365800Y4919237D01*
Y4942600D01*
X7289995D01*
Y4906959D01*
X7289048Y4902200D01*
X7267700D01*
Y4942600D01*
X7242500D01*
Y4942543D01*
X7229800Y4935754D01*
X7227047Y4937594D01*
Y6181509D01*
X7394186Y6348648D01*
X7573360D01*
Y6348125D01*
X7760050D01*
Y6398125D01*
Y6499316D01*
X7771561Y6501605D01*
X7784164Y6510026D01*
X7939569Y6665431D01*
X7947989Y6678034D01*
X7950947Y6692900D01*
Y6892166D01*
X7956934Y6894646D01*
X7975504Y6908896D01*
X7989754Y6927466D01*
X7998712Y6949093D01*
X8001767Y6972300D01*
X7998712Y6995507D01*
X7989754Y7017134D01*
X7975504Y7035704D01*
X7956934Y7049954D01*
X7935307Y7058912D01*
X7912100Y7061967D01*
X7888893Y7058912D01*
X7867266Y7049954D01*
X7849347Y7036204D01*
X7844996Y7036922D01*
X7836647Y7039756D01*
Y7312445D01*
X7833689Y7327311D01*
X7825269Y7339914D01*
X7806910Y7358273D01*
X8297286Y7848649D01*
X8357395D01*
X8372261Y7851606D01*
X8384864Y7860026D01*
X8429005Y7904168D01*
X8434993Y7901688D01*
X8458200Y7898633D01*
X8481407Y7901688D01*
X8503034Y7910646D01*
X8521604Y7924896D01*
X8535854Y7943466D01*
X8538334Y7949453D01*
X8801100D01*
X8815966Y7952411D01*
X8828569Y7960831D01*
X9018720Y8150983D01*
X9030454Y8146123D01*
Y8128293D01*
X9022966Y8125192D01*
X9004396Y8110942D01*
X8990146Y8092371D01*
X8981188Y8070745D01*
X8979805Y8060238D01*
X9155795D01*
X9154412Y8070745D01*
X9145454Y8092371D01*
X9131204Y8110942D01*
X9112634Y8125192D01*
X9108147Y8127050D01*
Y8246745D01*
X9658670D01*
Y8337607D01*
X9659417Y8341360D01*
Y9234781D01*
X9662507Y9235188D01*
X9684134Y9244146D01*
X9702704Y9258396D01*
X9716954Y9276966D01*
X9725912Y9298593D01*
X9728967Y9321800D01*
X9725912Y9345007D01*
X9716954Y9366634D01*
X9702704Y9385204D01*
X9684134Y9399454D01*
X9662507Y9408412D01*
X9639300Y9411467D01*
X9616093Y9408412D01*
X9594466Y9399454D01*
X9575896Y9385204D01*
X9561646Y9366634D01*
X9552688Y9345007D01*
X9549633Y9321800D01*
X9552688Y9298593D01*
X9561646Y9276966D01*
X9575896Y9258396D01*
X9581724Y9253924D01*
Y8433435D01*
X9079924D01*
Y8340090D01*
X9058674D01*
Y8433435D01*
X8958146D01*
Y8510517D01*
X8964007Y8511288D01*
X8985634Y8520246D01*
X9004204Y8534496D01*
X9018454Y8553066D01*
X9027412Y8574693D01*
X9030467Y8597900D01*
X9027412Y8621107D01*
X9018454Y8642734D01*
X9004204Y8661304D01*
X8985634Y8675554D01*
X8964007Y8684512D01*
X8940800Y8687567D01*
X8917593Y8684512D01*
X8895966Y8675554D01*
X8877396Y8661304D01*
X8872429Y8654832D01*
X8861336Y8661237D01*
X8862312Y8663593D01*
X8865367Y8686800D01*
X8862312Y8710007D01*
X8853354Y8731634D01*
X8839104Y8750204D01*
X8820534Y8764454D01*
X8798907Y8773412D01*
X8775700Y8776467D01*
X8752493Y8773412D01*
X8730866Y8764454D01*
X8712296Y8750204D01*
X8698046Y8731634D01*
X8689088Y8710007D01*
X8686033Y8686800D01*
X8689088Y8663593D01*
X8698046Y8641966D01*
X8712296Y8623396D01*
X8730453Y8609463D01*
Y8433435D01*
X8708146D01*
Y8494955D01*
X8705189Y8509821D01*
X8696768Y8522423D01*
X8676512Y8542680D01*
X8684512Y8561993D01*
X8687567Y8585200D01*
X8684512Y8608407D01*
X8675554Y8630034D01*
X8661304Y8648604D01*
X8642734Y8662854D01*
X8621107Y8671812D01*
X8597900Y8674867D01*
X8574693Y8671812D01*
X8553066Y8662854D01*
X8546537Y8657844D01*
X8535147Y8663461D01*
Y8944784D01*
X8532189Y8959650D01*
X8523769Y8972253D01*
X8210253Y9285769D01*
X8197650Y9294189D01*
X8182784Y9297147D01*
X7950200D01*
X7935334Y9294189D01*
X7922731Y9285769D01*
X7738095Y9101132D01*
X7732107Y9103612D01*
X7708900Y9106667D01*
X7685693Y9103612D01*
X7664066Y9094654D01*
X7645496Y9080404D01*
X7631246Y9061834D01*
X7622288Y9040207D01*
X7619233Y9017000D01*
X7622288Y8993793D01*
X7631246Y8972166D01*
X7645496Y8953596D01*
X7664066Y8939346D01*
X7685693Y8930388D01*
X7708900Y8927333D01*
X7732107Y8930388D01*
X7753734Y8939346D01*
X7772304Y8953596D01*
X7786554Y8972166D01*
X7795512Y8993793D01*
X7798567Y9017000D01*
X7795512Y9040207D01*
X7793032Y9046195D01*
X7966291Y9219453D01*
X8166693D01*
X8307535Y9078612D01*
X8303452Y9066586D01*
X8295293Y9065512D01*
X8273666Y9056554D01*
X8255096Y9042304D01*
X8240846Y9023734D01*
X8231888Y9002107D01*
X8228833Y8978900D01*
X8231888Y8955693D01*
X8234368Y8949705D01*
X8191831Y8907169D01*
X8183411Y8894566D01*
X8180454Y8879700D01*
Y8433435D01*
X8158146D01*
Y9014723D01*
X8160134Y9015546D01*
X8178704Y9029796D01*
X8192954Y9048366D01*
X8201912Y9069993D01*
X8204967Y9093200D01*
X8201912Y9116407D01*
X8192954Y9138034D01*
X8178704Y9156604D01*
X8160134Y9170854D01*
X8138507Y9179812D01*
X8115300Y9182867D01*
X8092093Y9179812D01*
X8070466Y9170854D01*
X8051896Y9156604D01*
X8037646Y9138034D01*
X8028688Y9116407D01*
X8025633Y9093200D01*
X8028688Y9069993D01*
X8037646Y9048366D01*
X8051896Y9029796D01*
X8070466Y9015546D01*
X8080453Y9011409D01*
Y8433435D01*
X7829930D01*
Y8246745D01*
X7830453D01*
Y7992145D01*
X7833411Y7977279D01*
X7841831Y7964676D01*
X7868433Y7938075D01*
X7863573Y7926342D01*
X7760050D01*
Y8048125D01*
Y8176865D01*
X7573360D01*
Y8048125D01*
Y7926342D01*
X7457121D01*
X5816394Y9567069D01*
X5803792Y9575490D01*
X5788926Y9578447D01*
X3225476D01*
X3210611Y9575490D01*
X3198008Y9567069D01*
X2597131Y8966192D01*
X2588710Y8953589D01*
X2585753Y8938724D01*
Y7820918D01*
X2588710Y7806052D01*
X2597131Y7793450D01*
X2674799Y7715782D01*
X2673188Y7699432D01*
X2670250Y7697469D01*
X2647931Y7675150D01*
X2639510Y7662548D01*
X2636553Y7647682D01*
Y7516118D01*
X2639510Y7501252D01*
X2647931Y7488650D01*
X2721548Y7415033D01*
X2716687Y7403300D01*
X2688100D01*
Y7252500D01*
X3113900D01*
Y7334851D01*
X3125633Y7339711D01*
X3214944Y7250400D01*
Y5453508D01*
X3217901Y5438642D01*
X3226322Y5426039D01*
X3326194Y5326168D01*
X3319664Y5315275D01*
X3317335Y5315981D01*
X3280500Y5319609D01*
X3243665Y5315981D01*
X3208246Y5305237D01*
X3175603Y5287789D01*
X3146992Y5264308D01*
X3123511Y5235697D01*
X3106063Y5203054D01*
X3095319Y5167635D01*
X3091691Y5130800D01*
X3095319Y5093965D01*
X3106063Y5058546D01*
X3123511Y5025903D01*
X3146992Y4997292D01*
X3175603Y4973811D01*
X3208246Y4956363D01*
X3243665Y4945619D01*
X3280500Y4941991D01*
X3317335Y4945619D01*
X3352754Y4956363D01*
X3385397Y4973811D01*
X3414008Y4997292D01*
X3429553Y5016234D01*
X3442253Y5011689D01*
Y4936502D01*
X3348631Y4842880D01*
X3340210Y4830277D01*
X3337253Y4815411D01*
Y4103318D01*
X3340210Y4088453D01*
X3348631Y4075850D01*
X3412533Y4011948D01*
X3403994Y4002526D01*
X3385397Y4017789D01*
X3352754Y4035237D01*
X3317335Y4045981D01*
X3280500Y4049609D01*
X3243665Y4045981D01*
X3208246Y4035237D01*
X3175603Y4017789D01*
X3146992Y3994308D01*
X3123511Y3965697D01*
X3106063Y3933054D01*
X3095319Y3897635D01*
X3091691Y3860800D01*
X3095319Y3823965D01*
X3106063Y3788546D01*
X3123511Y3755903D01*
X3146992Y3727292D01*
X3175603Y3703811D01*
X3208246Y3686363D01*
X3243665Y3675619D01*
X3280500Y3671991D01*
X3317335Y3675619D01*
X3352754Y3686363D01*
X3385397Y3703811D01*
X3414008Y3727292D01*
X3437489Y3755903D01*
X3454937Y3788546D01*
X3465681Y3823965D01*
X3469309Y3860800D01*
X3465681Y3897635D01*
X3454937Y3933054D01*
X3437489Y3965697D01*
X3422226Y3984295D01*
X3431648Y3992834D01*
X3534550Y3889932D01*
X3547152Y3881511D01*
X3562018Y3878554D01*
X4111630D01*
X4117893Y3865854D01*
X4111605Y3857660D01*
X4102043Y3834574D01*
X4098781Y3809800D01*
X4102043Y3785026D01*
X4111605Y3761941D01*
X4126817Y3742117D01*
X4146641Y3726905D01*
X4155654Y3723172D01*
Y3494400D01*
X4120600D01*
Y3363600D01*
Y3321700D01*
X4191000D01*
X4261400D01*
Y3363600D01*
Y3494400D01*
X4233347D01*
Y3723172D01*
X4242360Y3726905D01*
X4262183Y3742117D01*
X4277395Y3761941D01*
X4286957Y3785026D01*
X4288306Y3795266D01*
X4301715Y3799818D01*
X4735253Y3366279D01*
Y3199600D01*
X4736000Y3195846D01*
Y3103754D01*
X4735253Y3100000D01*
Y2989972D01*
X4695831Y2950550D01*
X4687410Y2937947D01*
X4684453Y2923082D01*
Y2766518D01*
X4687410Y2751653D01*
X4695831Y2739050D01*
X4820750Y2614131D01*
X4833353Y2605711D01*
X4848218Y2602753D01*
X9639342D01*
X9654208Y2605711D01*
X9666810Y2614131D01*
X10692032Y3639353D01*
X14159900D01*
Y3619746D01*
X14097701D01*
X14082834Y3616789D01*
X14070232Y3608368D01*
X13967763Y3505900D01*
X13891901D01*
Y3375100D01*
X14022701D01*
Y3450963D01*
X14113789Y3542053D01*
X14198000D01*
X14201753Y3542800D01*
X14310699D01*
Y3736653D01*
X14328600D01*
X14343466Y3739611D01*
X14356068Y3748031D01*
X14378168Y3770130D01*
X14389900Y3765270D01*
Y3690900D01*
X14452600D01*
Y3813600D01*
X14438229D01*
X14433369Y3825333D01*
X14533189Y3925153D01*
X14573100D01*
X14576854Y3925900D01*
X14725800D01*
Y4156700D01*
X14589937D01*
X14565997Y4180641D01*
Y4257200D01*
X14565050Y4261959D01*
Y4297600D01*
X14489246D01*
Y4261959D01*
X14488298Y4257200D01*
X14479649D01*
Y4244500D01*
X14441750D01*
Y4216800D01*
X14488304D01*
Y4164550D01*
X14491261Y4149684D01*
X14499681Y4137081D01*
X14535001Y4101763D01*
Y4002846D01*
X14517101D01*
X14502234Y3999889D01*
X14489632Y3991469D01*
X14477533Y3979371D01*
X14465800Y3984231D01*
Y4028600D01*
X14383099D01*
Y3925900D01*
X14407469D01*
X14412331Y3914167D01*
X14312509Y3814346D01*
X14272600D01*
X14268848Y3813600D01*
X14159900D01*
Y3717046D01*
X10714477D01*
X10709617Y3728780D01*
X12169590Y5188753D01*
X13347099D01*
Y5092200D01*
X13497900D01*
Y5286053D01*
X13513800D01*
X13528667Y5289011D01*
X13541267Y5297431D01*
X13565367Y5321530D01*
X13577100Y5316670D01*
Y5240300D01*
X13639799D01*
Y5363000D01*
X13623430D01*
X13618570Y5374733D01*
X13702991Y5459153D01*
X13740900D01*
X13744653Y5459900D01*
X13893600D01*
Y5635763D01*
X14590669Y6332831D01*
X14599089Y6345434D01*
X14602046Y6360300D01*
Y6803582D01*
X14599089Y6818448D01*
X14590669Y6831050D01*
X14576846Y6844872D01*
Y6975800D01*
X14587071Y6984253D01*
X14702615D01*
X14717482Y6987211D01*
X14730086Y6995631D01*
X14962488Y7228035D01*
X14974513Y7223952D01*
X14975587Y7215793D01*
X14984546Y7194166D01*
X14998796Y7175596D01*
X15017366Y7161346D01*
X15023354Y7158866D01*
Y6907718D01*
X15026311Y6892853D01*
X15034731Y6880250D01*
X15251089Y6663891D01*
X15263693Y6655470D01*
X15274602Y6653300D01*
X15273351Y6640600D01*
X15253200D01*
Y6529800D01*
X15329753D01*
Y6440000D01*
X15271600D01*
Y6209200D01*
X15407463D01*
X15433054Y6183609D01*
Y6121400D01*
X15434000Y6116641D01*
Y6081000D01*
X15509805D01*
Y6116641D01*
X15510751Y6121400D01*
X15519400D01*
Y6134100D01*
X15557300D01*
Y6161800D01*
X15510745D01*
Y6199700D01*
X15507790Y6214566D01*
X15499368Y6227169D01*
X15462399Y6264137D01*
Y6440000D01*
X15407446D01*
Y6529800D01*
X15484000D01*
Y6624800D01*
X15684000D01*
X15684000Y6624800D01*
X15696700Y6625763D01*
X15823453Y6499009D01*
Y6086691D01*
X14780731Y5043969D01*
X14772311Y5031366D01*
X14769353Y5016500D01*
Y4720477D01*
X14757620Y4715617D01*
X14314748Y5158491D01*
Y5162400D01*
X14314000Y5166154D01*
Y5238154D01*
X14354201D01*
X14369066Y5241111D01*
X14381670Y5249532D01*
X14418837Y5286700D01*
X14442200D01*
Y5362505D01*
X14406558D01*
X14401801Y5363451D01*
X14397041Y5362505D01*
X14361400D01*
Y5339137D01*
X14338109Y5315847D01*
X14255901D01*
X14252145Y5315100D01*
X14143259D01*
X14133888Y5324469D01*
X14121288Y5332890D01*
X14106421Y5335847D01*
X13957899D01*
Y5363000D01*
X13807100D01*
Y5092200D01*
X13957899D01*
Y5258154D01*
X14083200D01*
Y5124300D01*
X14242171D01*
X14248431Y5114931D01*
X14756406Y4606958D01*
Y4368800D01*
X14760347Y4348979D01*
X14771574Y4332175D01*
X15053616Y4050133D01*
X15048756Y4038400D01*
X15011400D01*
Y3955700D01*
X15114101D01*
Y3973057D01*
X15125833Y3977917D01*
X15220367Y3883383D01*
X15215508Y3871650D01*
X15214600D01*
Y3833750D01*
X15201900D01*
Y3825101D01*
X15197142Y3824155D01*
X15161501D01*
Y3800787D01*
X15139859Y3779147D01*
X15056000D01*
X15052246Y3778400D01*
X14936037D01*
X14930066Y3782389D01*
X14915199Y3785347D01*
X14770700D01*
Y3813600D01*
X14619901D01*
Y3542800D01*
X14770700D01*
Y3707653D01*
X14883299D01*
Y3587600D01*
X15114101D01*
Y3644153D01*
X15265401D01*
X15280266Y3647111D01*
X15292870Y3655531D01*
X15370544Y3733206D01*
X15901875Y3201875D01*
X15918678Y3190647D01*
X15938499Y3186705D01*
X16031346D01*
X16064610Y3153440D01*
X16058354Y3141736D01*
X16054025Y3142597D01*
X15999300D01*
Y2971799D01*
X16085097D01*
Y3111525D01*
X16084236Y3115854D01*
X16095940Y3122110D01*
X16295575Y2922475D01*
X16312379Y2911247D01*
X16332201Y2907305D01*
X16505441D01*
X16505461Y2907208D01*
X16512169Y2897169D01*
X16522208Y2890461D01*
X16534050Y2888105D01*
X16669150D01*
X16680992Y2890461D01*
X16691031Y2897169D01*
X16697739Y2907208D01*
X16700095Y2919050D01*
Y2999150D01*
X16697739Y3010992D01*
X16691031Y3021031D01*
X16680992Y3027739D01*
X16669150Y3030095D01*
X16534050D01*
X16522208Y3027739D01*
X16512169Y3021031D01*
X16505461Y3010992D01*
X16505441Y3010895D01*
X16353654D01*
X16089426Y3275125D01*
X16072621Y3286353D01*
X16052800Y3290295D01*
X15959953D01*
X15418547Y3831703D01*
Y4352709D01*
X15470891Y4405053D01*
X15474800D01*
X15478554Y4405800D01*
X15572563D01*
X15598154Y4380209D01*
Y4318000D01*
X15599100Y4313241D01*
Y4277600D01*
X15674905D01*
Y4313241D01*
X15675851Y4318000D01*
X15684500D01*
Y4330700D01*
X15722400D01*
Y4358400D01*
X15675845D01*
Y4396300D01*
X15672890Y4411166D01*
X15664468Y4423769D01*
X15627499Y4460737D01*
Y4577642D01*
X15635770Y4585911D01*
X15644189Y4598513D01*
X15647147Y4613379D01*
Y4706700D01*
X15644189Y4721566D01*
X15635770Y4734169D01*
X15622800Y4747137D01*
Y4828000D01*
X15487494D01*
X15482632Y4839733D01*
X15512801Y4869900D01*
Y4877200D01*
X15529700D01*
Y4927600D01*
X15555099D01*
Y4877200D01*
X15620253D01*
Y4876800D01*
X15623212Y4861934D01*
X15631631Y4849331D01*
X15670810Y4810152D01*
X15683414Y4801732D01*
X15696100Y4799208D01*
Y4737300D01*
X15926900D01*
Y4793854D01*
X16022650D01*
X16037515Y4796811D01*
X16050119Y4805231D01*
X16171741Y4926853D01*
X16251401D01*
Y4910300D01*
X16431053D01*
Y4894100D01*
X16251401D01*
Y4838237D01*
X16135767Y4722604D01*
X16116299Y4725167D01*
X16093092Y4722112D01*
X16071466Y4713154D01*
X16052896Y4698904D01*
X16038646Y4680334D01*
X16029688Y4658707D01*
X16026633Y4635500D01*
X16029688Y4612293D01*
X16038646Y4590666D01*
X16052896Y4572096D01*
X16071466Y4557846D01*
X16082024Y4553473D01*
Y4539727D01*
X16071466Y4535354D01*
X16052896Y4521104D01*
X16038646Y4502534D01*
X16029688Y4480907D01*
X16026633Y4457700D01*
X16029688Y4434493D01*
X16038646Y4412866D01*
X16052896Y4394296D01*
X16071466Y4380046D01*
X16093092Y4371088D01*
X16116299Y4368033D01*
X16139507Y4371088D01*
X16161134Y4380046D01*
X16179704Y4394296D01*
X16193954Y4412866D01*
X16202911Y4434493D01*
X16205968Y4457700D01*
X16204065Y4472147D01*
X16497369Y4765450D01*
X16505789Y4778053D01*
X16508746Y4792919D01*
Y5151600D01*
X16505789Y5166466D01*
X16497369Y5179069D01*
X16457201Y5219237D01*
Y5275100D01*
X16251401D01*
Y5164300D01*
X16394833D01*
X16397336Y5160800D01*
X16390805Y5148100D01*
X16367000D01*
Y5092700D01*
Y5037300D01*
X16431053D01*
Y5021100D01*
X16251401D01*
Y5004547D01*
X16155650D01*
X16140784Y5001589D01*
X16128181Y4993169D01*
X16088083Y4953070D01*
X16076350Y4957931D01*
Y5006100D01*
X16051151D01*
Y4965700D01*
X16029800D01*
X16028854Y4970458D01*
Y5006100D01*
X15953050D01*
Y4982738D01*
X15899159Y4928847D01*
X15868800D01*
X15865047Y4928100D01*
X15697948D01*
Y4997300D01*
X15798801D01*
Y5092700D01*
Y5188100D01*
X15696100D01*
Y5097932D01*
X15695897Y5097767D01*
X15683400Y5093358D01*
X15671690Y5105069D01*
X15659087Y5113489D01*
X15644221Y5116446D01*
X15622800D01*
Y5128000D01*
X15452000D01*
Y5043000D01*
X15350101D01*
Y4927600D01*
Y4812200D01*
X15452000D01*
Y4727200D01*
X15532863D01*
X15569453Y4690609D01*
Y4636600D01*
X15436700D01*
Y4477629D01*
X15427332Y4471369D01*
X15352231Y4396269D01*
X15343811Y4383666D01*
X15340852Y4368800D01*
Y3925989D01*
X15329120Y3921129D01*
X14859995Y4390254D01*
Y4610100D01*
X14856053Y4629921D01*
X14847047Y4643400D01*
Y5000409D01*
X15889769Y6043131D01*
X15898189Y6055734D01*
X15901147Y6070600D01*
Y6515100D01*
X15898189Y6529966D01*
X15889769Y6542569D01*
X15804271Y6628067D01*
X15809131Y6639800D01*
X15835049D01*
Y6667500D01*
X15797150D01*
Y6680200D01*
X15788503D01*
X15787555Y6684959D01*
Y6720600D01*
X15711749D01*
Y6719047D01*
X15684000D01*
Y6735600D01*
X15484000D01*
Y6762500D01*
X15368600D01*
Y6775200D01*
X15355901D01*
Y6830600D01*
X15253200D01*
Y6788249D01*
X15241467Y6783389D01*
X15101047Y6923809D01*
Y7158866D01*
X15107034Y7161346D01*
X15125604Y7175596D01*
X15139854Y7194166D01*
X15148811Y7215793D01*
X15151868Y7239000D01*
X15148811Y7262207D01*
X15139854Y7283834D01*
X15134843Y7290363D01*
X15140462Y7301753D01*
X15244292D01*
X15813712Y6732333D01*
X15809850Y6723012D01*
Y6692900D01*
X15835049D01*
Y6694401D01*
X15846783Y6699261D01*
X17261511Y5284533D01*
X17256651Y5272800D01*
X17117300D01*
Y5131547D01*
X16997200D01*
Y5148100D01*
X16791400D01*
Y5037300D01*
X16997200D01*
Y5053853D01*
X17145000D01*
X17159866Y5056811D01*
X17172122Y5065000D01*
X17298953D01*
Y5002209D01*
X17286253Y4995946D01*
X17273598Y5005656D01*
X17248323Y5016126D01*
X17221201Y5019697D01*
X17194077Y5016126D01*
X17168802Y5005656D01*
X17157056Y4996644D01*
X17149655Y5001589D01*
X17134789Y5004547D01*
X16997200D01*
Y5021100D01*
X16791400D01*
Y4910300D01*
X16997200D01*
Y4926853D01*
X17108347D01*
X17116721Y4917305D01*
X17116403Y4914900D01*
X17119974Y4887777D01*
X17122992Y4880491D01*
X17112733Y4872071D01*
X17108965Y4874589D01*
X17094099Y4877547D01*
X16997200D01*
Y4894100D01*
X16791400D01*
Y4783300D01*
X16852153D01*
Y4648000D01*
X16850600D01*
Y4572195D01*
X16886241D01*
X16891000Y4571248D01*
X16895760Y4572195D01*
X16931400D01*
Y4648000D01*
X16929848D01*
Y4783300D01*
X16997200D01*
Y4799853D01*
X17078008D01*
X17107030Y4770831D01*
X17119633Y4762411D01*
X17134499Y4759454D01*
X17269498D01*
X17284363Y4762411D01*
X17296967Y4770831D01*
X17365269Y4839134D01*
X17373689Y4851737D01*
X17376646Y4866603D01*
Y5263181D01*
X17373689Y5278047D01*
X17365269Y5290650D01*
X15287849Y7368069D01*
X15275247Y7376489D01*
X15260381Y7379447D01*
X15020116D01*
X15005251Y7376489D01*
X14992647Y7368069D01*
X14686525Y7061947D01*
X14576100D01*
Y7121000D01*
X14405299D01*
Y6925200D01*
X14499155D01*
Y6828782D01*
X14499727Y6825900D01*
X14489304Y6813200D01*
X14409637D01*
X14309370Y6913467D01*
X14314230Y6925200D01*
X14376100D01*
Y7121000D01*
X14215057D01*
X14206570Y7133700D01*
X14209012Y7139593D01*
X14212067Y7162800D01*
X14209012Y7186007D01*
X14200053Y7207634D01*
X14185805Y7226204D01*
X14167233Y7240454D01*
X14145607Y7249412D01*
X14122400Y7252467D01*
X14099193Y7249412D01*
X14077567Y7240454D01*
X14058997Y7226204D01*
X14044746Y7207634D01*
X14035788Y7186007D01*
X14032733Y7162800D01*
X14035788Y7139593D01*
X14040317Y7128660D01*
X14033261Y7118100D01*
X14019699D01*
Y7020200D01*
X13994299D01*
Y7118100D01*
X13480952D01*
X13477200Y7118847D01*
X12822240D01*
X10388618Y9552469D01*
X10376016Y9560889D01*
X10361150Y9563847D01*
X7813891D01*
X5677935Y11699802D01*
X5695733Y11720097D01*
X5732359Y11774911D01*
X5761516Y11834036D01*
X5782706Y11896461D01*
X5795567Y11961118D01*
X5799879Y12026900D01*
X5795567Y12092682D01*
X5782706Y12157339D01*
X5761516Y12219764D01*
X5732359Y12278889D01*
X5695733Y12333703D01*
X5652267Y12383267D01*
X5602703Y12426733D01*
X5547889Y12463359D01*
X5488764Y12492516D01*
X5426339Y12513706D01*
X5361682Y12526567D01*
X5295900Y12530879D01*
D02*
G37*
G36*
X7137400Y9000805D02*
X7114193Y8997749D01*
X7092566Y8988792D01*
X7073996Y8974542D01*
X7059746Y8955971D01*
X7050788Y8934345D01*
X7047733Y8911138D01*
X7050788Y8887930D01*
X7059746Y8866304D01*
X7073996Y8847733D01*
X7092566Y8833484D01*
X7114193Y8824526D01*
X7137400Y8821471D01*
X7160607Y8824526D01*
X7182234Y8833484D01*
X7200804Y8847733D01*
X7215054Y8866304D01*
X7224012Y8887930D01*
X7227067Y8911138D01*
X7224012Y8934345D01*
X7215054Y8955971D01*
X7200804Y8974542D01*
X7182234Y8988792D01*
X7160607Y8997749D01*
X7137400Y9000805D01*
D02*
G37*
G36*
X9944100Y8950005D02*
X9920893Y8946949D01*
X9899266Y8937992D01*
X9880696Y8923742D01*
X9866446Y8905171D01*
X9857488Y8883545D01*
X9854433Y8860338D01*
X9857488Y8837130D01*
X9866446Y8815504D01*
X9880696Y8796933D01*
X9899266Y8782684D01*
X9920893Y8773726D01*
X9944100Y8770671D01*
X9967307Y8773726D01*
X9988934Y8782684D01*
X10007504Y8796933D01*
X10021754Y8815504D01*
X10030712Y8837130D01*
X10033767Y8860338D01*
X10030712Y8883545D01*
X10021754Y8905171D01*
X10007504Y8923742D01*
X9988934Y8937992D01*
X9967307Y8946949D01*
X9944100Y8950005D01*
D02*
G37*
G36*
X10541000Y8789167D02*
X10517793Y8786112D01*
X10496166Y8777154D01*
X10477596Y8762904D01*
X10463346Y8744334D01*
X10454388Y8722707D01*
X10451333Y8699500D01*
X10454388Y8676293D01*
X10463346Y8654666D01*
X10477596Y8636096D01*
X10486650Y8629148D01*
X10487755Y8612292D01*
X9927940Y8052477D01*
X9915240Y8057738D01*
Y8076871D01*
X9821896D01*
Y8098120D01*
X9915240D01*
Y8176865D01*
X9728550D01*
Y8176342D01*
X9714262D01*
X9702704Y8191404D01*
X9684134Y8205654D01*
X9662507Y8214612D01*
X9639300Y8217667D01*
X9616093Y8214612D01*
X9594466Y8205654D01*
X9575896Y8191404D01*
X9561646Y8172834D01*
X9552688Y8151207D01*
X9549633Y8128000D01*
X9552688Y8104793D01*
X9561646Y8083166D01*
X9575896Y8064596D01*
X9594466Y8050346D01*
X9616093Y8041388D01*
X9639300Y8038333D01*
X9662507Y8041388D01*
X9684134Y8050346D01*
X9702704Y8064596D01*
X9715850Y8081728D01*
X9720858Y8081484D01*
X9728550Y8078169D01*
Y7948125D01*
Y7848125D01*
Y7748125D01*
Y7648125D01*
Y7548125D01*
Y7448125D01*
Y7448120D01*
X9821896D01*
X9915240D01*
Y7448125D01*
Y7548125D01*
Y7648125D01*
Y7748125D01*
Y7848649D01*
X11229887D01*
X11239596Y7835996D01*
X11258166Y7821746D01*
X11279793Y7812788D01*
X11303000Y7809733D01*
X11326207Y7812788D01*
X11347834Y7821746D01*
X11366404Y7835996D01*
X11380654Y7854566D01*
X11389612Y7876193D01*
X11392667Y7899400D01*
X11389612Y7922607D01*
X11380654Y7944234D01*
X11366404Y7962804D01*
X11347834Y7977054D01*
X11326207Y7986012D01*
X11303000Y7989067D01*
X11279793Y7986012D01*
X11258166Y7977054D01*
X11239596Y7962804D01*
X11225346Y7944234D01*
X11217935Y7926342D01*
X10944272D01*
X10939412Y7938075D01*
X11032505Y8031168D01*
X11038493Y8028688D01*
X11061700Y8025633D01*
X11084907Y8028688D01*
X11106534Y8037646D01*
X11125104Y8051896D01*
X11139354Y8070466D01*
X11148312Y8092093D01*
X11151367Y8115300D01*
X11148312Y8138507D01*
X11139354Y8160134D01*
X11125104Y8178704D01*
X11106534Y8192954D01*
X11084907Y8201912D01*
X11061700Y8204967D01*
X11038493Y8201912D01*
X11016866Y8192954D01*
X10998296Y8178704D01*
X10984046Y8160134D01*
X10975088Y8138507D01*
X10972033Y8115300D01*
X10975088Y8092093D01*
X10977568Y8086105D01*
X10867804Y7976341D01*
X9978272D01*
X9973412Y7988075D01*
X10568469Y8583131D01*
X10576889Y8595734D01*
X10579847Y8610600D01*
Y8619366D01*
X10585834Y8621846D01*
X10604404Y8636096D01*
X10618654Y8654666D01*
X10627612Y8676293D01*
X10630667Y8699500D01*
X10627612Y8722707D01*
X10618654Y8744334D01*
X10604404Y8762904D01*
X10585834Y8777154D01*
X10564207Y8786112D01*
X10541000Y8789167D01*
D02*
G37*
G36*
X9155795Y8034838D02*
X9080500D01*
Y7959543D01*
X9091007Y7960926D01*
X9112634Y7969884D01*
X9131204Y7984133D01*
X9145454Y8002704D01*
X9154412Y8024330D01*
X9155795Y8034838D01*
D02*
G37*
G36*
X9055100D02*
X8979805D01*
X8981188Y8024330D01*
X8990146Y8002704D01*
X9004396Y7984133D01*
X9022966Y7969884D01*
X9044593Y7960926D01*
X9055100Y7959543D01*
Y8034838D01*
D02*
G37*
G36*
X14224001Y7709667D02*
X14200793Y7706612D01*
X14179166Y7697654D01*
X14160596Y7683404D01*
X14146346Y7664834D01*
X14143866Y7658847D01*
X14119901D01*
Y7708100D01*
X14019701D01*
Y7610199D01*
Y7512300D01*
X14119901D01*
Y7581153D01*
X14143866D01*
X14146346Y7575166D01*
X14160596Y7556596D01*
X14179166Y7542346D01*
X14200793Y7533388D01*
X14224001Y7530333D01*
X14247208Y7533388D01*
X14268834Y7542346D01*
X14287404Y7556596D01*
X14301654Y7575166D01*
X14310612Y7596793D01*
X14313667Y7620000D01*
X14310612Y7643207D01*
X14301654Y7664834D01*
X14287404Y7683404D01*
X14268834Y7697654D01*
X14247208Y7706612D01*
X14224001Y7709667D01*
D02*
G37*
G36*
X10566400Y7627533D02*
Y7552238D01*
X10641695D01*
X10640312Y7562745D01*
X10631354Y7584371D01*
X10617104Y7602942D01*
X10598534Y7617192D01*
X10576907Y7626149D01*
X10566400Y7627533D01*
D02*
G37*
G36*
X10541000D02*
X10530493Y7626149D01*
X10508866Y7617192D01*
X10490296Y7602942D01*
X10476046Y7584371D01*
X10467088Y7562745D01*
X10465705Y7552238D01*
X10541000D01*
Y7627533D01*
D02*
G37*
G36*
X11849100Y7658867D02*
X11825893Y7655812D01*
X11804266Y7646854D01*
X11785696Y7632604D01*
X11771446Y7614034D01*
X11762488Y7592407D01*
X11759433Y7569200D01*
X11762488Y7545993D01*
X11764968Y7540005D01*
X10901304Y6676341D01*
X9915240D01*
Y6748125D01*
Y6848125D01*
Y6876871D01*
X9821896D01*
Y6898120D01*
X9915240D01*
Y6948125D01*
Y7048125D01*
Y7148125D01*
Y7248125D01*
Y7348125D01*
Y7426871D01*
X9821896D01*
X9728550D01*
Y7348125D01*
Y7248125D01*
Y7133427D01*
X9728016Y7132758D01*
X9721479Y7133216D01*
X9714719Y7136455D01*
X9713212Y7147907D01*
X9704254Y7169534D01*
X9690004Y7188104D01*
X9671434Y7202354D01*
X9649807Y7211312D01*
X9626600Y7214367D01*
X9603393Y7211312D01*
X9581766Y7202354D01*
X9563196Y7188104D01*
X9548946Y7169534D01*
X9539988Y7147907D01*
X9536933Y7124700D01*
X9539988Y7101493D01*
X9548946Y7079866D01*
X9563196Y7061296D01*
X9581766Y7047046D01*
X9587753Y7044566D01*
Y6959600D01*
X9590711Y6944734D01*
X9594835Y6938562D01*
X9591831Y6935558D01*
X9583411Y6922956D01*
X9580454Y6908090D01*
Y6350747D01*
X9169400D01*
X9154534Y6347789D01*
X9141931Y6339369D01*
X9091831Y6289269D01*
X9084466Y6278245D01*
X9079924D01*
Y6184900D01*
Y6091555D01*
X9658670D01*
Y6278245D01*
X9658147D01*
Y6297021D01*
Y6891999D01*
X9664796Y6898648D01*
X9728550D01*
Y6848125D01*
Y6748125D01*
Y6648125D01*
Y6548125D01*
Y6448125D01*
Y6348125D01*
X9915240D01*
X9917953Y6336549D01*
Y5769191D01*
X9229509Y5080747D01*
X7738234D01*
X7735754Y5086734D01*
X7730744Y5093263D01*
X7736361Y5104653D01*
X8572500D01*
X8587366Y5107611D01*
X8599969Y5116031D01*
X8784605Y5300668D01*
X8790593Y5298188D01*
X8813800Y5295133D01*
X8837007Y5298188D01*
X8858634Y5307146D01*
X8877204Y5321396D01*
X8891454Y5339966D01*
X8900412Y5361593D01*
X8903467Y5384800D01*
X8900412Y5408007D01*
X8891454Y5429634D01*
X8877204Y5448204D01*
X8858634Y5462454D01*
X8837007Y5471412D01*
X8813800Y5474467D01*
X8790593Y5471412D01*
X8784605Y5468932D01*
X8752369Y5501169D01*
X8739766Y5509589D01*
X8724900Y5512547D01*
X8639391D01*
X8627217Y5524720D01*
X8632077Y5536453D01*
X8771766D01*
X8774246Y5530466D01*
X8788496Y5511896D01*
X8807066Y5497646D01*
X8828693Y5488688D01*
X8851900Y5485633D01*
X8875107Y5488688D01*
X8896734Y5497646D01*
X8915304Y5511896D01*
X8929554Y5530466D01*
X8938512Y5552093D01*
X8941567Y5575300D01*
X8938512Y5598507D01*
X8929554Y5620134D01*
X8915304Y5638704D01*
X8896734Y5652954D01*
X8875107Y5661912D01*
X8851900Y5664967D01*
X8828693Y5661912D01*
X8807066Y5652954D01*
X8788496Y5638704D01*
X8774246Y5620134D01*
X8771766Y5614147D01*
X8626691D01*
X8408147Y5832691D01*
Y6091555D01*
X8558674D01*
Y6184900D01*
X8579924D01*
Y6091555D01*
X9058674D01*
Y6184900D01*
Y6278245D01*
X8658147D01*
Y6316616D01*
X8655189Y6331482D01*
X8646769Y6344085D01*
X8636339Y6354514D01*
X8637454Y6355966D01*
X8646412Y6377593D01*
X8649467Y6400800D01*
X8646412Y6424007D01*
X8637454Y6445634D01*
X8623204Y6464204D01*
X8604634Y6478454D01*
X8583007Y6487412D01*
X8559800Y6490467D01*
X8536593Y6487412D01*
X8514966Y6478454D01*
X8496396Y6464204D01*
X8482146Y6445634D01*
X8473188Y6424007D01*
X8470133Y6400800D01*
X8473188Y6377593D01*
X8482146Y6355966D01*
X8496396Y6337396D01*
X8514966Y6323146D01*
X8536593Y6314188D01*
X8559800Y6311133D01*
X8568677Y6312302D01*
X8580454Y6300525D01*
Y6278245D01*
X8008147D01*
Y6361434D01*
X8016927Y6370214D01*
X8032704Y6368137D01*
X8055912Y6371192D01*
X8077538Y6380150D01*
X8096109Y6394400D01*
X8110358Y6412971D01*
X8119316Y6434597D01*
X8122371Y6457804D01*
X8119316Y6481012D01*
X8110358Y6502638D01*
X8096109Y6521208D01*
X8077538Y6535458D01*
X8055912Y6544416D01*
X8032704Y6547471D01*
X8009497Y6544416D01*
X7987871Y6535458D01*
X7969300Y6521208D01*
X7955050Y6502638D01*
X7946093Y6481012D01*
X7943037Y6457804D01*
X7946093Y6434597D01*
X7953515Y6416677D01*
X7941831Y6404993D01*
X7933411Y6392390D01*
X7930454Y6377524D01*
Y6352377D01*
X7918720Y6347517D01*
X7887447Y6378791D01*
Y6460909D01*
X8203328Y6776791D01*
X8251066D01*
X8253546Y6770804D01*
X8267796Y6752233D01*
X8286366Y6737984D01*
X8307993Y6729026D01*
X8318500Y6727643D01*
Y6815638D01*
Y6903633D01*
X8307993Y6902249D01*
X8286366Y6893292D01*
X8267796Y6879042D01*
X8253546Y6860471D01*
X8251066Y6854484D01*
X8187238D01*
X8172372Y6851527D01*
X8159769Y6843106D01*
X7821131Y6504469D01*
X7812711Y6491866D01*
X7809753Y6477000D01*
Y6362700D01*
X7812711Y6347834D01*
X7821131Y6335231D01*
X7866385Y6289978D01*
X7861524Y6278245D01*
X7829930D01*
Y6187383D01*
X7829183Y6183630D01*
Y6039221D01*
X7816466Y6033954D01*
X7797896Y6019704D01*
X7783646Y6001134D01*
X7774688Y5979507D01*
X7771633Y5956300D01*
X7774688Y5933093D01*
X7783646Y5911466D01*
X7797896Y5892896D01*
X7816466Y5878646D01*
X7838093Y5869688D01*
X7854854Y5867482D01*
X7855057Y5867454D01*
Y5854646D01*
X7854854Y5854618D01*
X7838093Y5852412D01*
X7816466Y5843454D01*
X7797896Y5829204D01*
X7783646Y5810634D01*
X7774688Y5789007D01*
X7771633Y5765800D01*
X7774688Y5742593D01*
X7783646Y5720966D01*
X7797896Y5702396D01*
X7816466Y5688146D01*
X7838093Y5679188D01*
X7839443Y5679010D01*
Y5666201D01*
X7838093Y5666023D01*
X7816466Y5657065D01*
X7797896Y5642815D01*
X7783646Y5624245D01*
X7774688Y5602619D01*
X7771633Y5579411D01*
X7774688Y5556204D01*
X7783646Y5534578D01*
X7797896Y5516007D01*
X7816466Y5501757D01*
X7838093Y5492800D01*
X7861300Y5489744D01*
X7884507Y5492800D01*
X7906133Y5501757D01*
X7913017Y5491455D01*
X7884221Y5462658D01*
X7861300Y5465676D01*
X7838093Y5462621D01*
X7816466Y5453663D01*
X7797896Y5439413D01*
X7783646Y5420843D01*
X7774688Y5399217D01*
X7771633Y5376009D01*
X7774688Y5352802D01*
X7783646Y5331176D01*
X7797896Y5312605D01*
X7816466Y5298355D01*
X7838093Y5289397D01*
X7861300Y5286342D01*
X7884507Y5289397D01*
X7906134Y5298355D01*
X7924704Y5312605D01*
X7938954Y5331176D01*
X7947912Y5352802D01*
X7950967Y5376009D01*
X7947912Y5399217D01*
X7942857Y5411420D01*
X8168720Y5637283D01*
X8180454Y5632423D01*
Y5415991D01*
X7997609Y5233147D01*
X7813891D01*
X7706649Y5340388D01*
X7709667Y5363309D01*
X7706612Y5386517D01*
X7697654Y5408143D01*
X7683404Y5426713D01*
X7664834Y5440963D01*
X7643207Y5449921D01*
X7620000Y5452976D01*
X7596793Y5449921D01*
X7575166Y5440963D01*
X7556596Y5426713D01*
X7542346Y5408143D01*
X7533388Y5386517D01*
X7530333Y5363309D01*
X7533388Y5340102D01*
X7542346Y5318476D01*
X7556596Y5299905D01*
X7575166Y5285655D01*
X7596793Y5276697D01*
X7620000Y5273642D01*
X7643207Y5276697D01*
X7655411Y5281752D01*
X7743083Y5194080D01*
X7738223Y5182347D01*
X7648791D01*
X7488232Y5342905D01*
X7490712Y5348893D01*
X7493767Y5372100D01*
X7490712Y5395307D01*
X7481754Y5416934D01*
X7467504Y5435504D01*
X7448934Y5449754D01*
X7427307Y5458712D01*
X7404100Y5461767D01*
X7380893Y5458712D01*
X7359266Y5449754D01*
X7340696Y5435504D01*
X7326446Y5416934D01*
X7317488Y5395307D01*
X7314433Y5372100D01*
X7317488Y5348893D01*
X7326446Y5327266D01*
X7340696Y5308696D01*
X7359266Y5294446D01*
X7380893Y5285488D01*
X7404100Y5282433D01*
X7427307Y5285488D01*
X7433295Y5287968D01*
X7597669Y5123594D01*
X7596719Y5106857D01*
X7594696Y5105304D01*
X7580446Y5086734D01*
X7571488Y5065107D01*
X7568433Y5041900D01*
X7571488Y5018693D01*
X7580446Y4997066D01*
X7594696Y4978496D01*
X7613266Y4964246D01*
X7634893Y4955288D01*
X7658100Y4952233D01*
X7681307Y4955288D01*
X7702934Y4964246D01*
X7721504Y4978496D01*
X7735754Y4997066D01*
X7738234Y5003053D01*
X9245600D01*
X9260466Y5006011D01*
X9273069Y5014431D01*
X9984269Y5725631D01*
X9992689Y5738234D01*
X9995647Y5753100D01*
Y6422617D01*
X9992689Y6437482D01*
X9984269Y6450085D01*
X9969390Y6464964D01*
X9956787Y6473385D01*
X9941921Y6476342D01*
X9915240D01*
Y6548649D01*
X10083583D01*
X10087605Y6547848D01*
X11539695D01*
X11554561Y6550806D01*
X11567164Y6559226D01*
X11744525Y6736588D01*
X11755292Y6729394D01*
X11749788Y6716107D01*
X11746733Y6692900D01*
X11749788Y6669693D01*
X11758746Y6648066D01*
X11772996Y6629496D01*
X11791566Y6615246D01*
X11813193Y6606288D01*
X11836400Y6603233D01*
X11859607Y6606288D01*
X11881234Y6615246D01*
X11899804Y6629496D01*
X11914054Y6648066D01*
X11921794Y6666753D01*
X12792597D01*
X12801695Y6654896D01*
X12820267Y6640646D01*
X12841893Y6631688D01*
X12865100Y6628633D01*
X12888307Y6631688D01*
X12909933Y6640646D01*
X12928503Y6654896D01*
X12942754Y6673466D01*
X12951712Y6695093D01*
X12954767Y6718300D01*
X12951712Y6741507D01*
X12942754Y6763134D01*
X12928503Y6781704D01*
X12909933Y6795954D01*
X12888307Y6804912D01*
X12865100Y6807967D01*
X12841893Y6804912D01*
X12820267Y6795954D01*
X12801695Y6781704D01*
X12787446Y6763134D01*
X12779706Y6744447D01*
X11908903D01*
X11899804Y6756304D01*
X11881234Y6770554D01*
X11859607Y6779512D01*
X11836400Y6782567D01*
X11813193Y6779512D01*
X11799906Y6774008D01*
X11792712Y6784775D01*
X12175505Y7167568D01*
X12181493Y7165088D01*
X12204700Y7162033D01*
X12227907Y7165088D01*
X12249534Y7174046D01*
X12268104Y7188296D01*
X12282354Y7206866D01*
X12291312Y7228493D01*
X12294367Y7251700D01*
X12291312Y7274907D01*
X12282354Y7296534D01*
X12268104Y7315104D01*
X12249534Y7329354D01*
X12227907Y7338312D01*
X12204700Y7341367D01*
X12181493Y7338312D01*
X12159866Y7329354D01*
X12141296Y7315104D01*
X12127046Y7296534D01*
X12118088Y7274907D01*
X12115033Y7251700D01*
X12118088Y7228493D01*
X12120568Y7222505D01*
X11523604Y6625541D01*
X10976972D01*
X10972112Y6637275D01*
X11819905Y7485068D01*
X11825893Y7482588D01*
X11849100Y7479533D01*
X11872307Y7482588D01*
X11893934Y7491546D01*
X11912504Y7505796D01*
X11926754Y7524366D01*
X11935712Y7545993D01*
X11938767Y7569200D01*
X11935712Y7592407D01*
X11926754Y7614034D01*
X11912504Y7632604D01*
X11893934Y7646854D01*
X11872307Y7655812D01*
X11849100Y7658867D01*
D02*
G37*
G36*
X10641695Y7526838D02*
X10566400D01*
Y7451543D01*
X10576907Y7452926D01*
X10598534Y7461884D01*
X10617104Y7476133D01*
X10631354Y7494704D01*
X10640312Y7516330D01*
X10641695Y7526838D01*
D02*
G37*
G36*
X10541000D02*
X10465705D01*
X10467088Y7516330D01*
X10476046Y7494704D01*
X10490296Y7476133D01*
X10508866Y7461884D01*
X10530493Y7452926D01*
X10541000Y7451543D01*
Y7526838D01*
D02*
G37*
G36*
X8788400Y7424333D02*
Y7349038D01*
X8863695D01*
X8862312Y7359545D01*
X8853354Y7381171D01*
X8839104Y7399742D01*
X8820534Y7413992D01*
X8798907Y7422949D01*
X8788400Y7424333D01*
D02*
G37*
G36*
X8763000D02*
X8752493Y7422949D01*
X8730866Y7413992D01*
X8712296Y7399742D01*
X8698046Y7381171D01*
X8689088Y7359545D01*
X8687705Y7349038D01*
X8763000D01*
Y7424333D01*
D02*
G37*
G36*
X13868401Y7438705D02*
X13845193Y7435649D01*
X13823566Y7426692D01*
X13804996Y7412442D01*
X13790746Y7393871D01*
X13781789Y7372245D01*
X13778732Y7349038D01*
X13781789Y7325830D01*
X13790746Y7304204D01*
X13804996Y7285633D01*
X13823566Y7271384D01*
X13845193Y7262426D01*
X13868401Y7259371D01*
X13891608Y7262426D01*
X13913234Y7271384D01*
X13931804Y7285633D01*
X13946054Y7304204D01*
X13955013Y7325830D01*
X13958067Y7349038D01*
X13955013Y7372245D01*
X13946054Y7393871D01*
X13931804Y7412442D01*
X13913234Y7426692D01*
X13891608Y7435649D01*
X13868401Y7438705D01*
D02*
G37*
G36*
X8863695Y7323638D02*
X8788400D01*
Y7248343D01*
X8798907Y7249726D01*
X8820534Y7258684D01*
X8839104Y7272933D01*
X8853354Y7291504D01*
X8862312Y7313130D01*
X8863695Y7323638D01*
D02*
G37*
G36*
X8763000D02*
X8687705D01*
X8689088Y7313130D01*
X8698046Y7291504D01*
X8712296Y7272933D01*
X8730866Y7258684D01*
X8752493Y7249726D01*
X8763000Y7248343D01*
Y7323638D01*
D02*
G37*
G36*
X8343900Y6903633D02*
Y6828338D01*
X8419195D01*
X8417812Y6838845D01*
X8408854Y6860471D01*
X8394604Y6879042D01*
X8376034Y6893292D01*
X8354407Y6902249D01*
X8343900Y6903633D01*
D02*
G37*
G36*
X15484000Y6830600D02*
X15381300D01*
Y6787900D01*
X15484000D01*
Y6830600D01*
D02*
G37*
G36*
X14820900Y6814733D02*
Y6739438D01*
X14896194D01*
X14894812Y6749945D01*
X14885854Y6771571D01*
X14871603Y6790142D01*
X14853033Y6804392D01*
X14831407Y6813349D01*
X14820900Y6814733D01*
D02*
G37*
G36*
X14795500D02*
X14784993Y6813349D01*
X14763367Y6804392D01*
X14744797Y6790142D01*
X14730547Y6771571D01*
X14721588Y6749945D01*
X14720206Y6739438D01*
X14795500D01*
Y6814733D01*
D02*
G37*
G36*
X8419195Y6802938D02*
X8343900D01*
Y6727643D01*
X8354407Y6729026D01*
X8376034Y6737984D01*
X8394604Y6752233D01*
X8408854Y6770804D01*
X8417812Y6792430D01*
X8419195Y6802938D01*
D02*
G37*
G36*
X9182100Y6751233D02*
Y6675938D01*
X9257395D01*
X9256012Y6686445D01*
X9247054Y6708071D01*
X9232804Y6726642D01*
X9214234Y6740892D01*
X9192607Y6749849D01*
X9182100Y6751233D01*
D02*
G37*
G36*
X9156700D02*
X9146193Y6749849D01*
X9124566Y6740892D01*
X9105996Y6726642D01*
X9091746Y6708071D01*
X9082788Y6686445D01*
X9081405Y6675938D01*
X9156700D01*
Y6751233D01*
D02*
G37*
G36*
X14896194Y6714038D02*
X14820900D01*
Y6638743D01*
X14831407Y6640126D01*
X14853033Y6649084D01*
X14871603Y6663333D01*
X14885854Y6681904D01*
X14894812Y6703530D01*
X14896194Y6714038D01*
D02*
G37*
G36*
X14795500D02*
X14720206D01*
X14721588Y6703530D01*
X14730547Y6681904D01*
X14744797Y6663333D01*
X14763367Y6649084D01*
X14784993Y6640126D01*
X14795500Y6638743D01*
Y6714038D01*
D02*
G37*
G36*
X9257395Y6650538D02*
X9182100D01*
Y6575243D01*
X9192607Y6576626D01*
X9214234Y6585584D01*
X9232804Y6599833D01*
X9247054Y6618404D01*
X9256012Y6640030D01*
X9257395Y6650538D01*
D02*
G37*
G36*
X9156700D02*
X9081405D01*
X9082788Y6640030D01*
X9091746Y6618404D01*
X9105996Y6599833D01*
X9124566Y6585584D01*
X9146193Y6576626D01*
X9156700Y6575243D01*
Y6650538D01*
D02*
G37*
G36*
X8293100Y6573433D02*
Y6498138D01*
X8368395D01*
X8367012Y6508645D01*
X8358054Y6530271D01*
X8343804Y6548842D01*
X8325234Y6563092D01*
X8303607Y6572049D01*
X8293100Y6573433D01*
D02*
G37*
G36*
X8267700D02*
X8257193Y6572049D01*
X8235566Y6563092D01*
X8216996Y6548842D01*
X8202746Y6530271D01*
X8193788Y6508645D01*
X8192405Y6498138D01*
X8267700D01*
Y6573433D01*
D02*
G37*
G36*
X8368395Y6472738D02*
X8293100D01*
Y6397443D01*
X8303607Y6398826D01*
X8325234Y6407784D01*
X8343804Y6422033D01*
X8358054Y6440604D01*
X8367012Y6462230D01*
X8368395Y6472738D01*
D02*
G37*
G36*
X8267700D02*
X8192405D01*
X8193788Y6462230D01*
X8202746Y6440604D01*
X8216996Y6422033D01*
X8235566Y6407784D01*
X8257193Y6398826D01*
X8267700Y6397443D01*
Y6472738D01*
D02*
G37*
G36*
X15722400Y6440000D02*
X15639700D01*
Y6337300D01*
X15722400D01*
Y6440000D01*
D02*
G37*
G36*
X15614301D02*
X15531599D01*
Y6337300D01*
X15614301D01*
Y6440000D01*
D02*
G37*
G36*
X15722400Y6311900D02*
X15639700D01*
Y6209200D01*
X15722400D01*
Y6311900D01*
D02*
G37*
G36*
X15614301D02*
X15531599D01*
Y6209200D01*
X15614301D01*
Y6311900D01*
D02*
G37*
G36*
X15557300Y6108700D02*
X15532100D01*
Y6081000D01*
X15557300D01*
Y6108700D01*
D02*
G37*
G36*
X10769600Y6092505D02*
X10746393Y6089449D01*
X10724766Y6080492D01*
X10706196Y6066242D01*
X10691946Y6047671D01*
X10682988Y6026045D01*
X10679933Y6002838D01*
X10682988Y5979630D01*
X10691946Y5958004D01*
X10706196Y5939433D01*
X10724766Y5925184D01*
X10746393Y5916226D01*
X10769600Y5913171D01*
X10792807Y5916226D01*
X10814434Y5925184D01*
X10833004Y5939433D01*
X10847254Y5958004D01*
X10856212Y5979630D01*
X10859267Y6002838D01*
X10856212Y6026045D01*
X10847254Y6047671D01*
X10833004Y6066242D01*
X10814434Y6080492D01*
X10792807Y6089449D01*
X10769600Y6092505D01*
D02*
G37*
G36*
X16141701Y5862233D02*
Y5786938D01*
X16216995D01*
X16215611Y5797445D01*
X16206654Y5819071D01*
X16192404Y5837642D01*
X16173834Y5851892D01*
X16152206Y5860849D01*
X16141701Y5862233D01*
D02*
G37*
G36*
X16116299D02*
X16105794Y5860849D01*
X16084166Y5851892D01*
X16065596Y5837642D01*
X16051346Y5819071D01*
X16042387Y5797445D01*
X16041005Y5786938D01*
X16116299D01*
Y5862233D01*
D02*
G37*
G36*
X13641451Y5806200D02*
X13616251D01*
Y5778500D01*
X13641451D01*
Y5806200D01*
D02*
G37*
G36*
Y5753100D02*
X13616251D01*
Y5725400D01*
X13641451D01*
Y5753100D01*
D02*
G37*
G36*
X16216995Y5761538D02*
X16141701D01*
Y5686243D01*
X16152206Y5687626D01*
X16173834Y5696584D01*
X16192404Y5710833D01*
X16206654Y5729404D01*
X16215611Y5751030D01*
X16216995Y5761538D01*
D02*
G37*
G36*
X16116299D02*
X16041005D01*
X16042387Y5751030D01*
X16051346Y5729404D01*
X16065596Y5710833D01*
X16084166Y5696584D01*
X16105794Y5687626D01*
X16116299Y5686243D01*
Y5761538D01*
D02*
G37*
G36*
X13633600Y5690700D02*
X13550900D01*
Y5588000D01*
X13633600D01*
Y5690700D01*
D02*
G37*
G36*
X13525500D02*
X13442799D01*
Y5588000D01*
X13525500D01*
Y5690700D01*
D02*
G37*
G36*
X14314000Y5575100D02*
X14211301D01*
Y5492400D01*
X14314000D01*
Y5575100D01*
D02*
G37*
G36*
X14185899D02*
X14083200D01*
Y5492400D01*
X14185899D01*
Y5575100D01*
D02*
G37*
G36*
X16614964Y5514306D02*
X16569328D01*
Y5461000D01*
X16614964D01*
Y5514306D01*
D02*
G37*
G36*
X16543929D02*
X16498294D01*
Y5461000D01*
X16543929D01*
Y5514306D01*
D02*
G37*
G36*
X13525500Y5562600D02*
X13442799D01*
Y5459900D01*
X13525500D01*
Y5562600D01*
D02*
G37*
G36*
X14442200Y5410000D02*
X14414500D01*
Y5384800D01*
X14442200D01*
Y5410000D01*
D02*
G37*
G36*
X14389101D02*
X14361400D01*
Y5384800D01*
X14389101D01*
Y5410000D01*
D02*
G37*
G36*
X14314000Y5467000D02*
X14211301D01*
Y5384300D01*
X14314000D01*
Y5467000D01*
D02*
G37*
G36*
X14185899D02*
X14083200D01*
Y5384300D01*
X14185899D01*
Y5467000D01*
D02*
G37*
G36*
X16614964Y5435600D02*
X16569328D01*
Y5382294D01*
X16614964D01*
Y5435600D01*
D02*
G37*
G36*
X16543929D02*
X16498294D01*
Y5382294D01*
X16543929D01*
Y5435600D01*
D02*
G37*
G36*
X13727901Y5363000D02*
X13665199D01*
Y5240300D01*
X13727901D01*
Y5363000D01*
D02*
G37*
G36*
X16750307Y5514306D02*
X16633635D01*
Y5382294D01*
X16750307D01*
Y5382293D01*
X16759911Y5386271D01*
X16853819Y5292363D01*
Y5275100D01*
X16791400D01*
Y5164300D01*
X16997200D01*
Y5275100D01*
X16931512D01*
Y5308453D01*
X16928555Y5323319D01*
X16920134Y5335922D01*
X16775597Y5480460D01*
X16762993Y5488881D01*
X16750307Y5491405D01*
Y5514306D01*
D02*
G37*
G36*
X15926900Y5188100D02*
X15824200D01*
Y5105400D01*
X15926900D01*
Y5188100D01*
D02*
G37*
G36*
X16341600Y5148100D02*
X16251401D01*
Y5105400D01*
X16341600D01*
Y5148100D01*
D02*
G37*
G36*
X13727901Y5214900D02*
X13665199D01*
Y5092200D01*
X13727901D01*
Y5214900D01*
D02*
G37*
G36*
X13639799D02*
X13577100D01*
Y5092200D01*
X13639799D01*
Y5214900D01*
D02*
G37*
G36*
X16341600Y5080000D02*
X16251401D01*
Y5037300D01*
X16341600D01*
Y5080000D01*
D02*
G37*
G36*
X15926900D02*
X15824200D01*
Y4997300D01*
X15926900D01*
Y5080000D01*
D02*
G37*
G36*
X15324699Y5043000D02*
X15219701D01*
X15162000Y4985300D01*
Y4940300D01*
X15324699D01*
Y5043000D01*
D02*
G37*
G36*
Y4914900D02*
X15162000D01*
Y4869900D01*
X15219701Y4812200D01*
X15324699D01*
Y4914900D01*
D02*
G37*
G36*
X13842900Y4763000D02*
X13665199D01*
Y4640300D01*
X13842900D01*
Y4763000D01*
D02*
G37*
G36*
X13639799D02*
X13462100D01*
Y4640300D01*
X13639799D01*
Y4763000D01*
D02*
G37*
G36*
X15887500Y4636600D02*
X15804800D01*
Y4533900D01*
X15887500D01*
Y4636600D01*
D02*
G37*
G36*
X15779401D02*
X15696700D01*
Y4533900D01*
X15779401D01*
Y4636600D01*
D02*
G37*
G36*
X16931400Y4549900D02*
X16903700D01*
Y4524700D01*
X16931400D01*
Y4549900D01*
D02*
G37*
G36*
X16878300D02*
X16850600D01*
Y4524700D01*
X16878300D01*
Y4549900D01*
D02*
G37*
G36*
X12103100Y4579533D02*
Y4504238D01*
X12178395D01*
X12177012Y4514745D01*
X12168054Y4536371D01*
X12153804Y4554942D01*
X12135234Y4569192D01*
X12113607Y4578149D01*
X12103100Y4579533D01*
D02*
G37*
G36*
X12077700D02*
X12067193Y4578149D01*
X12045566Y4569192D01*
X12026996Y4554942D01*
X12012746Y4536371D01*
X12003788Y4514745D01*
X12002405Y4504238D01*
X12077700D01*
Y4579533D01*
D02*
G37*
G36*
X3175000D02*
Y4504238D01*
X3250295D01*
X3248912Y4514745D01*
X3239954Y4536371D01*
X3225704Y4554942D01*
X3207134Y4569192D01*
X3185507Y4578149D01*
X3175000Y4579533D01*
D02*
G37*
G36*
X3149600D02*
X3139093Y4578149D01*
X3117466Y4569192D01*
X3098896Y4554942D01*
X3084646Y4536371D01*
X3075688Y4514745D01*
X3074305Y4504238D01*
X3149600D01*
Y4579533D01*
D02*
G37*
G36*
X13842900Y4614900D02*
X13665199D01*
Y4492200D01*
X13842900D01*
Y4614900D01*
D02*
G37*
G36*
X13639799D02*
X13462100D01*
Y4492200D01*
X13639799D01*
Y4614900D01*
D02*
G37*
G36*
X15887500Y4508500D02*
X15804800D01*
Y4405800D01*
X15887500D01*
Y4508500D01*
D02*
G37*
G36*
X15779401D02*
X15696700D01*
Y4405800D01*
X15779401D01*
Y4508500D01*
D02*
G37*
G36*
X12178395Y4478838D02*
X12103100D01*
Y4403543D01*
X12113607Y4404926D01*
X12135234Y4413884D01*
X12153804Y4428133D01*
X12168054Y4446704D01*
X12177012Y4468330D01*
X12178395Y4478838D01*
D02*
G37*
G36*
X12077700D02*
X12002405D01*
X12003788Y4468330D01*
X12012746Y4446704D01*
X12026996Y4428133D01*
X12045566Y4413884D01*
X12067193Y4404926D01*
X12077700Y4403543D01*
Y4478838D01*
D02*
G37*
G36*
X3250295D02*
X3175000D01*
Y4403543D01*
X3185507Y4404926D01*
X3207134Y4413884D01*
X3225704Y4428133D01*
X3239954Y4446704D01*
X3248912Y4468330D01*
X3250295Y4478838D01*
D02*
G37*
G36*
X3149600D02*
X3074305D01*
X3075688Y4468330D01*
X3084646Y4446704D01*
X3098896Y4428133D01*
X3117466Y4413884D01*
X3139093Y4404926D01*
X3149600Y4403543D01*
Y4478838D01*
D02*
G37*
G36*
X16446500Y4452533D02*
Y4377238D01*
X16521796D01*
X16520412Y4387745D01*
X16511453Y4409371D01*
X16497205Y4427942D01*
X16478635Y4442192D01*
X16457007Y4451149D01*
X16446500Y4452533D01*
D02*
G37*
G36*
X16421100D02*
X16410593Y4451149D01*
X16388966Y4442192D01*
X16370396Y4427942D01*
X16356146Y4409371D01*
X16347188Y4387745D01*
X16345805Y4377238D01*
X16421100D01*
Y4452533D01*
D02*
G37*
G36*
X15722400Y4305300D02*
X15697200D01*
Y4277600D01*
X15722400D01*
Y4305300D01*
D02*
G37*
G36*
X16521796Y4351838D02*
X16446500D01*
Y4276543D01*
X16457007Y4277926D01*
X16478635Y4286884D01*
X16497205Y4301133D01*
X16511453Y4319704D01*
X16520412Y4341330D01*
X16521796Y4351838D01*
D02*
G37*
G36*
X16421100D02*
X16345805D01*
X16347188Y4341330D01*
X16356146Y4319704D01*
X16370396Y4301133D01*
X16388966Y4286884D01*
X16410593Y4277926D01*
X16421100Y4276543D01*
Y4351838D01*
D02*
G37*
G36*
X14466949Y4297600D02*
X14441750D01*
Y4269900D01*
X14466949D01*
Y4297600D01*
D02*
G37*
G36*
X14465800Y4156700D02*
X14383099D01*
Y4054000D01*
X14465800D01*
Y4156700D01*
D02*
G37*
G36*
X14357700D02*
X14275000D01*
Y4054000D01*
X14357700D01*
Y4156700D01*
D02*
G37*
G36*
X13665199Y4046133D02*
Y3970838D01*
X13740495D01*
X13739111Y3981345D01*
X13730154Y4002971D01*
X13715904Y4021542D01*
X13697334Y4035792D01*
X13675706Y4044749D01*
X13665199Y4046133D01*
D02*
G37*
G36*
X13639799D02*
X13629292Y4044749D01*
X13607666Y4035792D01*
X13589096Y4021542D01*
X13574846Y4002971D01*
X13565887Y3981345D01*
X13564505Y3970838D01*
X13639799D01*
Y4046133D01*
D02*
G37*
G36*
X14986000Y4038400D02*
X14883299D01*
Y3955700D01*
X14986000D01*
Y4038400D01*
D02*
G37*
G36*
X14357700Y4028600D02*
X14275000D01*
Y3925900D01*
X14357700D01*
Y4028600D01*
D02*
G37*
G36*
X13740495Y3945438D02*
X13665199D01*
Y3870143D01*
X13675706Y3871526D01*
X13697334Y3880484D01*
X13715904Y3894733D01*
X13730154Y3913304D01*
X13739111Y3934930D01*
X13740495Y3945438D01*
D02*
G37*
G36*
X13639799D02*
X13564505D01*
X13565887Y3934930D01*
X13574846Y3913304D01*
X13589096Y3894733D01*
X13607666Y3880484D01*
X13629292Y3871526D01*
X13639799Y3870143D01*
Y3945438D01*
D02*
G37*
G36*
X15114101Y3930300D02*
X15011400D01*
Y3847600D01*
X15114101D01*
Y3930300D01*
D02*
G37*
G36*
X14986000D02*
X14883299D01*
Y3847600D01*
X14986000D01*
Y3930300D01*
D02*
G37*
G36*
X15189200Y3871650D02*
X15161501D01*
Y3846450D01*
X15189200D01*
Y3871650D01*
D02*
G37*
G36*
X8128000Y3881033D02*
Y3805738D01*
X8203295D01*
X8201912Y3816245D01*
X8192954Y3837871D01*
X8178704Y3856442D01*
X8160134Y3870692D01*
X8138507Y3879649D01*
X8128000Y3881033D01*
D02*
G37*
G36*
X8102600D02*
X8092093Y3879649D01*
X8070466Y3870692D01*
X8051896Y3856442D01*
X8037646Y3837871D01*
X8028688Y3816245D01*
X8027305Y3805738D01*
X8102600D01*
Y3881033D01*
D02*
G37*
G36*
X16230299Y3882500D02*
X16157600D01*
Y3797299D01*
X16230299D01*
Y3882500D01*
D02*
G37*
G36*
X16132201D02*
X16059500D01*
Y3797299D01*
X16132201D01*
Y3882500D01*
D02*
G37*
G36*
X17092599Y3868700D02*
X16841800D01*
Y3782146D01*
X16760500D01*
Y3822300D01*
X16589700D01*
Y3721500D01*
X16596254D01*
Y3633300D01*
X16509500D01*
Y3402500D01*
X16562753D01*
Y3260095D01*
X16534050D01*
X16522208Y3257739D01*
X16512169Y3251031D01*
X16505461Y3240992D01*
X16503105Y3229150D01*
Y3149050D01*
X16505461Y3137208D01*
X16512169Y3127169D01*
X16522208Y3120461D01*
X16534050Y3118106D01*
X16669150D01*
X16680992Y3120461D01*
X16691031Y3127169D01*
X16697739Y3137208D01*
X16700095Y3149050D01*
Y3229150D01*
X16697739Y3240992D01*
X16691031Y3251031D01*
X16680992Y3257739D01*
X16669150Y3260095D01*
X16640446D01*
Y3402500D01*
X16700301D01*
Y3633300D01*
X16673947D01*
Y3721500D01*
X16705563D01*
X16711232Y3715831D01*
X16723834Y3707410D01*
X16738699Y3704453D01*
X16841800D01*
Y3617900D01*
X17092599D01*
Y3868700D01*
D02*
G37*
G36*
X8203295Y3780338D02*
X8128000D01*
Y3705043D01*
X8138507Y3706426D01*
X8160134Y3715384D01*
X8178704Y3729633D01*
X8192954Y3748204D01*
X8201912Y3769830D01*
X8203295Y3780338D01*
D02*
G37*
G36*
X8102600D02*
X8027305D01*
X8028688Y3769830D01*
X8037646Y3748204D01*
X8051896Y3729633D01*
X8070466Y3715384D01*
X8092093Y3706426D01*
X8102600Y3705043D01*
Y3780338D01*
D02*
G37*
G36*
X3636200Y3828791D02*
Y3695500D01*
X3769491D01*
X3766132Y3721018D01*
X3751380Y3756632D01*
X3727914Y3787214D01*
X3697332Y3810680D01*
X3661718Y3825432D01*
X3636200Y3828791D01*
D02*
G37*
G36*
X3610800D02*
X3585282Y3825432D01*
X3549668Y3810680D01*
X3519086Y3787214D01*
X3495620Y3756632D01*
X3480868Y3721018D01*
X3477509Y3695500D01*
X3610800D01*
Y3828791D01*
D02*
G37*
G36*
X14540700Y3813600D02*
X14478000D01*
Y3690900D01*
X14540700D01*
Y3813600D01*
D02*
G37*
G36*
X16230299Y3771899D02*
X16157600D01*
Y3686700D01*
X16230299D01*
Y3771899D01*
D02*
G37*
G36*
X16132201D02*
X16059500D01*
Y3686700D01*
X16132201D01*
Y3771899D01*
D02*
G37*
G36*
X9321800Y3754033D02*
Y3678738D01*
X9397095D01*
X9395712Y3689245D01*
X9386754Y3710871D01*
X9372504Y3729442D01*
X9353934Y3743692D01*
X9332307Y3752649D01*
X9321800Y3754033D01*
D02*
G37*
G36*
X9296400D02*
X9285893Y3752649D01*
X9264266Y3743692D01*
X9245696Y3729442D01*
X9231446Y3710871D01*
X9222488Y3689245D01*
X9221105Y3678738D01*
X9296400D01*
Y3754033D01*
D02*
G37*
G36*
X17348199Y3697225D02*
Y3606800D01*
X17438625D01*
X17436726Y3621223D01*
X17426256Y3646498D01*
X17409602Y3668202D01*
X17387898Y3684856D01*
X17362624Y3695326D01*
X17348199Y3697225D01*
D02*
G37*
G36*
X17322800D02*
X17308377Y3695326D01*
X17283102Y3684856D01*
X17261398Y3668202D01*
X17244743Y3646498D01*
X17234274Y3621223D01*
X17232375Y3606800D01*
X17322800D01*
Y3697225D01*
D02*
G37*
G36*
X9397095Y3653338D02*
X9321800D01*
Y3578043D01*
X9332307Y3579426D01*
X9353934Y3588384D01*
X9372504Y3602633D01*
X9386754Y3621204D01*
X9395712Y3642830D01*
X9397095Y3653338D01*
D02*
G37*
G36*
X9296400D02*
X9221105D01*
X9222488Y3642830D01*
X9231446Y3621204D01*
X9245696Y3602633D01*
X9264266Y3588384D01*
X9285893Y3579426D01*
X9296400Y3578043D01*
Y3653338D01*
D02*
G37*
G36*
X14540700Y3665500D02*
X14478000D01*
Y3542800D01*
X14540700D01*
Y3665500D01*
D02*
G37*
G36*
X14452600D02*
X14389900D01*
Y3542800D01*
X14452600D01*
Y3665500D01*
D02*
G37*
G36*
X3769491Y3670100D02*
X3636200D01*
Y3536809D01*
X3661718Y3540168D01*
X3697332Y3554920D01*
X3727914Y3578386D01*
X3751380Y3608968D01*
X3766132Y3644582D01*
X3769491Y3670100D01*
D02*
G37*
G36*
X3610800D02*
X3477509D01*
X3480868Y3644582D01*
X3495620Y3608968D01*
X3519086Y3578386D01*
X3549668Y3554920D01*
X3585282Y3540168D01*
X3610800Y3536809D01*
Y3670100D01*
D02*
G37*
G36*
X17438625Y3581400D02*
X17348199D01*
Y3490975D01*
X17362624Y3492874D01*
X17387898Y3503344D01*
X17409602Y3519998D01*
X17426256Y3541702D01*
X17436726Y3566977D01*
X17438625Y3581400D01*
D02*
G37*
G36*
X17322800D02*
X17232375D01*
X17234274Y3566977D01*
X17244743Y3541702D01*
X17261398Y3519998D01*
X17283102Y3503344D01*
X17308377Y3492874D01*
X17322800Y3490975D01*
Y3581400D01*
D02*
G37*
G36*
X13849899Y3481700D02*
X13792200D01*
Y3429000D01*
X13849899D01*
Y3481700D01*
D02*
G37*
G36*
X13766800D02*
X13709100D01*
Y3429000D01*
X13766800D01*
Y3481700D01*
D02*
G37*
G36*
X16430299Y3882500D02*
X16259500D01*
Y3686700D01*
X16306053D01*
Y3633300D01*
X16249500D01*
Y3402500D01*
X16440300D01*
Y3633300D01*
X16383746D01*
Y3686700D01*
X16430299D01*
Y3882500D01*
D02*
G37*
G36*
X8678700Y3382800D02*
X8588500D01*
Y3340100D01*
X8678700D01*
Y3382800D01*
D02*
G37*
G36*
X8563100D02*
X8472900D01*
Y3340100D01*
X8563100D01*
Y3382800D01*
D02*
G37*
G36*
X8678700Y3314700D02*
X8588500D01*
Y3272000D01*
X8678700D01*
Y3314700D01*
D02*
G37*
G36*
X8563100D02*
X8472900D01*
Y3272000D01*
X8563100D01*
Y3314700D01*
D02*
G37*
G36*
X4261400Y3296300D02*
X4203700D01*
Y3243600D01*
X4261400D01*
Y3296300D01*
D02*
G37*
G36*
X4178300D02*
X4120600D01*
Y3243600D01*
X4178300D01*
Y3296300D01*
D02*
G37*
G36*
X17092599Y3468700D02*
X16841800D01*
Y3217900D01*
X17092599D01*
Y3301253D01*
X17231599D01*
Y3236200D01*
X17439400D01*
Y3444000D01*
X17231599D01*
Y3378947D01*
X17092599D01*
Y3468700D01*
D02*
G37*
G36*
X13849899Y3403600D02*
X13779500D01*
X13709100D01*
Y3350900D01*
Y3272754D01*
X13708353Y3269000D01*
Y3264000D01*
X13709100Y3260246D01*
Y3230900D01*
X13728159D01*
X13732333Y3228110D01*
X13747200Y3225153D01*
X13762067Y3228110D01*
X13766241Y3230900D01*
X13849899D01*
Y3251653D01*
X13891901D01*
Y3225100D01*
X14022701D01*
Y3355900D01*
X13891901D01*
Y3329346D01*
X13849899D01*
Y3350900D01*
Y3403600D01*
D02*
G37*
G36*
X8678700Y3255800D02*
X8588500D01*
Y3213100D01*
X8678700D01*
Y3255800D01*
D02*
G37*
G36*
X8563100D02*
X8472900D01*
Y3213100D01*
X8563100D01*
Y3255800D01*
D02*
G37*
G36*
X15544800Y3258733D02*
Y3183438D01*
X15620094D01*
X15618712Y3193945D01*
X15609753Y3215571D01*
X15595505Y3234142D01*
X15576933Y3248392D01*
X15555307Y3257349D01*
X15544800Y3258733D01*
D02*
G37*
G36*
X15519400D02*
X15508893Y3257349D01*
X15487267Y3248392D01*
X15468697Y3234142D01*
X15454446Y3215571D01*
X15445488Y3193945D01*
X15444106Y3183438D01*
X15519400D01*
Y3258733D01*
D02*
G37*
G36*
X8678700Y3187700D02*
X8588500D01*
Y3145000D01*
X8678700D01*
Y3187700D01*
D02*
G37*
G36*
X8563100D02*
X8472900D01*
Y3145000D01*
X8563100D01*
Y3187700D01*
D02*
G37*
G36*
X11938000Y3207933D02*
Y3132638D01*
X12013295D01*
X12011912Y3143145D01*
X12002954Y3164771D01*
X11988704Y3183342D01*
X11970134Y3197592D01*
X11948507Y3206549D01*
X11938000Y3207933D01*
D02*
G37*
G36*
X11912600D02*
X11902093Y3206549D01*
X11880466Y3197592D01*
X11861896Y3183342D01*
X11847646Y3164771D01*
X11838688Y3143145D01*
X11837305Y3132638D01*
X11912600D01*
Y3207933D01*
D02*
G37*
G36*
X14655701Y3213600D02*
X14478000D01*
Y3090900D01*
X14655701D01*
Y3213600D01*
D02*
G37*
G36*
X14452600D02*
X14274899D01*
Y3090900D01*
X14452600D01*
Y3213600D01*
D02*
G37*
G36*
X8678700Y3128800D02*
X8588500D01*
Y3086100D01*
X8678700D01*
Y3128800D01*
D02*
G37*
G36*
X8563100D02*
X8472900D01*
Y3086100D01*
X8563100D01*
Y3128800D01*
D02*
G37*
G36*
X15620094Y3158038D02*
X15544800D01*
Y3082743D01*
X15555307Y3084126D01*
X15576933Y3093084D01*
X15595505Y3107333D01*
X15609753Y3125904D01*
X15618712Y3147530D01*
X15620094Y3158038D01*
D02*
G37*
G36*
X15519400D02*
X15444106D01*
X15445488Y3147530D01*
X15454446Y3125904D01*
X15468697Y3107333D01*
X15487267Y3093084D01*
X15508893Y3084126D01*
X15519400Y3082743D01*
Y3158038D01*
D02*
G37*
G36*
X12013295Y3107238D02*
X11938000D01*
Y3031943D01*
X11948507Y3033326D01*
X11970134Y3042284D01*
X11988704Y3056533D01*
X12002954Y3075104D01*
X12011912Y3096730D01*
X12013295Y3107238D01*
D02*
G37*
G36*
X11912600D02*
X11837305D01*
X11838688Y3096730D01*
X11847646Y3075104D01*
X11861896Y3056533D01*
X11880466Y3042284D01*
X11902093Y3033326D01*
X11912600Y3031943D01*
Y3107238D01*
D02*
G37*
G36*
X3390900Y3093633D02*
Y3018338D01*
X3466195D01*
X3464812Y3028845D01*
X3455854Y3050471D01*
X3441604Y3069042D01*
X3423034Y3083292D01*
X3401407Y3092249D01*
X3390900Y3093633D01*
D02*
G37*
G36*
X3365500D02*
X3354993Y3092249D01*
X3333366Y3083292D01*
X3314796Y3069042D01*
X3300546Y3050471D01*
X3291588Y3028845D01*
X3290205Y3018338D01*
X3365500D01*
Y3093633D01*
D02*
G37*
G36*
X8678700Y3060700D02*
X8588500D01*
Y3018000D01*
X8678700D01*
Y3060700D01*
D02*
G37*
G36*
X8563100D02*
X8472900D01*
Y3018000D01*
X8563100D01*
Y3060700D01*
D02*
G37*
G36*
X8138700Y3128800D02*
X7932900D01*
Y3112247D01*
X7808400D01*
X7793534Y3109289D01*
X7780931Y3100869D01*
X7691063Y3011000D01*
X7570200D01*
Y2780200D01*
X7746000D01*
Y2956063D01*
X7824491Y3034553D01*
X7932900D01*
Y3018000D01*
X8138700D01*
Y3128800D01*
D02*
G37*
G36*
X15973898Y3142597D02*
X15919176D01*
X15907285Y3140232D01*
X15897205Y3133496D01*
X15890468Y3123416D01*
X15888103Y3111525D01*
Y2971799D01*
X15973898D01*
Y3142597D01*
D02*
G37*
G36*
X8138700Y3001800D02*
X8048500D01*
Y2959100D01*
X8138700D01*
Y3001800D01*
D02*
G37*
G36*
X8023100D02*
X7932900D01*
Y2959100D01*
X8023100D01*
Y3001800D01*
D02*
G37*
G36*
X14655701Y3065500D02*
X14478000D01*
Y2942800D01*
X14655701D01*
Y3065500D01*
D02*
G37*
G36*
X14452600D02*
X14274899D01*
Y2942800D01*
X14452600D01*
Y3065500D01*
D02*
G37*
G36*
X3466195Y2992938D02*
X3390900D01*
Y2917643D01*
X3401407Y2919026D01*
X3423034Y2927984D01*
X3441604Y2942233D01*
X3455854Y2960804D01*
X3464812Y2982430D01*
X3466195Y2992938D01*
D02*
G37*
G36*
X3365500D02*
X3290205D01*
X3291588Y2982430D01*
X3300546Y2960804D01*
X3314796Y2942233D01*
X3333366Y2927984D01*
X3354993Y2919026D01*
X3365500Y2917643D01*
Y2992938D01*
D02*
G37*
G36*
X8138700Y2933700D02*
X8048500D01*
Y2891000D01*
X8138700D01*
Y2933700D01*
D02*
G37*
G36*
X8023100D02*
X7932900D01*
Y2891000D01*
X8023100D01*
Y2933700D01*
D02*
G37*
G36*
X16085097Y2946399D02*
X15999300D01*
Y2775603D01*
X16054025D01*
X16065916Y2777968D01*
X16075996Y2784704D01*
X16082732Y2794784D01*
X16085097Y2806675D01*
Y2946399D01*
D02*
G37*
G36*
X15973898D02*
X15888103D01*
Y2806675D01*
X15890468Y2794784D01*
X15897205Y2784704D01*
X15907285Y2777968D01*
X15919176Y2775603D01*
X15973898D01*
Y2946399D01*
D02*
G37*
G36*
X16669150Y2800094D02*
X16614301D01*
Y2741800D01*
X16700095D01*
Y2769150D01*
X16697739Y2780992D01*
X16691031Y2791031D01*
X16680992Y2797739D01*
X16669150Y2800094D01*
D02*
G37*
G36*
X16588901D02*
X16534050D01*
X16522208Y2797739D01*
X16512169Y2791031D01*
X16505461Y2780992D01*
X16503105Y2769150D01*
Y2741800D01*
X16588901D01*
Y2800094D01*
D02*
G37*
G36*
X16700095Y2716400D02*
X16614301D01*
Y2658105D01*
X16669150D01*
X16680992Y2660461D01*
X16691031Y2667169D01*
X16697739Y2677208D01*
X16700095Y2689050D01*
Y2716400D01*
D02*
G37*
G36*
X16588901D02*
X16503105D01*
Y2689050D01*
X16505461Y2677208D01*
X16512169Y2667169D01*
X16522208Y2660461D01*
X16534050Y2658105D01*
X16588901D01*
Y2716400D01*
D02*
G37*
%LPD*%
G36*
X4119568Y9401795D02*
X4117088Y9395807D01*
X4114033Y9372600D01*
X4115118Y9364355D01*
X4075563Y9324800D01*
X4010095D01*
Y9249900D01*
X3990905D01*
Y9324800D01*
X3910100D01*
Y9200831D01*
X3898367Y9195970D01*
X3884769Y9209569D01*
X3881143Y9211991D01*
X3874954Y9226934D01*
X3860704Y9245504D01*
X3842134Y9259754D01*
X3820507Y9268712D01*
X3797300Y9271767D01*
X3774093Y9268712D01*
X3752466Y9259754D01*
X3733896Y9245504D01*
X3719646Y9226934D01*
X3710688Y9205307D01*
X3707633Y9182100D01*
X3710688Y9158893D01*
X3719646Y9137266D01*
X3733896Y9118696D01*
X3752466Y9104446D01*
X3774093Y9095488D01*
X3797300Y9092433D01*
X3820507Y9095488D01*
X3842134Y9104446D01*
X3860704Y9118696D01*
X3865456Y9119007D01*
X3895563Y9088900D01*
X3785510Y8978847D01*
X3372718D01*
X3357852Y8975890D01*
X3345250Y8967469D01*
X3268527Y8890747D01*
X3113900D01*
Y8927300D01*
X2756549D01*
X2751688Y8939033D01*
X3248009Y9435353D01*
X4086009D01*
X4119568Y9401795D01*
D02*
G37*
G36*
X4990400Y9383400D02*
X5015753D01*
Y9341400D01*
X4989200D01*
Y9217431D01*
X4977467Y9212571D01*
X4739000Y9451037D01*
Y9500754D01*
X4990400D01*
Y9383400D01*
D02*
G37*
G36*
X5413013Y9116531D02*
X5425616Y9108111D01*
X5440482Y9105153D01*
X5597309D01*
X5761883Y8940580D01*
X5757023Y8928847D01*
X5261191D01*
X5001171Y9188867D01*
X5006031Y9200600D01*
X5161900D01*
Y9271000D01*
X5187300D01*
Y9200600D01*
X5240000D01*
Y9272951D01*
X5251733Y9277812D01*
X5413013Y9116531D01*
D02*
G37*
G36*
X4608200Y9396100D02*
X4684063D01*
X5190383Y8889780D01*
X5185523Y8878047D01*
X4473791D01*
X4433047Y8918791D01*
Y9013066D01*
X4439034Y9015546D01*
X4457604Y9029796D01*
X4471854Y9048366D01*
X4480812Y9069993D01*
X4483867Y9093200D01*
X4480812Y9116407D01*
X4471854Y9138034D01*
X4457604Y9156604D01*
X4439034Y9170854D01*
X4417407Y9179812D01*
X4394200Y9182867D01*
X4370993Y9179812D01*
X4349366Y9170854D01*
X4330796Y9156604D01*
X4316546Y9138034D01*
X4307588Y9116407D01*
X4304533Y9093200D01*
X4307588Y9069993D01*
X4316546Y9048366D01*
X4330796Y9029796D01*
X4349366Y9015546D01*
X4355353Y9013066D01*
Y8902700D01*
X4358311Y8887834D01*
X4366731Y8875231D01*
X4402983Y8838980D01*
X4398123Y8827247D01*
X4367091D01*
X4090900Y9103437D01*
Y9163800D01*
X4090900D01*
Y9175000D01*
X4090900D01*
Y9230263D01*
X4157009Y9296372D01*
X4158866Y9294946D01*
X4180493Y9285988D01*
X4203700Y9282933D01*
X4226907Y9285988D01*
X4248534Y9294946D01*
X4267104Y9309196D01*
X4281354Y9327766D01*
X4290312Y9349393D01*
X4293367Y9372600D01*
X4290312Y9395807D01*
X4281354Y9417434D01*
X4267104Y9436004D01*
X4248534Y9450254D01*
X4226907Y9459212D01*
X4203700Y9462267D01*
X4180493Y9459212D01*
X4174505Y9456732D01*
X4142217Y9489020D01*
X4147077Y9500754D01*
X4458200D01*
Y9396100D01*
X4482353D01*
Y9341400D01*
X4455800D01*
Y9200600D01*
X4628500D01*
Y9271000D01*
Y9341400D01*
X4560047D01*
Y9396100D01*
X4589000D01*
Y9500754D01*
X4608200D01*
Y9396100D01*
D02*
G37*
G36*
X5473000Y9370700D02*
X5505353D01*
Y9328700D01*
X5478800D01*
Y9187900D01*
X5468193Y9182847D01*
X5456573D01*
X5268719Y9370700D01*
X5271200Y9383400D01*
X5271201D01*
X5271200Y9383401D01*
Y9500754D01*
X5473000D01*
Y9370700D01*
D02*
G37*
G36*
X8457453Y8928693D02*
Y8701561D01*
X8446063Y8695944D01*
X8439534Y8700954D01*
X8417907Y8709912D01*
X8394700Y8712967D01*
X8371493Y8709912D01*
X8349866Y8700954D01*
X8331296Y8686704D01*
X8317046Y8668134D01*
X8308088Y8646507D01*
X8305033Y8623300D01*
X8308088Y8600093D01*
X8314288Y8585125D01*
X8269880Y8540717D01*
X8258147Y8545577D01*
Y8863609D01*
X8289305Y8894768D01*
X8295293Y8892288D01*
X8318500Y8889233D01*
X8341707Y8892288D01*
X8363334Y8901246D01*
X8381904Y8915496D01*
X8396154Y8934066D01*
X8405112Y8955693D01*
X8406186Y8963852D01*
X8418212Y8967935D01*
X8457453Y8928693D01*
D02*
G37*
G36*
X4187882Y8896581D02*
X4180688Y8885815D01*
X4176107Y8887712D01*
X4152900Y8890767D01*
X4129693Y8887712D01*
X4108066Y8878754D01*
X4089496Y8864504D01*
X4075246Y8845934D01*
X4066288Y8824307D01*
X4063233Y8801100D01*
X4066288Y8777893D01*
X4075246Y8756266D01*
X4089496Y8737696D01*
X4108066Y8723446D01*
X4129693Y8714488D01*
X4152900Y8711433D01*
X4176107Y8714488D01*
X4193892Y8721855D01*
X4205615Y8710131D01*
X4218218Y8701711D01*
X4233084Y8698753D01*
X4271129D01*
X4277635Y8688272D01*
X4277607Y8686053D01*
X4274795Y8671921D01*
Y8465333D01*
X4262095Y8462807D01*
X4255954Y8477634D01*
X4241704Y8496204D01*
X4223134Y8510454D01*
X4201507Y8519412D01*
X4191000Y8520795D01*
Y8432800D01*
Y8344805D01*
X4201507Y8346188D01*
X4223134Y8355146D01*
X4241704Y8369396D01*
X4255954Y8387966D01*
X4262095Y8402793D01*
X4274795Y8400267D01*
Y7992433D01*
X4113780Y7831417D01*
X4102046Y7836277D01*
Y8344700D01*
X4099089Y8359566D01*
X4090668Y8372169D01*
X3977169Y8485669D01*
X3964566Y8494089D01*
X3949700Y8497047D01*
X2723918D01*
X2709052Y8494089D01*
X2696450Y8485669D01*
X2675180Y8464399D01*
X2663446Y8469259D01*
Y8725603D01*
X2676146Y8732391D01*
X2682852Y8727910D01*
X2697718Y8724953D01*
X3268360D01*
X3283226Y8727910D01*
X3295828Y8736331D01*
X3335250Y8775753D01*
X3390941D01*
X3395801Y8764020D01*
X3268527Y8636747D01*
X3113900D01*
Y8673300D01*
X2688100D01*
Y8522500D01*
X3113900D01*
Y8559053D01*
X3284618D01*
X3299484Y8562011D01*
X3312087Y8570431D01*
X3351366Y8609711D01*
X3363100Y8604851D01*
Y8522500D01*
X3788900D01*
Y8559053D01*
X3909700D01*
Y8527500D01*
X4082400D01*
Y8597900D01*
Y8668300D01*
X3909700D01*
Y8636747D01*
X3788900D01*
Y8673300D01*
X3431549D01*
X3426688Y8685033D01*
X3466609Y8724953D01*
X3793781D01*
X3808647Y8727910D01*
X3821250Y8736331D01*
X4075710Y8990792D01*
X4092171Y8992292D01*
X4187882Y8896581D01*
D02*
G37*
G36*
X6528817Y8744771D02*
X6523957Y8733038D01*
X6446399D01*
X5753800Y9425637D01*
Y9500754D01*
X5772835D01*
X6528817Y8744771D01*
D02*
G37*
G36*
X3395581Y8178000D02*
X3394836Y8172730D01*
X3391098Y8165300D01*
X3363100D01*
Y8102600D01*
X3576000D01*
X3788900D01*
Y8102970D01*
X3800633Y8107830D01*
X3924354Y7984109D01*
Y7800800D01*
X3922800D01*
Y7651000D01*
X3922800Y7651000D01*
Y7639800D01*
X3922800D01*
X3922800Y7638300D01*
Y7603747D01*
X3900472D01*
X3793250Y7710969D01*
X3780647Y7719389D01*
X3765781Y7722347D01*
X3453109D01*
X3426688Y7748767D01*
X3431549Y7760500D01*
X3563300D01*
Y7835900D01*
Y7911300D01*
X3363100D01*
Y7828949D01*
X3351366Y7824089D01*
X3312087Y7863369D01*
X3299484Y7871789D01*
X3284618Y7874747D01*
X3148877D01*
X3144017Y7886480D01*
X3180919Y7923382D01*
X3180966Y7923346D01*
X3202593Y7914388D01*
X3225800Y7911333D01*
X3249007Y7914388D01*
X3270634Y7923346D01*
X3289204Y7937596D01*
X3303454Y7956166D01*
X3312412Y7977793D01*
X3315467Y8001000D01*
X3312412Y8024207D01*
X3303454Y8045834D01*
X3289204Y8064404D01*
X3270634Y8078654D01*
X3249007Y8087612D01*
X3225800Y8090667D01*
X3202593Y8087612D01*
X3180966Y8078654D01*
X3162396Y8064404D01*
X3148146Y8045834D01*
X3139188Y8024207D01*
X3136133Y8001000D01*
X3137591Y7989928D01*
X3058962Y7911300D01*
X2688100D01*
Y7828949D01*
X2676367Y7824089D01*
X2663446Y7837009D01*
Y8218541D01*
X2675180Y8223401D01*
X2697990Y8200591D01*
X2710593Y8192170D01*
X2725459Y8189213D01*
X2834850D01*
X2847029Y8177033D01*
X2842169Y8165300D01*
X2688100D01*
Y8014500D01*
X3113900D01*
Y8165300D01*
X2939846D01*
Y8178000D01*
X2936889Y8192866D01*
X2928468Y8205469D01*
X2878409Y8255528D01*
X2878002Y8255800D01*
X2881855Y8268500D01*
X3113900D01*
Y8305053D01*
X3200771D01*
X3201603Y8292353D01*
X3189893Y8290812D01*
X3168266Y8281854D01*
X3149696Y8267604D01*
X3135446Y8249034D01*
X3126488Y8227407D01*
X3125105Y8216900D01*
X3301095D01*
X3299712Y8227407D01*
X3290754Y8249034D01*
X3276504Y8267604D01*
X3257934Y8281854D01*
X3236307Y8290812D01*
X3224597Y8292353D01*
X3225429Y8305053D01*
X3268527D01*
X3395581Y8178000D01*
D02*
G37*
G36*
X4024353Y8328609D02*
Y8162977D01*
X4012620Y8158117D01*
X3974478Y8196259D01*
X3975004Y8204296D01*
X3989254Y8222866D01*
X3998212Y8244493D01*
X3999595Y8255000D01*
X3823605D01*
X3824988Y8244493D01*
X3833946Y8222866D01*
X3848196Y8204296D01*
X3866766Y8190046D01*
X3888393Y8181088D01*
X3897359Y8179908D01*
X3898153Y8178800D01*
X3901111Y8163934D01*
X3909531Y8151331D01*
X3974353Y8086509D01*
Y8060577D01*
X3962620Y8055717D01*
X3786669Y8231669D01*
X3774066Y8240089D01*
X3759200Y8243047D01*
X3440409D01*
X3426689Y8256767D01*
X3431549Y8268500D01*
X3788900D01*
Y8419300D01*
X3801578Y8419353D01*
X3933609D01*
X4024353Y8328609D01*
D02*
G37*
G36*
X8980453Y8222591D02*
X8785009Y8027147D01*
X8538334D01*
X8535854Y8033134D01*
X8521604Y8051704D01*
X8503034Y8065954D01*
X8497047Y8068434D01*
Y8131502D01*
X8546769Y8181224D01*
X8551739Y8188663D01*
X8565527Y8191407D01*
X8567392Y8190970D01*
X8588468Y8169895D01*
X8585988Y8163907D01*
X8584605Y8153400D01*
X8659900D01*
Y8228695D01*
X8649392Y8227312D01*
X8643405Y8224832D01*
X8633225Y8235012D01*
X8638086Y8246745D01*
X8980453D01*
Y8222591D01*
D02*
G37*
G36*
X8480453Y8224784D02*
X8430731Y8175061D01*
X8422311Y8162459D01*
X8419353Y8147593D01*
Y8068434D01*
X8413366Y8065954D01*
X8394796Y8051704D01*
X8380546Y8033134D01*
X8371588Y8011507D01*
X8368533Y7988300D01*
X8371588Y7965093D01*
X8374068Y7959105D01*
X8341304Y7926342D01*
X8200432D01*
X8189307Y7930949D01*
X8166100Y7934005D01*
X8142893Y7930949D01*
X8131768Y7926342D01*
X7990041D01*
X7908146Y8008236D01*
Y8246745D01*
X8480453D01*
Y8224784D01*
D02*
G37*
G36*
X7238253Y7859239D02*
Y7847400D01*
X7241211Y7832534D01*
X7249631Y7819932D01*
X7409537Y7660026D01*
X7422140Y7651605D01*
X7437005Y7648648D01*
X7573360D01*
Y7598125D01*
Y7498125D01*
Y7398125D01*
Y7398120D01*
X7666705D01*
Y7376870D01*
X7573360D01*
Y7276342D01*
X7180057D01*
X7176954Y7283834D01*
X7162704Y7302404D01*
X7144134Y7316654D01*
X7122507Y7325612D01*
X7099300Y7328667D01*
X7076093Y7325612D01*
X7054466Y7316654D01*
X7035896Y7302404D01*
X7021646Y7283834D01*
X7012688Y7262207D01*
X7009633Y7239000D01*
X7012688Y7215793D01*
X7021646Y7194166D01*
X7035896Y7175596D01*
X7054466Y7161346D01*
X7076093Y7152388D01*
X7099300Y7149333D01*
X7122507Y7152388D01*
X7144134Y7161346D01*
X7162704Y7175596D01*
X7176954Y7194166D01*
X7178810Y7198649D01*
X7573360D01*
Y7098125D01*
Y6976341D01*
X6988294D01*
X6973429Y6973384D01*
X6964182Y6967206D01*
X6957407Y6970012D01*
X6934200Y6973067D01*
X6910993Y6970012D01*
X6889366Y6961054D01*
X6870796Y6946804D01*
X6856546Y6928234D01*
X6847588Y6906607D01*
X6844533Y6883400D01*
X6847588Y6860193D01*
X6856546Y6838566D01*
X6870796Y6819996D01*
X6889366Y6805746D01*
X6910993Y6796788D01*
X6934200Y6793733D01*
X6957407Y6796788D01*
X6979034Y6805746D01*
X6997604Y6819996D01*
X7011854Y6838566D01*
X7020812Y6860193D01*
X7023867Y6883400D01*
X7023117Y6889099D01*
X7031491Y6898648D01*
X7166033D01*
X7170893Y6886915D01*
X6718480Y6434501D01*
X6706747Y6439361D01*
Y7197909D01*
X7146305Y7637468D01*
X7152293Y7634988D01*
X7175500Y7631933D01*
X7198707Y7634988D01*
X7220334Y7643946D01*
X7238904Y7658196D01*
X7253154Y7676766D01*
X7262112Y7698393D01*
X7265167Y7721600D01*
X7262112Y7744807D01*
X7253154Y7766434D01*
X7238904Y7785004D01*
X7220334Y7799254D01*
X7198707Y7808212D01*
X7175500Y7811267D01*
X7152293Y7808212D01*
X7130666Y7799254D01*
X7112096Y7785004D01*
X7097846Y7766434D01*
X7088888Y7744807D01*
X7085833Y7721600D01*
X7088888Y7698393D01*
X7091368Y7692405D01*
X6668480Y7269517D01*
X6656746Y7274377D01*
Y7363809D01*
X7146305Y7853368D01*
X7152293Y7850888D01*
X7175500Y7847833D01*
X7198707Y7850888D01*
X7220334Y7859846D01*
X7226863Y7864856D01*
X7238253Y7859239D01*
D02*
G37*
G36*
X7413562Y7860026D02*
X7426165Y7851606D01*
X7441031Y7848649D01*
X7573360D01*
Y7726341D01*
X7453096D01*
X7315947Y7863491D01*
Y7941049D01*
X7327680Y7945909D01*
X7413562Y7860026D01*
D02*
G37*
G36*
X8076433Y7844337D02*
X8079488Y7821130D01*
X8088446Y7799504D01*
X8102696Y7780933D01*
X8104674Y7779415D01*
X8105505Y7766742D01*
X7771783Y7433020D01*
X7760050Y7437881D01*
Y7548125D01*
Y7648125D01*
Y7748125D01*
Y7848649D01*
X8072652D01*
X8076433Y7844337D01*
D02*
G37*
G36*
X3856913Y7537431D02*
X3869516Y7529011D01*
X3884381Y7526054D01*
X3922800D01*
Y7490000D01*
X4024353D01*
Y7430247D01*
X3819972D01*
X3780550Y7469669D01*
X3767947Y7478089D01*
X3753081Y7481047D01*
X3440409D01*
X3426689Y7494767D01*
X3431549Y7506500D01*
X3788900D01*
Y7588851D01*
X3800633Y7593711D01*
X3856913Y7537431D01*
D02*
G37*
G36*
X4484360Y8588689D02*
X4485180Y8585666D01*
X4485165Y8584453D01*
X4482353Y8570321D01*
Y8081134D01*
X4476366Y8078654D01*
X4457796Y8064404D01*
X4443546Y8045834D01*
X4434588Y8024207D01*
X4431533Y8001000D01*
X4434588Y7977793D01*
X4443546Y7956166D01*
X4457796Y7937596D01*
X4476366Y7923346D01*
X4497993Y7914388D01*
X4521200Y7911333D01*
X4544407Y7914388D01*
X4566034Y7923346D01*
X4584604Y7937596D01*
X4598854Y7956166D01*
X4607812Y7977793D01*
X4610867Y8001000D01*
X4607812Y8024207D01*
X4598854Y8045834D01*
X4584604Y8064404D01*
X4566034Y8078654D01*
X4560047Y8081134D01*
Y8546353D01*
X5653216D01*
X5714441Y8485129D01*
Y6798078D01*
X5706095Y6789732D01*
X5700107Y6792212D01*
X5676900Y6795267D01*
X5653693Y6792212D01*
X5632066Y6783254D01*
X5613496Y6769004D01*
X5599246Y6750434D01*
X5590288Y6728807D01*
X5587233Y6705600D01*
X5590288Y6682393D01*
X5599246Y6660766D01*
X5613496Y6642196D01*
X5632066Y6627946D01*
X5653693Y6618988D01*
X5676900Y6615933D01*
X5700107Y6618988D01*
X5721734Y6627946D01*
X5740304Y6642196D01*
X5752541Y6658143D01*
X5763857Y6655625D01*
X5765241Y6654860D01*
Y6594878D01*
X5731495Y6561132D01*
X5725507Y6563612D01*
X5702300Y6566667D01*
X5679093Y6563612D01*
X5657466Y6554654D01*
X5638896Y6540404D01*
X5624646Y6521834D01*
X5615688Y6500207D01*
X5612633Y6477000D01*
X5615688Y6453793D01*
X5624646Y6432166D01*
X5638896Y6413596D01*
X5657466Y6399346D01*
X5679093Y6390388D01*
X5702300Y6387333D01*
X5725507Y6390388D01*
X5738794Y6395892D01*
X5745988Y6385125D01*
X5725145Y6364282D01*
X5719157Y6366762D01*
X5695950Y6369817D01*
X5672743Y6366762D01*
X5651116Y6357804D01*
X5632546Y6343554D01*
X5618296Y6324984D01*
X5609338Y6303357D01*
X5606283Y6280150D01*
X5609338Y6256943D01*
X5618296Y6235316D01*
X5632546Y6216746D01*
X5651116Y6202496D01*
X5672743Y6193538D01*
X5695950Y6190483D01*
X5719157Y6193538D01*
X5740784Y6202496D01*
X5759354Y6216746D01*
X5773604Y6235316D01*
X5782562Y6256943D01*
X5785617Y6280150D01*
X5782562Y6303357D01*
X5780082Y6309345D01*
X5867620Y6396883D01*
X5879353Y6392023D01*
Y6315291D01*
X5660810Y6096747D01*
X5541134D01*
X5538654Y6102734D01*
X5524404Y6121304D01*
X5505834Y6135554D01*
X5484207Y6144512D01*
X5461000Y6147567D01*
X5437793Y6144512D01*
X5416166Y6135554D01*
X5397596Y6121304D01*
X5383346Y6102734D01*
X5374388Y6081107D01*
X5371333Y6057900D01*
X5374388Y6034693D01*
X5383346Y6013066D01*
X5397596Y5994496D01*
X5416166Y5980246D01*
X5437793Y5971288D01*
X5461000Y5968233D01*
X5484207Y5971288D01*
X5505834Y5980246D01*
X5524404Y5994496D01*
X5538654Y6013066D01*
X5541134Y6019053D01*
X5676900D01*
X5691766Y6022011D01*
X5704369Y6030431D01*
X5918420Y6244483D01*
X5930153Y6239622D01*
Y6086690D01*
X5793729Y5950265D01*
X5786981Y5950299D01*
X5778418Y5952335D01*
X5765704Y5968904D01*
X5747134Y5983154D01*
X5725507Y5992112D01*
X5702300Y5995167D01*
X5679093Y5992112D01*
X5657466Y5983154D01*
X5638896Y5968904D01*
X5624646Y5950334D01*
X5615688Y5928707D01*
X5612633Y5905500D01*
X5615688Y5882293D01*
X5624646Y5860666D01*
X5638396Y5842747D01*
X5637678Y5838396D01*
X5634844Y5830047D01*
X5452234D01*
X5449754Y5836034D01*
X5435504Y5854604D01*
X5416934Y5868854D01*
X5395307Y5877812D01*
X5372100Y5880867D01*
X5348893Y5877812D01*
X5327266Y5868854D01*
X5308696Y5854604D01*
X5294446Y5836034D01*
X5285488Y5814407D01*
X5282433Y5791200D01*
X5285488Y5767993D01*
X5294446Y5746366D01*
X5308696Y5727796D01*
X5327266Y5713546D01*
X5348893Y5704588D01*
X5372100Y5701533D01*
X5395307Y5704588D01*
X5416934Y5713546D01*
X5435504Y5727796D01*
X5449754Y5746366D01*
X5452234Y5752353D01*
X5880100D01*
X5894966Y5755311D01*
X5907569Y5763731D01*
X6047268Y5903431D01*
X6055689Y5916034D01*
X6058646Y5930900D01*
Y6226923D01*
X6070380Y6231784D01*
X6347932Y5954231D01*
X6360534Y5945811D01*
X6375400Y5942853D01*
X6396866D01*
X6399346Y5936866D01*
X6413596Y5918296D01*
X6432166Y5904046D01*
X6453793Y5895088D01*
X6477000Y5892033D01*
X6500207Y5895088D01*
X6521834Y5904046D01*
X6540404Y5918296D01*
X6554654Y5936866D01*
X6563612Y5958493D01*
X6566353Y5979317D01*
X6579053Y5978485D01*
Y5196693D01*
X6567027Y5192610D01*
X6565804Y5194204D01*
X6547234Y5208454D01*
X6525607Y5217412D01*
X6502400Y5220467D01*
X6479193Y5217412D01*
X6457566Y5208454D01*
X6438996Y5194204D01*
X6424746Y5175634D01*
X6415788Y5154007D01*
X6412733Y5130800D01*
X6415788Y5107593D01*
X6424746Y5085966D01*
X6438996Y5067396D01*
X6457566Y5053146D01*
X6479193Y5044188D01*
X6502400Y5041133D01*
X6516353Y5042970D01*
X6529053Y5032629D01*
Y4615789D01*
X6526709Y4604000D01*
Y4559915D01*
X6525526Y4548874D01*
X6514485Y4547691D01*
X6470400D01*
X6458611Y4545347D01*
X6202991D01*
X5971069Y4777269D01*
X5958466Y4785689D01*
X5957707Y4785841D01*
X5954541Y4799419D01*
X5956204Y4800696D01*
X5970454Y4819266D01*
X5979412Y4840893D01*
X5982467Y4864100D01*
X5979412Y4887307D01*
X5970454Y4908934D01*
X5956204Y4927504D01*
X5937634Y4941754D01*
X5916007Y4950712D01*
X5892800Y4953767D01*
X5869593Y4950712D01*
X5847966Y4941754D01*
X5829396Y4927504D01*
X5815424Y4909297D01*
X5765800D01*
Y4940200D01*
X5649438D01*
X5554286Y5035351D01*
X5541683Y5043772D01*
X5526817Y5046729D01*
X5060862D01*
X5045996Y5043772D01*
X5033393Y5035351D01*
X5018514Y5020472D01*
X5010093Y5007869D01*
X5007136Y4993003D01*
Y3958203D01*
X4995746Y3952586D01*
X4989216Y3957596D01*
X4967590Y3966554D01*
X4944383Y3969609D01*
X4927500Y3967386D01*
X4914800Y3976422D01*
Y4051199D01*
X4914800D01*
Y4051401D01*
X4914800D01*
Y4178199D01*
X4914800D01*
Y4178401D01*
X4914800D01*
Y4292700D01*
X4914800Y4305200D01*
X4914800Y4317900D01*
Y4419700D01*
X4914800Y4432200D01*
X4914800Y4444900D01*
Y4546700D01*
X4914800Y4559200D01*
X4914800Y4571900D01*
Y4631263D01*
X4923966Y4640429D01*
X4932650Y4646231D01*
X4954968Y4668550D01*
X4963389Y4681152D01*
X4966346Y4696018D01*
Y4930582D01*
X4963389Y4945448D01*
X4954968Y4958050D01*
X4932650Y4980369D01*
X4920047Y4988790D01*
X4905181Y4991747D01*
X4358928D01*
X4344062Y4988790D01*
X4331460Y4980369D01*
X4301808Y4950717D01*
X4289720Y4956590D01*
X4286957Y4977574D01*
X4277395Y5000660D01*
X4262183Y5020483D01*
X4242360Y5035695D01*
X4219274Y5045257D01*
X4194500Y5048519D01*
X4169726Y5045257D01*
X4160713Y5041524D01*
X3988547Y5213691D01*
Y5509900D01*
X4020100D01*
Y5629900D01*
Y5682600D01*
X3879300D01*
Y5629900D01*
Y5509900D01*
X3910853D01*
Y5197600D01*
X3913811Y5182734D01*
X3922231Y5170132D01*
X4105776Y4986587D01*
X4102043Y4977574D01*
X4098781Y4952800D01*
X4102043Y4928026D01*
X4111605Y4904941D01*
X4117893Y4896747D01*
X4111630Y4884047D01*
X3994770D01*
X3891948Y4986869D01*
X3879345Y4995289D01*
X3864479Y4998247D01*
X3591931D01*
X3577065Y4995289D01*
X3564462Y4986869D01*
X3531680Y4954086D01*
X3519946Y4958946D01*
Y5189369D01*
X3531337Y5194986D01*
X3549668Y5180920D01*
X3585282Y5166168D01*
X3610800Y5162809D01*
Y5308800D01*
Y5454791D01*
X3585282Y5451432D01*
X3549668Y5436680D01*
X3519086Y5413214D01*
X3495620Y5382632D01*
X3480868Y5347018D01*
X3475837Y5308800D01*
X3476654Y5302589D01*
X3465264Y5296972D01*
X3292637Y5469598D01*
Y7266491D01*
X3289680Y7281357D01*
X3281259Y7293959D01*
X3131750Y7443469D01*
X3119147Y7451890D01*
X3104281Y7454847D01*
X2791609D01*
X2751688Y7494767D01*
X2756549Y7506500D01*
X3113900D01*
Y7543053D01*
X3268527D01*
X3395581Y7416000D01*
X3394836Y7410730D01*
X3391098Y7403300D01*
X3363100D01*
Y7252500D01*
X3788900D01*
Y7342585D01*
X3801600Y7353007D01*
X3803881Y7352553D01*
X4048321D01*
X4063187Y7355511D01*
X4075789Y7363931D01*
X4090668Y7378810D01*
X4099089Y7391413D01*
X4102046Y7406279D01*
Y7490000D01*
X4103600D01*
Y7584863D01*
X4391910Y7873173D01*
X4400331Y7885776D01*
X4403288Y7900642D01*
Y8597153D01*
X4479836D01*
X4484360Y8588689D01*
D02*
G37*
G36*
X13439101Y6922300D02*
X13426422Y6922247D01*
X12944691D01*
X12837517Y7029420D01*
X12842377Y7041154D01*
X13439101D01*
Y6922300D01*
D02*
G37*
G36*
X6402840Y8666723D02*
X6415443Y8658302D01*
X6430308Y8655345D01*
X6546402D01*
X7164535Y8037212D01*
X7160452Y8025186D01*
X7152293Y8024112D01*
X7130666Y8015154D01*
X7112096Y8000904D01*
X7097846Y7982334D01*
X7088888Y7960707D01*
X7085833Y7937500D01*
X7088888Y7914293D01*
X7091368Y7908305D01*
X6590431Y7407368D01*
X6582010Y7394766D01*
X6579053Y7379900D01*
Y7239063D01*
X6578254Y7235042D01*
Y6733061D01*
X6566863Y6727444D01*
X6560334Y6732454D01*
X6554347Y6734934D01*
Y7632300D01*
X6551389Y7647166D01*
X6542969Y7659769D01*
X6160247Y8042491D01*
Y8636000D01*
X6157289Y8650866D01*
X6148869Y8663469D01*
X5640869Y9171469D01*
X5635284Y9175200D01*
X5639137Y9187900D01*
X5651500D01*
Y9258300D01*
X5664200D01*
Y9271000D01*
X5729600D01*
Y9322002D01*
X5742300Y9327263D01*
X6402840Y8666723D01*
D02*
G37*
G36*
X7573360Y6698125D02*
Y6648120D01*
X7666705D01*
Y6626870D01*
X7573360D01*
Y6598125D01*
Y6476342D01*
X7287181D01*
X7277004Y6489604D01*
X7258434Y6503854D01*
X7236807Y6512812D01*
X7213600Y6515867D01*
X7190393Y6512812D01*
X7168766Y6503854D01*
X7150196Y6489604D01*
X7135946Y6471034D01*
X7126988Y6449407D01*
X7125447Y6437697D01*
X7112747Y6438529D01*
Y6579567D01*
X7331828Y6798649D01*
X7573360D01*
Y6698125D01*
D02*
G37*
G36*
Y6876342D02*
X7315737D01*
X7300871Y6873385D01*
X7288268Y6864964D01*
X7046431Y6623127D01*
X7038011Y6610524D01*
X7035053Y6595658D01*
Y6438529D01*
X7022353Y6437697D01*
X7020812Y6449407D01*
X7011854Y6471034D01*
X6997604Y6489604D01*
X6979034Y6503854D01*
X6957407Y6512812D01*
X6934200Y6515867D01*
X6926693Y6514879D01*
X6920761Y6526907D01*
X7292501Y6898648D01*
X7573360D01*
Y6876342D01*
D02*
G37*
G36*
X7035053Y6413871D02*
Y5237791D01*
X6819280Y5022017D01*
X6807546Y5026877D01*
Y6244609D01*
X6905005Y6342068D01*
X6910993Y6339588D01*
X6934200Y6336533D01*
X6957407Y6339588D01*
X6979034Y6348546D01*
X6997604Y6362796D01*
X7011854Y6381366D01*
X7020812Y6402993D01*
X7022353Y6414703D01*
X7035053Y6413871D01*
D02*
G37*
G36*
X6476654Y7616209D02*
Y6734934D01*
X6470667Y6732454D01*
X6452096Y6718204D01*
X6437846Y6699634D01*
X6428888Y6678007D01*
X6425833Y6654800D01*
X6428888Y6631593D01*
X6437846Y6609966D01*
X6452096Y6591396D01*
X6470667Y6577146D01*
X6492293Y6568188D01*
X6515500Y6565133D01*
X6538708Y6568188D01*
X6560334Y6577146D01*
X6566353Y6581765D01*
X6579053Y6575502D01*
Y5984915D01*
X6566353Y5984083D01*
X6563612Y6004907D01*
X6554654Y6026534D01*
X6540404Y6045104D01*
X6521834Y6059354D01*
X6500207Y6068312D01*
X6477000Y6071367D01*
X6453793Y6068312D01*
X6432166Y6059354D01*
X6413596Y6045104D01*
X6400882Y6028535D01*
X6392318Y6026499D01*
X6385571Y6026466D01*
X6109447Y6302591D01*
Y7966823D01*
X6121180Y7971683D01*
X6476654Y7616209D01*
D02*
G37*
G36*
X12975484Y5893020D02*
X12556909Y5474447D01*
X11759829D01*
X11758997Y5487147D01*
X11770707Y5488688D01*
X11792334Y5497646D01*
X11810904Y5511896D01*
X11825154Y5530466D01*
X11827634Y5536453D01*
X12568642D01*
X12583508Y5539411D01*
X12596110Y5547831D01*
X12953033Y5904753D01*
X12970622D01*
X12975484Y5893020D01*
D02*
G37*
G36*
X3951211Y4817732D02*
X3963814Y4809311D01*
X3978679Y4806354D01*
X4212693D01*
X4217553Y4794620D01*
X4109579Y4686646D01*
X3799128D01*
X3795395Y4695659D01*
X3780183Y4715483D01*
X3760360Y4730695D01*
X3737274Y4740257D01*
X3712500Y4743519D01*
X3687726Y4740257D01*
X3664641Y4730695D01*
X3644817Y4715483D01*
X3629605Y4695659D01*
X3620043Y4672574D01*
X3616781Y4647800D01*
X3620043Y4623026D01*
X3629605Y4599941D01*
X3644817Y4580117D01*
X3664641Y4564905D01*
X3687726Y4555343D01*
X3712500Y4552081D01*
X3737274Y4555343D01*
X3760360Y4564905D01*
X3780183Y4580117D01*
X3795395Y4599941D01*
X3799128Y4608953D01*
X4125670D01*
X4140536Y4611911D01*
X4153139Y4620331D01*
X4370761Y4837953D01*
X4699000D01*
Y4813401D01*
X4698999D01*
Y4813199D01*
X4699000D01*
Y4775947D01*
X4581003D01*
X4571904Y4787804D01*
X4553334Y4802054D01*
X4531707Y4811012D01*
X4508500Y4814067D01*
X4485293Y4811012D01*
X4463666Y4802054D01*
X4445096Y4787804D01*
X4430846Y4769234D01*
X4421888Y4747607D01*
X4418833Y4724400D01*
X4421888Y4701193D01*
X4430846Y4679566D01*
X4445096Y4660996D01*
X4463666Y4646746D01*
X4485293Y4637788D01*
X4508500Y4634733D01*
X4531707Y4637788D01*
X4553334Y4646746D01*
X4571904Y4660996D01*
X4586154Y4679566D01*
X4593894Y4698253D01*
X4697439D01*
X4699000Y4686200D01*
X4698999Y4686200D01*
X4699000Y4686199D01*
Y4571900D01*
X4699000Y4559400D01*
X4699000Y4546700D01*
Y4444900D01*
X4699000Y4432400D01*
X4699000Y4419700D01*
Y4317900D01*
X4699000Y4305400D01*
X4699000Y4292700D01*
Y4279647D01*
X3798714D01*
X3795395Y4287659D01*
X3780183Y4307483D01*
X3760360Y4322695D01*
X3737274Y4332257D01*
X3712500Y4335519D01*
X3687726Y4332257D01*
X3664641Y4322695D01*
X3644817Y4307483D01*
X3629605Y4287659D01*
X3620043Y4264574D01*
X3616781Y4239800D01*
X3610554Y4232700D01*
X3439600D01*
Y4111349D01*
X3427867Y4106489D01*
X3414946Y4119409D01*
Y4389823D01*
X3426680Y4394683D01*
X3445776Y4375587D01*
X3442043Y4366574D01*
X3438781Y4341800D01*
X3442043Y4317026D01*
X3451605Y4293941D01*
X3466817Y4274117D01*
X3486640Y4258905D01*
X3509726Y4249343D01*
X3534500Y4246081D01*
X3559274Y4249343D01*
X3582359Y4258905D01*
X3602183Y4274117D01*
X3617395Y4293941D01*
X3626957Y4317026D01*
X3630219Y4341800D01*
X3626957Y4366574D01*
X3617395Y4389659D01*
X3602183Y4409483D01*
X3582359Y4424695D01*
X3559274Y4434257D01*
X3534500Y4437519D01*
X3509726Y4434257D01*
X3500713Y4430524D01*
X3476754Y4454483D01*
X3485146Y4464052D01*
X3486640Y4462905D01*
X3509726Y4453343D01*
X3534500Y4450081D01*
X3559274Y4453343D01*
X3582359Y4462905D01*
X3602183Y4478117D01*
X3617395Y4497940D01*
X3626957Y4521026D01*
X3630219Y4545800D01*
X3626957Y4570574D01*
X3617395Y4593659D01*
X3602183Y4613483D01*
X3582359Y4628695D01*
X3559274Y4638257D01*
X3534500Y4641519D01*
X3509726Y4638257D01*
X3486640Y4628695D01*
X3478446Y4622407D01*
X3465746Y4628670D01*
Y4666929D01*
X3478446Y4673193D01*
X3486640Y4666905D01*
X3509726Y4657343D01*
X3534500Y4654081D01*
X3559274Y4657343D01*
X3582359Y4666905D01*
X3602183Y4682117D01*
X3617395Y4701941D01*
X3626957Y4725026D01*
X3630219Y4749800D01*
X3626957Y4774574D01*
X3617395Y4797659D01*
X3602183Y4817483D01*
X3582359Y4832695D01*
X3559274Y4842257D01*
X3549034Y4843606D01*
X3544482Y4857014D01*
X3608021Y4920554D01*
X3629630D01*
X3635893Y4907854D01*
X3629605Y4899659D01*
X3620043Y4876574D01*
X3616781Y4851800D01*
X3620043Y4827026D01*
X3629605Y4803941D01*
X3644817Y4784117D01*
X3664641Y4768905D01*
X3687726Y4759343D01*
X3712500Y4756081D01*
X3737274Y4759343D01*
X3760360Y4768905D01*
X3780183Y4784117D01*
X3795395Y4803941D01*
X3804957Y4827026D01*
X3808219Y4851800D01*
X3804957Y4876574D01*
X3795395Y4899659D01*
X3789107Y4907854D01*
X3795371Y4920554D01*
X3848389D01*
X3951211Y4817732D01*
D02*
G37*
G36*
X5550000Y4929763D02*
Y4813401D01*
X5550000D01*
Y4813199D01*
X5550000D01*
Y4763346D01*
X5537300D01*
X5522434Y4760389D01*
X5509831Y4751969D01*
X5445863Y4688001D01*
X5429634Y4700454D01*
X5408007Y4709412D01*
X5384800Y4712467D01*
X5361593Y4709412D01*
X5339966Y4700454D01*
X5321396Y4686204D01*
X5307146Y4667634D01*
X5298188Y4646007D01*
X5295133Y4622800D01*
X5298188Y4599593D01*
X5307146Y4577966D01*
X5321396Y4559396D01*
X5322167Y4547621D01*
X5295007Y4520461D01*
X5290655Y4521172D01*
X5290608Y4521200D01*
X5207000D01*
Y4445905D01*
X5217507Y4447288D01*
X5239134Y4456246D01*
X5257704Y4470496D01*
X5269753Y4486199D01*
X5282453Y4482917D01*
Y4448962D01*
X5243031Y4409540D01*
X5234611Y4396937D01*
X5231653Y4382071D01*
Y4297903D01*
X5234611Y4283037D01*
X5243031Y4270435D01*
X5302547Y4210919D01*
X5315150Y4202498D01*
X5330016Y4199541D01*
X5355438D01*
X5453024Y4101954D01*
X5450839Y4086179D01*
X5438360Y4076604D01*
X5424111Y4058034D01*
X5415153Y4036407D01*
X5412097Y4013200D01*
X5415153Y3989993D01*
X5424111Y3968366D01*
X5438360Y3949796D01*
X5456931Y3935546D01*
X5478557Y3926588D01*
X5501764Y3923533D01*
X5524972Y3926588D01*
X5537300Y3931695D01*
X5550000Y3924400D01*
Y3924400D01*
X5745169D01*
X5750030Y3912667D01*
X5711609Y3874247D01*
X5084829D01*
Y4969036D01*
X5510727D01*
X5550000Y4929763D01*
D02*
G37*
G36*
X7997112Y4666833D02*
X7992251Y4655100D01*
X7929900D01*
Y4623547D01*
X7444100D01*
Y4655100D01*
X7235531D01*
X7230670Y4666833D01*
X7243237Y4679400D01*
X7444100D01*
Y4710953D01*
X7952991D01*
X7997112Y4666833D01*
D02*
G37*
G36*
X7126988Y6402993D02*
X7135946Y6381366D01*
X7150196Y6362796D01*
X7168766Y6348546D01*
X7190393Y6339588D01*
X7213600Y6336533D01*
X7236807Y6339588D01*
X7258434Y6348546D01*
X7277004Y6362796D01*
X7291254Y6381366D01*
X7298412Y6398649D01*
X7317718D01*
X7322578Y6386915D01*
X7160731Y6225069D01*
X7152311Y6212466D01*
X7149353Y6197600D01*
Y4913018D01*
X7152311Y4898153D01*
X7160731Y4885550D01*
X7213381Y4832900D01*
X7208121Y4820200D01*
X7193300D01*
Y4739337D01*
X6999309Y4545347D01*
X6927189D01*
X6915400Y4547691D01*
X6871315D01*
X6860274Y4548874D01*
X6859091Y4559915D01*
Y4604000D01*
X6856747Y4615789D01*
Y4949609D01*
X7101369Y5194231D01*
X7109789Y5206834D01*
X7112747Y5221700D01*
Y6413871D01*
X7125447Y6414703D01*
X7126988Y6402993D01*
D02*
G37*
G36*
X6142883Y4495580D02*
X6138023Y4483847D01*
X6100299D01*
X6099875Y4487070D01*
X6090917Y4508696D01*
X6076667Y4527267D01*
X6058096Y4541517D01*
X6036470Y4550475D01*
X6013263Y4553530D01*
X5990055Y4550475D01*
X5968429Y4541517D01*
X5949859Y4527267D01*
X5935609Y4508696D01*
X5926651Y4487070D01*
X5923596Y4463863D01*
X5926651Y4440655D01*
X5935609Y4419029D01*
X5949859Y4400459D01*
X5968429Y4386209D01*
X5990055Y4377251D01*
X6013263Y4374196D01*
X6030808Y4376506D01*
X6036740Y4364477D01*
X5952909Y4280647D01*
X5907561D01*
X5901944Y4292037D01*
X5906954Y4298566D01*
X5915912Y4320193D01*
X5917295Y4330700D01*
X5829300D01*
Y4343400D01*
X5816600D01*
Y4431395D01*
X5806093Y4430012D01*
X5784466Y4421054D01*
X5780921Y4418333D01*
X5768724Y4423009D01*
X5765801Y4432200D01*
Y4432400D01*
X5765800D01*
Y4559200D01*
X5775316Y4566887D01*
X5836347D01*
X5842096Y4559396D01*
X5860666Y4545146D01*
X5882293Y4536188D01*
X5905500Y4533133D01*
X5928707Y4536188D01*
X5950334Y4545146D01*
X5968904Y4559396D01*
X5983154Y4577966D01*
X5992112Y4599593D01*
X5995167Y4622800D01*
X5994783Y4625719D01*
X6006811Y4631651D01*
X6142883Y4495580D01*
D02*
G37*
G36*
X7800899Y4533153D02*
X7785196Y4521104D01*
X7770946Y4502534D01*
X7761988Y4480907D01*
X7758933Y4457700D01*
X7761988Y4434493D01*
X7770946Y4412866D01*
X7785196Y4394296D01*
X7803766Y4380046D01*
X7825393Y4371088D01*
X7848600Y4368033D01*
X7871807Y4371088D01*
X7886491Y4377170D01*
X7893685Y4366404D01*
X7882731Y4355450D01*
X7874310Y4342848D01*
X7871353Y4327982D01*
Y4293347D01*
X7750934D01*
X7748454Y4299334D01*
X7734204Y4317904D01*
X7715634Y4332154D01*
X7694007Y4341112D01*
X7670800Y4344167D01*
X7647593Y4341112D01*
X7625966Y4332154D01*
X7607396Y4317904D01*
X7593146Y4299334D01*
X7590666Y4293347D01*
X7216991D01*
X7154715Y4355622D01*
X7158895Y4369403D01*
X7164966Y4370611D01*
X7177100Y4378718D01*
X7186518Y4376864D01*
X7189800Y4375504D01*
Y4361900D01*
X7362500D01*
Y4432300D01*
X7387900D01*
Y4361900D01*
X7440600D01*
Y4372593D01*
X7453300Y4375120D01*
X7453446Y4374766D01*
X7467696Y4356196D01*
X7486266Y4341946D01*
X7507893Y4332988D01*
X7518400Y4331605D01*
Y4419600D01*
Y4507595D01*
X7507893Y4506212D01*
X7486266Y4497254D01*
X7467696Y4483004D01*
X7453446Y4464434D01*
X7453300Y4464080D01*
X7440600Y4466607D01*
Y4502700D01*
X7440600D01*
X7443255Y4514300D01*
X7444100D01*
Y4545853D01*
X7797617D01*
X7800899Y4533153D01*
D02*
G37*
G36*
X5550000Y4490751D02*
Y4432401D01*
X5550000D01*
Y4432199D01*
X5550000D01*
Y4317900D01*
X5550000Y4305401D01*
X5550000D01*
Y4305199D01*
X5550000D01*
Y4178401D01*
X5550000D01*
Y4178199D01*
X5550000D01*
Y4153647D01*
X5511207D01*
X5414886Y4249967D01*
X5418940Y4263873D01*
X5435504Y4276583D01*
X5449754Y4295154D01*
X5458712Y4316780D01*
X5461767Y4339987D01*
X5458712Y4363195D01*
X5449754Y4384821D01*
X5447420Y4387863D01*
X5450369Y4390811D01*
X5458789Y4403414D01*
X5461747Y4418280D01*
Y4419091D01*
X5538267Y4495611D01*
X5550000Y4490751D01*
D02*
G37*
G36*
X4117893Y4094853D02*
X4111605Y4086659D01*
X4102043Y4063574D01*
X4098781Y4038800D01*
X4102043Y4014026D01*
X4111605Y3990940D01*
X4126817Y3971117D01*
X4130523Y3968273D01*
X4126441Y3956247D01*
X3578109D01*
X3503189Y4031167D01*
X3508049Y4042900D01*
X3629400D01*
Y4098953D01*
X3649110D01*
X3653065Y4096311D01*
X3667931Y4093354D01*
X3979765D01*
X3994631Y4096311D01*
X4007234Y4104731D01*
X4010056Y4107553D01*
X4111630D01*
X4117893Y4094853D01*
D02*
G37*
G36*
X7173431Y4227031D02*
X7186034Y4218611D01*
X7200900Y4215653D01*
X7590666D01*
X7593146Y4209666D01*
X7607396Y4191096D01*
X7625966Y4176846D01*
X7647593Y4167888D01*
X7670800Y4164833D01*
X7694007Y4167888D01*
X7715634Y4176846D01*
X7734204Y4191096D01*
X7748454Y4209666D01*
X7750934Y4215653D01*
X7870223D01*
X7875083Y4203920D01*
X7761309Y4090147D01*
X7449800D01*
Y4121700D01*
X7248937D01*
X7064717Y4305920D01*
X7069577Y4317654D01*
X7082809D01*
X7173431Y4227031D01*
D02*
G37*
G36*
X5939683Y4191220D02*
X5778500Y4030037D01*
X5765800Y4034832D01*
X5765800Y4051199D01*
X5765801D01*
Y4051401D01*
X5765800D01*
Y4178199D01*
X5765801D01*
Y4178401D01*
X5765800D01*
Y4202953D01*
X5934823D01*
X5939683Y4191220D01*
D02*
G37*
G36*
X4481929Y4189253D02*
X4468946Y4172334D01*
X4459988Y4150707D01*
X4456933Y4127500D01*
X4459988Y4104293D01*
X4468946Y4082666D01*
X4483196Y4064096D01*
X4501766Y4049846D01*
X4523393Y4040888D01*
X4535103Y4039347D01*
X4534271Y4026647D01*
X4480490D01*
X4333268Y4173868D01*
X4320666Y4182289D01*
X4305800Y4185246D01*
X3993965D01*
X3979099Y4182289D01*
X3966497Y4173868D01*
X3963675Y4171047D01*
X3795371D01*
X3789107Y4183747D01*
X3795395Y4191941D01*
X3799543Y4201953D01*
X4478867D01*
X4481929Y4189253D01*
D02*
G37*
G36*
X6470400Y4215309D02*
X6514485D01*
X6525526Y4214126D01*
X6526709Y4203085D01*
Y4159000D01*
X6529053Y4147211D01*
Y4069391D01*
X6473609Y4013947D01*
X6374433D01*
X6351275Y4037105D01*
X6349904Y4051441D01*
X6364154Y4070011D01*
X6373112Y4091637D01*
X6376167Y4114845D01*
X6373112Y4138052D01*
X6364154Y4159678D01*
X6349904Y4178249D01*
X6333689Y4190691D01*
X6330032Y4204995D01*
X6342690Y4217653D01*
X6458611D01*
X6470400Y4215309D01*
D02*
G37*
G36*
X7922900Y4125269D02*
Y4091637D01*
X7743609Y3912347D01*
X7449800D01*
Y3943900D01*
X7248937D01*
X7223670Y3969167D01*
X7228531Y3980900D01*
X7449800D01*
Y4012453D01*
X7777400D01*
X7792266Y4015411D01*
X7804869Y4023831D01*
X7911167Y4130130D01*
X7922900Y4125269D01*
D02*
G37*
G36*
X7060453Y4111409D02*
Y4038600D01*
X7063411Y4023734D01*
X7071831Y4011131D01*
X7199000Y3883963D01*
Y3803100D01*
X7261351D01*
X7266212Y3791367D01*
X7247491Y3772647D01*
X7154034D01*
X7151554Y3778634D01*
X7137304Y3797204D01*
X7118734Y3811454D01*
X7097107Y3820412D01*
X7073900Y3823467D01*
X7050693Y3820412D01*
X7029066Y3811454D01*
X7010496Y3797204D01*
X6996246Y3778634D01*
X6987288Y3757007D01*
X6984233Y3733800D01*
X6987288Y3710593D01*
X6996246Y3688966D01*
X7010496Y3670396D01*
X7029066Y3656146D01*
X7050693Y3647188D01*
X7073900Y3644133D01*
X7097107Y3647188D01*
X7118734Y3656146D01*
X7137304Y3670396D01*
X7151554Y3688966D01*
X7154034Y3694953D01*
X7263582D01*
X7278448Y3697911D01*
X7291050Y3706331D01*
X7387819Y3803100D01*
X7449800D01*
Y3834653D01*
X7697141D01*
X7702001Y3822920D01*
X7489491Y3610410D01*
X7485500Y3604437D01*
X7452933Y3571870D01*
X7441200Y3576731D01*
Y3633300D01*
X7265400D01*
Y3556747D01*
X6718300D01*
X6703434Y3553789D01*
X6690831Y3545369D01*
X6633195Y3487732D01*
X6627207Y3490212D01*
X6604000Y3493267D01*
X6580793Y3490212D01*
X6559166Y3481254D01*
X6540596Y3467004D01*
X6526346Y3448434D01*
X6517388Y3426807D01*
X6514333Y3403600D01*
X6517388Y3380393D01*
X6526346Y3358766D01*
X6540596Y3340196D01*
X6559166Y3325946D01*
X6580793Y3316988D01*
X6604000Y3313933D01*
X6627207Y3316988D01*
X6648834Y3325946D01*
X6667404Y3340196D01*
X6681654Y3358766D01*
X6690612Y3380393D01*
X6693667Y3403600D01*
X6690612Y3426807D01*
X6688132Y3432795D01*
X6734391Y3479053D01*
X7265400D01*
Y3402500D01*
X7314453D01*
Y3328500D01*
X7265400D01*
Y3097700D01*
X7314254D01*
Y3011000D01*
X7265200D01*
Y2780200D01*
X7386063D01*
X7474083Y2692180D01*
X7469223Y2680447D01*
X4864309D01*
X4799589Y2745167D01*
X4804449Y2756900D01*
X4966800D01*
Y2805953D01*
X5033600D01*
Y2764400D01*
X5214400D01*
Y2925199D01*
X5214400D01*
Y2929401D01*
X5214400D01*
Y3035263D01*
X5225069Y3045931D01*
X5230900Y3054659D01*
X5243600Y3050806D01*
Y2937900D01*
X5243600Y2929400D01*
X5243600Y2916700D01*
Y2857500D01*
X5424400D01*
Y2916700D01*
X5424400Y2925200D01*
X5424400Y2937900D01*
Y2970953D01*
X5533909D01*
X5560430Y2944433D01*
X5555569Y2932700D01*
X5510700D01*
Y2756900D01*
X5741500D01*
Y2932700D01*
X5667692D01*
X5665169Y2945387D01*
X5656748Y2957990D01*
X5577469Y3037268D01*
X5564866Y3045689D01*
X5550000Y3048646D01*
X5424400D01*
Y3090200D01*
X5249147D01*
X5243600Y3090200D01*
X5236446Y3099937D01*
Y3134600D01*
X5283000D01*
Y3162300D01*
X5245100D01*
Y3175000D01*
X5236452D01*
X5235505Y3179759D01*
Y3215400D01*
X5159700D01*
Y3179759D01*
X5158753Y3175000D01*
Y3090200D01*
X5094037D01*
X5006969Y3177268D01*
X4994366Y3185689D01*
X4979500Y3188646D01*
X4966800D01*
Y3237700D01*
X4812946D01*
Y3382369D01*
X4809989Y3397235D01*
X4801569Y3409838D01*
X4782186Y3429220D01*
X4787047Y3440953D01*
X6210300D01*
X6225166Y3443911D01*
X6237769Y3452331D01*
X6695369Y3909931D01*
X6703789Y3922534D01*
X6706747Y3937400D01*
Y4110017D01*
X6716564Y4118074D01*
X6717900Y4117808D01*
X6719236Y4118074D01*
X6729054Y4110017D01*
Y3875691D01*
X6181509Y3328147D01*
X6116300D01*
Y3359700D01*
X5865500D01*
Y3273837D01*
X5780309Y3188646D01*
X5741500D01*
Y3237700D01*
X5577240D01*
X5570134Y3249032D01*
X5570186Y3250400D01*
X5587904Y3263996D01*
X5602154Y3282566D01*
X5611112Y3304193D01*
X5612495Y3314700D01*
X5436505D01*
X5437888Y3304193D01*
X5446846Y3282566D01*
X5461096Y3263996D01*
X5479666Y3249746D01*
X5499574Y3241500D01*
X5501293Y3240788D01*
X5510700Y3233603D01*
X5510700Y3226740D01*
Y3061900D01*
X5741500D01*
Y3110953D01*
X5796400D01*
X5811266Y3113910D01*
X5823868Y3122331D01*
X5920437Y3218900D01*
X6116300D01*
Y3250453D01*
X6197600D01*
X6212466Y3253411D01*
X6225069Y3261831D01*
X6795369Y3832132D01*
X6803790Y3844734D01*
X6806747Y3859600D01*
Y4043723D01*
X6818480Y4048583D01*
X6837368Y4029695D01*
X6834888Y4023707D01*
X6831833Y4000500D01*
X6834888Y3977293D01*
X6843846Y3955666D01*
X6858096Y3937096D01*
X6876666Y3922846D01*
X6898293Y3913888D01*
X6921500Y3910833D01*
X6944707Y3913888D01*
X6966334Y3922846D01*
X6984904Y3937096D01*
X6999154Y3955666D01*
X7008112Y3977293D01*
X7011167Y4000500D01*
X7008112Y4023707D01*
X6999154Y4045334D01*
X6984904Y4063904D01*
X6966334Y4078154D01*
X6944707Y4087112D01*
X6921500Y4090167D01*
X6898293Y4087112D01*
X6892305Y4084632D01*
X6856747Y4120191D01*
Y4147211D01*
X6859091Y4159000D01*
Y4203085D01*
X6860274Y4214126D01*
X6871315Y4215309D01*
X6915400D01*
X6927189Y4217653D01*
X6954209D01*
X7060453Y4111409D01*
D02*
G37*
G36*
X4436931Y3960331D02*
X4449534Y3951911D01*
X4464400Y3948953D01*
X4699000D01*
Y3924400D01*
X4855143D01*
X4862199Y3913840D01*
X4857771Y3903149D01*
X4854715Y3879942D01*
X4857771Y3856734D01*
X4866729Y3835108D01*
X4880978Y3816538D01*
X4899549Y3802288D01*
X4921175Y3793330D01*
X4944383Y3790275D01*
X4967590Y3793330D01*
X4973577Y3795810D01*
X5075756Y3693631D01*
X5088358Y3685211D01*
X5103224Y3682253D01*
X5353893D01*
X5364500Y3677200D01*
Y3619500D01*
X5429900D01*
Y3606800D01*
X5442600D01*
Y3536400D01*
X5615300D01*
Y3567953D01*
X5676900D01*
X5691766Y3570911D01*
X5704369Y3579331D01*
X6196350Y4071313D01*
X6210654Y4067656D01*
X6223096Y4051440D01*
X6241666Y4037191D01*
X6263293Y4028233D01*
X6267094Y4027733D01*
Y4027502D01*
X6270051Y4012636D01*
X6278472Y4000033D01*
X6330874Y3947631D01*
X6343476Y3939211D01*
X6358342Y3936253D01*
X6489700D01*
X6494388Y3937186D01*
X6500644Y3925482D01*
X6449409Y3874247D01*
X6159500D01*
X6144634Y3871289D01*
X6132719Y3863328D01*
X6128124Y3863933D01*
X6104917Y3860878D01*
X6083291Y3851920D01*
X6064720Y3837670D01*
X6050470Y3819100D01*
X6041512Y3797473D01*
X6038457Y3774266D01*
X6041512Y3751059D01*
X6050470Y3729432D01*
X6064720Y3710862D01*
X6083291Y3696612D01*
X6104917Y3687654D01*
X6128124Y3684599D01*
X6151332Y3687654D01*
X6172958Y3696612D01*
X6191528Y3710862D01*
X6205778Y3729432D01*
X6214736Y3751059D01*
X6217791Y3774266D01*
X6216114Y3787005D01*
X6224488Y3796553D01*
X6454156D01*
X6459416Y3783853D01*
X6194209Y3518647D01*
X4769591D01*
X4283224Y4005013D01*
X4286957Y4014026D01*
X4290219Y4038800D01*
X4286957Y4063574D01*
X4277395Y4086659D01*
X4271108Y4094853D01*
X4277371Y4107553D01*
X4289709D01*
X4436931Y3960331D01*
D02*
G37*
G36*
X5711083Y3784820D02*
X5686209Y3759947D01*
X5119315D01*
X5094442Y3784820D01*
X5099302Y3796553D01*
X5706223D01*
X5711083Y3784820D01*
D02*
G37*
G36*
X8663593Y3951988D02*
X8686800Y3948933D01*
X8702755Y3951033D01*
X8703141Y3950917D01*
X8713417Y3940641D01*
X8713533Y3940255D01*
X8711433Y3924300D01*
X8714488Y3901093D01*
X8716968Y3895105D01*
X8150433Y3328570D01*
X8138700Y3333431D01*
Y3340947D01*
X8139447Y3344700D01*
Y3436309D01*
X8657605Y3954468D01*
X8663593Y3951988D01*
D02*
G37*
G36*
X9838625Y2895820D02*
X9623251Y2680447D01*
X8136777D01*
X8131917Y2692180D01*
X8347291Y2907553D01*
X8472900D01*
Y2891000D01*
X8678700D01*
Y2907553D01*
X9833764D01*
X9838625Y2895820D01*
D02*
G37*
G36*
X5033600Y3040763D02*
Y2929401D01*
X5033600D01*
Y2925199D01*
X5033600D01*
Y2883647D01*
X4966800D01*
Y2932700D01*
X4804449D01*
X4799589Y2944433D01*
X4801569Y2946413D01*
X4809989Y2959016D01*
X4812946Y2973882D01*
Y3061900D01*
X4966800D01*
Y3090969D01*
X4978533Y3095830D01*
X5033600Y3040763D01*
D02*
G37*
%LPC*%
G36*
X3314700Y9193895D02*
Y9118600D01*
X3389995D01*
X3388612Y9129107D01*
X3379654Y9150734D01*
X3365404Y9169304D01*
X3346834Y9183554D01*
X3325207Y9192512D01*
X3314700Y9193895D01*
D02*
G37*
G36*
X3289300D02*
X3278793Y9192512D01*
X3257166Y9183554D01*
X3238596Y9169304D01*
X3224346Y9150734D01*
X3215388Y9129107D01*
X3214005Y9118600D01*
X3289300D01*
Y9193895D01*
D02*
G37*
G36*
X3389995Y9093200D02*
X3314700D01*
Y9017905D01*
X3325207Y9019288D01*
X3346834Y9028246D01*
X3365404Y9042496D01*
X3379654Y9061066D01*
X3388612Y9082693D01*
X3389995Y9093200D01*
D02*
G37*
G36*
X3289300D02*
X3214005D01*
X3215388Y9082693D01*
X3224346Y9061066D01*
X3238596Y9042496D01*
X3257166Y9028246D01*
X3278793Y9019288D01*
X3289300Y9017905D01*
Y9093200D01*
D02*
G37*
G36*
X5334000Y9130395D02*
Y9055100D01*
X5409295D01*
X5407912Y9065607D01*
X5398954Y9087234D01*
X5384704Y9105804D01*
X5366134Y9120054D01*
X5344507Y9129012D01*
X5334000Y9130395D01*
D02*
G37*
G36*
X5308600D02*
X5298093Y9129012D01*
X5276466Y9120054D01*
X5257896Y9105804D01*
X5243646Y9087234D01*
X5234688Y9065607D01*
X5233305Y9055100D01*
X5308600D01*
Y9130395D01*
D02*
G37*
G36*
X5409295Y9029700D02*
X5334000D01*
Y8954405D01*
X5344507Y8955788D01*
X5366134Y8964746D01*
X5384704Y8978996D01*
X5398954Y8997566D01*
X5407912Y9019193D01*
X5409295Y9029700D01*
D02*
G37*
G36*
X5308600D02*
X5233305D01*
X5234688Y9019193D01*
X5243646Y8997566D01*
X5257896Y8978996D01*
X5276466Y8964746D01*
X5298093Y8955788D01*
X5308600Y8954405D01*
Y9029700D01*
D02*
G37*
G36*
X4706600Y9341400D02*
X4653900D01*
Y9283700D01*
X4706600D01*
Y9341400D01*
D02*
G37*
G36*
Y9258300D02*
X4653900D01*
Y9200600D01*
X4706600D01*
Y9258300D01*
D02*
G37*
G36*
X4635500Y9143095D02*
Y9067800D01*
X4710795D01*
X4709412Y9078307D01*
X4700454Y9099934D01*
X4686204Y9118504D01*
X4667634Y9132754D01*
X4646007Y9141712D01*
X4635500Y9143095D01*
D02*
G37*
G36*
X4610100D02*
X4599593Y9141712D01*
X4577966Y9132754D01*
X4559396Y9118504D01*
X4545146Y9099934D01*
X4536188Y9078307D01*
X4534805Y9067800D01*
X4610100D01*
Y9143095D01*
D02*
G37*
G36*
X4710795Y9042400D02*
X4635500D01*
Y8967105D01*
X4646007Y8968488D01*
X4667634Y8977446D01*
X4686204Y8991696D01*
X4700454Y9010266D01*
X4709412Y9031893D01*
X4710795Y9042400D01*
D02*
G37*
G36*
X4610100D02*
X4534805D01*
X4536188Y9031893D01*
X4545146Y9010266D01*
X4559396Y8991696D01*
X4577966Y8977446D01*
X4599593Y8968488D01*
X4610100Y8967105D01*
Y9042400D01*
D02*
G37*
G36*
X4160500Y8668300D02*
X4107800D01*
Y8610600D01*
X4160500D01*
Y8668300D01*
D02*
G37*
G36*
Y8585200D02*
X4107800D01*
Y8527500D01*
X4141433D01*
X4143959Y8514800D01*
X4133466Y8510454D01*
X4114896Y8496204D01*
X4100646Y8477634D01*
X4091688Y8456007D01*
X4090305Y8445500D01*
X4165600D01*
Y8527200D01*
X4160500Y8532933D01*
Y8585200D01*
D02*
G37*
G36*
X4165600Y8420100D02*
X4090305D01*
X4091688Y8409593D01*
X4100646Y8387966D01*
X4114896Y8369396D01*
X4133466Y8355146D01*
X4155093Y8346188D01*
X4165600Y8344805D01*
Y8420100D01*
D02*
G37*
G36*
X3301095Y8191500D02*
X3225800D01*
Y8116205D01*
X3236307Y8117588D01*
X3257934Y8126546D01*
X3276504Y8140796D01*
X3290754Y8159366D01*
X3299712Y8180993D01*
X3301095Y8191500D01*
D02*
G37*
G36*
X3200400D02*
X3125105D01*
X3126488Y8180993D01*
X3135446Y8159366D01*
X3149696Y8140796D01*
X3168266Y8126546D01*
X3189893Y8117588D01*
X3200400Y8116205D01*
Y8191500D01*
D02*
G37*
G36*
X3788900Y8077200D02*
X3588700D01*
Y8014500D01*
X3788900D01*
Y8077200D01*
D02*
G37*
G36*
X3563300D02*
X3363100D01*
Y8014500D01*
X3563300D01*
Y8077200D01*
D02*
G37*
G36*
X3788900Y7911300D02*
X3588700D01*
Y7848600D01*
X3788900D01*
Y7911300D01*
D02*
G37*
G36*
Y7823200D02*
X3588700D01*
Y7760500D01*
X3788900D01*
Y7823200D01*
D02*
G37*
G36*
X3924300Y8355695D02*
Y8280400D01*
X3999595D01*
X3998212Y8290907D01*
X3989254Y8312534D01*
X3975004Y8331104D01*
X3956434Y8345354D01*
X3934807Y8354312D01*
X3924300Y8355695D01*
D02*
G37*
G36*
X3898900D02*
X3888393Y8354312D01*
X3866766Y8345354D01*
X3848196Y8331104D01*
X3833946Y8312534D01*
X3824988Y8290907D01*
X3823605Y8280400D01*
X3898900D01*
Y8355695D01*
D02*
G37*
G36*
X8685300Y8228695D02*
Y8153400D01*
X8760595D01*
X8759212Y8163907D01*
X8750254Y8185534D01*
X8736004Y8204104D01*
X8717433Y8218354D01*
X8695807Y8227312D01*
X8685300Y8228695D01*
D02*
G37*
G36*
X8760595Y8128000D02*
X8685300D01*
Y8052705D01*
X8695807Y8054088D01*
X8717433Y8063046D01*
X8736004Y8077296D01*
X8750254Y8095866D01*
X8759212Y8117493D01*
X8760595Y8128000D01*
D02*
G37*
G36*
X8659900D02*
X8584605D01*
X8585988Y8117493D01*
X8594946Y8095866D01*
X8609196Y8077296D01*
X8627766Y8063046D01*
X8649392Y8054088D01*
X8659900Y8052705D01*
Y8128000D01*
D02*
G37*
G36*
X7340600Y7568295D02*
Y7493000D01*
X7415895D01*
X7414512Y7503507D01*
X7405554Y7525134D01*
X7391304Y7543704D01*
X7372734Y7557954D01*
X7351107Y7566912D01*
X7340600Y7568295D01*
D02*
G37*
G36*
X7315200D02*
X7304693Y7566912D01*
X7283066Y7557954D01*
X7264496Y7543704D01*
X7250246Y7525134D01*
X7241288Y7503507D01*
X7239905Y7493000D01*
X7315200D01*
Y7568295D01*
D02*
G37*
G36*
X7415895Y7467600D02*
X7340600D01*
Y7392305D01*
X7351107Y7393688D01*
X7372734Y7402646D01*
X7391304Y7416896D01*
X7405554Y7435466D01*
X7414512Y7457093D01*
X7415895Y7467600D01*
D02*
G37*
G36*
X7315200D02*
X7239905D01*
X7241288Y7457093D01*
X7250246Y7435466D01*
X7264496Y7416896D01*
X7283066Y7402646D01*
X7304693Y7393688D01*
X7315200Y7392305D01*
Y7467600D01*
D02*
G37*
G36*
X5118100Y8342995D02*
Y8267700D01*
X5193395D01*
X5192012Y8278207D01*
X5183054Y8299834D01*
X5168804Y8318404D01*
X5150234Y8332654D01*
X5128607Y8341612D01*
X5118100Y8342995D01*
D02*
G37*
G36*
X5092700D02*
X5082193Y8341612D01*
X5060566Y8332654D01*
X5041996Y8318404D01*
X5027746Y8299834D01*
X5018788Y8278207D01*
X5017405Y8267700D01*
X5092700D01*
Y8342995D01*
D02*
G37*
G36*
X5193395Y8242300D02*
X5118100D01*
Y8167005D01*
X5128607Y8168388D01*
X5150234Y8177346D01*
X5168804Y8191596D01*
X5183054Y8210166D01*
X5192012Y8231793D01*
X5193395Y8242300D01*
D02*
G37*
G36*
X5092700D02*
X5017405D01*
X5018788Y8231793D01*
X5027746Y8210166D01*
X5041996Y8191596D01*
X5060566Y8177346D01*
X5082193Y8168388D01*
X5092700Y8167005D01*
Y8242300D01*
D02*
G37*
G36*
X4432300Y6586133D02*
Y6510838D01*
X4507595D01*
X4506212Y6521345D01*
X4497254Y6542971D01*
X4483004Y6561542D01*
X4464434Y6575792D01*
X4442807Y6584749D01*
X4432300Y6586133D01*
D02*
G37*
G36*
X4406900D02*
X4396393Y6584749D01*
X4374766Y6575792D01*
X4356196Y6561542D01*
X4341946Y6542971D01*
X4332988Y6521345D01*
X4331605Y6510838D01*
X4406900D01*
Y6586133D01*
D02*
G37*
G36*
X4507595Y6485438D02*
X4432300D01*
Y6410143D01*
X4442807Y6411526D01*
X4464434Y6420484D01*
X4483004Y6434733D01*
X4497254Y6453304D01*
X4506212Y6474930D01*
X4507595Y6485438D01*
D02*
G37*
G36*
X4406900D02*
X4331605D01*
X4332988Y6474930D01*
X4341946Y6453304D01*
X4356196Y6434733D01*
X4374766Y6420484D01*
X4396393Y6411526D01*
X4406900Y6410143D01*
Y6485438D01*
D02*
G37*
G36*
X4274100Y5760700D02*
X4216400D01*
Y5708000D01*
X4274100D01*
Y5760700D01*
D02*
G37*
G36*
X4191000D02*
X4133300D01*
Y5708000D01*
X4191000D01*
Y5760700D01*
D02*
G37*
G36*
X4020100D02*
X3962400D01*
Y5708000D01*
X4020100D01*
Y5760700D01*
D02*
G37*
G36*
X3937000D02*
X3879300D01*
Y5708000D01*
X3937000D01*
Y5760700D01*
D02*
G37*
G36*
X3636200Y5454791D02*
Y5321500D01*
X3769491D01*
X3766132Y5347018D01*
X3751380Y5382632D01*
X3727914Y5413214D01*
X3697332Y5436680D01*
X3661718Y5451432D01*
X3636200Y5454791D01*
D02*
G37*
G36*
X3769492Y5296100D02*
X3636200D01*
Y5162808D01*
X3661718Y5166168D01*
X3697332Y5180920D01*
X3727914Y5204386D01*
X3751380Y5234968D01*
X3766132Y5270582D01*
X3769492Y5296100D01*
D02*
G37*
G36*
X4274100Y5682600D02*
X4133300D01*
Y5629900D01*
Y5509900D01*
X4155654D01*
Y5268428D01*
X4146641Y5264695D01*
X4126817Y5249483D01*
X4111605Y5229659D01*
X4102043Y5206574D01*
X4098781Y5181800D01*
X4102043Y5157026D01*
X4111605Y5133940D01*
X4126817Y5114117D01*
X4146641Y5098905D01*
X4169726Y5089343D01*
X4194500Y5086081D01*
X4219274Y5089343D01*
X4242360Y5098905D01*
X4262183Y5114117D01*
X4277395Y5133940D01*
X4281087Y5142853D01*
X4390225D01*
X4392746Y5136766D01*
X4406996Y5118196D01*
X4425566Y5103946D01*
X4447193Y5094988D01*
X4470400Y5091933D01*
X4493607Y5094988D01*
X4515234Y5103946D01*
X4533804Y5118196D01*
X4548054Y5136766D01*
X4557012Y5158393D01*
X4560067Y5181600D01*
X4557012Y5204807D01*
X4548054Y5226434D01*
X4533804Y5245004D01*
X4515234Y5259254D01*
X4493607Y5268212D01*
X4470400Y5271267D01*
X4447193Y5268212D01*
X4425566Y5259254D01*
X4406996Y5245004D01*
X4392746Y5226434D01*
X4390307Y5220546D01*
X4281170D01*
X4277395Y5229659D01*
X4262183Y5249483D01*
X4242360Y5264695D01*
X4233347Y5268428D01*
Y5509900D01*
X4274100D01*
Y5629900D01*
Y5682600D01*
D02*
G37*
G36*
X5729600Y9245600D02*
X5676900D01*
Y9187900D01*
X5729600D01*
Y9245600D01*
D02*
G37*
G36*
X6350000Y8609695D02*
Y8534400D01*
X6425295D01*
X6423912Y8544907D01*
X6414954Y8566534D01*
X6400704Y8585104D01*
X6382134Y8599354D01*
X6360507Y8608312D01*
X6350000Y8609695D01*
D02*
G37*
G36*
X6324600D02*
X6314093Y8608312D01*
X6292466Y8599354D01*
X6273896Y8585104D01*
X6259646Y8566534D01*
X6250688Y8544907D01*
X6249305Y8534400D01*
X6324600D01*
Y8609695D01*
D02*
G37*
G36*
X6425295Y8509000D02*
X6350000D01*
Y8433705D01*
X6360507Y8435088D01*
X6382134Y8444046D01*
X6400704Y8458296D01*
X6414954Y8476866D01*
X6423912Y8498493D01*
X6425295Y8509000D01*
D02*
G37*
G36*
X6324600D02*
X6249305D01*
X6250688Y8498493D01*
X6259646Y8476866D01*
X6273896Y8458296D01*
X6292466Y8444046D01*
X6314093Y8435088D01*
X6324600Y8433705D01*
Y8509000D01*
D02*
G37*
G36*
X7404100Y6717395D02*
Y6642100D01*
X7479395D01*
X7478012Y6652607D01*
X7469054Y6674234D01*
X7454804Y6692804D01*
X7436234Y6707054D01*
X7414607Y6716012D01*
X7404100Y6717395D01*
D02*
G37*
G36*
X7378700D02*
X7368193Y6716012D01*
X7346566Y6707054D01*
X7327996Y6692804D01*
X7313746Y6674234D01*
X7304788Y6652607D01*
X7303405Y6642100D01*
X7378700D01*
Y6717395D01*
D02*
G37*
G36*
X7479395Y6616700D02*
X7404100D01*
Y6541405D01*
X7414607Y6542788D01*
X7436234Y6551746D01*
X7454804Y6565996D01*
X7469054Y6584566D01*
X7478012Y6606193D01*
X7479395Y6616700D01*
D02*
G37*
G36*
X7378700D02*
X7303405D01*
X7304788Y6606193D01*
X7313746Y6584566D01*
X7327996Y6565996D01*
X7346566Y6551746D01*
X7368193Y6542788D01*
X7378700Y6541405D01*
Y6616700D01*
D02*
G37*
G36*
X3712500Y4539519D02*
X3687726Y4536257D01*
X3664641Y4526695D01*
X3644817Y4511483D01*
X3629605Y4491660D01*
X3620043Y4468574D01*
X3616781Y4443800D01*
X3620043Y4419026D01*
X3629605Y4395941D01*
X3644817Y4376117D01*
X3664641Y4360905D01*
X3687726Y4351343D01*
X3712500Y4348081D01*
X3737274Y4351343D01*
X3760360Y4360905D01*
X3780183Y4376117D01*
X3795395Y4395941D01*
X3804957Y4419026D01*
X3808219Y4443800D01*
X3804957Y4468574D01*
X3795395Y4491660D01*
X3780183Y4511483D01*
X3760360Y4526695D01*
X3737274Y4536257D01*
X3712500Y4539519D01*
D02*
G37*
G36*
X5207000Y4621895D02*
Y4546600D01*
X5282295D01*
X5280912Y4557107D01*
X5271954Y4578734D01*
X5257704Y4597304D01*
X5239134Y4611554D01*
X5217507Y4620512D01*
X5207000Y4621895D01*
D02*
G37*
G36*
X5181600D02*
X5171093Y4620512D01*
X5149466Y4611554D01*
X5130896Y4597304D01*
X5116646Y4578734D01*
X5107688Y4557107D01*
X5106305Y4546600D01*
X5181600D01*
Y4621895D01*
D02*
G37*
G36*
Y4521200D02*
X5106305D01*
X5107688Y4510693D01*
X5116646Y4489066D01*
X5130896Y4470496D01*
X5149466Y4456246D01*
X5171093Y4447288D01*
X5181600Y4445905D01*
Y4521200D01*
D02*
G37*
G36*
X5842000Y4431395D02*
Y4356100D01*
X5917295D01*
X5915912Y4366607D01*
X5906954Y4388234D01*
X5892704Y4406804D01*
X5874134Y4421054D01*
X5852507Y4430012D01*
X5842000Y4431395D01*
D02*
G37*
G36*
X7543800Y4507595D02*
Y4432300D01*
X7619095D01*
X7617712Y4442807D01*
X7608754Y4464434D01*
X7594504Y4483004D01*
X7575934Y4497254D01*
X7554307Y4506212D01*
X7543800Y4507595D01*
D02*
G37*
G36*
X7619095Y4406900D02*
X7543800D01*
Y4331605D01*
X7554307Y4332988D01*
X7575934Y4341946D01*
X7594504Y4356196D01*
X7608754Y4374766D01*
X7617712Y4396393D01*
X7619095Y4406900D01*
D02*
G37*
G36*
X5537200Y3415395D02*
Y3340100D01*
X5612495D01*
X5611112Y3350607D01*
X5602154Y3372234D01*
X5587904Y3390804D01*
X5569334Y3405054D01*
X5547707Y3414012D01*
X5537200Y3415395D01*
D02*
G37*
G36*
X5511800D02*
X5501293Y3414012D01*
X5479666Y3405054D01*
X5461096Y3390804D01*
X5446846Y3372234D01*
X5437888Y3350607D01*
X5436505Y3340100D01*
X5511800D01*
Y3415395D01*
D02*
G37*
G36*
X5283000Y3215400D02*
X5257800D01*
Y3187700D01*
X5283000D01*
Y3215400D01*
D02*
G37*
G36*
X6565900Y3055533D02*
Y2980238D01*
X6641195D01*
X6639812Y2990745D01*
X6630854Y3012371D01*
X6616604Y3030942D01*
X6598034Y3045192D01*
X6576407Y3054149D01*
X6565900Y3055533D01*
D02*
G37*
G36*
X6540500D02*
X6529993Y3054149D01*
X6508366Y3045192D01*
X6489796Y3030942D01*
X6475546Y3012371D01*
X6466588Y2990745D01*
X6465205Y2980238D01*
X6540500D01*
Y3055533D01*
D02*
G37*
G36*
X6641195Y2954838D02*
X6565900D01*
Y2879543D01*
X6576407Y2880926D01*
X6598034Y2889884D01*
X6616604Y2904133D01*
X6630854Y2922704D01*
X6639812Y2944330D01*
X6641195Y2954838D01*
D02*
G37*
G36*
X6540500D02*
X6465205D01*
X6466588Y2944330D01*
X6475546Y2922704D01*
X6489796Y2904133D01*
X6508366Y2889884D01*
X6529993Y2880926D01*
X6540500Y2879543D01*
Y2954838D01*
D02*
G37*
G36*
X5424400Y2832100D02*
X5346700D01*
Y2764400D01*
X5424400D01*
Y2832100D01*
D02*
G37*
G36*
X5321300D02*
X5243600D01*
Y2764400D01*
X5321300D01*
Y2832100D01*
D02*
G37*
G36*
X4864100Y3745595D02*
Y3670300D01*
X4939395D01*
X4938012Y3680807D01*
X4929054Y3702434D01*
X4914804Y3721004D01*
X4896234Y3735254D01*
X4874607Y3744212D01*
X4864100Y3745595D01*
D02*
G37*
G36*
X4838700D02*
X4828193Y3744212D01*
X4806566Y3735254D01*
X4787996Y3721004D01*
X4773746Y3702434D01*
X4764788Y3680807D01*
X4763405Y3670300D01*
X4838700D01*
Y3745595D01*
D02*
G37*
G36*
X4939395Y3644900D02*
X4864100D01*
Y3569605D01*
X4874607Y3570988D01*
X4896234Y3579946D01*
X4914804Y3594196D01*
X4929054Y3612766D01*
X4938012Y3634393D01*
X4939395Y3644900D01*
D02*
G37*
G36*
X4838700D02*
X4763405D01*
X4764788Y3634393D01*
X4773746Y3612766D01*
X4787996Y3594196D01*
X4806566Y3579946D01*
X4828193Y3570988D01*
X4838700Y3569605D01*
Y3644900D01*
D02*
G37*
G36*
X5417200Y3594100D02*
X5364500D01*
Y3536400D01*
X5417200D01*
Y3594100D01*
D02*
G37*
%LPD*%
G36*
X8526468Y5388595D02*
X8523988Y5382607D01*
X8520933Y5359400D01*
X8523988Y5336193D01*
X8532946Y5314566D01*
X8547196Y5295996D01*
X8565766Y5281746D01*
X8587393Y5272788D01*
X8610600Y5269733D01*
X8628145Y5272043D01*
X8634077Y5260014D01*
X8556409Y5182347D01*
X8073277D01*
X8068417Y5194080D01*
X8246769Y5372431D01*
X8255189Y5385034D01*
X8258147Y5399900D01*
Y5640323D01*
X8269880Y5645183D01*
X8526468Y5388595D01*
D02*
G37*
D10*
X4063200Y7725900D02*
D03*
X4013200D02*
D03*
X3963200D02*
D03*
Y7564900D02*
D03*
X4013200D02*
D03*
X4063200D02*
D03*
X4050500Y9249900D02*
D03*
X4000500D02*
D03*
X3950500D02*
D03*
Y9088900D02*
D03*
X4000500D02*
D03*
X4050500D02*
D03*
D11*
X5664200Y9258300D02*
D03*
X5544200D02*
D03*
X5174600Y9271000D02*
D03*
X5054600D02*
D03*
X4641200D02*
D03*
X4521200D02*
D03*
X4095100Y8597900D02*
D03*
X3975100D02*
D03*
X8115300Y4584700D02*
D03*
X7995300D02*
D03*
X8108300Y4267200D02*
D03*
X7988300D02*
D03*
X8108300Y4102100D02*
D03*
X7988300D02*
D03*
X7378700Y4749800D02*
D03*
X7258700D02*
D03*
Y4584700D02*
D03*
X7378700D02*
D03*
X7255200Y4432300D02*
D03*
X7375200D02*
D03*
X7264400Y4051300D02*
D03*
X7384400D02*
D03*
X7264400Y3873500D02*
D03*
X7384400D02*
D03*
X5930900Y3289300D02*
D03*
X6050900D02*
D03*
X5429900Y3606800D02*
D03*
X5549900D02*
D03*
D12*
X13652499Y4627600D02*
D03*
X14465300Y3078200D02*
D03*
D13*
X13422501Y5227600D02*
D03*
X13652499D02*
D03*
X13882500D02*
D03*
X14695300Y3678200D02*
D03*
X14465300D02*
D03*
X14235300D02*
D03*
D14*
X7327900Y4902200D02*
D03*
X7280400D02*
D03*
X16038451Y4965700D02*
D03*
X15990950D02*
D03*
X15684500Y4318000D02*
D03*
X15637000D02*
D03*
X15519400Y6121400D02*
D03*
X15471899D02*
D03*
X15797150Y6680200D02*
D03*
X15749651D02*
D03*
X13654150Y5765800D02*
D03*
X13701649D02*
D03*
X14479649Y4257200D02*
D03*
X14527150D02*
D03*
X5245100Y3175000D02*
D03*
X5197600D02*
D03*
D15*
X6567900Y4186500D02*
D03*
X6617900D02*
D03*
X6667900D02*
D03*
X6717900D02*
D03*
X6767900D02*
D03*
X6817900D02*
D03*
Y4576500D02*
D03*
X6767900D02*
D03*
X6717900D02*
D03*
X6667900D02*
D03*
X6617900D02*
D03*
X6567900D02*
D03*
D16*
X6887900Y4256500D02*
D03*
Y4306500D02*
D03*
Y4356500D02*
D03*
Y4406500D02*
D03*
Y4456500D02*
D03*
Y4506500D02*
D03*
X6497900D02*
D03*
Y4456500D02*
D03*
Y4406500D02*
D03*
Y4356500D02*
D03*
Y4306500D02*
D03*
Y4256500D02*
D03*
D17*
X6692900Y4381500D02*
D03*
D18*
X4203700Y5575300D02*
D03*
Y5695300D02*
D03*
X3949700Y5575300D02*
D03*
Y5695300D02*
D03*
X4191000Y3429000D02*
D03*
Y3309000D02*
D03*
X13779500Y3296300D02*
D03*
Y3416300D02*
D03*
D19*
X4806900Y4876800D02*
D03*
Y4749800D02*
D03*
Y4622800D02*
D03*
Y4495800D02*
D03*
Y4368800D02*
D03*
Y4241800D02*
D03*
Y4114800D02*
D03*
X5657900Y4876800D02*
D03*
Y4749800D02*
D03*
Y4622800D02*
D03*
Y4495800D02*
D03*
Y4368800D02*
D03*
Y4241800D02*
D03*
Y4114800D02*
D03*
X4806900Y3987800D02*
D03*
X5657900D02*
D03*
D20*
X7658100Y2895600D02*
D03*
X7353100D02*
D03*
X7658300Y3517900D02*
D03*
X7353300D02*
D03*
Y3213100D02*
D03*
X7658300D02*
D03*
D21*
X7869300Y8340090D02*
D03*
X7919300D02*
D03*
X7969300D02*
D03*
X8019300D02*
D03*
X8069300D02*
D03*
X8119300D02*
D03*
X8169300D02*
D03*
X8219300D02*
D03*
X8269300D02*
D03*
X8319300D02*
D03*
X8369300D02*
D03*
X8419300D02*
D03*
X8469300D02*
D03*
X8519300D02*
D03*
X8569300D02*
D03*
X8619300D02*
D03*
X8669300D02*
D03*
X8719300D02*
D03*
X8769300D02*
D03*
X8819300D02*
D03*
X8869300D02*
D03*
X8919300D02*
D03*
X8969300D02*
D03*
X9019300D02*
D03*
X9069300D02*
D03*
X9119300D02*
D03*
X9169300D02*
D03*
X9219300D02*
D03*
X9269300D02*
D03*
X9319300D02*
D03*
X9369300D02*
D03*
X9419300D02*
D03*
X9469300D02*
D03*
X9519300D02*
D03*
X9569300D02*
D03*
X9619300D02*
D03*
Y6184900D02*
D03*
X9569300D02*
D03*
X9519300D02*
D03*
X9469300D02*
D03*
X9419300D02*
D03*
X9369300D02*
D03*
X9319300D02*
D03*
X9269300D02*
D03*
X9219300D02*
D03*
X9169300D02*
D03*
X9119300D02*
D03*
X9069300D02*
D03*
X9019300D02*
D03*
X8969300D02*
D03*
X8919300D02*
D03*
X8869300D02*
D03*
X8819300D02*
D03*
X8769300D02*
D03*
X8719300D02*
D03*
X8669300D02*
D03*
X8619300D02*
D03*
X8569300D02*
D03*
X8519300D02*
D03*
X8469300D02*
D03*
X8419300D02*
D03*
X8369300D02*
D03*
X8319300D02*
D03*
X8269300D02*
D03*
X8219300D02*
D03*
X8169300D02*
D03*
X8119300D02*
D03*
X8069300D02*
D03*
X8019300D02*
D03*
X7969300D02*
D03*
X7919300D02*
D03*
X7869300D02*
D03*
D22*
X9821895Y8137495D02*
D03*
Y8087495D02*
D03*
Y8037495D02*
D03*
Y7987495D02*
D03*
Y7937495D02*
D03*
Y7887495D02*
D03*
Y7837495D02*
D03*
Y7787495D02*
D03*
Y7737495D02*
D03*
Y7687495D02*
D03*
Y7637495D02*
D03*
Y7587495D02*
D03*
Y7537495D02*
D03*
Y7487495D02*
D03*
Y7437495D02*
D03*
Y7387495D02*
D03*
Y7337495D02*
D03*
Y7287495D02*
D03*
Y7237495D02*
D03*
Y7187495D02*
D03*
Y7137495D02*
D03*
Y7087495D02*
D03*
Y7037495D02*
D03*
Y6987495D02*
D03*
Y6937495D02*
D03*
Y6887495D02*
D03*
Y6837495D02*
D03*
Y6787495D02*
D03*
Y6737495D02*
D03*
Y6687495D02*
D03*
Y6637495D02*
D03*
Y6587495D02*
D03*
Y6537495D02*
D03*
Y6487495D02*
D03*
Y6437495D02*
D03*
Y6387495D02*
D03*
X7666705D02*
D03*
Y6437495D02*
D03*
Y6487495D02*
D03*
Y6537495D02*
D03*
Y6587495D02*
D03*
Y6637495D02*
D03*
Y6687495D02*
D03*
Y6737495D02*
D03*
Y6787495D02*
D03*
Y6837495D02*
D03*
Y6887495D02*
D03*
Y6937495D02*
D03*
Y6987495D02*
D03*
Y7037495D02*
D03*
Y7087495D02*
D03*
Y7137495D02*
D03*
Y7187495D02*
D03*
Y7237495D02*
D03*
Y7287495D02*
D03*
Y7337495D02*
D03*
Y7387495D02*
D03*
Y7437495D02*
D03*
Y7487495D02*
D03*
Y7537495D02*
D03*
Y7587495D02*
D03*
Y7637495D02*
D03*
Y7687495D02*
D03*
Y7737495D02*
D03*
Y7787495D02*
D03*
Y7837495D02*
D03*
Y7887495D02*
D03*
Y7937495D02*
D03*
Y7987495D02*
D03*
Y8037495D02*
D03*
Y8087495D02*
D03*
Y8137495D02*
D03*
D23*
X8575800Y2946400D02*
D03*
Y3073400D02*
D03*
Y3200400D02*
D03*
Y3327400D02*
D03*
X8035800Y2946400D02*
D03*
Y3073400D02*
D03*
Y3200400D02*
D03*
Y3327400D02*
D03*
D24*
X14072000Y7020200D02*
D03*
X14007001D02*
D03*
X13942000D02*
D03*
X13877000D02*
D03*
X13812000D02*
D03*
X13747000D02*
D03*
X13682001D02*
D03*
X13617000D02*
D03*
X13552000D02*
D03*
X13487000D02*
D03*
Y7610200D02*
D03*
X13552000D02*
D03*
X13617000D02*
D03*
X13682001D02*
D03*
X13747000D02*
D03*
X13812000D02*
D03*
X13877000D02*
D03*
X13942000D02*
D03*
X14007001D02*
D03*
X14072000D02*
D03*
D25*
X2901000Y8851900D02*
D03*
Y8597900D02*
D03*
Y8343900D02*
D03*
X3576000Y8851900D02*
D03*
Y8597900D02*
D03*
Y8343900D02*
D03*
X2901000Y8089900D02*
D03*
X3576000D02*
D03*
Y7327900D02*
D03*
X2901000D02*
D03*
X3576000Y7581900D02*
D03*
X2901000D02*
D03*
X3576000Y7835900D02*
D03*
X2901000D02*
D03*
D26*
X16891000Y4562600D02*
D03*
Y4610100D02*
D03*
X14401801Y5372100D02*
D03*
Y5324600D02*
D03*
X15201900Y3833750D02*
D03*
Y3786250D02*
D03*
D27*
X15811501Y4832700D02*
D03*
Y5092700D02*
D03*
X14198599Y5219700D02*
D03*
Y5479700D02*
D03*
X14998700Y3683000D02*
D03*
Y3943000D02*
D03*
D28*
X15532100Y4521200D02*
D03*
X15792101D02*
D03*
X15367000Y6324600D02*
D03*
X15627000D02*
D03*
X13798199Y5575300D02*
D03*
X13538200D02*
D03*
X14630400Y4041300D02*
D03*
X14370399D02*
D03*
X16344901Y3517900D02*
D03*
X16604900D02*
D03*
D29*
X15568600Y6680200D02*
D03*
X15368600Y6585200D02*
D03*
Y6775200D02*
D03*
D30*
X13957300Y3440500D02*
D03*
Y3290500D02*
D03*
D31*
X15986600Y2959100D02*
D03*
D32*
X16601601Y3189100D02*
D03*
Y2959100D02*
D03*
Y2729100D02*
D03*
D33*
X16967200Y3743300D02*
D03*
Y3343300D02*
D03*
D34*
X16344901Y3784600D02*
D03*
X16144901D02*
D03*
X14290700Y7023100D02*
D03*
X14490700D02*
D03*
D35*
X16635100Y3771900D02*
D03*
X16715100D02*
D03*
D36*
X13119099Y6480200D02*
D03*
Y6680200D02*
D03*
X13919200Y6527800D02*
D03*
Y6727800D02*
D03*
X13665199Y6480200D02*
D03*
Y6680200D02*
D03*
X13385800Y6480200D02*
D03*
Y6680200D02*
D03*
X14185899Y6527800D02*
D03*
Y6727800D02*
D03*
X14452600Y6527800D02*
D03*
Y6727800D02*
D03*
D37*
X16691971Y5448300D02*
D03*
X16556628D02*
D03*
D38*
X16894299Y5219700D02*
D03*
Y5092700D02*
D03*
Y4965700D02*
D03*
Y4838700D02*
D03*
X16354300D02*
D03*
Y4965700D02*
D03*
Y5092700D02*
D03*
Y5219700D02*
D03*
D39*
X5124000Y3009800D02*
D03*
X5334000D02*
D03*
Y2844800D02*
D03*
X5124000D02*
D03*
D40*
X4851400Y3149800D02*
D03*
Y2844800D02*
D03*
X5626100D02*
D03*
Y3149800D02*
D03*
D41*
X5688400Y9436100D02*
D03*
X5538400D02*
D03*
X5205800Y9448800D02*
D03*
X5055800D02*
D03*
X4673600Y9461500D02*
D03*
X4523600D02*
D03*
D42*
X15337399Y4927600D02*
D03*
D43*
X15537399Y5077600D02*
D03*
Y4777600D02*
D03*
D44*
X15542400Y4927600D02*
D03*
D45*
X9069300Y8047538D02*
Y8340090D01*
X6656400Y4343400D02*
X6756400D01*
X5410200Y4597400D02*
X5537300Y4724500D01*
X5384800Y4572000D02*
X5410200Y4597400D01*
X5501764Y4013200D02*
X5514464Y4000500D01*
X5727700Y3835400D02*
X6083300Y4191000D01*
X5514464Y4000500D02*
X5645200D01*
X6134100Y4152900D02*
Y4177971D01*
X5371529Y4238387D02*
X5495116Y4114800D01*
X6244416Y4216445D02*
X6286544D01*
X6159500Y3833135D02*
Y3835400D01*
X6184900Y4156929D02*
X6244416Y4216445D01*
X6128124Y3801759D02*
X6159500Y3833135D01*
X6286544Y4216445D02*
X6326600Y4256500D01*
X6128124Y3774266D02*
Y3801759D01*
X6305940Y4027502D02*
Y4095405D01*
X6286500Y4114845D02*
X6305940Y4095405D01*
X6083300Y4191000D02*
Y4199012D01*
X5270500Y4297903D02*
Y4382071D01*
X5702300Y3721100D02*
X6134100Y4152900D01*
X5270500Y4382071D02*
X5321300Y4432871D01*
X5384800Y4622800D02*
X5410200Y4597400D01*
X6134100Y4177971D02*
X6223374Y4267245D01*
X5372100Y4339987D02*
Y4367480D01*
X6210345Y4318045D02*
X6248000Y4355700D01*
X5422900Y4418280D02*
Y4435182D01*
X6202332Y4318045D02*
X6210345D01*
X5321300Y4432871D02*
Y4491816D01*
X6184900Y4114800D02*
Y4156929D01*
X6305940Y4027502D02*
X6358342Y3975100D01*
X5270500Y4297903D02*
X5330016Y4238387D01*
X6248445Y4267245D02*
X6287700Y4306500D01*
X5676900Y3606800D02*
X6184900Y4114800D01*
X5330016Y4238387D02*
X5371529D01*
X5645200Y4000500D02*
X5657900Y3987800D01*
X6223374Y4267245D02*
X6248445D01*
X5372100Y4367480D02*
X5422900Y4418280D01*
X6083300Y4199012D02*
X6202332Y4318045D01*
X5321300Y4491816D02*
X5384800Y4555316D01*
Y4572000D01*
X6032126Y4445000D02*
X6172200D01*
X6013263Y4463863D02*
X6032126Y4445000D01*
X5657900Y4749800D02*
X5943600D01*
X5888434Y4605734D02*
X5905500Y4622800D01*
X5674966Y4605734D02*
X5888434D01*
X5060862Y3835400D02*
X5727700D01*
X5045983Y3850279D02*
Y4993003D01*
X5060862Y5007883D01*
X5103224Y3721100D02*
X5702300D01*
X5060862Y5007883D02*
X5526817D01*
X5657900Y4876800D01*
X5045983Y3850279D02*
X5060862Y3835400D01*
X4944383Y3879942D02*
X5103224Y3721100D01*
X5657900Y4876800D02*
X5664250Y4870450D01*
X8569300Y8244000D02*
X8672600Y8140700D01*
X8569300Y8244000D02*
Y8340090D01*
X8187238Y6815638D02*
X8331200D01*
X7848600Y6477000D02*
X8187238Y6815638D01*
X7973950Y7887495D02*
X8281195D01*
X7731195Y7337495D02*
X8281195Y7887495D01*
X8458200Y8147593D02*
X8519300Y8208693D01*
X8458200Y7988300D02*
Y8147593D01*
X8281195Y7887495D02*
X8357395D01*
X8458200Y7988300D02*
X8801100D01*
X8357395Y7887495D02*
X8458200Y7988300D01*
X8801100D02*
X9019300Y8206500D01*
X8519300Y8208693D02*
Y8340090D01*
X14072000Y7020200D02*
Y7070200D01*
X14102960Y7101160D02*
Y7143360D01*
X14072000Y7070200D02*
X14102960Y7101160D01*
Y7143360D02*
X14122400Y7162800D01*
X7848600Y6362700D02*
Y6477000D01*
Y6362700D02*
X7919300Y6292000D01*
Y6184900D02*
Y6292000D01*
X8032704Y6440929D02*
Y6457804D01*
X7969300Y6377524D02*
X8032704Y6440929D01*
X7969300Y6184900D02*
Y6377524D01*
X5495116Y4114800D02*
X5657900D01*
X6358342Y3975100D02*
X6489700D01*
X6159500Y3835400D02*
X6465500D01*
X6617900Y3987800D01*
X6718300Y3517900D02*
X7353300D01*
X6604000Y3403600D02*
X6718300Y3517900D01*
X6197600Y3289300D02*
X6767900Y3859600D01*
X4753500Y3479800D02*
X6210300D01*
X4194500Y4038800D02*
X4753500Y3479800D01*
X6210300D02*
X6667900Y3937400D01*
X6050900Y3289300D02*
X6197600D01*
X6667900Y3937400D02*
Y4186500D01*
X4053050Y9247350D02*
X4178300Y9372600D01*
X4203700D01*
X3231918Y9474200D02*
X4102100D01*
X2675400Y8917682D02*
X3231918Y9474200D01*
X4102100D02*
X4203700Y9372600D01*
X3997400Y9253000D02*
X4000500Y9249900D01*
Y9088900D02*
Y9249900D01*
X4394200Y8902700D02*
Y9093200D01*
Y8902700D02*
X4457700Y8839200D01*
X4152900Y8801100D02*
X4169584D01*
X4233084Y8737600D02*
X5732433D01*
X4351000Y8788400D02*
X5753474D01*
X5690349Y8636000D02*
X5804087Y8522261D01*
X5732433Y8737600D02*
X5918200Y8551833D01*
X5711391Y8686800D02*
X5867400Y8530791D01*
X4328521Y8686800D02*
X5711391D01*
X5753474Y8788400D02*
X5969000Y8572874D01*
X4050500Y9088900D02*
X4351000Y8788400D01*
X4536079Y8585200D02*
X5669307D01*
X5795558Y8890000D02*
X6070600Y8614958D01*
X4457700Y8839200D02*
X5774516D01*
X4379321Y8636000D02*
X5690349D01*
X5245100Y8890000D02*
X5795558D01*
X4364442Y8621121D02*
X4379321Y8636000D01*
X5669307Y8585200D02*
X5753287Y8501219D01*
X5774516Y8839200D02*
X6019800Y8593917D01*
X4673600Y9461500D02*
X5245100Y8890000D01*
X4313642Y8671921D02*
X4328521Y8686800D01*
X4313642Y7976342D02*
Y8671921D01*
X4169584Y8801100D02*
X4233084Y8737600D01*
X4521200Y8570321D02*
X4536079Y8585200D01*
X4364442Y7900642D02*
Y8621121D01*
X4521200Y8001000D02*
Y8570321D01*
X5753287Y6781987D02*
Y8501219D01*
X5918200Y6299200D02*
Y8551833D01*
X5867400Y6451600D02*
Y8530791D01*
X6019800Y5930900D02*
Y8593917D01*
X5969000Y6070600D02*
Y8572874D01*
X6070600Y6286500D02*
Y8614958D01*
X5804087Y6578787D02*
Y8522261D01*
X6121400Y8026400D02*
Y8636000D01*
X5613400Y9144000D02*
X6121400Y8636000D01*
X5440482Y9144000D02*
X5613400D01*
X3937000Y8178800D02*
X4013200Y8102600D01*
Y7725900D02*
Y8102600D01*
X9619300Y8340090D02*
X9620570Y8341360D01*
X10541000Y8610600D02*
Y8699500D01*
X9620570Y9303070D02*
X9639300Y9321800D01*
X9620570Y8341360D02*
Y9303070D01*
X7708900Y9017000D02*
X7950200Y9258300D01*
X5676900Y6057900D02*
X5918200Y6299200D01*
X5461000Y6057900D02*
X5676900D01*
X5880100Y5791200D02*
X6019800Y5930900D01*
X6070600Y6286500D02*
X6375400Y5981700D01*
X6121400Y8026400D02*
X6515500Y7632300D01*
X5803900Y5905500D02*
X5969000Y6070600D01*
X5676900Y6705600D02*
X5753287Y6781987D01*
X5702300Y6477000D02*
X5804087Y6578787D01*
X5695950Y6280150D02*
X5867400Y6451600D01*
X5230382Y9354100D02*
X5440482Y9144000D01*
X5702300Y5905500D02*
X5803900D01*
X5372100Y5791200D02*
X5880100D01*
X10917395Y6637495D02*
X11849100Y7569200D01*
X10087605Y6586695D02*
X11539695D01*
X12204700Y7251700D01*
X9821895Y6637495D02*
X10917395D01*
X9821895Y6587495D02*
X10087605D01*
X6988294Y6937494D02*
X7276410D01*
X6934200Y6883400D02*
X6988294Y6937494D01*
X7950200Y9258300D02*
X8182784D01*
X8496300Y8944784D01*
Y8575210D02*
Y8944784D01*
X8419300Y8498210D02*
X8496300Y8575210D01*
X8419300Y8340090D02*
Y8498210D01*
X8394700Y8610600D02*
Y8623300D01*
X8269300Y8485200D02*
X8394700Y8610600D01*
X8119300Y8340090D02*
Y9089200D01*
X8115300Y9093200D02*
X8119300Y9089200D01*
X7277100Y7847400D02*
Y7979584D01*
X8219300Y8879700D02*
X8318500Y8978900D01*
X6617900Y7379900D02*
X7175500Y7937500D01*
X9917895Y7987495D02*
X10541000Y8610600D01*
X9821895Y7987495D02*
X9917895D01*
X6375400Y5981700D02*
X6477000D01*
X7404100Y5372100D02*
X7632700Y5143500D01*
X8572500D02*
X8813800Y5384800D01*
X7632700Y5143500D02*
X8572500D01*
X8013700Y5194300D02*
X8219300Y5399900D01*
X7624395Y5367705D02*
X7797800Y5194300D01*
X8013700D01*
X8724900Y5473700D02*
X8813800Y5384800D01*
X8623300Y5473700D02*
X8724900D01*
X8319300Y5777700D02*
X8623300Y5473700D01*
X8319300Y5777700D02*
Y6184900D01*
X8610600Y5575300D02*
X8851900D01*
X8369300Y5816600D02*
X8610600Y5575300D01*
X7658100Y5041900D02*
X9245600D01*
X9956800Y5753100D01*
X8219300Y5399900D02*
Y6184900D01*
X8269300Y5700700D02*
X8610600Y5359400D01*
X6515500Y6654800D02*
Y7632300D01*
X7865411Y5579411D02*
X8119300Y5833300D01*
X7861300Y5579411D02*
X7865411D01*
X7861300Y5376009D02*
Y5384800D01*
X8169300Y5692800D01*
Y6184900D01*
X8369300Y5816600D02*
Y6184900D01*
X6768700Y4989900D02*
Y6260700D01*
X6934200Y6426200D01*
X8669300Y8340090D02*
Y8494955D01*
X8597900Y8566355D02*
X8669300Y8494955D01*
X8597900Y8566355D02*
Y8585200D01*
X8769300Y8680400D02*
X8775700Y8686800D01*
X8769300Y8340090D02*
Y8680400D01*
X7100805Y7237495D02*
X7666705D01*
X7099300Y7239000D02*
X7100805Y7237495D01*
X6617900Y7235842D02*
Y7379900D01*
X6617100Y6626107D02*
Y7235042D01*
X6617900Y7235842D01*
X5688400Y9436100D02*
X6430308Y8694192D01*
X7437005Y7687495D02*
X7666705D01*
X6430308Y8694192D02*
X6562492D01*
X7277100Y7847400D02*
X7437005Y7687495D01*
X6562492Y8694192D02*
X7277100Y7979584D01*
X5788926Y9539600D02*
X7441031Y7887495D01*
X3225476Y9539600D02*
X5788926D01*
X7441031Y7887495D02*
X7666705D01*
X6667900Y7214000D02*
X7175500Y7721600D01*
X6667900Y4576500D02*
Y7214000D01*
X7666705Y7887495D02*
X7973950D01*
X6717900Y6378984D02*
X7276410Y6937494D01*
X7580909D01*
X6717900Y4576500D02*
Y6378984D01*
X7073900Y5221700D02*
Y6595658D01*
X7315737Y6837495D02*
X7666705D01*
X7073900Y6595658D02*
X7315737Y6837495D01*
X6617900Y4576500D02*
Y6626107D01*
X11836400Y6692900D02*
X11849100Y6705600D01*
X12852400D01*
X12865100Y6718300D01*
X8035800Y3327400D02*
X8083300D01*
X7821300D02*
X8035800D01*
X8219300Y8340090D02*
Y8879700D01*
X8269300Y8340090D02*
Y8485200D01*
X8940800Y8570407D02*
Y8597900D01*
X8919300Y8340090D02*
Y8548907D01*
X8940800Y8570407D01*
X12331700Y6197600D02*
X13093700D01*
X11747500Y5575300D02*
X12568642D01*
X11887200Y5727700D02*
X12649200D01*
X12153900Y6057900D02*
X12827000D01*
X3356460Y7581900D02*
X3438500D01*
X3576000D01*
X3299600Y7720800D02*
X3438500Y7581900D01*
X2624600Y7820918D02*
X2724718Y7720800D01*
X2624600Y7820918D02*
Y8938724D01*
X3225476Y9539600D01*
X2724718Y7720800D02*
X3299600D01*
X2901000Y7581900D02*
X3284618D01*
X3424318Y7442200D01*
X6070600Y9474200D02*
X10337800D01*
X12928600Y6883400D02*
X13499081D01*
X10337800Y9474200D02*
X12928600Y6883400D01*
X7797800Y9525000D02*
X10361150D01*
X12806149Y7080000D01*
X13477200D01*
X13487000Y7070200D01*
X9821895Y7887495D02*
X11303000D01*
X10883895Y7937495D02*
X11061700Y8115300D01*
X9821895Y7937495D02*
X10883895D01*
X16116299Y4457700D02*
X16134682D01*
X16469901Y4792919D01*
X16401801Y5219700D02*
X16469901Y5151600D01*
X16354300Y5219700D02*
X16401801D01*
X16469901Y4792919D02*
Y5151600D01*
X16116299Y4635500D02*
Y4648200D01*
X16306799Y4838700D02*
X16354300D01*
X16116299Y4648200D02*
X16306799Y4838700D01*
X14702615Y7023100D02*
X15020116Y7340600D01*
X17337801Y4866603D02*
Y5263181D01*
X17134499Y4798300D02*
X17269498D01*
X14490700Y7023100D02*
X14702615D01*
X17094099Y4838700D02*
X17134499Y4798300D01*
X17269498D02*
X17337801Y4866603D01*
X15020116Y7340600D02*
X15260381D01*
X16894299Y4838700D02*
X17094099D01*
X15260381Y7340600D02*
X17337801Y5263181D01*
X7861300Y5765800D02*
X8069300Y5973800D01*
X8269300Y5700700D02*
Y6184900D01*
X8119300Y5833300D02*
Y6184900D01*
X8069300Y5973800D02*
Y6184900D01*
X7188200Y4913018D02*
Y6197600D01*
Y4913018D02*
X7258700Y4842518D01*
X7188200Y6197600D02*
X7378095Y6387495D01*
X7384400Y3854618D02*
Y3873500D01*
X7995300Y4579700D02*
Y4584700D01*
X7873300Y4457700D02*
X7995300Y4579700D01*
X7848600Y4457700D02*
X7873300D01*
X7073900Y3733800D02*
X7263582D01*
X7384400Y3854618D01*
X11607800Y5435600D02*
X12573000D01*
X8053100Y3217700D02*
X8100600D01*
X8107200Y3230400D02*
X8801100Y3924300D01*
X8100600Y3217700D02*
X8107200Y3224300D01*
Y3230400D01*
X8035800Y3200400D02*
X8053100Y3217700D01*
X7671000Y3200400D02*
X8035800D01*
X8100600Y3344700D02*
Y3452400D01*
X8083300Y3327400D02*
X8100600Y3344700D01*
Y3452400D02*
X8686800Y4038600D01*
X7378095Y6387495D02*
X7666705D01*
X7224895Y6437495D02*
X7666705D01*
X7213600Y6426200D02*
X7224895Y6437495D01*
X7258700Y4749800D02*
Y4842518D01*
X6817900Y4965700D02*
X7073900Y5221700D01*
X7015400Y4506500D02*
X7258700Y4749800D01*
X6887900Y4506500D02*
X7015400D01*
X9821895Y6437495D02*
X9907690D01*
X9907691Y6437496D01*
X9956800Y5753100D02*
Y6422617D01*
X9941921Y6437496D02*
X9956800Y6422617D01*
X9907691Y6437496D02*
X9941921D01*
X6817900Y4576500D02*
Y4965700D01*
X9619300Y6908090D02*
X9648705Y6937495D01*
X9619300Y6297021D02*
Y6908090D01*
X9604421Y6311900D02*
X9619300Y6297021D01*
X8559800Y6376116D02*
X8619300Y6316616D01*
Y6184900D02*
Y6316616D01*
X8559800Y6376116D02*
Y6400800D01*
X7861300Y5956300D02*
X7868030Y5963030D01*
Y6183630D02*
X7869300Y6184900D01*
X7868030Y5963030D02*
Y6183630D01*
X12573000Y5435600D02*
X13030200Y5892800D01*
X12568642Y5575300D02*
X12936942Y5943600D01*
X12649200Y5727700D02*
X12915900Y5994400D01*
X13763016D01*
X12827000Y6057900D02*
X12865100Y6096000D01*
X13196658D01*
X12026900Y5892800D02*
X12733742D01*
X12886142Y6045200D01*
X13217700D01*
X13093700Y6197600D02*
X13119099Y6223000D01*
X13805099Y5892800D02*
X14440100Y6527800D01*
X13784058Y5943600D02*
X14126100Y6285642D01*
X13763016Y5994400D02*
X13919200Y6150584D01*
X13217700Y6045200D02*
X13652699Y6480200D01*
X13030200Y5892800D02*
X13805099D01*
X12936942Y5943600D02*
X13784058D01*
X13196658Y6096000D02*
X13385800Y6285142D01*
X13119099Y6223000D02*
Y6480200D01*
X13385800Y6285142D02*
Y6480200D01*
X13652699D02*
X13665199D01*
X13919200Y6150584D02*
Y6527800D01*
X14173399D02*
X14185899D01*
X14126100Y6480500D02*
X14173399Y6527800D01*
X14126100Y6285642D02*
Y6480500D01*
X14440100Y6527800D02*
X14452600D01*
X3038500Y7835900D02*
X3284618D01*
X3203600Y8001000D02*
X3225800D01*
X2901000Y7835900D02*
X3038500D01*
X3203600Y8001000D01*
X4063200Y7599400D02*
X4364442Y7900642D01*
X4063200Y7564900D02*
Y7599400D01*
X3765781Y7683500D02*
X3884381Y7564900D01*
X3284618Y7835900D02*
X3437018Y7683500D01*
X3765781D01*
X4063200Y7725900D02*
X4313642Y7976342D01*
X2675400Y8278118D02*
X2725459Y8228059D01*
X4063200Y7725900D02*
Y8344700D01*
X2675400Y8409682D02*
X2723918Y8458200D01*
X2675400Y8278118D02*
Y8409682D01*
X2850941Y8228059D02*
X2901000Y8178000D01*
X2725459Y8228059D02*
X2850941D01*
X2723918Y8458200D02*
X3949700D01*
X3284618Y8343900D02*
X3424318Y8204200D01*
X2901000Y8089900D02*
Y8178000D01*
X3884381Y7564900D02*
X3963200D01*
X3424318Y7442200D02*
X3753081D01*
X3803881Y7391400D01*
X2675400Y7516118D02*
X2775518Y7416000D01*
X3949700Y8458200D02*
X4063200Y8344700D01*
X3797300Y9182100D02*
X3857300D01*
X3950500Y9088900D01*
X3372718Y8940000D02*
X3801600D01*
X3284618Y8851900D02*
X3372718Y8940000D01*
X2675400Y8786118D02*
Y8917682D01*
X3801600Y8940000D02*
X3950500Y9088900D01*
X3268360Y8763800D02*
X3319160Y8814600D01*
X2697718Y8763800D02*
X3268360D01*
X2675400Y8786118D02*
X2697718Y8763800D01*
X3319160Y8814600D02*
X3538700D01*
X3576000Y8851900D01*
X3793781Y8763800D02*
X4053600Y9023618D01*
X3450518Y8763800D02*
X3793781D01*
X4053600Y9023618D02*
Y9080500D01*
X5222400Y9354100D02*
X5230382D01*
X5205800Y9370700D02*
Y9448800D01*
Y9370700D02*
X5222400Y9354100D01*
X6502400Y5130800D02*
X6567900Y5065300D01*
X7580909Y6937494D02*
X7580910Y6937495D01*
X7666705D01*
X6767900Y4576500D02*
Y4989900D01*
X9019300Y8206500D02*
Y8340090D01*
X7869300Y7992145D02*
X7973950Y7887495D01*
X7869300Y7992145D02*
Y8340090D01*
X7668775Y6689565D02*
X7769065D01*
X7762626Y7347619D02*
X7797800Y7312445D01*
Y6718300D02*
Y7312445D01*
X7769065Y6689565D02*
X7797800Y6718300D01*
X7666705Y6687495D02*
X7668775Y6689565D01*
X7756695Y6537495D02*
X7912100Y6692900D01*
Y6972300D01*
X7666705Y7337495D02*
X7731195D01*
X9119300Y6184900D02*
Y6261800D01*
X9169400Y6311900D01*
X9619300Y6184900D02*
Y6297021D01*
X9169400Y6311900D02*
X9604421D01*
X9626600Y6959600D02*
Y7124700D01*
X9648705Y6937495D02*
X9821895D01*
X9626600Y6959600D02*
X9648705Y6937495D01*
X9639300Y8128000D02*
X9648795Y8137495D01*
X9821895D01*
X7666705Y6537495D02*
X7756695D01*
X7516959Y3582941D02*
X7746148Y3812130D01*
X8081000Y4074800D02*
X8108300Y4102100D01*
X8081000Y4055918D02*
Y4074800D01*
X7837212Y3812130D02*
X8081000Y4055918D01*
X7746148Y3812130D02*
X7837212D01*
X7516959Y3580959D02*
Y3582941D01*
X7453900Y3517900D02*
X7516959Y3580959D01*
X7353300Y3517900D02*
X7453900D01*
X7384400Y3873500D02*
X7759700D01*
X7956000Y4069800D01*
X8046000Y4350300D02*
X8102600Y4406900D01*
X7932518Y4350300D02*
X8046000D01*
X7910200Y4269379D02*
Y4327982D01*
X7895321Y4254500D02*
X7910200Y4269379D01*
X8108300Y4267200D02*
Y4572700D01*
X7910200Y4327982D02*
X7932518Y4350300D01*
X7670800Y4254500D02*
X7895321D01*
X8108300Y4572700D02*
X8115300Y4579700D01*
Y4584700D01*
X8088000Y4612000D02*
X8115300Y4584700D01*
X7200900Y4254500D02*
X7670800D01*
X7098900Y4356500D02*
X7200900Y4254500D01*
X7961000Y4069800D02*
X7988300Y4097100D01*
Y4102100D01*
X7956000Y4069800D02*
X7961000D01*
X7777400Y4051300D02*
X7988300Y4262200D01*
Y4267200D01*
X7384400Y4051300D02*
X7777400D01*
X6887900Y4306500D02*
X7008400D01*
X7010400Y4305300D02*
X7264400Y4051300D01*
X7099300Y4038600D02*
X7264400Y3873500D01*
X7099300Y4038600D02*
Y4127500D01*
X13812000Y7610200D02*
Y7728816D01*
X13797800Y7743016D02*
X13812000Y7728816D01*
X13797800Y8717800D02*
X17106900Y12026900D01*
X13881400Y7614600D02*
Y7767100D01*
X13899400Y7785100D01*
X13877000Y7610200D02*
X13881400Y7614600D01*
X13797800Y7743016D02*
Y8717800D01*
X13747000Y10445000D02*
X15328900Y12026900D01*
X13747000Y7610200D02*
Y10445000D01*
X13169901Y12026900D02*
X13682001Y11514800D01*
Y7610200D02*
Y11514800D01*
X13617000Y7610200D02*
Y8607926D01*
X11391900Y10833026D02*
X13617000Y8607926D01*
X11391900Y10833026D02*
Y12026900D01*
X9232900D02*
X13552000Y7707800D01*
Y7610200D02*
Y7707800D01*
X11387686Y9759514D02*
X13487000Y7660200D01*
Y7610200D02*
Y7660200D01*
X7454900Y12026900D02*
X9722286Y9759514D01*
X11387686D01*
X13487000Y7020200D02*
Y7070200D01*
X5295900Y12026900D02*
X7797800Y9525000D01*
X13677600Y6832600D02*
X13677600D01*
X13433099Y6779644D02*
X13624644D01*
X13677600Y6832600D01*
X13677600D02*
Y7015800D01*
X13665199Y6680200D02*
X13747000Y6762000D01*
X13499081Y6883400D02*
X13547600Y6931919D01*
Y7015800D01*
X13552000Y7020200D01*
X13233200Y6832600D02*
X13520123D01*
X13612601Y6925077D01*
Y7015800D01*
X13131599Y6731000D02*
X13233200Y6832600D01*
X13677600Y7015800D02*
X13682001Y7020200D01*
X3517900Y12026900D02*
X6070600Y9474200D01*
X5544200Y9258300D02*
Y9430300D01*
X5538400Y9436100D02*
X5544200Y9430300D01*
X5054600Y9271000D02*
Y9447600D01*
X5055800Y9448800D01*
X4521200Y9271000D02*
Y9459100D01*
X4523600Y9461500D01*
X4048321Y7391400D02*
X4063200Y7406279D01*
X3803881Y7391400D02*
X4048321D01*
X4063200Y7406279D02*
Y7564900D01*
X3963200Y7725900D02*
Y8000200D01*
X3759200Y8204200D02*
X3963200Y8000200D01*
X3284618Y8597900D02*
X3450518Y8763800D01*
X2901000Y8597900D02*
X3284618D01*
X2901000Y8851900D02*
X3284618D01*
X3268360Y7670000D02*
X3356460Y7581900D01*
X2675400Y7647682D02*
X2697718Y7670000D01*
X3268360D01*
X2775518Y7416000D02*
X3104281D01*
X2675400Y7516118D02*
Y7647682D01*
X3253791Y5453508D02*
X3481100Y5226199D01*
X3253791Y5453508D02*
Y7266491D01*
X3104281Y7416000D02*
X3253791Y7266491D01*
X3376100Y4103318D02*
X3562018Y3917400D01*
X4239069D02*
X4774100Y3382369D01*
X3562018Y3917400D02*
X4239069D01*
X4774100Y3199600D02*
Y3382369D01*
X3376100Y4103318D02*
Y4815411D01*
X3481100Y4920411D01*
Y5226199D01*
X4774100Y3199600D02*
X4823900Y3149800D01*
X4851400D01*
X2901000Y8343900D02*
X3284618D01*
X3424318Y8204200D02*
X3759200D01*
X3576000Y8597900D02*
X3975100D01*
X6567900Y4576500D02*
Y5065300D01*
X13798199Y5595300D02*
X14563200Y6360300D01*
Y6803582D01*
X14538000Y6828782D02*
X14563200Y6803582D01*
X13798199Y5575300D02*
Y5595300D01*
X14538000Y6828782D02*
Y6975800D01*
X14490700Y7023100D02*
X14538000Y6975800D01*
X14808200Y5016500D02*
X15862300Y6070600D01*
Y6515100D01*
X13513800Y5324900D02*
X13686900Y5498000D01*
X13798199Y5555300D02*
Y5575300D01*
X13740900Y5498000D02*
X13798199Y5555300D01*
X13686900Y5498000D02*
X13740900D01*
X13459801Y5324900D02*
X13513800D01*
X13422501Y5287600D02*
X13459801Y5324900D01*
X13422501Y5227600D02*
Y5287600D01*
X14573100Y3964000D02*
X14630400Y4021300D01*
X14517101Y3964000D02*
X14573100D01*
X14328600Y3775500D02*
X14517101Y3964000D01*
X14272600Y3775500D02*
X14328600D01*
X14235300Y3678200D02*
Y3738200D01*
X14630400Y4021300D02*
Y4041300D01*
X14235300Y3738200D02*
X14272600Y3775500D01*
X10675942Y3678200D02*
X14235300D01*
X9639342Y2641600D02*
X10675942Y3678200D01*
X4723300Y2766518D02*
X4848218Y2641600D01*
X4723300Y2923082D02*
X4774100Y2973882D01*
Y3100000D01*
X4723300Y2766518D02*
Y2923082D01*
X4848218Y2641600D02*
X9639342D01*
X4774100Y3100000D02*
X4823900Y3149800D01*
X8575800Y2946400D02*
X9872300D01*
X12153500Y5227600D01*
X8331200Y2946400D02*
X8575800D01*
X8077200Y2692400D02*
X8331200Y2946400D01*
X7528800Y2692400D02*
X8077200D01*
X7353100Y2868100D02*
X7528800Y2692400D01*
X7658300Y3185600D02*
Y3213100D01*
X12153500Y5227600D02*
X13422501D01*
X7327900Y4902200D02*
X7378700Y4851400D01*
Y4749800D02*
Y4851400D01*
X5664250Y4870450D02*
X5886450D01*
X5892800Y4864100D01*
X5657900Y4622800D02*
X5674966Y4605734D01*
X6183700Y4456500D02*
X6497900D01*
X5969000Y4241800D02*
X6172200Y4445000D01*
X6173000D01*
X6183700Y4455700D01*
X6248000Y4355700D02*
X6248800D01*
X6489700Y3975100D02*
X6567900Y4053300D01*
X7969082Y4749800D02*
X8088000Y4630882D01*
Y4612000D02*
Y4630882D01*
X7378700Y4749800D02*
X7969082D01*
X8108300Y4102100D02*
Y4267200D01*
X7378700Y4584700D02*
X7995300D01*
X7130500Y4456500D02*
X7258700Y4584700D01*
X7150100Y4406900D02*
X7175500Y4432300D01*
X7255200D01*
X6887900Y4456500D02*
X7130500D01*
X6887900Y4356500D02*
X7098900D01*
X6970300Y4256500D02*
X7099300Y4127500D01*
X6887900Y4406500D02*
X7150100D01*
X6887900Y4256500D02*
X6970300D01*
X6817900Y4104100D02*
X6921500Y4000500D01*
X5796400Y3149800D02*
X5930900Y3284300D01*
X5626100Y3149800D02*
X5796400D01*
X5930900Y3284300D02*
Y3289300D01*
X4194600Y5181700D02*
X4470300D01*
X4470400Y5181600D01*
X4194500Y5181800D02*
X4194600Y5181700D01*
X6567900Y4053300D02*
Y4186500D01*
X6617900Y3987800D02*
Y4186500D01*
X6817900Y4104100D02*
Y4186500D01*
X6767900Y3859600D02*
Y4186500D01*
X5549900Y3606800D02*
X5676900D01*
X5943600Y4749800D02*
X6186900Y4506500D01*
X5610518Y4622800D02*
X5657900D01*
X5422900Y4435182D02*
X5610518Y4622800D01*
X5657900Y3987800D02*
X5791200D01*
X6209900Y4406500D01*
X5657900Y4241800D02*
X5969000D01*
X6326600Y4256500D02*
X6497900D01*
X6186900Y4506500D02*
X6497900D01*
X6287700Y4306500D02*
X6497900D01*
X6248800Y4356500D02*
X6497900D01*
X6209900Y4406500D02*
X6497900D01*
X3949700Y5197600D02*
X4194500Y4952800D01*
X3949700Y5197600D02*
Y5575300D01*
X4194500Y5566100D02*
X4203700Y5575300D01*
X4194500Y5181800D02*
Y5566100D01*
Y3432500D02*
Y3809800D01*
X4191000Y3429000D02*
X4194500Y3432500D01*
X5537300Y4724500D02*
X5632600D01*
X5657900Y4749800D01*
X4552950Y4121150D02*
X4800550D01*
X4806900Y4114800D01*
X4546600Y4127500D02*
X4552950Y4121150D01*
X4508500Y4724400D02*
X4521200Y4737100D01*
X4794200D02*
X4806900Y4749800D01*
X4521200Y4737100D02*
X4794200D01*
X3426900Y4449400D02*
X3534500Y4341800D01*
X3426900Y4794369D02*
X3591931Y4959400D01*
X3426900Y4449400D02*
Y4794369D01*
X3591931Y4959400D02*
X3864479D01*
X3978679Y4845200D01*
X4251228D02*
X4358928Y4952900D01*
X4905181D01*
X4927500Y4930582D01*
Y4696018D02*
Y4930582D01*
X4905181Y4673700D02*
X4927500Y4696018D01*
X3978679Y4845200D02*
X4251228D01*
X4902300Y4673700D02*
X4905181D01*
X4851400Y4622800D02*
X4902300Y4673700D01*
X4806900Y4622800D02*
X4851400D01*
X4125670Y4647800D02*
X4354670Y4876800D01*
X3712500Y4647800D02*
X4125670D01*
X4354670Y4876800D02*
X4806900D01*
X4979500Y3149800D02*
X5071700Y3057600D01*
Y3052100D02*
X5114000Y3009800D01*
X5124000D01*
X4851400Y3149800D02*
X4979500D01*
X5071700Y3052100D02*
Y3057600D01*
X5197600Y3073400D02*
Y3175000D01*
X5134000Y3009800D02*
X5197600Y3073400D01*
X5124000Y3009800D02*
X5134000D01*
X7353100Y2868100D02*
Y2895600D01*
Y3212900D02*
X7353300Y3213100D01*
X7353100Y2895600D02*
Y3212900D01*
X7353300Y3213100D02*
Y3517900D01*
X7808400Y3073400D02*
X8035800D01*
X7658100Y2923100D02*
X7808400Y3073400D01*
X7658100Y2895600D02*
Y2923100D01*
X7658300Y3213100D02*
X7671000Y3200400D01*
X7658300Y3490400D02*
X7821300Y3327400D01*
X7658300Y3490400D02*
Y3517900D01*
X3662331Y4137800D02*
X3667931Y4132200D01*
X3979765D01*
X3993965Y4146400D01*
X4305800D01*
X4464400Y3987800D01*
X4806900D01*
X3534500Y4137800D02*
X3662331D01*
X3712500Y4239800D02*
X3713500Y4240800D01*
X4805900D02*
X4806900Y4241800D01*
X3713500Y4240800D02*
X4805900D01*
X15062199Y6907718D02*
Y7239000D01*
Y6907718D02*
X15278558Y6691359D01*
X15330540D02*
X15368600Y6653300D01*
Y6585200D02*
Y6653300D01*
X15278558Y6691359D02*
X15330540D01*
X15722600Y6680200D02*
X15749651D01*
X15568600D02*
X15722600D01*
Y6654800D02*
Y6680200D01*
Y6654800D02*
X15862300Y6515100D01*
X14808200Y4610100D02*
Y5016500D01*
X15379700Y3797300D02*
Y4368800D01*
Y3797300D02*
Y3797300D01*
X14218600Y5219700D02*
X14275900Y5162400D01*
Y5142400D02*
Y5162400D01*
X14198599Y5219700D02*
X14218600D01*
X14275900Y5142400D02*
X14808200Y4610100D01*
X15265401Y3683000D02*
X15379700Y3797300D01*
X14998700Y3683000D02*
X15265401D01*
X14998700D02*
X15056000Y3740300D01*
X15379700Y4368800D02*
X15454800Y4443900D01*
X15474800D01*
X15532100Y4501200D01*
Y4521200D01*
Y4541200D01*
Y4501200D02*
X15637000Y4396300D01*
X15915250Y4890000D02*
X15990950Y4965700D01*
X15868800Y4890000D02*
X15915250D01*
X15811501Y4832700D02*
X15868800Y4890000D01*
X15806580Y4837621D02*
X15811501Y4832700D01*
X15698279Y4837621D02*
X15806580D01*
X15659100Y4876800D02*
X15698279Y4837621D01*
X15659100Y4876800D02*
Y5062721D01*
X15537399Y5077600D02*
X15644221D01*
X15659100Y5062721D01*
X16892665Y5221334D02*
Y5308453D01*
X16696661Y5452991D02*
X16748128D01*
X16691971Y5448300D02*
X16696661Y5452991D01*
X16748128D02*
X16892665Y5308453D01*
Y5221334D02*
X16894299Y5219700D01*
X16022650Y4832700D02*
X16155650Y4965700D01*
X15811501Y4832700D02*
X16022650D01*
X15637000Y4318000D02*
Y4396300D01*
X16155650Y4965700D02*
X16354300D01*
X15537399Y4777600D02*
X15608299Y4706700D01*
X15593420Y4598500D02*
X15608299Y4613379D01*
Y4706700D01*
X15532100Y4541200D02*
X15589400Y4598500D01*
X15593420D01*
X15368600Y6326200D02*
Y6585200D01*
X15367000Y6324600D02*
X15368600Y6326200D01*
X15367000Y6304600D02*
X15471899Y6199700D01*
Y6121400D02*
Y6199700D01*
X15367000Y6304600D02*
Y6324600D01*
X14695300Y3678200D02*
Y3709200D01*
X14732600Y3746500D01*
X14915199D02*
X14978700Y3683000D01*
X14732600Y3746500D02*
X14915199D01*
X14121300Y5277000D02*
Y5282121D01*
X14106421Y5297000D02*
X14121300Y5282121D01*
X13882500Y5227600D02*
Y5259700D01*
X13919800Y5297000D01*
X14106421D01*
X14178600Y5219700D02*
X14198599D01*
X14121300Y5277000D02*
X14178600Y5219700D01*
X14255901Y5277000D02*
X14354201D01*
X14401801Y5324600D01*
X14198599Y5219700D02*
X14255901Y5277000D01*
X13740900Y5632600D02*
Y5726550D01*
Y5632600D02*
X13798199Y5575300D01*
X13701649Y5765800D02*
X13740900Y5726550D01*
X14978700Y3683000D02*
X14998700D01*
X14527150Y4164550D02*
X14630400Y4061300D01*
X14527150Y4164550D02*
Y4257200D01*
X14630400Y4041300D02*
Y4061300D01*
X13785300Y3290500D02*
X13957300D01*
X13779500Y3296300D02*
X13785300Y3290500D01*
X13774500Y3296300D02*
X13779500D01*
X13747200Y3264000D02*
Y3269000D01*
X13774500Y3296300D01*
X14198000Y3580900D02*
X14235300Y3618200D01*
X14097701Y3580900D02*
X14198000D01*
X14235300Y3618200D02*
Y3678200D01*
X13957300Y3440500D02*
X14097701Y3580900D01*
X15155949Y3740300D02*
X15201900Y3786250D01*
X15056000Y3740300D02*
X15155949D01*
X16344901Y3517900D02*
Y3784600D01*
X16601601Y3189100D02*
Y3514600D01*
X16604900Y3517900D01*
X16635100Y3548100D01*
Y3771900D01*
X16715100Y3766900D02*
Y3771900D01*
X16738699Y3743300D02*
X16967200D01*
X16715100Y3766900D02*
X16738699Y3743300D01*
X16967200Y3343300D02*
X16970399Y3340100D01*
X17335500D01*
X16891000Y4610100D02*
Y4835400D01*
X16894299Y4838700D01*
X14081799Y7620000D02*
X14224001D01*
X14072000Y7610200D02*
X14081799Y7620000D01*
X14072000Y7020200D02*
X14074899Y7023100D01*
X5626100Y2844800D02*
X5629279Y2847979D01*
Y2930521D01*
X5550000Y3009800D02*
X5629279Y2930521D01*
X5334000Y3009800D02*
X5550000D01*
X4851400Y2844800D02*
X5124000D01*
X17145000Y5092700D02*
X17221201Y5168900D01*
X16894299Y5092700D02*
X17145000D01*
X16894299Y4965700D02*
X17134789D01*
X17185590Y4914900D01*
X17221201D01*
X13881400Y6925077D02*
Y7015800D01*
X13947676Y6858800D02*
X13974582D01*
X13881400Y6925077D02*
X13947676Y6858800D01*
X13816400Y6918235D02*
X13919200Y6815435D01*
X13816400Y6918235D02*
Y7015800D01*
X14074899Y7023100D02*
X14290700D01*
X14440100Y6727800D02*
X14452600D01*
X13946400Y6931919D02*
Y7015800D01*
X13919200Y6727800D02*
Y6815435D01*
X14258299Y6909600D02*
X14440100Y6727800D01*
X13974582Y6858800D02*
X14058282Y6775100D01*
X13946400Y6931919D02*
X13968718Y6909600D01*
X13942000Y7020200D02*
X13946400Y7015800D01*
X13968718Y6909600D02*
X14258299D01*
X13877000Y7020200D02*
X13881400Y7015800D01*
X14058282Y6775100D02*
X14138600D01*
X14185899Y6727800D01*
X13812000Y7020200D02*
X13816400Y7015800D01*
X13747000Y6762000D02*
Y7020200D01*
X13612601Y7015800D02*
X13617000Y7020200D01*
X13119099Y6731000D02*
X13131599D01*
X13385800D02*
X13433099Y6778300D01*
D46*
X14808200Y4368800D02*
X15379700Y3797300D01*
X14808200Y4368800D02*
Y4610100D01*
X15938499Y3238500D02*
X16052800D01*
X15379700Y3797300D02*
X15938499Y3238500D01*
X16332201Y2959100D02*
X16601601D01*
X16052800Y3238500D02*
X16332201Y2959100D01*
D47*
X17335500Y3594100D02*
D03*
X17221201Y4914900D02*
D03*
D48*
X17335500Y3340100D02*
D03*
X17221201Y5168900D02*
D03*
D49*
X9232900Y12026900D02*
D03*
X17106900D02*
D03*
X15328900D02*
D03*
X13169901D02*
D03*
X11391900D02*
D03*
X7454900D02*
D03*
X5295900D02*
D03*
X3517900D02*
D03*
D50*
X4194500Y4038800D02*
D03*
Y3809800D02*
D03*
Y4952800D02*
D03*
Y5181800D02*
D03*
X3534500Y4749800D02*
D03*
Y4545800D02*
D03*
Y4341800D02*
D03*
X3712500Y4851800D02*
D03*
Y4647800D02*
D03*
Y4443800D02*
D03*
Y4239800D02*
D03*
D51*
X3534500Y4137800D02*
D03*
D52*
X3623500Y3682800D02*
D03*
Y5308800D02*
D03*
D53*
X3280500Y3860800D02*
D03*
Y5130800D02*
D03*
D54*
X6286500Y4114845D02*
D03*
X5372100Y4339987D02*
D03*
X6128124Y3774266D02*
D03*
X5501764Y4013200D02*
D03*
X5384800Y4622800D02*
D03*
X5194300Y4533900D02*
D03*
X6013263Y4463863D02*
D03*
X5905500Y4622800D02*
D03*
X5829300Y4343400D02*
D03*
X4944383Y3879942D02*
D03*
X7531100Y4419600D02*
D03*
X7327900Y7480300D02*
D03*
X8672600Y8140700D02*
D03*
X8458200Y7988300D02*
D03*
X8115300Y3793038D02*
D03*
X6553200Y2967538D02*
D03*
X3162300Y4491538D02*
D03*
X3378200Y3005638D02*
D03*
X4419600Y6498138D02*
D03*
X8280400Y6485438D02*
D03*
X8331200Y6815638D02*
D03*
X9169400Y6663238D02*
D03*
X8166100Y7844338D02*
D03*
X9067800Y8047538D02*
D03*
X8775700Y7336338D02*
D03*
X7137400Y8911138D02*
D03*
X9944100Y8860338D02*
D03*
X10553700Y7539538D02*
D03*
X10769600Y6002838D02*
D03*
X9309100Y3666038D02*
D03*
X11925300Y3119938D02*
D03*
X12090400Y4491538D02*
D03*
X13652499Y3958138D02*
D03*
X15532100Y3170738D02*
D03*
X16433800Y4364538D02*
D03*
X16128999Y5774238D02*
D03*
X13868401Y7349038D02*
D03*
X14808200Y6726738D02*
D03*
X14122400Y7162800D02*
D03*
X8032704Y6457804D02*
D03*
X7391400Y6629400D02*
D03*
X5524500Y3327400D02*
D03*
X4851400Y3657600D02*
D03*
X6604000Y3403600D02*
D03*
X4203700Y9372600D02*
D03*
X4394200Y9093200D02*
D03*
X4152900Y8801100D02*
D03*
X5105400Y8255000D02*
D03*
X3378200Y9817100D02*
D03*
X3302000Y9105900D02*
D03*
X6337300Y8521700D02*
D03*
X4622800Y9055100D02*
D03*
X5321300Y9042400D02*
D03*
X4178300Y8432800D02*
D03*
X3911600Y8267700D02*
D03*
X3213100Y8204200D02*
D03*
X10541000Y8699500D02*
D03*
X9639300Y9321800D02*
D03*
X7708900Y9017000D02*
D03*
X5461000Y6057900D02*
D03*
X5676900Y6705600D02*
D03*
X5702300Y6477000D02*
D03*
X5695950Y6280150D02*
D03*
X5702300Y5905500D02*
D03*
X5372100Y5791200D02*
D03*
X12204700Y7251700D02*
D03*
X11849100Y7569200D02*
D03*
X6934200Y6883400D02*
D03*
X8394700Y8623300D02*
D03*
X8597900Y8585200D02*
D03*
X8115300Y9093200D02*
D03*
X7175500Y7937500D02*
D03*
X8318500Y8978900D02*
D03*
X6477000Y5981700D02*
D03*
X7404100Y5372100D02*
D03*
X8813800Y5384800D02*
D03*
X8851900Y5575300D02*
D03*
X7620000Y5363309D02*
D03*
X7658100Y5041900D02*
D03*
X8610600Y5359400D02*
D03*
X6515500Y6654800D02*
D03*
X7861300Y5579411D02*
D03*
Y5376009D02*
D03*
X6934200Y6426200D02*
D03*
X8775700Y8686800D02*
D03*
X7099300Y7239000D02*
D03*
X7175500Y7721600D02*
D03*
X11836400Y6692900D02*
D03*
X12865100Y6718300D02*
D03*
X11887200Y5727700D02*
D03*
X11747500Y5575300D02*
D03*
X12331700Y6197600D02*
D03*
X12153900Y6057900D02*
D03*
X8940800Y8597900D02*
D03*
X11303000Y7899400D02*
D03*
X11061700Y8115300D02*
D03*
X16116299Y4457700D02*
D03*
Y4635500D02*
D03*
X7861300Y5765800D02*
D03*
X7073900Y3733800D02*
D03*
X7848600Y4457700D02*
D03*
X11607800Y5435600D02*
D03*
X8801100Y3924300D02*
D03*
X8686800Y4038600D02*
D03*
X8559800Y6400800D02*
D03*
X7861300Y5956300D02*
D03*
X7213600Y6426200D02*
D03*
X12026900Y5892800D02*
D03*
X4521200Y8001000D02*
D03*
X3225800D02*
D03*
X3797300Y9182100D02*
D03*
X6502400Y5130800D02*
D03*
X9626600Y7124700D02*
D03*
X7912100Y6972300D02*
D03*
X9639300Y8128000D02*
D03*
X7670800Y4254500D02*
D03*
X13899400Y7785100D02*
D03*
X5892800Y4864100D02*
D03*
X6921500Y4000500D02*
D03*
X4470400Y5181600D02*
D03*
X4546600Y4127500D02*
D03*
X4508500Y4724400D02*
D03*
X15062199Y7239000D02*
D03*
X14224001Y7620000D02*
D03*
D55*
X6592900Y4281500D02*
D03*
Y4381500D02*
D03*
Y4481500D02*
D03*
X6692900Y4281500D02*
D03*
Y4381500D02*
D03*
Y4481500D02*
D03*
X6792900Y4281500D02*
D03*
Y4381500D02*
D03*
Y4481500D02*
D03*
%TF.MD5,de79be29fc997b2f2c3794bd31c495cc*%
M02*
