G04*
G04 #@! TF.GenerationSoftware,Altium Limited,Altium Designer,24.1.2 (44)*
G04*
G04 Layer_Color=2752767*
%FSLAX44Y44*%
%MOMM*%
G71*
G04*
G04 #@! TF.SameCoordinates,0A8073CA-4D69-4BD4-B8E1-8B9189CEBFBB*
G04*
G04*
G04 #@! TF.FilePolarity,Positive*
G04*
G01*
G75*
%ADD91C,0.1270*%
%ADD92C,0.1693*%
D91*
X1733550Y354330D02*
X1736090Y356870D01*
X1738630D01*
X1736090Y359410D01*
X1738630Y361950D01*
X1736090D01*
X1733550Y364490D01*
X1731010Y361950D01*
X1728470D01*
X1731010Y359410D01*
X1728470Y356870D01*
X1731010D01*
X1733550Y354330D01*
Y328930D02*
X1736090Y331470D01*
X1738630D01*
X1736090Y334010D01*
X1738630Y336550D01*
X1736090D01*
X1733550Y339090D01*
X1731010Y336550D01*
X1728470D01*
X1731010Y334010D01*
X1728470Y331470D01*
X1731010D01*
X1733550Y328930D01*
X918210Y1197610D02*
X920750Y1202690D01*
X918210Y1207770D01*
X923290Y1205230D01*
X928370Y1207770D01*
X925830Y1202690D01*
X928370Y1197610D01*
X923290Y1200150D01*
X918210Y1197610D01*
X1722120Y486410D02*
X1724660Y488950D01*
X1727200D01*
X1724660Y491490D01*
X1727200Y494030D01*
X1724660D01*
X1722120Y496570D01*
X1719580Y494030D01*
X1717040D01*
X1719580Y491490D01*
X1717040Y488950D01*
X1719580D01*
X1722120Y486410D01*
Y511810D02*
X1724660Y514350D01*
X1727200D01*
X1724660Y516890D01*
X1727200Y519430D01*
X1724660D01*
X1722120Y521970D01*
X1719580Y519430D01*
X1717040D01*
X1719580Y516890D01*
X1717040Y514350D01*
X1719580D01*
X1722120Y511810D01*
X414370Y398800D02*
Y408960D01*
X424530D01*
Y398800D01*
X414370D01*
Y375900D02*
Y386060D01*
X424530D01*
Y375900D01*
X414370D01*
Y490200D02*
Y500360D01*
X424530D01*
Y490200D01*
X414370D01*
Y513100D02*
Y523260D01*
X424530D01*
Y513100D01*
X414370D01*
X348370Y469900D02*
Y480060D01*
X358530D01*
Y469900D01*
X348370D01*
Y449500D02*
Y459660D01*
X358530D01*
Y449500D01*
X348370D01*
Y429100D02*
Y439260D01*
X358530D01*
Y429100D01*
X348370D01*
Y408700D02*
Y418860D01*
X358530D01*
Y408700D01*
X348370D01*
X366170Y480100D02*
Y490260D01*
X376330D01*
Y480100D01*
X366170D01*
Y459700D02*
Y469860D01*
X376330D01*
Y459700D01*
X366170D01*
Y439300D02*
Y449460D01*
X376330D01*
Y439300D01*
X366170D01*
Y418900D02*
Y429060D01*
X376330D01*
Y418900D01*
X366170D01*
X328050Y381000D02*
X322970Y391160D01*
X333130D01*
X328050Y381000D01*
Y508000D02*
X322970Y518160D01*
X333130D01*
X328050Y508000D01*
X1705610Y1197610D02*
X1708150Y1202690D01*
X1705610Y1207770D01*
X1710690Y1205230D01*
X1715770Y1207770D01*
X1713230Y1202690D01*
X1715770Y1197610D01*
X1710690Y1200150D01*
X1705610Y1197610D01*
X1527810D02*
X1530350Y1202690D01*
X1527810Y1207770D01*
X1532890Y1205230D01*
X1537970Y1207770D01*
X1535430Y1202690D01*
X1537970Y1197610D01*
X1532890Y1200150D01*
X1527810Y1197610D01*
X1311910D02*
X1314450Y1202690D01*
X1311910Y1207770D01*
X1316990Y1205230D01*
X1322070Y1207770D01*
X1319530Y1202690D01*
X1322070Y1197610D01*
X1316990Y1200150D01*
X1311910Y1197610D01*
X1134110D02*
X1136650Y1202690D01*
X1134110Y1207770D01*
X1139190Y1205230D01*
X1144270Y1207770D01*
X1141730Y1202690D01*
X1144270Y1197610D01*
X1139190Y1200150D01*
X1134110Y1197610D01*
X740410D02*
X742950Y1202690D01*
X740410Y1207770D01*
X745490Y1205230D01*
X750570Y1207770D01*
X748030Y1202690D01*
X750570Y1197610D01*
X745490Y1200150D01*
X740410Y1197610D01*
X524510D02*
X527050Y1202690D01*
X524510Y1207770D01*
X529590Y1205230D01*
X534670Y1207770D01*
X532130Y1202690D01*
X534670Y1197610D01*
X529590Y1200150D01*
X524510Y1197610D01*
X346710D02*
X349250Y1202690D01*
X346710Y1207770D01*
X351790Y1205230D01*
X356870Y1207770D01*
X354330Y1202690D01*
X356870Y1197610D01*
X351790Y1200150D01*
X346710Y1197610D01*
X623570Y411484D02*
X628650Y416564D01*
X633730Y411484D01*
X628650Y406404D01*
X623570Y411484D01*
X532130Y433999D02*
X537210Y439079D01*
X542290Y433999D01*
X537210Y428919D01*
X532130Y433999D01*
X607732Y377427D02*
X612812Y382507D01*
X617892Y377427D01*
X612812Y372347D01*
X607732Y377427D01*
X545096Y401320D02*
X550176Y406400D01*
X555256Y401320D01*
X550176Y396240D01*
X545096Y401320D01*
X533400Y462280D02*
X538480Y467360D01*
X543560Y462280D01*
X538480Y457200D01*
X533400Y462280D01*
X514350Y453390D02*
X519430Y458470D01*
X524510Y453390D01*
X519430Y448310D01*
X514350Y453390D01*
X596246Y446386D02*
X601326Y451466D01*
X606406Y446386D01*
X601326Y441306D01*
X596246Y446386D01*
X585470Y462280D02*
X590550Y467360D01*
X595630Y462280D01*
X590550Y457200D01*
X585470Y462280D01*
X577850Y434340D02*
X582930Y439420D01*
X588010Y434340D01*
X582930Y429260D01*
X577850Y434340D01*
X489358Y387994D02*
X494438Y393074D01*
X499518Y387994D01*
X494438Y382914D01*
X489358Y387994D01*
X748030Y441960D02*
X753110Y447040D01*
X758190Y441960D01*
X753110Y436880D01*
X748030Y441960D01*
X727710Y748030D02*
X732790Y753110D01*
X737870Y748030D01*
X732790Y742950D01*
X727710Y748030D01*
X862180Y814070D02*
X867260Y819150D01*
X872340Y814070D01*
X867260Y808990D01*
X862180Y814070D01*
X840740Y798830D02*
X845820Y803910D01*
X850900Y798830D01*
X845820Y793750D01*
X840740Y798830D01*
X806450Y379304D02*
X811530Y384384D01*
X816610Y379304D01*
X811530Y374224D01*
X806450Y379304D01*
X650240Y296754D02*
X655320Y301834D01*
X660400Y296754D01*
X655320Y291674D01*
X650240Y296754D01*
X311150Y449154D02*
X316230Y454234D01*
X321310Y449154D01*
X316230Y444074D01*
X311150Y449154D01*
X332740Y300564D02*
X337820Y305644D01*
X342900Y300564D01*
X337820Y295484D01*
X332740Y300564D01*
X436880Y649814D02*
X441960Y654894D01*
X447040Y649814D01*
X441960Y644734D01*
X436880Y649814D01*
X822960Y648544D02*
X828040Y653624D01*
X833120Y648544D01*
X828040Y643464D01*
X822960Y648544D01*
X828040Y681564D02*
X833120Y686644D01*
X838200Y681564D01*
X833120Y676484D01*
X828040Y681564D01*
X911860Y666324D02*
X916940Y671404D01*
X922020Y666324D01*
X916940Y661244D01*
X911860Y666324D01*
X811530Y784434D02*
X816610Y789514D01*
X821690Y784434D01*
X816610Y779354D01*
X811530Y784434D01*
X901700Y804754D02*
X906780Y809834D01*
X911860Y804754D01*
X906780Y799674D01*
X901700Y804754D01*
X872490Y733634D02*
X877570Y738714D01*
X882650Y733634D01*
X877570Y728554D01*
X872490Y733634D01*
X708660Y891114D02*
X713740Y896194D01*
X718820Y891114D01*
X713740Y886034D01*
X708660Y891114D01*
X989330Y886034D02*
X994410Y891114D01*
X999490Y886034D01*
X994410Y880954D01*
X989330Y886034D01*
X1050290Y753954D02*
X1055370Y759034D01*
X1060450Y753954D01*
X1055370Y748874D01*
X1050290Y753954D01*
X1071880Y600284D02*
X1076960Y605364D01*
X1082040Y600284D01*
X1076960Y595204D01*
X1071880Y600284D01*
X925830Y366604D02*
X930910Y371684D01*
X935990Y366604D01*
X930910Y361524D01*
X925830Y366604D01*
X1187450Y311994D02*
X1192530Y317074D01*
X1197610Y311994D01*
X1192530Y306914D01*
X1187450Y311994D01*
X1203960Y449154D02*
X1209040Y454234D01*
X1214120Y449154D01*
X1209040Y444074D01*
X1203960Y449154D01*
X1360170Y395814D02*
X1365250Y400894D01*
X1370330Y395814D01*
X1365250Y390734D01*
X1360170Y395814D01*
X1548130Y317074D02*
X1553210Y322154D01*
X1558290Y317074D01*
X1553210Y311994D01*
X1548130Y317074D01*
X1638300Y436454D02*
X1643380Y441534D01*
X1648460Y436454D01*
X1643380Y431374D01*
X1638300Y436454D01*
X1607820Y577424D02*
X1612900Y582504D01*
X1617980Y577424D01*
X1612900Y572344D01*
X1607820Y577424D01*
X1381760Y734904D02*
X1386840Y739984D01*
X1391920Y734904D01*
X1386840Y729824D01*
X1381760Y734904D01*
X1475740Y672674D02*
X1480820Y677754D01*
X1485900Y672674D01*
X1480820Y667594D01*
X1475740Y672674D01*
X1407160Y716280D02*
X1412240Y721360D01*
X1417320Y716280D01*
X1412240Y711200D01*
X1407160Y716280D01*
X798190Y645780D02*
X803270Y650860D01*
X808350Y645780D01*
X803270Y640700D01*
X798190Y645780D01*
X734060Y662940D02*
X739140Y668020D01*
X744220Y662940D01*
X739140Y657860D01*
X734060Y662940D01*
X547370Y332740D02*
X552450Y337820D01*
X557530Y332740D01*
X552450Y327660D01*
X547370Y332740D01*
X480060Y365760D02*
X485140Y370840D01*
X490220Y365760D01*
X485140Y360680D01*
X480060Y365760D01*
X655320Y340360D02*
X660400Y345440D01*
X665480Y340360D01*
X660400Y335280D01*
X655320Y340360D01*
X415290Y937260D02*
X420370Y942340D01*
X425450Y937260D01*
X420370Y932180D01*
X415290Y937260D01*
X434340Y909320D02*
X439420Y914400D01*
X444500Y909320D01*
X439420Y904240D01*
X434340Y909320D01*
X410210Y880110D02*
X415290Y885190D01*
X420370Y880110D01*
X415290Y875030D01*
X410210Y880110D01*
X505460Y825500D02*
X510540Y830580D01*
X515620Y825500D01*
X510540Y820420D01*
X505460Y825500D01*
X332740Y981710D02*
X337820Y986790D01*
X342900Y981710D01*
X337820Y976630D01*
X332740Y981710D01*
X325120Y910590D02*
X330200Y915670D01*
X335280Y910590D01*
X330200Y905510D01*
X325120Y910590D01*
X628650Y852170D02*
X633730Y857250D01*
X638810Y852170D01*
X633730Y847090D01*
X628650Y852170D01*
X457200Y905510D02*
X462280Y910590D01*
X467360Y905510D01*
X462280Y900430D01*
X457200Y905510D01*
X527050Y904240D02*
X532130Y909320D01*
X537210Y904240D01*
X532130Y899160D01*
X527050Y904240D01*
X412750Y843280D02*
X417830Y848360D01*
X422910Y843280D01*
X417830Y838200D01*
X412750Y843280D01*
X386080Y826770D02*
X391160Y831850D01*
X396240Y826770D01*
X391160Y821690D01*
X386080Y826770D01*
X316230Y820420D02*
X321310Y825500D01*
X326390Y820420D01*
X321310Y815340D01*
X316230Y820420D01*
X1049020Y869950D02*
X1054100Y875030D01*
X1059180Y869950D01*
X1054100Y864870D01*
X1049020Y869950D01*
X958850Y932180D02*
X963930Y937260D01*
X969010Y932180D01*
X963930Y927100D01*
X958850Y932180D01*
X765810Y901700D02*
X770890Y906780D01*
X775970Y901700D01*
X770890Y896620D01*
X765810Y901700D01*
X541020Y605790D02*
X546100Y610870D01*
X551180Y605790D01*
X546100Y600710D01*
X541020Y605790D01*
X562610Y670560D02*
X567690Y675640D01*
X572770Y670560D01*
X567690Y665480D01*
X562610Y670560D01*
X565150Y647700D02*
X570230Y652780D01*
X575310Y647700D01*
X570230Y642620D01*
X565150Y647700D01*
X564515Y628015D02*
X569595Y633095D01*
X574675Y628015D01*
X569595Y622935D01*
X564515Y628015D01*
X565150Y590550D02*
X570230Y595630D01*
X575310Y590550D01*
X570230Y585470D01*
X565150Y590550D01*
X532130Y579120D02*
X537210Y584200D01*
X542290Y579120D01*
X537210Y574040D01*
X532130Y579120D01*
X1215390Y725170D02*
X1220470Y730250D01*
X1225550Y725170D01*
X1220470Y720090D01*
X1215390Y725170D01*
X1179830Y756920D02*
X1184910Y762000D01*
X1189990Y756920D01*
X1184910Y751840D01*
X1179830Y756920D01*
X688340Y688340D02*
X693420Y693420D01*
X698500Y688340D01*
X693420Y683260D01*
X688340Y688340D01*
X834390Y862330D02*
X839470Y867410D01*
X844550Y862330D01*
X839470Y857250D01*
X834390Y862330D01*
X854710Y858520D02*
X859790Y863600D01*
X864870Y858520D01*
X859790Y853440D01*
X854710Y858520D01*
X806450Y909320D02*
X811530Y914400D01*
X816610Y909320D01*
X811530Y904240D01*
X806450Y909320D01*
X712470Y793750D02*
X717550Y798830D01*
X722630Y793750D01*
X717550Y788670D01*
X712470Y793750D01*
X826770Y897890D02*
X831850Y902970D01*
X836930Y897890D01*
X831850Y892810D01*
X826770Y897890D01*
X642620Y598170D02*
X647700Y603250D01*
X652780Y598170D01*
X647700Y593090D01*
X642620Y598170D01*
X735330Y537210D02*
X740410Y542290D01*
X745490Y537210D01*
X740410Y532130D01*
X735330Y537210D01*
X876300Y538480D02*
X881380Y543560D01*
X886460Y538480D01*
X881380Y533400D01*
X876300Y538480D01*
X880110Y557530D02*
X885190Y562610D01*
X890270Y557530D01*
X885190Y552450D01*
X880110Y557530D01*
X756920Y536331D02*
X762000Y541411D01*
X767080Y536331D01*
X762000Y531251D01*
X756920Y536331D01*
X760730Y504190D02*
X765810Y509270D01*
X770890Y504190D01*
X765810Y499110D01*
X760730Y504190D01*
X855980Y535940D02*
X861060Y541020D01*
X866140Y535940D01*
X861060Y530860D01*
X855980Y535940D01*
X646470Y665480D02*
X651550Y670560D01*
X656630Y665480D01*
X651550Y660400D01*
X646470Y665480D01*
X781050Y557941D02*
X786130Y563021D01*
X791210Y557941D01*
X786130Y552861D01*
X781050Y557941D01*
Y537601D02*
X786130Y542681D01*
X791210Y537601D01*
X786130Y532521D01*
X781050Y537601D01*
X688340Y642620D02*
X693420Y647700D01*
X698500Y642620D01*
X693420Y637540D01*
X688340Y642620D01*
X872490Y868680D02*
X877570Y873760D01*
X882650Y868680D01*
X877570Y863600D01*
X872490Y868680D01*
X704850Y723900D02*
X709930Y728980D01*
X715010Y723900D01*
X709930Y718820D01*
X704850Y723900D01*
X712470Y772160D02*
X717550Y777240D01*
X722630Y772160D01*
X717550Y767080D01*
X712470Y772160D01*
X1178560Y669290D02*
X1183640Y674370D01*
X1188720Y669290D01*
X1183640Y664210D01*
X1178560Y669290D01*
X1281430Y671830D02*
X1286510Y676910D01*
X1291590Y671830D01*
X1286510Y666750D01*
X1281430Y671830D01*
X1183640Y572770D02*
X1188720Y577850D01*
X1193800Y572770D01*
X1188720Y567690D01*
X1183640Y572770D01*
X1169670Y557530D02*
X1174750Y562610D01*
X1179830Y557530D01*
X1174750Y552450D01*
X1169670Y557530D01*
X1228090Y619760D02*
X1233170Y624840D01*
X1238250Y619760D01*
X1233170Y614680D01*
X1228090Y619760D01*
X1210310Y605790D02*
X1215390Y610870D01*
X1220470Y605790D01*
X1215390Y600710D01*
X1210310Y605790D01*
X889000Y859790D02*
X894080Y864870D01*
X899160Y859790D01*
X894080Y854710D01*
X889000Y859790D01*
X1125220Y789940D02*
X1130300Y795020D01*
X1135380Y789940D01*
X1130300Y784860D01*
X1125220Y789940D01*
X1101090Y811530D02*
X1106170Y816610D01*
X1111250Y811530D01*
X1106170Y806450D01*
X1101090Y811530D01*
X1606550Y445770D02*
X1611630Y450850D01*
X1616710Y445770D01*
X1611630Y440690D01*
X1606550Y445770D01*
Y463550D02*
X1611630Y468630D01*
X1616710Y463550D01*
X1611630Y458470D01*
X1606550Y463550D01*
X781050Y576580D02*
X786130Y581660D01*
X791210Y576580D01*
X786130Y571500D01*
X781050Y576580D01*
X702310Y373380D02*
X707390Y378460D01*
X712470Y373380D01*
X707390Y368300D01*
X702310Y373380D01*
X779780Y445770D02*
X784860Y450850D01*
X789940Y445770D01*
X784860Y440690D01*
X779780Y445770D01*
X1155700Y543560D02*
X1160780Y548640D01*
X1165860Y543560D01*
X1160780Y538480D01*
X1155700Y543560D01*
X875030Y392430D02*
X880110Y397510D01*
X885190Y392430D01*
X880110Y387350D01*
X875030Y392430D01*
X863600Y403860D02*
X868680Y408940D01*
X873760Y403860D01*
X868680Y398780D01*
X863600Y403860D01*
X850900Y640080D02*
X855980Y645160D01*
X861060Y640080D01*
X855980Y635000D01*
X850900Y640080D01*
X781050Y595630D02*
X786130Y600710D01*
X791210Y595630D01*
X786130Y590550D01*
X781050Y595630D01*
X716280Y642620D02*
X721360Y647700D01*
X726440Y642620D01*
X721360Y637540D01*
X716280Y642620D01*
X1197610Y589280D02*
X1202690Y594360D01*
X1207770Y589280D01*
X1202690Y584200D01*
X1197610Y589280D01*
X447040Y800100D02*
X452120Y805180D01*
X457200Y800100D01*
X452120Y795020D01*
X447040Y800100D01*
X317500D02*
X322580Y805180D01*
X327660Y800100D01*
X322580Y795020D01*
X317500Y800100D01*
X374650Y918210D02*
X379730Y923290D01*
X384810Y918210D01*
X379730Y913130D01*
X374650Y918210D01*
X645160Y513080D02*
X650240Y518160D01*
X655320Y513080D01*
X650240Y508000D01*
X645160Y513080D01*
X957580Y712470D02*
X962660Y717550D01*
X967740Y712470D01*
X962660Y707390D01*
X957580Y712470D01*
X786130Y697230D02*
X791210Y702310D01*
X796290Y697230D01*
X791210Y692150D01*
X786130Y697230D01*
X958850Y812800D02*
X963930Y817880D01*
X969010Y812800D01*
X963930Y807720D01*
X958850Y812800D01*
X762000Y425450D02*
X767080Y430530D01*
X772160Y425450D01*
X767080Y420370D01*
X762000Y425450D01*
X1384860Y778510D02*
X1389940Y783590D01*
X1395020Y778510D01*
X1389940Y773430D01*
X1384860Y778510D01*
X584200Y486410D02*
X589280Y491490D01*
X594360Y486410D01*
X589280Y481330D01*
X584200Y486410D01*
X687070Y400050D02*
X692150Y405130D01*
X697230Y400050D01*
X692150Y394970D01*
X687070Y400050D01*
X441960Y518160D02*
X447040Y523240D01*
X452120Y518160D01*
X447040Y513080D01*
X441960Y518160D01*
X656750Y425610D02*
Y423070D01*
X661830D01*
Y425610D01*
X664370D01*
Y430690D01*
X661830D01*
Y433230D01*
X656750D01*
Y430690D01*
X654210D01*
Y425610D01*
X656750D01*
Y435610D02*
Y433070D01*
X661830D01*
Y435610D01*
X664370D01*
Y440690D01*
X661830D01*
Y443230D01*
X656750D01*
Y440690D01*
X654210D01*
Y435610D01*
X656750D01*
Y445610D02*
Y443070D01*
X661830D01*
Y445610D01*
X664370D01*
Y450690D01*
X661830D01*
Y453230D01*
X656750D01*
Y450690D01*
X654210D01*
Y445610D01*
X656750D01*
X666750Y425610D02*
Y423070D01*
X671830D01*
Y425610D01*
X674370D01*
Y430690D01*
X671830D01*
Y433230D01*
X666750D01*
Y430690D01*
X664210D01*
Y425610D01*
X666750D01*
Y435610D02*
Y433070D01*
X671830D01*
Y435610D01*
X674370D01*
Y440690D01*
X671830D01*
Y443230D01*
X666750D01*
Y440690D01*
X664210D01*
Y435610D01*
X666750D01*
Y445610D02*
Y443070D01*
X671830D01*
Y445610D01*
X674370D01*
Y450690D01*
X671830D01*
Y453230D01*
X666750D01*
Y450690D01*
X664210D01*
Y445610D01*
X666750D01*
X676750Y425610D02*
Y423070D01*
X681830D01*
Y425610D01*
X684370D01*
Y430690D01*
X681830D01*
Y433230D01*
X676750D01*
Y430690D01*
X674210D01*
Y425610D01*
X676750D01*
Y435610D02*
Y433070D01*
X681830D01*
Y435610D01*
X684370D01*
Y440690D01*
X681830D01*
Y443230D01*
X676750D01*
Y440690D01*
X674210D01*
Y435610D01*
X676750D01*
Y445610D02*
Y443070D01*
X681830D01*
Y445610D01*
X684370D01*
Y450690D01*
X681830D01*
Y453230D01*
X676750D01*
Y450690D01*
X674210D01*
Y445610D01*
X676750D01*
X449580Y412750D02*
X454660Y417830D01*
X459740Y412750D01*
X454660Y407670D01*
X449580Y412750D01*
X445770Y472440D02*
X450850Y477520D01*
X455930Y472440D01*
X450850Y467360D01*
X445770Y472440D01*
X1501140Y723900D02*
X1506220Y728980D01*
X1511300Y723900D01*
X1506220Y718820D01*
X1501140Y723900D01*
X1417320Y762000D02*
X1422400Y767080D01*
X1427480Y762000D01*
X1422400Y756920D01*
X1417320Y762000D01*
D92*
X367430Y368280D02*
G03*
X367430Y368280I-5080J0D01*
G01*
Y530880D02*
G03*
X367430Y530880I-5080J0D01*
G01*
M02*
