%TF.GenerationSoftware,Altium Limited,Altium Designer,24.1.2 (44)*%
G04 Layer_Color=16711935*
%FSLAX45Y45*%
%MOMM*%
%TF.SameCoordinates,57B3B6A3-E825-4013-9261-08072AB09D51*%
%TF.FilePolarity,Positive*%
%TF.FileFunction,Other,Bottom_Courtyard*%
%TF.Part,Single*%
G01*
G75*
%TA.AperFunction,NonConductor*%
%ADD64C,0.20000*%
%ADD88C,0.10000*%
%ADD91C,0.05000*%
D64*
X8419290Y7618096D02*
Y8048716D01*
Y7618096D02*
X8674910D01*
Y8048716D01*
X8419290D02*
X8674910D01*
X8774600Y7789650D02*
Y7882150D01*
Y7789650D02*
X8827600D01*
Y7882150D01*
X8774600D02*
X8827600D01*
X8306610Y7010990D02*
Y7441610D01*
X8050990D02*
X8306610D01*
X8050990Y7010990D02*
Y7441610D01*
Y7010990D02*
X8306610D01*
X7938600Y7180050D02*
Y7272550D01*
X7885600D02*
X7938600D01*
X7885600Y7180050D02*
Y7272550D01*
Y7180050D02*
X7938600D01*
X8017900Y6536100D02*
Y6756100D01*
X7907900D02*
X8017900D01*
X7907900Y6536100D02*
Y6756100D01*
Y6536100D02*
X8017900D01*
X8687610Y6530884D02*
Y6961504D01*
X8431990D02*
X8687610D01*
X8431990Y6530884D02*
Y6961504D01*
Y6530884D02*
X8687610D01*
X9380900Y7040100D02*
Y7180100D01*
Y7040100D02*
X9465900D01*
Y7180100D01*
X9380900D02*
X9465900D01*
X9424500Y7232500D02*
Y7325000D01*
X9371500D02*
X9424500D01*
X9371500Y7232500D02*
Y7325000D01*
Y7232500D02*
X9424500D01*
X9284800Y7230850D02*
Y7323350D01*
X9231800D02*
X9284800D01*
X9231800Y7230850D02*
Y7323350D01*
Y7230850D02*
X9284800D01*
X9145100D02*
Y7323350D01*
X9092100D02*
X9145100D01*
X9092100Y7230850D02*
Y7323350D01*
Y7230850D02*
X9145100D01*
X9092100Y7076800D02*
Y7169300D01*
Y7076800D02*
X9145100D01*
Y7169300D01*
X9092100D02*
X9145100D01*
X9231800Y7080100D02*
Y7172600D01*
Y7080100D02*
X9284800D01*
Y7172600D01*
X9231800D02*
X9284800D01*
X9393800Y7954500D02*
Y8174500D01*
Y7954500D02*
X9503800D01*
Y8174500D01*
X9393800D02*
X9503800D01*
X7137100Y5190400D02*
X7417100D01*
X7137100Y5020400D02*
Y5190400D01*
Y5020400D02*
X7417100D01*
Y5190400D01*
X7256250Y4039700D02*
X7348750D01*
X7256250Y3986700D02*
Y4039700D01*
Y3986700D02*
X7348750D01*
Y4039700D01*
X7254600Y4446100D02*
X7347100D01*
X7254600Y4393100D02*
Y4446100D01*
Y4393100D02*
X7347100D01*
Y4446100D01*
X7254600Y4636600D02*
X7347100D01*
X7254600Y4583600D02*
Y4636600D01*
Y4583600D02*
X7347100D01*
Y4636600D01*
X7254600Y4801700D02*
X7347100D01*
X7254600Y4748700D02*
Y4801700D01*
Y4748700D02*
X7347100D01*
Y4801700D01*
X7254600Y4242900D02*
X7347100D01*
X7254600Y4189900D02*
Y4242900D01*
Y4189900D02*
X7347100D01*
Y4242900D01*
X6633700Y3852500D02*
X6773700D01*
X6633700Y3767500D02*
Y3852500D01*
Y3767500D02*
X6773700D01*
Y3852500D01*
X6633700Y4043000D02*
X6773700D01*
X6633700Y3958000D02*
Y4043000D01*
Y3958000D02*
X6773700D01*
Y4043000D01*
X5033750Y4405800D02*
X5126250D01*
Y4458800D01*
X5033750D02*
X5126250D01*
X5033750Y4405800D02*
Y4458800D01*
X5637700Y4386050D02*
Y4478550D01*
Y4386050D02*
X5690700D01*
Y4478550D01*
X5637700D02*
X5690700D01*
X13793100Y7306400D02*
Y7476400D01*
X14073100D01*
Y7306400D02*
Y7476400D01*
X13793100Y7306400D02*
X14073100D01*
X14094099Y7987200D02*
Y8040200D01*
X14001601Y7987200D02*
X14094099D01*
X14001601D02*
Y8040200D01*
X14094099D01*
Y7847500D02*
Y7900500D01*
X14001601Y7847500D02*
X14094099D01*
X14001601D02*
Y7900500D01*
X14094099D01*
X14192101Y7174400D02*
Y7227400D01*
X14284599D01*
Y7174400D02*
Y7227400D01*
X14192101Y7174400D02*
X14284599D01*
X14222900Y7318100D02*
X14275900D01*
X14222900D02*
Y7410600D01*
X14275900D01*
Y7318100D02*
Y7410600D01*
D88*
X6300000Y5092700D02*
X6400000D01*
X6350000Y5042700D02*
Y5142700D01*
X6147600Y5089200D02*
X6247600D01*
X6197600Y5039200D02*
Y5139200D01*
X5995200Y5089200D02*
X6095200D01*
X6045200Y5039200D02*
Y5139200D01*
X5842800Y5089200D02*
X5942800D01*
X5892800Y5039200D02*
Y5139200D01*
X5004600Y4686300D02*
X5104600D01*
X5054600Y4636300D02*
Y4736300D01*
X5004600Y4174800D02*
X5104600D01*
X5054600Y4124800D02*
Y4224800D01*
X14539900Y7620800D02*
Y7720800D01*
X14489900Y7670800D02*
X14589900D01*
D91*
X6290000Y4982700D02*
Y5202700D01*
X6410000Y4982700D02*
Y5202700D01*
X6290000D02*
X6410000D01*
X6290000Y4982700D02*
X6410000D01*
X6137600Y4979200D02*
Y5199200D01*
X6257600Y4979200D02*
Y5199200D01*
X6137600D02*
X6257600D01*
X6137600Y4979200D02*
X6257600D01*
X5985200D02*
Y5199200D01*
X6105200Y4979200D02*
Y5199200D01*
X5985200D02*
X6105200D01*
X5985200Y4979200D02*
X6105200D01*
X5832800D02*
Y5199200D01*
X5952800Y4979200D02*
Y5199200D01*
X5832800D02*
X5952800D01*
X5832800Y4979200D02*
X5952800D01*
X4994600Y4576300D02*
Y4796300D01*
X5114600Y4576300D02*
Y4796300D01*
X4994600D02*
X5114600D01*
X4994600Y4576300D02*
X5114600D01*
X5114600Y4064800D02*
Y4284800D01*
X4994600Y4064800D02*
Y4284800D01*
Y4064800D02*
X5114600D01*
X4994600Y4284800D02*
X5114600D01*
X14329900Y7545800D02*
X14749899D01*
X14329900Y7795800D02*
X14749899D01*
X14329900Y7545800D02*
Y7795800D01*
X14749899Y7545800D02*
Y7795800D01*
%TF.MD5,b02d05d6341c2a0d2e339cfa4bd06959*%
M02*
