G04*
G04 #@! TF.GenerationSoftware,Altium Limited,Altium Designer,24.1.2 (44)*
G04*
G04 Layer_Color=128*
%FSLAX44Y44*%
%MOMM*%
G71*
G04*
G04 #@! TF.SameCoordinates,0A8073CA-4D69-4BD4-B8E1-8B9189CEBFBB*
G04*
G04*
G04 #@! TF.FilePolarity,Positive*
G04*
G01*
G75*
%ADD91C,0.1270*%
D91*
X1728450Y359410D02*
X1738650D01*
X1733550Y354310D02*
Y364510D01*
X1728450Y334010D02*
X1738650D01*
X1733550Y328910D02*
Y339110D01*
X891540Y1202690D02*
X955040D01*
X923290Y1170940D02*
Y1234440D01*
X1717020Y491490D02*
X1727220D01*
X1722120Y486390D02*
Y496590D01*
X1717020Y516890D02*
X1727220D01*
X1722120Y511790D02*
Y521990D01*
X415000Y403880D02*
X423900D01*
X419450Y399430D02*
Y408330D01*
X415000Y380980D02*
X423900D01*
X419450Y376530D02*
Y385430D01*
X415000Y495280D02*
X423900D01*
X419450Y490830D02*
Y499730D01*
X415000Y518180D02*
X423900D01*
X419450Y513730D02*
Y522630D01*
X349000Y474980D02*
X357900D01*
X353450Y470530D02*
Y479430D01*
X349000Y454580D02*
X357900D01*
X353450Y450130D02*
Y459030D01*
X349000Y434180D02*
X357900D01*
X353450Y429730D02*
Y438630D01*
X349000Y413780D02*
X357900D01*
X353450Y409330D02*
Y418230D01*
X366800Y485180D02*
X375700D01*
X371250Y480730D02*
Y489630D01*
X366800Y464780D02*
X375700D01*
X371250Y460330D02*
Y469230D01*
X366800Y444380D02*
X375700D01*
X371250Y439930D02*
Y448830D01*
X366800Y423980D02*
X375700D01*
X371250Y419530D02*
Y428430D01*
X354500Y368280D02*
X370200D01*
X362350Y360430D02*
Y376130D01*
X354500Y530880D02*
X370200D01*
X362350Y523030D02*
Y538730D01*
X311800Y386080D02*
X344300D01*
X328050Y369830D02*
Y402330D01*
X311800Y513080D02*
X344300D01*
X328050Y496830D02*
Y529330D01*
X1678940Y1202690D02*
X1742440D01*
X1710690Y1170940D02*
Y1234440D01*
X1501140Y1202690D02*
X1564640D01*
X1532890Y1170940D02*
Y1234440D01*
X1285240Y1202690D02*
X1348740D01*
X1316990Y1170940D02*
Y1234440D01*
X1107440Y1202690D02*
X1170940D01*
X1139190Y1170940D02*
Y1234440D01*
X713740Y1202690D02*
X777240D01*
X745490Y1170940D02*
Y1234440D01*
X497840Y1202690D02*
X561340D01*
X529590Y1170940D02*
Y1234440D01*
X320040Y1202690D02*
X383540D01*
X351790Y1170940D02*
Y1234440D01*
X625094Y411484D02*
X632206D01*
X628650Y407929D02*
Y415041D01*
X533654Y433999D02*
X540766D01*
X537210Y430443D02*
Y437555D01*
X609256Y377427D02*
X616368D01*
X612812Y373871D02*
Y380983D01*
X546620Y401320D02*
X553732D01*
X550176Y397764D02*
Y404876D01*
X534924Y462280D02*
X542036D01*
X538480Y458724D02*
Y465836D01*
X515874Y453390D02*
X522986D01*
X519430Y449834D02*
Y456946D01*
X597770Y446386D02*
X604882D01*
X601326Y442830D02*
Y449942D01*
X586994Y462280D02*
X594106D01*
X590550Y458724D02*
Y465836D01*
X579374Y434340D02*
X586486D01*
X582930Y430784D02*
Y437896D01*
X490882Y387994D02*
X497994D01*
X494438Y384438D02*
Y391550D01*
X749554Y441960D02*
X756666D01*
X753110Y438404D02*
Y445516D01*
X729234Y748030D02*
X736346D01*
X732790Y744474D02*
Y751586D01*
X863704Y814070D02*
X870816D01*
X867260Y810514D02*
Y817626D01*
X842264Y798830D02*
X849376D01*
X845820Y795274D02*
Y802386D01*
X807974Y379304D02*
X815086D01*
X811530Y375748D02*
Y382860D01*
X651764Y296754D02*
X658876D01*
X655320Y293198D02*
Y300310D01*
X312674Y449154D02*
X319786D01*
X316230Y445598D02*
Y452710D01*
X334264Y300564D02*
X341376D01*
X337820Y297008D02*
Y304120D01*
X438404Y649814D02*
X445516D01*
X441960Y646258D02*
Y653370D01*
X824484Y648544D02*
X831596D01*
X828040Y644988D02*
Y652100D01*
X829564Y681564D02*
X836676D01*
X833120Y678008D02*
Y685120D01*
X913384Y666324D02*
X920496D01*
X916940Y662768D02*
Y669880D01*
X813054Y784434D02*
X820166D01*
X816610Y780878D02*
Y787990D01*
X903224Y804754D02*
X910336D01*
X906780Y801198D02*
Y808310D01*
X874014Y733634D02*
X881126D01*
X877570Y730078D02*
Y737190D01*
X710184Y891114D02*
X717296D01*
X713740Y887558D02*
Y894670D01*
X990854Y886034D02*
X997966D01*
X994410Y882478D02*
Y889590D01*
X1051814Y753954D02*
X1058926D01*
X1055370Y750398D02*
Y757510D01*
X1073404Y600284D02*
X1080516D01*
X1076960Y596728D02*
Y603840D01*
X927354Y366604D02*
X934466D01*
X930910Y363048D02*
Y370160D01*
X1188974Y311994D02*
X1196086D01*
X1192530Y308438D02*
Y315550D01*
X1205484Y449154D02*
X1212596D01*
X1209040Y445598D02*
Y452710D01*
X1361694Y395814D02*
X1368806D01*
X1365250Y392258D02*
Y399370D01*
X1549654Y317074D02*
X1556766D01*
X1553210Y313518D02*
Y320630D01*
X1639824Y436454D02*
X1646936D01*
X1643380Y432898D02*
Y440010D01*
X1609344Y577424D02*
X1616456D01*
X1612900Y573868D02*
Y580980D01*
X1383284Y734904D02*
X1390396D01*
X1386840Y731348D02*
Y738460D01*
X1477264Y672674D02*
X1484376D01*
X1480820Y669118D02*
Y676230D01*
X1408684Y716280D02*
X1415796D01*
X1412240Y712724D02*
Y719836D01*
X799714Y645780D02*
X806826D01*
X803270Y642224D02*
Y649336D01*
X735584Y662940D02*
X742696D01*
X739140Y659384D02*
Y666496D01*
X548894Y332740D02*
X556006D01*
X552450Y329184D02*
Y336296D01*
X481584Y365760D02*
X488696D01*
X485140Y362204D02*
Y369316D01*
X656844Y340360D02*
X663956D01*
X660400Y336804D02*
Y343916D01*
X416814Y937260D02*
X423926D01*
X420370Y933704D02*
Y940816D01*
X435864Y909320D02*
X442976D01*
X439420Y905764D02*
Y912876D01*
X411734Y880110D02*
X418846D01*
X415290Y876554D02*
Y883666D01*
X506984Y825500D02*
X514096D01*
X510540Y821944D02*
Y829056D01*
X334264Y981710D02*
X341376D01*
X337820Y978154D02*
Y985266D01*
X326644Y910590D02*
X333756D01*
X330200Y907034D02*
Y914146D01*
X630174Y852170D02*
X637286D01*
X633730Y848614D02*
Y855726D01*
X458724Y905510D02*
X465836D01*
X462280Y901954D02*
Y909066D01*
X528574Y904240D02*
X535686D01*
X532130Y900684D02*
Y907796D01*
X414274Y843280D02*
X421386D01*
X417830Y839724D02*
Y846836D01*
X387604Y826770D02*
X394716D01*
X391160Y823214D02*
Y830326D01*
X317754Y820420D02*
X324866D01*
X321310Y816864D02*
Y823976D01*
X1050544Y869950D02*
X1057656D01*
X1054100Y866394D02*
Y873506D01*
X960374Y932180D02*
X967486D01*
X963930Y928624D02*
Y935736D01*
X767334Y901700D02*
X774446D01*
X770890Y898144D02*
Y905256D01*
X542544Y605790D02*
X549656D01*
X546100Y602234D02*
Y609346D01*
X564134Y670560D02*
X571246D01*
X567690Y667004D02*
Y674116D01*
X566674Y647700D02*
X573786D01*
X570230Y644144D02*
Y651256D01*
X566039Y628015D02*
X573151D01*
X569595Y624459D02*
Y631571D01*
X566674Y590550D02*
X573786D01*
X570230Y586994D02*
Y594106D01*
X533654Y579120D02*
X540766D01*
X537210Y575564D02*
Y582676D01*
X1216914Y725170D02*
X1224026D01*
X1220470Y721614D02*
Y728726D01*
X1181354Y756920D02*
X1188466D01*
X1184910Y753364D02*
Y760476D01*
X689864Y688340D02*
X696976D01*
X693420Y684784D02*
Y691896D01*
X835914Y862330D02*
X843026D01*
X839470Y858774D02*
Y865886D01*
X856234Y858520D02*
X863346D01*
X859790Y854964D02*
Y862076D01*
X807974Y909320D02*
X815086D01*
X811530Y905764D02*
Y912876D01*
X713994Y793750D02*
X721106D01*
X717550Y790194D02*
Y797306D01*
X828294Y897890D02*
X835406D01*
X831850Y894334D02*
Y901446D01*
X644144Y598170D02*
X651256D01*
X647700Y594614D02*
Y601726D01*
X736854Y537210D02*
X743966D01*
X740410Y533654D02*
Y540766D01*
X877824Y538480D02*
X884936D01*
X881380Y534924D02*
Y542036D01*
X881634Y557530D02*
X888746D01*
X885190Y553974D02*
Y561086D01*
X758444Y536331D02*
X765556D01*
X762000Y532775D02*
Y539887D01*
X762254Y504190D02*
X769366D01*
X765810Y500634D02*
Y507746D01*
X857504Y535940D02*
X864616D01*
X861060Y532384D02*
Y539496D01*
X647994Y665480D02*
X655106D01*
X651550Y661924D02*
Y669036D01*
X782574Y557941D02*
X789686D01*
X786130Y554385D02*
Y561497D01*
X782574Y537601D02*
X789686D01*
X786130Y534045D02*
Y541157D01*
X689864Y642620D02*
X696976D01*
X693420Y639064D02*
Y646176D01*
X874014Y868680D02*
X881126D01*
X877570Y865124D02*
Y872236D01*
X706374Y723900D02*
X713486D01*
X709930Y720344D02*
Y727456D01*
X713994Y772160D02*
X721106D01*
X717550Y768604D02*
Y775716D01*
X1180084Y669290D02*
X1187196D01*
X1183640Y665734D02*
Y672846D01*
X1282954Y671830D02*
X1290066D01*
X1286510Y668274D02*
Y675386D01*
X1185164Y572770D02*
X1192276D01*
X1188720Y569214D02*
Y576326D01*
X1171194Y557530D02*
X1178306D01*
X1174750Y553974D02*
Y561086D01*
X1229614Y619760D02*
X1236726D01*
X1233170Y616204D02*
Y623316D01*
X1211834Y605790D02*
X1218946D01*
X1215390Y602234D02*
Y609346D01*
X890524Y859790D02*
X897636D01*
X894080Y856234D02*
Y863346D01*
X1126744Y789940D02*
X1133856D01*
X1130300Y786384D02*
Y793496D01*
X1102614Y811530D02*
X1109726D01*
X1106170Y807974D02*
Y815086D01*
X1608074Y445770D02*
X1615186D01*
X1611630Y442214D02*
Y449326D01*
X1608074Y463550D02*
X1615186D01*
X1611630Y459994D02*
Y467106D01*
X782574Y576580D02*
X789686D01*
X786130Y573024D02*
Y580136D01*
X703834Y373380D02*
X710946D01*
X707390Y369824D02*
Y376936D01*
X781304Y445770D02*
X788416D01*
X784860Y442214D02*
Y449326D01*
X1157224Y543560D02*
X1164336D01*
X1160780Y540004D02*
Y547116D01*
X876554Y392430D02*
X883666D01*
X880110Y388874D02*
Y395986D01*
X865124Y403860D02*
X872236D01*
X868680Y400304D02*
Y407416D01*
X852424Y640080D02*
X859536D01*
X855980Y636524D02*
Y643636D01*
X782574Y595630D02*
X789686D01*
X786130Y592074D02*
Y599186D01*
X717804Y642620D02*
X724916D01*
X721360Y639064D02*
Y646176D01*
X1199134Y589280D02*
X1206246D01*
X1202690Y585724D02*
Y592836D01*
X448564Y800100D02*
X455676D01*
X452120Y796544D02*
Y803656D01*
X319024Y800100D02*
X326136D01*
X322580Y796544D02*
Y803656D01*
X376174Y918210D02*
X383286D01*
X379730Y914654D02*
Y921766D01*
X646684Y513080D02*
X653796D01*
X650240Y509524D02*
Y516636D01*
X959104Y712470D02*
X966216D01*
X962660Y708914D02*
Y716026D01*
X787654Y697230D02*
X794766D01*
X791210Y693674D02*
Y700786D01*
X960374Y812800D02*
X967486D01*
X963930Y809244D02*
Y816356D01*
X763524Y425450D02*
X770636D01*
X767080Y421894D02*
Y429006D01*
X1386384Y778510D02*
X1393496D01*
X1389940Y774954D02*
Y782066D01*
X585724Y486410D02*
X592836D01*
X589280Y482854D02*
Y489966D01*
X688594Y400050D02*
X695706D01*
X692150Y396494D02*
Y403606D01*
X443484Y518160D02*
X450596D01*
X447040Y514604D02*
Y521716D01*
X657790Y428150D02*
X660790D01*
X659290Y426650D02*
Y429650D01*
X657790Y438150D02*
X660790D01*
X659290Y436650D02*
Y439650D01*
X657790Y448150D02*
X660790D01*
X659290Y446650D02*
Y449650D01*
X667790Y428150D02*
X670790D01*
X669290Y426650D02*
Y429650D01*
X667790Y438150D02*
X670790D01*
X669290Y436650D02*
Y439650D01*
X667790Y448150D02*
X670790D01*
X669290Y446650D02*
Y449650D01*
X677790Y428150D02*
X680790D01*
X679290Y426650D02*
Y429650D01*
X677790Y438150D02*
X680790D01*
X679290Y436650D02*
Y439650D01*
X677790Y448150D02*
X680790D01*
X679290Y446650D02*
Y449650D01*
X451104Y412750D02*
X458216D01*
X454660Y409194D02*
Y416306D01*
X447294Y472440D02*
X454406D01*
X450850Y468884D02*
Y475996D01*
X1502664Y723900D02*
X1509776D01*
X1506220Y720344D02*
Y727456D01*
X1418844Y762000D02*
X1425956D01*
X1422400Y758444D02*
Y765556D01*
M02*
