G04*
G04 #@! TF.GenerationSoftware,Altium Limited,Altium Designer,24.1.2 (44)*
G04*
G04 Layer_Color=12632256*
%FSLAX44Y44*%
%MOMM*%
G71*
G04*
G04 #@! TF.SameCoordinates,0A8073CA-4D69-4BD4-B8E1-8B9189CEBFBB*
G04*
G04*
G04 #@! TF.FilePolarity,Positive*
G04*
G01*
G75*
%ADD72C,1.5700*%
%ADD73R,1.5700X1.5700*%
%ADD74C,9.5500*%
%ADD75C,1.3900*%
%ADD76R,1.3900X1.3900*%
%ADD77C,2.4200*%
%ADD78C,3.2500*%
D72*
X1733550Y359410D02*
D03*
X1722120Y491490D02*
D03*
D73*
X1733550Y334010D02*
D03*
X1722120Y516890D02*
D03*
D74*
X923290Y1202690D02*
D03*
X1710690D02*
D03*
X1532890D02*
D03*
X1316990D02*
D03*
X1139190D02*
D03*
X745490D02*
D03*
X529590D02*
D03*
X351790D02*
D03*
D75*
X419450Y403880D02*
D03*
Y380980D02*
D03*
Y495280D02*
D03*
Y518180D02*
D03*
X353450Y474980D02*
D03*
Y454580D02*
D03*
Y434180D02*
D03*
X371250Y485180D02*
D03*
Y464780D02*
D03*
Y444380D02*
D03*
Y423980D02*
D03*
D76*
X353450Y413780D02*
D03*
D77*
X362350Y368280D02*
D03*
Y530880D02*
D03*
D78*
X328050Y386080D02*
D03*
Y513080D02*
D03*
M02*
