G04*
G04 #@! TF.GenerationSoftware,Altium Limited,Altium Designer,24.1.2 (44)*
G04*
G04 Layer_Color=16711935*
%FSLAX44Y44*%
%MOMM*%
G71*
G04*
G04 #@! TF.SameCoordinates,0A8073CA-4D69-4BD4-B8E1-8B9189CEBFBB*
G04*
G04*
G04 #@! TF.FilePolarity,Positive*
G04*
G01*
G75*
%ADD14C,0.2000*%
%ADD87C,0.1000*%
%ADD90C,0.0500*%
D14*
X841929Y761810D02*
Y804872D01*
Y761810D02*
X867491D01*
Y804872D01*
X841929D02*
X867491D01*
X877460Y778965D02*
Y788215D01*
Y778965D02*
X882760D01*
Y788215D01*
X877460D02*
X882760D01*
X830661Y701099D02*
Y744161D01*
X805099D02*
X830661D01*
X805099Y701099D02*
Y744161D01*
Y701099D02*
X830661D01*
X793860Y718005D02*
Y727255D01*
X788560D02*
X793860D01*
X788560Y718005D02*
Y727255D01*
Y718005D02*
X793860D01*
X801790Y653610D02*
Y675610D01*
X790790D02*
X801790D01*
X790790Y653610D02*
Y675610D01*
Y653610D02*
X801790D01*
X868761Y653088D02*
Y696150D01*
X843199D02*
X868761D01*
X843199Y653088D02*
Y696150D01*
Y653088D02*
X868761D01*
X938090Y704010D02*
Y718010D01*
Y704010D02*
X946590D01*
Y718010D01*
X938090D02*
X946590D01*
X942450Y723250D02*
Y732500D01*
X937150D02*
X942450D01*
X937150Y723250D02*
Y732500D01*
Y723250D02*
X942450D01*
X928480Y723085D02*
Y732335D01*
X923180D02*
X928480D01*
X923180Y723085D02*
Y732335D01*
Y723085D02*
X928480D01*
X914510D02*
Y732335D01*
X909210D02*
X914510D01*
X909210Y723085D02*
Y732335D01*
Y723085D02*
X914510D01*
X909210Y707680D02*
Y716930D01*
Y707680D02*
X914510D01*
Y716930D01*
X909210D02*
X914510D01*
X923180Y708010D02*
Y717260D01*
Y708010D02*
X928480D01*
Y717260D01*
X923180D02*
X928480D01*
X939380Y795450D02*
Y817450D01*
Y795450D02*
X950380D01*
Y817450D01*
X939380D02*
X950380D01*
X713710Y519040D02*
X741710D01*
X713710Y502040D02*
Y519040D01*
Y502040D02*
X741710D01*
Y519040D01*
X725625Y403970D02*
X734875D01*
X725625Y398670D02*
Y403970D01*
Y398670D02*
X734875D01*
Y403970D01*
X725460Y444610D02*
X734710D01*
X725460Y439310D02*
Y444610D01*
Y439310D02*
X734710D01*
Y444610D01*
X725460Y463660D02*
X734710D01*
X725460Y458360D02*
Y463660D01*
Y458360D02*
X734710D01*
Y463660D01*
X725460Y480170D02*
X734710D01*
X725460Y474870D02*
Y480170D01*
Y474870D02*
X734710D01*
Y480170D01*
X725460Y424290D02*
X734710D01*
X725460Y418990D02*
Y424290D01*
Y418990D02*
X734710D01*
Y424290D01*
X663370Y385250D02*
X677370D01*
X663370Y376750D02*
Y385250D01*
Y376750D02*
X677370D01*
Y385250D01*
X663370Y404300D02*
X677370D01*
X663370Y395800D02*
Y404300D01*
Y395800D02*
X677370D01*
Y404300D01*
X503375Y440580D02*
X512625D01*
Y445880D01*
X503375D02*
X512625D01*
X503375Y440580D02*
Y445880D01*
X563770Y438605D02*
Y447855D01*
Y438605D02*
X569070D01*
Y447855D01*
X563770D02*
X569070D01*
X1379310Y730640D02*
Y747640D01*
X1407310D01*
Y730640D02*
Y747640D01*
X1379310Y730640D02*
X1407310D01*
X1409410Y798720D02*
Y804020D01*
X1400160Y798720D02*
X1409410D01*
X1400160D02*
Y804020D01*
X1409410D01*
Y784750D02*
Y790050D01*
X1400160Y784750D02*
X1409410D01*
X1400160D02*
Y790050D01*
X1409410D01*
X1419210Y717440D02*
Y722740D01*
X1428460D01*
Y717440D02*
Y722740D01*
X1419210Y717440D02*
X1428460D01*
X1422290Y731810D02*
X1427590D01*
X1422290D02*
Y741060D01*
X1427590D01*
Y731810D02*
Y741060D01*
D87*
X630000Y509270D02*
X640000D01*
X635000Y504270D02*
Y514270D01*
X614760Y508920D02*
X624760D01*
X619760Y503920D02*
Y513920D01*
X599520Y508920D02*
X609520D01*
X604520Y503920D02*
Y513920D01*
X584280Y508920D02*
X594280D01*
X589280Y503920D02*
Y513920D01*
X500460Y468630D02*
X510460D01*
X505460Y463630D02*
Y473630D01*
X500460Y417480D02*
X510460D01*
X505460Y412480D02*
Y422480D01*
X1453990Y762080D02*
Y772080D01*
X1448990Y767080D02*
X1458990D01*
D90*
X629000Y498270D02*
Y520270D01*
X641000Y498270D02*
Y520270D01*
X629000D02*
X641000D01*
X629000Y498270D02*
X641000D01*
X613760Y497920D02*
Y519920D01*
X625760Y497920D02*
Y519920D01*
X613760D02*
X625760D01*
X613760Y497920D02*
X625760D01*
X598520D02*
Y519920D01*
X610520Y497920D02*
Y519920D01*
X598520D02*
X610520D01*
X598520Y497920D02*
X610520D01*
X583280D02*
Y519920D01*
X595280Y497920D02*
Y519920D01*
X583280D02*
X595280D01*
X583280Y497920D02*
X595280D01*
X499460Y457630D02*
Y479630D01*
X511460Y457630D02*
Y479630D01*
X499460D02*
X511460D01*
X499460Y457630D02*
X511460D01*
X511460Y406480D02*
Y428480D01*
X499460Y406480D02*
Y428480D01*
Y406480D02*
X511460D01*
X499460Y428480D02*
X511460D01*
X1432990Y754580D02*
X1474990D01*
X1432990Y779580D02*
X1474990D01*
X1432990Y754580D02*
Y779580D01*
X1474990Y754580D02*
Y779580D01*
M02*
